<?xml version="1.0" encoding="UTF-8"?>
<svg version="1.1" xmlns="http://www.w3.org/2000/svg" width="644" height="242">
<path d="M0 0 C1.57587891 1.10601562 1.57587891 1.10601562 3.18359375 2.234375 C26.00268562 18.8410979 41.02314552 38.2061396 55.0625 62.375 C55.84021166 63.7084985 56.61820545 65.0418325 57.39648438 66.375 C59.26755736 69.58145629 61.13487874 72.79007717 63 76 C64.46468543 73.56612911 65.92301197 71.12894546 67.375 68.6875 C67.82182129 67.93654053 68.26864258 67.18558105 68.72900391 66.41186523 C72.63461132 59.77342549 76.20284964 52.98348014 79.59912109 46.07104492 C79.98664551 45.30638916 80.37416992 44.5417334 80.7734375 43.75390625 C81.10778809 43.07658447 81.44213867 42.3992627 81.78662109 41.70141602 C83.25965608 39.6359068 84.68051913 38.95402421 87 38 C87.40259037 40.01949805 87.79613289 42.04079696 88.1875 44.0625 C88.38605591 45.07316528 88.38605591 45.07316528 88.58862305 46.10424805 C89.45268181 50.64771257 90.18461454 55.19500298 90.81455994 59.77723694 C91.20132259 62.58311167 91.60778068 65.38603786 92.01382446 68.18917847 C92.21269589 69.60298014 92.40183587 71.01818536 92.58114624 72.43460083 C92.83817819 74.45676484 93.12866242 76.47167226 93.42578125 78.48828125 C93.58473877 79.66946533 93.74369629 80.85064941 93.9074707 82.06762695 C94.76753946 85.29484145 94.76753946 85.29484145 98.09838867 86.90698242 C99.05592041 87.26767822 100.01345215 87.62837402 101 88 C101 88.99 101 89.98 101 91 C97.4775246 92.07918977 94.17240199 92.16644265 90.5 92.1875 C88.81390625 92.20876953 88.81390625 92.20876953 87.09375 92.23046875 C84.13023944 92.00970218 82.4932585 91.5460647 80 90 C82.21934164 86.67098753 83.34683329 86.24976756 87 85 C85.69637906 69.89801581 85.69637906 69.89801581 83 55 C80.30950307 58.30984779 78.43773809 61.89164739 76.56640625 65.69921875 C75.91140229 67.00355417 75.25578506 68.30758177 74.59960938 69.61132812 C73.57523377 71.65589017 72.55524581 73.70224352 71.5456543 75.75415039 C70.56497872 77.74232709 69.56724654 79.72113347 68.56640625 81.69921875 C68.26835587 82.31584885 67.97030548 82.93247894 67.66322327 83.5677948 C65.49880777 87.799436 65.49880777 87.799436 62.77709961 88.89379883 C62.19065674 88.92884521 61.60421387 88.9638916 61 89 C60.53851562 88.18660156 60.07703125 87.37320313 59.6015625 86.53515625 C56.53983444 81.15595419 53.47399841 75.78233892 50.3125 70.4609375 C49.86567871 69.70804443 49.41885742 68.95515137 48.95849609 68.17944336 C48.08428689 66.70967713 47.20710983 65.24167122 46.32666016 63.77563477 C44.23728896 60.26101096 42.37361938 56.87179528 41 53 C40.34 53 39.68 53 39 53 C39 63.56 39 74.12 39 85 C40.98 85.99 42.96 86.98 45 88 C45 88.99 45 89.98 45 91 C38.43507888 91.78441153 32.53162622 92.10914408 26 91 C26.33 89.68 26.66 88.36 27 87 C28.32 86.67 29.64 86.34 31 86 C31.5124004 81.77224241 32.00755756 77.54262493 32.5 73.3125 C32.64308594 72.13365234 32.78617188 70.95480469 32.93359375 69.74023438 C35.50560638 55.54717309 35.50560638 55.54717309 31.91015625 42.421875 C30.97042969 41.54015625 30.03070312 40.6584375 29.0625 39.75 C28.55887939 39.26023682 28.05525879 38.77047363 27.53637695 38.26586914 C26.51836302 37.27940157 25.48779041 36.30570869 24.44433594 35.34619141 C22.4286751 33.46749738 20.57571299 31.44328097 18.6875 29.4375 C-33.88184704 -22.47237494 -112.0228656 -37.20289006 -183 -37 C-249.87650825 -36.02723829 -318.2634518 -19.3584606 -367.4375 28.125 C-374.87282576 35.21304731 -374.87282576 35.21304731 -378.08618164 44.50976562 C-377.98684326 45.42435547 -377.88750488 46.33894531 -377.78515625 47.28125 C-377.67212158 48.33618652 -377.55908691 49.39112305 -377.44262695 50.47802734 C-377.29656006 51.64027832 -377.15049316 52.8025293 -377 54 C-376.84168701 55.26924316 -376.68337402 56.53848633 -376.52026367 57.84619141 C-376.07809606 61.25118032 -375.58260455 64.64606946 -375.06298828 68.04003906 C-374.85185389 69.44650371 -374.65057117 70.85447788 -374.45849609 72.26367188 C-374.17650649 74.3281201 -373.86519744 76.38619383 -373.546875 78.4453125 C-373.28148926 80.26313232 -373.28148926 80.26313232 -373.01074219 82.11767578 C-372.28528185 85.18036018 -372.28528185 85.18036018 -369.59765625 86.41113281 C-366.26445892 87.16674108 -364.24949221 87.09780142 -361 86 C-359.0770988 83.61574952 -359.0770988 83.61574952 -357.75 80.375 C-357.47188477 79.77977539 -357.19376953 79.18455078 -356.90722656 78.57128906 C-354.99831262 74.42674717 -353.23339739 70.21783797 -351.4375 66.0234375 C-350.9930957 64.98912598 -350.54869141 63.95481445 -350.09082031 62.88916016 C-349.20397292 60.81285212 -348.32811721 58.73181135 -347.46386719 56.64599609 C-347.05813477 55.68516113 -346.65240234 54.72432617 -346.234375 53.734375 C-345.87569336 52.87038086 -345.51701172 52.00638672 -345.14746094 51.11621094 C-344 49 -344 49 -341 47 C-338.88078056 49.64976998 -337.40982234 52.07123122 -336.203125 55.23828125 C-335.88802979 56.05192139 -335.57293457 56.86556152 -335.24829102 57.70385742 C-334.91885498 58.56470947 -334.58941895 59.42556152 -334.25 60.3125 C-333.53734595 62.10764167 -332.82247575 63.90190502 -332.10546875 65.6953125 C-331.08548778 68.25336 -330.07159142 70.81183665 -329.09228516 73.38574219 C-326.44130293 81.51979202 -326.44130293 81.51979202 -320.66796875 87.140625 C-318.29178143 87.43237013 -316.35829125 87.36105622 -314 87 C-313.01 87 -312.02 87 -311 87 C-311 75.12 -311 63.24 -311 51 C-312.65 50.67 -314.3 50.34 -316 50 C-316 49.01 -316 48.02 -316 47 C-311.72940439 46.88234027 -307.45923403 46.81226369 -303.1875 46.75 C-301.99189453 46.71648437 -300.79628906 46.68296875 -299.56445312 46.6484375 C-291.24906968 46.55780662 -282.55102495 47.01806137 -275.9987793 52.75097656 C-270.32986478 58.87464528 -269.58236016 64.75877731 -269.765625 72.9140625 C-270.31709073 80.17502795 -274.32833624 83.57698848 -279.453125 88.265625 C-285.59782463 92.45005236 -292.13722344 92.27522786 -299.30859375 92.1953125 C-300.75867577 92.19106766 -300.75867577 92.19106766 -302.23805237 92.18673706 C-305.30466452 92.17560407 -308.37097715 92.15051224 -311.4375 92.125 C-313.52538639 92.11496131 -315.61327738 92.10583701 -317.70117188 92.09765625 C-322.80089544 92.07568727 -327.90039705 92.04120507 -333 92 C-333 90.68 -333 89.36 -333 88 C-332.34 87.67 -331.68 87.34 -331 87 C-331.20496094 86.38511719 -331.40992188 85.77023438 -331.62109375 85.13671875 C-332.74739583 81.7578125 -333.87369792 78.37890625 -335 75 C-339.62 75 -344.24 75 -349 75 C-350.65 78.63 -352.3 82.26 -354 86 C-352.515 86.99 -352.515 86.99 -351 88 C-351 89.32 -351 90.64 -351 92 C-355.80549747 92.02468447 -360.61095818 92.04285255 -365.41650391 92.05493164 C-367.05192711 92.05996621 -368.6873458 92.06679427 -370.32275391 92.07543945 C-372.67090975 92.08754335 -375.01900619 92.093237 -377.3671875 92.09765625 C-378.46726639 92.10539818 -378.46726639 92.10539818 -379.58956909 92.11329651 C-384.77225659 92.11387171 -384.77225659 92.11387171 -387 91 C-386.25 89.0625 -386.25 89.0625 -385 87 C-382.921875 86.37109375 -382.921875 86.37109375 -381 86 C-380.83643844 79.30079127 -381.42397869 73.0438831 -382.5 66.4375 C-382.64308594 65.52419922 -382.78617188 64.61089844 -382.93359375 63.66992188 C-383.28296798 61.44557264 -383.63851822 59.2224079 -384 57 C-386.69644152 59.39964932 -388.15019923 61.90642337 -389.77734375 65.11328125 C-390.29103516 66.11423828 -390.80472656 67.11519531 -391.33398438 68.14648438 C-391.86314453 69.19126953 -392.39230469 70.23605469 -392.9375 71.3125 C-399.28814935 83.80340909 -399.28814935 83.80340909 -403 89 C-404.85864258 88.70556641 -404.85864258 88.70556641 -407 88 C-408.73338093 85.47926296 -410.22206937 83.04502503 -411.6875 80.375 C-412.56300939 78.83158132 -413.43932951 77.28862229 -414.31640625 75.74609375 C-414.75871582 74.95960449 -415.20102539 74.17311523 -415.65673828 73.36279297 C-417.74901323 69.68248818 -419.93503272 66.06023452 -422.125 62.4375 C-422.87774942 61.18628529 -423.63036798 59.93499184 -424.3828125 58.68359375 C-424.91648437 57.79800781 -425.45015625 56.91242188 -426 56 C-429.69097328 59.69097328 -428.0558615 70.80727341 -428.06811523 75.921875 C-428.06001208 79.28151321 -428.03582365 82.64053736 -428 86 C-426.02 86.66 -424.04 87.32 -422 88 C-422 89.32 -422 90.64 -422 92 C-427.94 92 -433.88 92 -440 92 C-440.33 90.68 -440.66 89.36 -441 88 C-439.35 87.67 -437.7 87.34 -436 87 C-435.91959473 85.97229492 -435.83918945 84.94458984 -435.75634766 83.88574219 C-435.45219658 80.01617258 -435.1411252 76.14718334 -434.828125 72.27832031 C-434.6944462 70.61440484 -434.56256155 68.95034409 -434.43261719 67.28613281 C-432.69545452 45.07717625 -432.69545452 45.07717625 -431 39 C-430.01 38.505 -430.01 38.505 -429 38 C-424.68889603 39.43703466 -423.56379789 42.66654951 -421.4375 46.4375 C-421.00493896 47.18725098 -420.57237793 47.93700195 -420.12670898 48.70947266 C-417.78297022 52.79145967 -415.49531379 56.90329019 -413.2265625 61.02734375 C-412.55669312 62.24369507 -412.55669312 62.24369507 -411.87329102 63.48461914 C-411.01369655 65.05219027 -410.15980582 66.62290556 -409.31225586 68.19702148 C-408.92175049 68.91317627 -408.53124512 69.62933105 -408.12890625 70.3671875 C-407.78931885 70.99737793 -407.44973145 71.62756836 -407.09985352 72.27685547 C-405.92287094 74.12083839 -404.5969267 75.51288162 -403 77 C-401.33059143 73.8347718 -399.6646292 70.66774424 -398 67.5 C-397.50032715 66.5497998 -397.0006543 65.59959961 -396.48583984 64.62060547 C-393.12685517 58.21132283 -389.8404416 51.77261118 -386.7265625 45.24023438 C-384.54915799 40.77363897 -382.06068286 36.89813354 -379 33 C-378.34 33 -377.68 33 -377 33 C-376.75121094 32.43667969 -376.50242187 31.87335938 -376.24609375 31.29296875 C-371.4625433 22.4906361 -362.76782812 16.02676319 -355 10 C-353.95498544 9.16629596 -352.91073225 8.33163682 -351.8671875 7.49609375 C-339.83898529 -2.05276267 -326.87752069 -9.49636259 -313 -16 C-312.16210938 -16.39477539 -311.32421875 -16.78955078 -310.4609375 -17.19628906 C-220.08156067 -59.32282804 -90.82191117 -60.73075651 0 0 Z M-305 51 C-305.09901748 55.62640153 -305.17153649 60.25218387 -305.21972656 64.87939453 C-305.2398188 66.45274604 -305.26709799 68.02602308 -305.30175781 69.59912109 C-305.35038494 71.86314272 -305.37299135 74.12617573 -305.390625 76.390625 C-305.41127014 77.09181458 -305.43191528 77.79300415 -305.45318604 78.51544189 C-305.45474493 81.92288096 -305.23242772 83.69372934 -303.14648438 86.44238281 C-298.9489664 89.48835241 -293.9370039 88.62029023 -289 88 C-284.5029834 86.70892104 -281.73646235 84.7931133 -278.5625 81.375 C-275.54344685 74.85384519 -275.31647996 67.97484108 -277.14453125 61.04296875 C-278.6088356 57.54602275 -280.83575071 55.06217101 -284 53 C-288.68523957 51.0940585 -292.88027068 50.7491638 -297.875 50.875 C-298.90753906 50.88853516 -298.90753906 50.88853516 -299.9609375 50.90234375 C-301.64077838 50.92567487 -303.32043746 50.96153674 -305 51 Z M-342 58 C-342.83819158 59.62249941 -343.6704116 61.24808497 -344.5 62.875 C-344.9640625 63.77992188 -345.428125 64.68484375 -345.90625 65.6171875 C-347.13905589 67.86596859 -347.13905589 67.86596859 -347 70 C-343.7 70 -340.4 70 -337 70 C-337.45375 68.576875 -337.9075 67.15375 -338.375 65.6875 C-338.63023437 64.88699219 -338.88546875 64.08648437 -339.1484375 63.26171875 C-339.98831811 60.77275472 -339.98831811 60.77275472 -342 58 Z " fill="#BDBEBF" transform="translate(499,67)"/>
<path d="M0 0 C-0.474375 0.45375 -0.94875 0.9075 -1.4375 1.375 C-3.09027808 2.93258204 -3.09027808 2.93258204 -4 5 C-6.1328125 6.0078125 -6.1328125 6.0078125 -9.125 7.125 C-10.89037109 7.78628906 -10.89037109 7.78628906 -12.69140625 8.4609375 C-15.87291115 9.61274395 -19.0711813 10.70792136 -22.27734375 11.7890625 C-55.52931108 23.02703551 -98.81815039 41.71468295 -117.96362305 73.49316406 C-119.17808214 76.43075323 -119.12679753 78.13582277 -118.78515625 81.28125 C-118.67212158 82.33618652 -118.55908691 83.39112305 -118.44262695 84.47802734 C-118.29656006 85.64027832 -118.15049316 86.8025293 -118 88 C-117.84168701 89.26924316 -117.68337402 90.53848633 -117.52026367 91.84619141 C-117.07809606 95.25118032 -116.58260455 98.64606946 -116.06298828 102.04003906 C-115.85185389 103.44650371 -115.65057117 104.85447788 -115.45849609 106.26367188 C-115.17650649 108.3281201 -114.86519744 110.38619383 -114.546875 112.4453125 C-114.28148926 114.26313232 -114.28148926 114.26313232 -114.01074219 116.11767578 C-113.28528185 119.18036018 -113.28528185 119.18036018 -110.59765625 120.41113281 C-107.26445892 121.16674108 -105.24949221 121.09780142 -102 120 C-100.0770988 117.61574952 -100.0770988 117.61574952 -98.75 114.375 C-98.47188477 113.77977539 -98.19376953 113.18455078 -97.90722656 112.57128906 C-95.99831262 108.42674717 -94.23339739 104.21783797 -92.4375 100.0234375 C-91.9930957 98.98912598 -91.54869141 97.95481445 -91.09082031 96.88916016 C-90.20397292 94.81285212 -89.32811721 92.73181135 -88.46386719 90.64599609 C-88.05813477 89.68516113 -87.65240234 88.72432617 -87.234375 87.734375 C-86.87569336 86.87038086 -86.51701172 86.00638672 -86.14746094 85.11621094 C-85 83 -85 83 -82 81 C-79.88078056 83.64976998 -78.40982234 86.07123122 -77.203125 89.23828125 C-76.88802979 90.05192139 -76.57293457 90.86556152 -76.24829102 91.70385742 C-75.91885498 92.56470947 -75.58941895 93.42556152 -75.25 94.3125 C-74.53734595 96.10764167 -73.82247575 97.90190502 -73.10546875 99.6953125 C-72.08548778 102.25336 -71.07159142 104.81183665 -70.09228516 107.38574219 C-67.44130293 115.51979202 -67.44130293 115.51979202 -61.66796875 121.140625 C-59.29178143 121.43237013 -57.35829125 121.36105622 -55 121 C-54.01 121 -53.02 121 -52 121 C-52 109.12 -52 97.24 -52 85 C-53.65 84.67 -55.3 84.34 -57 84 C-57 83.01 -57 82.02 -57 81 C-52.72940439 80.88234027 -48.45923403 80.81226369 -44.1875 80.75 C-42.99189453 80.71648437 -41.79628906 80.68296875 -40.56445312 80.6484375 C-32.24906968 80.55780662 -23.55102495 81.01806137 -16.9987793 86.75097656 C-11.32986478 92.87464528 -10.58236016 98.75877731 -10.765625 106.9140625 C-11.31709073 114.17502795 -15.32833624 117.57698848 -20.453125 122.265625 C-26.59782463 126.45005236 -33.13722344 126.27522786 -40.30859375 126.1953125 C-41.75867577 126.19106766 -41.75867577 126.19106766 -43.23805237 126.18673706 C-46.30466452 126.17560407 -49.37097715 126.15051224 -52.4375 126.125 C-54.52538639 126.11496131 -56.61327738 126.10583701 -58.70117188 126.09765625 C-63.80089544 126.07568727 -68.90039705 126.04120507 -74 126 C-74 124.68 -74 123.36 -74 122 C-73.34 121.67 -72.68 121.34 -72 121 C-72.20496094 120.38511719 -72.40992188 119.77023438 -72.62109375 119.13671875 C-73.74739583 115.7578125 -74.87369792 112.37890625 -76 109 C-80.62 109 -85.24 109 -90 109 C-91.65 112.63 -93.3 116.26 -95 120 C-93.515 120.99 -93.515 120.99 -92 122 C-92 123.32 -92 124.64 -92 126 C-96.80549747 126.02468447 -101.61095818 126.04285255 -106.41650391 126.05493164 C-108.05192711 126.05996621 -109.6873458 126.06679427 -111.32275391 126.07543945 C-113.67090975 126.08754335 -116.01900619 126.093237 -118.3671875 126.09765625 C-119.46726639 126.10539818 -119.46726639 126.10539818 -120.58956909 126.11329651 C-125.77225659 126.11387171 -125.77225659 126.11387171 -128 125 C-127.25 123.0625 -127.25 123.0625 -126 121 C-123.921875 120.37109375 -123.921875 120.37109375 -122 120 C-121.83643844 113.30079127 -122.42397869 107.0438831 -123.5 100.4375 C-123.64308594 99.52419922 -123.78617188 98.61089844 -123.93359375 97.66992188 C-124.28296798 95.44557264 -124.63851822 93.2224079 -125 91 C-127.69644152 93.39964932 -129.15019923 95.90642337 -130.77734375 99.11328125 C-131.29103516 100.11423828 -131.80472656 101.11519531 -132.33398438 102.14648438 C-132.86314453 103.19126953 -133.39230469 104.23605469 -133.9375 105.3125 C-140.28814935 117.80340909 -140.28814935 117.80340909 -144 123 C-145.85864258 122.70556641 -145.85864258 122.70556641 -148 122 C-149.73338093 119.47926296 -151.22206937 117.04502503 -152.6875 114.375 C-153.56300939 112.83158132 -154.43932951 111.28862229 -155.31640625 109.74609375 C-155.75871582 108.95960449 -156.20102539 108.17311523 -156.65673828 107.36279297 C-158.74901323 103.68248818 -160.93503272 100.06023452 -163.125 96.4375 C-163.87774942 95.18628529 -164.63036798 93.93499184 -165.3828125 92.68359375 C-165.91648437 91.79800781 -166.45015625 90.91242188 -167 90 C-170.69097328 93.69097328 -169.0558615 104.80727341 -169.06811523 109.921875 C-169.06001208 113.28151321 -169.03582365 116.64053736 -169 120 C-167.02 120.66 -165.04 121.32 -163 122 C-163 123.32 -163 124.64 -163 126 C-168.94 126 -174.88 126 -181 126 C-181.33 124.68 -181.66 123.36 -182 122 C-179.525 121.505 -179.525 121.505 -177 121 C-176.87939209 119.45844238 -176.87939209 119.45844238 -176.75634766 117.88574219 C-176.45219658 114.01617258 -176.1411252 110.14718334 -175.828125 106.27832031 C-175.6944462 104.61440484 -175.56256155 102.95034409 -175.43261719 101.28613281 C-173.69545452 79.07717625 -173.69545452 79.07717625 -172 73 C-171.01 72.505 -171.01 72.505 -170 72 C-165.68889603 73.43703466 -164.56379789 76.66654951 -162.4375 80.4375 C-162.00493896 81.18725098 -161.57237793 81.93700195 -161.12670898 82.70947266 C-158.78297022 86.79145967 -156.49531379 90.90329019 -154.2265625 95.02734375 C-153.55669312 96.24369507 -153.55669312 96.24369507 -152.87329102 97.48461914 C-152.01369655 99.05219027 -151.15980582 100.62290556 -150.31225586 102.19702148 C-149.92175049 102.91317627 -149.53124512 103.62933105 -149.12890625 104.3671875 C-148.78931885 104.99737793 -148.44973145 105.62756836 -148.09985352 106.27685547 C-146.92287094 108.12083839 -145.5969267 109.51288162 -144 111 C-142.33059143 107.8347718 -140.6646292 104.66774424 -139 101.5 C-138.50032715 100.5497998 -138.0006543 99.59959961 -137.48583984 98.62060547 C-134.12685517 92.21132283 -130.8404416 85.77261118 -127.7265625 79.24023438 C-125.54915799 74.77363897 -123.06068286 70.89813354 -120 67 C-119.34 67 -118.68 67 -118 67 C-117.75121094 66.43667969 -117.50242187 65.87335938 -117.24609375 65.29296875 C-112.4625433 56.4906361 -103.76782812 50.02676319 -96 44 C-94.95498544 43.16629596 -93.91073225 42.33163682 -92.8671875 41.49609375 C-80.83898529 31.94723733 -67.87752069 24.50363741 -54 18 C-53.16210938 17.60522461 -52.32421875 17.21044922 -51.4609375 16.80371094 C-40.16518861 11.53867346 -28.78664181 7.05705308 -16.875 3.375 C-15.21235107 2.86066406 -15.21235107 2.86066406 -13.51611328 2.3359375 C-8.86136115 0.95012201 -4.89050852 -0.19747373 0 0 Z M-46 85 C-46.09901748 89.62640153 -46.17153649 94.25218387 -46.21972656 98.87939453 C-46.2398188 100.45274604 -46.26709799 102.02602308 -46.30175781 103.59912109 C-46.35038494 105.86314272 -46.37299135 108.12617573 -46.390625 110.390625 C-46.41127014 111.09181458 -46.43191528 111.79300415 -46.45318604 112.51544189 C-46.45474493 115.92288096 -46.23242772 117.69372934 -44.14648438 120.44238281 C-39.9489664 123.48835241 -34.9370039 122.62029023 -30 122 C-25.5029834 120.70892104 -22.73646235 118.7931133 -19.5625 115.375 C-16.54344685 108.85384519 -16.31647996 101.97484108 -18.14453125 95.04296875 C-19.6088356 91.54602275 -21.83575071 89.06217101 -25 87 C-29.68523957 85.0940585 -33.88027068 84.7491638 -38.875 84.875 C-39.90753906 84.88853516 -39.90753906 84.88853516 -40.9609375 84.90234375 C-42.64077838 84.92567487 -44.32043746 84.96153674 -46 85 Z M-83 92 C-83.83819158 93.62249941 -84.6704116 95.24808497 -85.5 96.875 C-85.9640625 97.77992188 -86.428125 98.68484375 -86.90625 99.6171875 C-88.13905589 101.86596859 -88.13905589 101.86596859 -88 104 C-84.7 104 -81.4 104 -78 104 C-78.45375 102.576875 -78.9075 101.15375 -79.375 99.6875 C-79.63023437 98.88699219 -79.88546875 98.08648437 -80.1484375 97.26171875 C-80.98831811 94.77275472 -80.98831811 94.77275472 -83 92 Z " fill="#B8B8B9" transform="translate(240,33)"/>
<path d="M0 0 C-0.3125 1.9375 -0.3125 1.9375 -1 4 C-1.99 4.33 -2.98 4.66 -4 5 C-4.33 18.2 -4.66 31.4 -5 45 C-9.58469761 43.8538256 -11.22836994 41.96900118 -14.1875 38.5625 C-14.66944824 38.02189941 -15.15139648 37.48129883 -15.64794922 36.92431641 C-16.634824 35.8164006 -17.6182351 34.70538973 -18.59814453 33.59130859 C-20.58667171 31.3340428 -22.60694104 29.10585955 -24.625 26.875 C-26.06875 25.26625 -27.5125 23.6575 -29 22 C-31.97 18.7 -34.94 15.4 -38 12 C-38 20.91 -38 29.82 -38 39 C-36.02 39.99 -34.04 40.98 -32 42 C-32.33 42.99 -32.66 43.98 -33 45 C-43.23 45 -53.46 45 -64 45 C-64 43.68 -64 42.36 -64 41 C-63.01 41 -62.02 41 -61 41 C-61.54140625 39.73542969 -61.54140625 39.73542969 -62.09375 38.4453125 C-62.5578125 37.34960938 -63.021875 36.25390625 -63.5 35.125 C-63.9640625 34.03445312 -64.428125 32.94390625 -64.90625 31.8203125 C-66 29 -66 29 -66 27 C-70.95 27 -75.9 27 -81 27 C-81.495 28.4025 -81.99 29.805 -82.5 31.25 C-82.7784375 32.03890625 -83.056875 32.8278125 -83.34375 33.640625 C-84.17864861 36.23412738 -84.17864861 36.23412738 -84 40 C-83.34 40.33 -82.68 40.66 -82 41 C-82 42.32 -82 43.64 -82 45 C-86.95 45 -91.9 45 -97 45 C-97 43.68 -97 42.36 -97 41 C-96.113125 40.731875 -95.22625 40.46375 -94.3125 40.1875 C-90.74502183 37.83161819 -90.2773901 36.98839724 -88.67578125 33.21484375 C-88.24837646 32.22943604 -87.82097168 31.24402832 -87.38061523 30.22875977 C-86.92501221 29.16326904 -86.46940918 28.09777832 -86 27 C-83.97700831 22.44985779 -81.92630791 17.91243171 -79.875 13.375 C-79.35035156 12.19292969 -78.82570313 11.01085937 -78.28515625 9.79296875 C-77.77597656 8.67277344 -77.26679688 7.55257812 -76.7421875 6.3984375 C-76.2869873 5.38442871 -75.83178711 4.37041992 -75.36279297 3.32568359 C-74 1 -74 1 -71 0 C-70.62713867 0.8971875 -70.25427734 1.794375 -69.87011719 2.71875 C-68.47145796 6.08209211 -67.06903224 9.4438532 -65.66552734 12.80517578 C-65.06132607 14.25364764 -64.45811487 15.70253293 -63.85595703 17.15185547 C-59.48737836 30.61282431 -59.48737836 30.61282431 -51.0625 40.5625 C-47.66429082 41.22130227 -47.66429082 41.22130227 -43 40 C-43.33 27.13 -43.66 14.26 -44 1 C-40 1 -40 1 -37.73828125 2.80078125 C-32.59539507 8.12586308 -27.79321248 13.58606988 -23.18359375 19.37890625 C-20.47239455 22.63331531 -17.52094019 25.54664282 -14.43359375 28.44140625 C-13 30 -13 30 -13 32 C-12.34 32 -11.68 32 -11 32 C-8.89153016 18.23013829 -8.89153016 18.23013829 -11 5 C-12.64363134 4.27840576 -14.31050386 3.60648579 -16 3 C-16 2.01 -16 1.02 -16 0 C-10.49983036 -1.30267176 -5.52967941 -0.71033431 0 0 Z M-74 11 C-76.475 16.94 -76.475 16.94 -79 23 C-75.37 23 -71.74 23 -68 23 C-68.79809911 19.80760355 -69.58637126 17.60702336 -71.0625 14.75 C-71.60583984 13.69039062 -71.60583984 13.69039062 -72.16015625 12.609375 C-72.43730469 12.07828125 -72.71445312 11.5471875 -73 11 C-73.33 11 -73.66 11 -74 11 Z " fill="#BCBEBE" transform="translate(475,114)"/>
<path d="M0 0 C24.56747533 -0.4553714 48.83840885 1.12445634 73.09375 5.06201172 C72.43375 6.71201172 71.77375 8.36201172 71.09375 10.06201172 C70.43375 10.06201172 69.77375 10.06201172 69.09375 10.06201172 C68.76375 10.72201172 68.43375 11.38201172 68.09375 12.06201172 C59.81850607 11.52355407 51.62148983 10.67594254 43.40625 9.56201172 C30.66282479 8.02427463 18.03099954 7.90633626 5.20947266 7.93164062 C1.96902819 7.93701126 -1.27127842 7.93166311 -4.51171875 7.92529297 C-6.60416697 7.92595367 -8.6966151 7.92723467 -10.7890625 7.92919922 C-11.74144806 7.92717499 -12.69383362 7.92515076 -13.67507935 7.92306519 C-19.35214185 7.94255431 -24.93083773 8.25917318 -30.57917786 8.83496094 C-33.21498519 9.09213479 -35.82070345 9.19573675 -38.46875 9.18701172 C-39.67724609 9.19087891 -39.67724609 9.19087891 -40.91015625 9.19482422 C-42.90625 9.06201172 -42.90625 9.06201172 -44.90625 8.06201172 C-44.90625 8.72201172 -44.90625 9.38201172 -44.90625 10.06201172 C-46.22625 10.06201172 -47.54625 10.06201172 -48.90625 10.06201172 C-48.90625 9.40201172 -48.90625 8.74201172 -48.90625 8.06201172 C-50.55625 7.73201172 -52.20625 7.40201172 -53.90625 7.06201172 C-53.90625 6.40201172 -53.90625 5.74201172 -53.90625 5.06201172 C-17.24818358 0.3680308 -17.24818358 0.3680308 0 0 Z " fill="#BCBDBE" transform="translate(321.90625,20.93798828125)"/>
<path d="M0 0 C0 0.99 0 1.98 0 3 C-1.65 3.66 -3.3 4.32 -5 5 C-5.33 18.2 -5.66 31.4 -6 45 C-13.45702148 41.27148926 -18.78807833 34.38151166 -24.171875 28.1171875 C-26.33434716 25.61278599 -28.53849539 23.14869062 -30.75 20.6875 C-31.48734375 19.86636719 -32.2246875 19.04523438 -32.984375 18.19921875 C-34.61768836 16.4171346 -36.28439605 14.70127676 -38 13 C-38.19625099 16.95795086 -38.38051982 20.91636935 -38.5625 24.875 C-38.61857422 26.00292969 -38.67464844 27.13085938 -38.73242188 28.29296875 C-38.78076172 29.36933594 -38.82910156 30.44570312 -38.87890625 31.5546875 C-38.9260376 32.54968262 -38.97316895 33.54467773 -39.02172852 34.56982422 C-39.17780982 37.0103794 -39.17780982 37.0103794 -38 39 C-36.02477154 40.04808041 -34.02518491 41.0520411 -32 42 C-32.66 42.99 -33.32 43.98 -34 45 C-37.1875 45.328125 -37.1875 45.328125 -41 45.25 C-42.258125 45.23453125 -43.51625 45.2190625 -44.8125 45.203125 C-48 45 -48 45 -50 44 C-49.1875 42.0625 -49.1875 42.0625 -48 40 C-46.515 39.505 -46.515 39.505 -45 39 C-45 26.46 -45 13.92 -45 1 C-43.68 0.67 -42.36 0.34 -41 0 C-20.33168583 22.00494252 -20.33168583 22.00494252 -19 26 C-18.34 26 -17.68 26 -17 26 C-15.02 28.31 -13.04 30.62 -11 33 C-11 23.43 -11 13.86 -11 4 C-12.98 3.67 -14.96 3.34 -17 3 C-17 2.01 -17 1.02 -17 0 C-11.1314592 -1.14819277 -5.9114744 -0.77313045 0 0 Z " fill="#BDBEBE" transform="translate(356,114)"/>
<path d="M0 0 C8.91 0 17.82 0 27 0 C27 2.64 27 5.28 27 8 C26.01 8 25.02 8 24 8 C24 7.01 24 6.02 24 5 C20.04 5 16.08 5 12 5 C11.67 9.95 11.34 14.9 11 20 C15.29 20 19.58 20 24 20 C24.33 18.68 24.66 17.36 25 16 C25.99 16.33 26.98 16.66 28 17 C28 20.3 28 23.6 28 27 C25 27 25 27 22 25 C19.25481679 24.75812349 19.25481679 24.75812349 16.3125 24.875 C15.31863281 24.89304688 14.32476562 24.91109375 13.30078125 24.9296875 C12.54152344 24.95289063 11.78226562 24.97609375 11 25 C11.14133499 26.77119803 11.28823208 28.54195287 11.4375 30.3125 C11.51871094 31.29863281 11.59992188 32.28476563 11.68359375 33.30078125 C11.91812559 36.09375599 11.91812559 36.09375599 13 39 C17.95 39 22.9 39 28 39 C28.33 37.68 28.66 36.36 29 35 C29.99 35 30.98 35 32 35 C31.85950482 36.47968324 31.71245174 37.95874516 31.5625 39.4375 C31.48128906 40.26121094 31.40007812 41.08492187 31.31640625 41.93359375 C31 44 31 44 30 45 C27.70848583 45.08790975 25.41427476 45.10694038 23.12109375 45.09765625 C22.09110008 45.09553383 22.09110008 45.09553383 21.04029846 45.09336853 C18.83932199 45.08775479 16.63844591 45.07520007 14.4375 45.0625 C12.94856917 45.05748676 11.45963676 45.05292355 9.97070312 45.04882812 C6.31376925 45.03778093 2.65689442 45.02050713 -1 45 C-0.67 43.68 -0.34 42.36 0 41 C1.65 41 3.3 41 5 41 C5 28.79 5 16.58 5 4 C3.35 3.67 1.7 3.34 0 3 C0 2.01 0 1.02 0 0 Z " fill="#BCBEBD" transform="translate(269,114)"/>
<path d="M0 0 C0 0.99 0 1.98 0 3 C-1.98 3.99 -1.98 3.99 -4 5 C-4.0588996 8.31242312 -4.09389398 11.62470851 -4.125 14.9375 C-4.14175781 15.86369141 -4.15851563 16.78988281 -4.17578125 17.74414062 C-4.22361415 24.56032834 -4.03227417 31.46561014 -0.5625 37.5 C2.46091036 40.40247394 5.97927279 40.27787834 10 40.21875 C12.95446997 39.89560485 14.72484375 38.87365809 17 37 C21.1600906 30.96786863 20.12106204 22.60739666 20.0625 15.625 C20.05798828 14.60277344 20.05347656 13.58054687 20.04882812 12.52734375 C20.037103 10.01816806 20.02069176 7.5091151 20 5 C18.68 4.34 17.36 3.68 16 3 C16 2.01 16 1.02 16 0 C20.62 0 25.24 0 30 0 C29.67 1.32 29.34 2.64 29 4 C28.01 4 27.02 4 26 4 C26.02320313 4.825 26.04640625 5.65 26.0703125 6.5 C26.1754067 13.22602908 25.98694236 19.81588584 25.25 26.5 C25.11078125 27.7890625 24.9715625 29.078125 24.828125 30.40625 C23.40645625 36.57575588 20.13895741 40.44226025 15 44 C9.47585448 45.84138184 4.05946576 45.79150747 -1.3125 43.4375 C-5.31882018 41.11972829 -7.57694714 38.40468741 -9 34 C-11.11150689 24.15909821 -11.50507366 14.02877064 -12 4 C-13.32 3.67 -14.64 3.34 -16 3 C-16 2.01 -16 1.02 -16 0 C-10.39436958 -0.82622671 -5.57710648 -1.06795656 0 0 Z " fill="#BCBEBE" transform="translate(496,114)"/>
<path d="M0 0 C5.61 0 11.22 0 17 0 C16.67 1.32 16.34 2.64 16 4 C14.68 4.33 13.36 4.66 12 5 C11.97534712 9.68139254 11.95716261 14.36274759 11.94506836 19.04418945 C11.94002843 20.63794614 11.9331965 22.23169819 11.92456055 23.82543945 C11.91248001 26.11150253 11.90676845 28.39750467 11.90234375 30.68359375 C11.89718246 31.40026718 11.89202118 32.11694061 11.88670349 32.85533142 C11.88650737 34.57063672 11.93807993 36.28581266 12 38 C13.874035 39.874035 16.86637064 39.25989078 19.375 39.3125 C21.11910156 39.36857422 21.11910156 39.36857422 22.8984375 39.42578125 C26.0996536 39.3363676 26.0996536 39.3363676 27.7265625 36.98046875 C28.14679688 36.32691406 28.56703125 35.67335937 29 35 C29.99 35 30.98 35 32 35 C31.88637738 36.4800841 31.75877092 37.95910074 31.625 39.4375 C31.55539062 40.26121094 31.48578125 41.08492187 31.4140625 41.93359375 C31.27742188 42.61550781 31.14078125 43.29742187 31 44 C28.02640551 45.48679725 25.33700821 45.11112605 22.0234375 45.09765625 C21.33819 45.0962413 20.6529425 45.09482635 19.94692993 45.09336853 C17.75624239 45.08776675 15.5656567 45.07521406 13.375 45.0625 C11.89062648 45.05748522 10.40625135 45.05292228 8.921875 45.04882812 C5.28121685 45.03779677 1.64061836 45.02053099 -2 45 C-1.67 43.68 -1.34 42.36 -1 41 C1.475 40.505 1.475 40.505 4 40 C4.12357051 35.07048719 4.21432177 30.14187468 4.2746582 25.21118164 C4.29980792 23.53393859 4.33393259 21.8568052 4.37719727 20.17993164 C4.4378346 17.76941915 4.46620284 15.36035448 4.48828125 12.94921875 C4.52699089 11.82407112 4.52699089 11.82407112 4.56648254 10.67619324 C4.62375647 8.30307266 4.62375647 8.30307266 4 5 C1.61848426 2.93017943 1.61848426 2.93017943 -1 2 C-0.67 1.34 -0.34 0.68 0 0 Z " fill="#BDBEC0" transform="translate(235,114)"/>
<path d="M0 0 C-0.3125 1.9375 -0.3125 1.9375 -1 4 C-1.99 4.33 -2.98 4.66 -4 5 C-4.33 18.2 -4.66 31.4 -5 45 C-9.58437485 43.85390629 -11.22880984 41.96925474 -14.1875 38.5625 C-14.66727295 38.02334961 -15.1470459 37.48419922 -15.64135742 36.92871094 C-16.62575933 35.82201195 -17.6069653 34.71246195 -18.58496094 33.60009766 C-20.62955145 31.28811591 -22.72589611 29.02404457 -24.8125 26.75 C-27.48126634 23.75905827 -30.11572327 20.75150112 -32.625 17.625 C-33.11226563 17.01914063 -33.59953125 16.41328125 -34.1015625 15.7890625 C-35 14 -35 14 -34.6484375 11.7734375 C-34.43445313 11.18820313 -34.22046875 10.60296875 -34 10 C-30.98303548 10.31936336 -30.0328752 10.96483837 -27.921875 13.22265625 C-27.20515625 14.15980469 -26.4884375 15.09695312 -25.75 16.0625 C-22.23646954 20.53744426 -18.5811485 24.55256836 -14.43359375 28.44140625 C-13 30 -13 30 -13 32 C-12.34 32 -11.68 32 -11 32 C-8.89153016 18.23013829 -8.89153016 18.23013829 -11 5 C-12.64363134 4.27840576 -14.31050386 3.60648579 -16 3 C-16 2.01 -16 1.02 -16 0 C-10.49983036 -1.30267176 -5.52967941 -0.71033431 0 0 Z " fill="#BFC2C1" transform="translate(475,114)"/>
<path d="M0 0 C0 0.66 0 1.32 0 2 C1.32 2 2.64 2 4 2 C4 1.34 4 0.68 4 0 C4.73863281 0.01160156 5.47726562 0.02320313 6.23828125 0.03515625 C7.76001953 0.04869141 7.76001953 0.04869141 9.3125 0.0625 C10.29863281 0.07410156 11.28476562 0.08570313 12.30078125 0.09765625 C15.26526795 0.01939631 18.11365747 -0.19419606 21.05834961 -0.49560547 C26.63867367 -1.01297792 32.16399375 -1.16120054 37.765625 -1.16796875 C38.76092224 -1.17129715 39.75621948 -1.17462555 40.78167725 -1.17805481 C42.87918644 -1.18308419 44.97670353 -1.18546438 47.07421875 -1.18530273 C50.20066437 -1.18746587 53.32674264 -1.20560026 56.453125 -1.22460938 C76.55785945 -1.28130134 96.23581612 0.29884197 116 4 C115.34 4.66 114.68 5.32 114 6 C112.12744141 5.9675293 112.12744141 5.9675293 109.8515625 5.57421875 C109.00980469 5.43693359 108.16804687 5.29964844 107.30078125 5.15820312 C106.41777344 5.00287109 105.53476562 4.84753906 104.625 4.6875 C59.61492691 -2.97452007 8.77647966 -0.66939597 -35.39160156 10.51293945 C-36.64021973 10.82557739 -36.64021973 10.82557739 -37.9140625 11.14453125 C-38.9961499 11.42840698 -38.9961499 11.42840698 -40.10009766 11.71801758 C-42 12 -42 12 -45 11 C-44.43410156 10.81824219 -43.86820313 10.63648438 -43.28515625 10.44921875 C-42.18494141 10.07216797 -42.18494141 10.07216797 -41.0625 9.6875 C-40.33160156 9.44386719 -39.60070312 9.20023438 -38.84765625 8.94921875 C-36.64067976 8.08759559 -36.64067976 8.08759559 -36 5 C-33.60701045 2.60701045 -32.25759135 2.42288223 -28.984375 1.7109375 C-27.98019531 1.49179687 -26.97601563 1.27265625 -25.94140625 1.046875 C-24.88824219 0.82515625 -23.83507812 0.6034375 -22.75 0.375 C-21.71230469 0.14554688 -20.67460937 -0.08390625 -19.60546875 -0.3203125 C-6.60711606 -3.10923109 -6.60711606 -3.10923109 0 0 Z " fill="#D0D0D1" transform="translate(273,29)"/>
<path d="M0 0 C5.61 0 11.22 0 17 0 C17.33 0.99 17.66 1.98 18 3 C16.35 3.66 14.7 4.32 13 5 C12.67 16.55 12.34 28.1 12 40 C13.98 40.66 15.96 41.32 18 42 C17.67 42.99 17.34 43.98 17 45 C11.72 45 6.44 45 1 45 C1 43.68 1 42.36 1 41 C3.475 40.505 3.475 40.505 6 40 C5.505 22.675 5.505 22.675 5 5 C3.02 4.01 1.04 3.02 -1 2 C-0.67 1.34 -0.34 0.68 0 0 Z " fill="#BABBBB" transform="translate(359,114)"/>
<path d="M0 0 C-0.474375 0.45375 -0.94875 0.9075 -1.4375 1.375 C-3.09027808 2.93258204 -3.09027808 2.93258204 -4 5 C-6.1328125 6.0078125 -6.1328125 6.0078125 -9.125 7.125 C-10.30191406 7.56585938 -11.47882813 8.00671875 -12.69140625 8.4609375 C-15.87291115 9.61274395 -19.0711813 10.70792136 -22.27734375 11.7890625 C-24.20601363 12.4418685 -26.1343909 13.09553955 -28.0625 13.75 C-29.04428223 14.08273926 -30.02606445 14.41547852 -31.03759766 14.75830078 C-38.74503866 17.42872382 -46.12886041 20.59389765 -53.44165039 24.20605469 C-58.25979633 26.51550338 -61.64888051 27.45541442 -67 27 C-66.195625 26.38125 -65.39125 25.7625 -64.5625 25.125 C-61.96125481 23.25835959 -61.96125481 23.25835959 -61 21 C-57.43406087 19.04807233 -53.66084871 17.50214137 -49.9375 15.875 C-48.82455566 15.38652588 -47.71161133 14.89805176 -46.56494141 14.39477539 C-35.28035706 9.53752542 -23.74345059 5.58778157 -12 2 C-11.29834717 1.78504883 -10.59669434 1.57009766 -9.8737793 1.34863281 C-6.46658457 0.33612789 -3.56544696 -0.21608769 0 0 Z " fill="#BCBDBD" transform="translate(240,33)"/>
<path d="M0 0 C0.66 0 1.32 0 2 0 C1.67 1.32 1.34 2.64 1 4 C1.99 4.33 2.98 4.66 4 5 C4.04898438 5.71542969 4.09796875 6.43085937 4.1484375 7.16796875 C4.56407822 12.70745624 5.14372013 18.14490161 6.0625 23.625 C6.96035563 29.13849862 7.22656385 34.42401202 7 40 C6.67 40 6.34 40 6 40 C6 38.02 6 36.04 6 34 C5.01 34 4.02 34 3 34 C3 36.64 3 39.28 3 42 C0.63337395 39.63337395 0.60018913 38.67408559 0.1484375 35.4296875 C0.01953125 34.53378906 -0.109375 33.63789063 -0.2421875 32.71484375 C-0.43167969 31.30912109 -0.43167969 31.30912109 -0.625 29.875 C-0.82609375 28.45767578 -0.82609375 28.45767578 -1.03125 27.01171875 C-1.3616356 24.67542055 -1.6842175 22.33830929 -2 20 C-3.65 20.66 -5.3 21.32 -7 22 C-6.67 20.68 -6.34 19.36 -6 18 C-6.66 18 -7.32 18 -8 18 C-7.46860721 13.1519507 -6.04523649 9.80590761 -3.5625 5.625 C-2.94503906 4.56539063 -2.32757813 3.50578125 -1.69140625 2.4140625 C-0.85416016 1.21910156 -0.85416016 1.21910156 0 0 Z " fill="#B2B2B4" transform="translate(117,104)"/>
<path d="M0 0 C0 0.99 0 1.98 0 3 C-1.65 3.66 -3.3 4.32 -5 5 C-5.33 18.2 -5.66 31.4 -6 45 C-9.66771845 43.16614077 -11.46834996 41.74937171 -14.25 38.875 C-14.95640625 38.15054688 -15.6628125 37.42609375 -16.390625 36.6796875 C-16.92171875 36.12539062 -17.4528125 35.57109375 -18 35 C-17.67 34.01 -17.34 33.02 -17 32 C-16.61328125 32.49371094 -16.2265625 32.98742187 -15.828125 33.49609375 C-15.04695313 34.45708984 -15.04695313 34.45708984 -14.25 35.4375 C-13.48429687 36.39462891 -13.48429687 36.39462891 -12.703125 37.37109375 C-10.80332371 39.18810554 -9.56413092 39.60423197 -7 40 C-7.33 38.68 -7.66 37.36 -8 36 C-8.61875 35.896875 -9.2375 35.79375 -9.875 35.6875 C-12 35 -12 35 -14 32 C-13.01 32 -12.02 32 -11 32 C-11 22.76 -11 13.52 -11 4 C-13.97 3.505 -13.97 3.505 -17 3 C-17 2.01 -17 1.02 -17 0 C-11.1314592 -1.14819277 -5.9114744 -0.77313045 0 0 Z " fill="#ADAEAE" transform="translate(356,114)"/>
<path d="M0 0 C0.33 0 0.66 0 1 0 C1 6.27 1 12.54 1 19 C1.66 18.01 2.32 17.02 3 16 C3.33 22.27 3.66 28.54 4 35 C5.98 35.66 7.96 36.32 10 37 C10 38.32 10 39.64 10 41 C4.06 41 -1.88 41 -8 41 C-8.33 39.68 -8.66 38.36 -9 37 C-6.525 36.505 -6.525 36.505 -4 36 C-3.91435791 35.01604248 -3.82871582 34.03208496 -3.74047852 33.01831055 C-3.42171627 29.36710321 -3.09817666 25.71633227 -2.77319336 22.06567383 C-2.63321716 20.48571072 -2.4945361 18.90563231 -2.35717773 17.32543945 C-2.15949596 15.05388321 -1.95715736 12.7827826 -1.75390625 10.51171875 C-1.6934462 9.80536789 -1.63298615 9.09901703 -1.57069397 8.3712616 C-1.30109427 5.4029492 -0.94689225 2.84067674 0 0 Z " fill="#B1B2B3" transform="translate(67,118)"/>
<path d="M0 0 C0.66 0 1.32 0 2 0 C2.18473877 0.5347998 2.36947754 1.06959961 2.55981445 1.62060547 C5.79553448 12.12335583 5.79553448 12.12335583 12.98046875 19.640625 C15.75953057 20.08642534 18.20112373 20.25724966 21 20 C20.401875 20.28875 19.80375 20.5775 19.1875 20.875 C16.80672208 22.04742026 16.80672208 22.04742026 14 24 C10.64453125 24.1953125 10.64453125 24.1953125 6.8125 24.125 C5.54019531 24.10695312 4.26789063 24.08890625 2.95703125 24.0703125 C1.98121094 24.04710937 1.00539062 24.02390625 0 24 C0 22.68 0 21.36 0 20 C0.66 19.67 1.32 19.34 2 19 C1.79503906 18.38511719 1.59007812 17.77023438 1.37890625 17.13671875 C0.25260417 13.7578125 -0.87369792 10.37890625 -2 7 C-7.28 7 -12.56 7 -18 7 C-18 6.01 -18 5.02 -18 4 C-15.39576408 3.97302863 -12.79180756 3.95317511 -10.1875 3.9375 C-9.44951172 3.92912109 -8.71152344 3.92074219 -7.95117188 3.91210938 C-4.70077932 3.89740172 -2.10595105 3.96468298 1 5 C0.67 3.35 0.34 1.7 0 0 Z " fill="#BDBDBD" transform="translate(166,135)"/>
<path d="M0 0 C4.62 0 9.24 0 14 0 C13.67 1.32 13.34 2.64 13 4 C12.01 4 11.02 4 10 4 C10.02320313 4.825 10.04640625 5.65 10.0703125 6.5 C10.17734929 13.35035437 9.92235474 19.95792221 9.0625 26.75 C8.97564941 27.4409375 8.88879883 28.131875 8.79931641 28.84375 C8.13973077 33.72053847 8.13973077 33.72053847 7 36 C4.9375 36.625 4.9375 36.625 3 37 C2 35 2 35 2.9296875 31.59375 C4.37053665 26.23718138 4.21902705 21.01143162 4.125 15.5 C4.11597656 14.48679688 4.10695313 13.47359375 4.09765625 12.4296875 C4.07429007 9.95287199 4.04153168 7.47656621 4 5 C2.68 4.34 1.36 3.68 0 3 C0 2.01 0 1.02 0 0 Z " fill="#BDBEBD" transform="translate(512,114)"/>
<path d="M0 0 C0.99 0.33 1.98 0.66 3 1 C2.71788123 2.6266848 2.42397625 4.25132896 2.125 5.875 C1.96257812 6.77992188 1.80015625 7.68484375 1.6328125 8.6171875 C1 11 1 11 -1 13 C-1 13.66 -1 14.32 -1 15 C-1.66 15 -2.32 15 -3 15 C-2.938125 15.845625 -2.87625 16.69125 -2.8125 17.5625 C-3.04015628 21.73619843 -4.20207814 24.25432947 -6 28 C-5.01 28.66 -4.02 29.32 -3 30 C-3 31.32 -3 32.64 -3 34 C-7.95 34 -12.9 34 -18 34 C-18 32.68 -18 31.36 -18 30 C-17.113125 29.731875 -16.22625 29.46375 -15.3125 29.1875 C-10.30781905 25.88252202 -9.18413114 21.44160674 -7 16 C-5.74616119 13.09666051 -4.46484211 10.20555938 -3.1875 7.3125 C-2.12270515 4.87599404 -1.06144843 2.43796656 0 0 Z " fill="#BEBFC0" transform="translate(396,125)"/>
<path d="M0 0 C8.91 0 17.82 0 27 0 C27 2.64 27 5.28 27 8 C25.66666667 6 24.33333333 4 23 2 C20.36917808 1.59728487 20.36917808 1.59728487 17.4375 1.75 C16.44621094 1.76546875 15.45492188 1.7809375 14.43359375 1.796875 C12.05291359 1.73180613 12.05291359 1.73180613 11 3 C10.76256524 6.82533783 10.60332034 10.64419229 10.48242188 14.47460938 C10.44826172 15.27576172 10.41410156 16.07691406 10.37890625 16.90234375 C10.3538501 17.63960693 10.32879395 18.37687012 10.30297852 19.13647461 C10 21 10 21 8 23 C7.53993654 25.20250992 7.53993654 25.20250992 7.375 27.625 C7.30023438 28.44226563 7.22546875 29.25953125 7.1484375 30.1015625 C7.09945313 30.72804687 7.05046875 31.35453125 7 32 C6.34 31.67 5.68 31.34 5 31 C5 22.09 5 13.18 5 4 C3.35 3.67 1.7 3.34 0 3 C0 2.01 0 1.02 0 0 Z " fill="#B2B4B3" transform="translate(269,114)"/>
<path d="M0 0 C1.98 0 3.96 0 6 0 C6 0.99 6 1.98 6 3 C5.34 3 4.68 3 4 3 C4 4.65 4 6.3 4 8 C6.97 8 9.94 8 13 8 C13 6.35 13 4.7 13 3 C12.01 2.67 11.02 2.34 10 2 C10.33 1.34 10.66 0.68 11 0 C12.98 0 14.96 0 17 0 C16.67 5.28 16.34 10.56 16 16 C16.66 16.33 17.32 16.66 18 17 C18 17.66 18 18.32 18 19 C15.36 19 12.72 19 10 19 C10.66 18.01 11.32 17.02 12 16 C12.38499891 14.34450469 12.72793135 12.6777567 13 11 C11.88625 11.020625 10.7725 11.04125 9.625 11.0625 C6 11 6 11 4 10 C4 12.31 4 14.62 4 17 C4.66 17 5.32 17 6 17 C6 17.66 6 18.32 6 19 C3.69 19 1.38 19 -1 19 C-1 18.34 -1 17.68 -1 17 C-0.34 17 0.32 17 1 17 C0.9278125 16.02417969 0.855625 15.04835937 0.78125 14.04296875 C0.6884375 12.77066406 0.595625 11.49835938 0.5 10.1875 C0.4071875 8.92292969 0.314375 7.65835938 0.21875 6.35546875 C0.08085219 4.24021483 0 2.11974408 0 0 Z " fill="#B9B9B9" transform="translate(351,185)"/>
<path d="M0 0 C3.60320267 3.14026443 5.13675282 6.11240401 6.8125 10.5625 C7.25207031 11.69816406 7.69164062 12.83382812 8.14453125 14.00390625 C9 17 9 17 8 20 C6.68 20.33 5.36 20.66 4 21 C2.68 18.36 1.36 15.72 0 13 C-0.433125 13.825 -0.86625 14.65 -1.3125 15.5 C-2.1478125 16.7375 -2.1478125 16.7375 -3 18 C-3.99 18 -4.98 18 -6 18 C-6.72995076 11.28445304 -4.35615787 6.74398166 -1 1 C-0.67 0.67 -0.34 0.34 0 0 Z " fill="#B8B8B9" transform="translate(157,114)"/>
<path d="M0 0 C2.4375 1.1875 2.4375 1.1875 4 3 C4.44965783 5.92277587 4.29436792 7.46032549 2.875 10.0625 C1.73881813 11.99409266 1.73881813 11.99409266 2.6875 14.0625 C3.97197997 15.95863709 5.30837116 17.4621556 7 19 C6.01 19.33 5.02 19.66 4 20 C1.35247996 17.42215154 -0.94432065 15.08351902 -3 12 C-2.67 14.31 -2.34 16.62 -2 19 C-4.31 19 -6.62 19 -9 19 C-8.67 18.34 -8.34 17.68 -8 17 C-7.90284658 14.66831782 -7.87021783 12.33370043 -7.875 10 C-7.87242187 8.741875 -7.86984375 7.48375 -7.8671875 6.1875 C-7.77772642 3.10322182 -7.77772642 3.10322182 -9 1 C-5.94306678 -0.52846661 -3.37015453 -0.23242445 0 0 Z M-3 3 C-3.33 4.65 -3.66 6.3 -4 8 C-2.68 8 -1.36 8 0 8 C0.33 7.01 0.66 6.02 1 5 C0.67 4.34 0.34 3.68 0 3 C-0.99 3 -1.98 3 -3 3 Z " fill="#ACACAC" transform="translate(246,185)"/>
<path d="M0 0 C2 1 2 1 4 4 C3.03900391 4.85271484 3.03900391 4.85271484 2.05859375 5.72265625 C-8.68973376 15.29924977 -8.68973376 15.29924977 -17.640625 26.49609375 C-18.08921875 26.99238281 -18.5378125 27.48867187 -19 28 C-19.99 28 -20.98 28 -22 28 C-22.20086443 24.28400809 -22.1519437 23.22791555 -20 20 C-19.34 20 -18.68 20 -18 20 C-17.75636719 19.44054687 -17.51273437 18.88109375 -17.26171875 18.3046875 C-13.28652378 11.04349545 -6.37091683 5.15095403 0 0 Z " fill="#B9BABB" transform="translate(140,80)"/>
<path d="M0 0 C4.55555556 0.55555556 4.55555556 0.55555556 6 2 C6.17299981 5.20049657 5.9097643 7.92954549 5 11 C5 10.34 5 9.68 5 9 C5.66 8.67 6.32 8.34 7 8 C9.125 8.9375 9.125 8.9375 11 10 C10.34 11.65 9.68 13.3 9 15 C10.32 16.32 11.64 17.64 13 19 C11.453125 18.9690625 11.453125 18.9690625 9.875 18.9375 C6.0783516 18.87525059 6.0783516 18.87525059 2.75 19.6875 C0 20 0 20 -1.875 18.9375 C-3.46240233 16.20364043 -3.26430653 14.10560173 -3 11 C-2.67 10.34 -2.34 9.68 -2 9 C-2.020625 7.845 -2.04125 6.69 -2.0625 5.5 C-2 2 -2 2 0 0 Z M1 2 C0.67 3.32 0.34 4.64 0 6 C0.99 6.33 1.98 6.66 3 7 C3.33 6.01 3.66 5.02 4 4 C3.01 3.34 2.02 2.68 1 2 Z M0 11 C-0.6814823 12.89179203 -0.6814823 12.89179203 -1 15 C-0.34 15.66 0.32 16.32 1 17 C1.99 17 2.98 17 4 17 C3.72382467 15.05925139 3.72382467 15.05925139 3 13 C2.01 12.34 1.02 11.68 0 11 Z " fill="#A7A7A7" transform="translate(297,185)"/>
<path d="M0 0 C2.4375 1.4375 2.4375 1.4375 4 4 C4.79906897 8.11346811 5.15733057 12.11882663 2.89453125 15.796875 C0.14399991 18.42204701 -1.87554598 18.99570848 -5.625 19.125 C-9.66232541 17.77922486 -10.88478748 16.66094475 -13 13 C-14.04573645 9.9935077 -14.42714707 8.10649266 -13.265625 5.09765625 C-9.85525793 -1.31645719 -6.78735456 -1.54799315 0 0 Z M-6 1 C-8.3277176 3.02736694 -9.8204515 4.5331739 -10.9375 7.4375 C-11.01876251 10.76926305 -9.92368819 12.33643174 -8 15 C-6.95296435 16.25676839 -6.95296435 16.25676839 -4.625 16.25 C-2.01276892 16.21335037 -2.01276892 16.21335037 -0.25 14.8125 C1.38379608 12.44349569 1.86266868 10.8839577 2 8 C0.58090437 4.60993822 -0.36377021 3.31071687 -3.6875 1.6875 C-4.8321875 1.3471875 -4.8321875 1.3471875 -6 1 Z " fill="#C6C6C6" transform="translate(176,186)"/>
<path d="M0 0 C7.42857143 -0.28571429 7.42857143 -0.28571429 11 2 C11.125 5.375 11.125 5.375 11 9 C10.34 9.66 9.68 10.32 9 11 C10.86566488 14.62793998 10.86566488 14.62793998 14 17 C13.67 17.99 13.34 18.98 13 20 C8.96615872 17.92856799 7.07143201 16.03384128 5 12 C5.33 14.31 5.66 16.62 6 19 C3.69 19 1.38 19 -1 19 C-0.505 17.515 -0.505 17.515 0 16 C0.06976943 13.83435675 0.08445935 11.66665555 0.0625 9.5 C0.05347656 8.3553125 0.04445313 7.210625 0.03515625 6.03125 C0.02355469 5.0309375 0.01195312 4.030625 0 3 C0 2.01 0 1.02 0 0 Z M4 3 C4 4.98 4 6.96 4 9 C5.32 8.67 6.64 8.34 8 8 C7.67 6.35 7.34 4.7 7 3 C6.01 3 5.02 3 4 3 Z " fill="#B6B6B6" transform="translate(453,185)"/>
<path d="M0 0 C0.91007812 0.00902344 1.82015625 0.01804688 2.7578125 0.02734375 C3.45648438 0.03894531 4.15515625 0.05054688 4.875 0.0625 C5.535 1.7125 6.195 3.3625 6.875 5.0625 C5.885 5.3925 4.895 5.7225 3.875 6.0625 C3.545 5.4025 3.215 4.7425 2.875 4.0625 C1.885 4.0625 0.895 4.0625 -0.125 4.0625 C-0.455 5.3825 -0.785 6.7025 -1.125 8.0625 C0.525 7.7325 2.175 7.4025 3.875 7.0625 C3.875 8.7125 3.875 10.3625 3.875 12.0625 C1.4 11.0725 1.4 11.0725 -1.125 10.0625 C-1.125 12.0425 -1.125 14.0225 -1.125 16.0625 C0.855 16.0625 2.835 16.0625 4.875 16.0625 C4.875 15.4025 4.875 14.7425 4.875 14.0625 C5.535 14.0625 6.195 14.0625 6.875 14.0625 C6.875 15.7125 6.875 17.3625 6.875 19.0625 C2.21962607 19.90046731 -1.49578475 20.0786692 -6.125 19.0625 C-5.795 18.0725 -5.465 17.0825 -5.125 16.0625 C-5.0053057 13.87738312 -4.94972547 11.68835853 -4.9375 9.5 C-4.92332031 8.34371094 -4.90914063 7.18742188 -4.89453125 5.99609375 C-4.81512807 2.93933614 -4.81512807 2.93933614 -7.125 1.0625 C-4.60024538 -0.19987731 -2.81299534 -0.03606404 0 0 Z " fill="#ADADAD" transform="translate(385.125,184.9375)"/>
<path d="M0 0 C3.3 0 6.6 0 10 0 C10.66 1.32 11.32 2.64 12 4 C11.34 4.66 10.68 5.32 10 6 C9.34 5.34 8.68 4.68 8 4 C5.93125966 3.3574765 5.93125966 3.3574765 4 3 C4 4.65 4 6.3 4 8 C5.98 7.67 7.96 7.34 10 7 C9.67 8.65 9.34 10.3 9 12 C6.525 11.01 6.525 11.01 4 10 C4.33 11.98 4.66 13.96 5 16 C7.31 15.34 9.62 14.68 12 14 C12 15.65 12 17.3 12 19 C7.34462607 19.83796731 3.62921525 20.0161692 -1 19 C-0.505 17.515 -0.505 17.515 0 16 C0.06976943 13.83435675 0.08445935 11.66665555 0.0625 9.5 C0.05347656 8.3553125 0.04445312 7.210625 0.03515625 6.03125 C0.02355469 5.0309375 0.01195312 4.030625 0 3 C0 2.01 0 1.02 0 0 Z " fill="#ADADAD" transform="translate(215,185)"/>
<path d="M0 0 C0.33 0.66 0.66 1.32 1 2 C1.66 2 2.32 2 3 2 C2.67 3.32 2.34 4.64 2 6 C2.66 6.33 3.32 6.66 4 7 C0.37 13.93 -3.26 20.86 -7 28 C-7.33 27.01 -7.66 26.02 -8 25 C-8.99 24.67 -9.98 24.34 -11 24 C-9.53535546 19.05394907 -7.41781701 14.7983685 -4.9375 10.3125 C-2.15217401 5.30290526 -2.15217401 5.30290526 0 0 Z " fill="#BABABA" transform="translate(108,120)"/>
<path d="M0 0 C0.66 1.32 1.32 2.64 2 4 C1.34 4.66 0.68 5.32 0 6 C-0.33 5.01 -0.66 4.02 -1 3 C-2.32 3.33 -3.64 3.66 -5 4 C-5.33 5.32 -5.66 6.64 -6 8 C-4.02 7.67 -2.04 7.34 0 7 C0 8.65 0 10.3 0 12 C-2.97 11.505 -2.97 11.505 -6 11 C-6 12.65 -6 14.3 -6 16 C-3.36 15.34 -0.72 14.68 2 14 C2.33 15.32 2.66 16.64 3 18 C-2.16569441 19.79217969 -5.51053913 20.12029814 -11 19 C-11 18.34 -11 17.68 -11 17 C-10.34 16.67 -9.68 16.34 -9 16 C-8.97296619 14.06257659 -8.95358875 12.12504521 -8.9375 10.1875 C-8.92589844 9.10855469 -8.91429687 8.02960938 -8.90234375 6.91796875 C-8.86375234 3.93487831 -8.86375234 3.93487831 -10 1 C-6.61981469 -0.04005702 -3.5219721 -0.08004482 0 0 Z " fill="#C4C4C4" transform="translate(487,185)"/>
<path d="M0 0 C0.99 0.33 1.98 0.66 3 1 C4.31640625 3.80078125 4.31640625 3.80078125 5.5625 7.3125 C7.51865833 12.77068858 7.51865833 12.77068858 10 18 C7.69 18 5.38 18 3 18 C3 16.02 3 14.04 3 12 C1.35 12 -0.3 12 -2 12 C-2 13.98 -2 15.96 -2 18 C-3.98 18 -5.96 18 -8 18 C-8 17.34 -8 16.68 -8 16 C-7.34 15.67 -6.68 15.34 -6 15 C-5.06575482 12.6716631 -4.22590419 10.37690997 -3.4375 8 C-1.11218425 1.11218425 -1.11218425 1.11218425 0 0 Z M0 5 C-0.33 6.32 -0.66 7.64 -1 9 C-0.01 9 0.98 9 2 9 C1.34 7.68 0.68 6.36 0 5 Z " fill="#B3B3B3" transform="translate(267,186)"/>
<path d="M0 0 C8.26086957 -0.31772575 8.26086957 -0.31772575 11 2 C11.9375 4.9375 11.9375 4.9375 12 8 C10.875 9.875 10.875 9.875 9 11 C6.3125 11.1875 6.3125 11.1875 4 11 C4 12.98 4 14.96 4 17 C4.66 17 5.32 17 6 17 C6 17.66 6 18.32 6 19 C3.69 19 1.38 19 -1 19 C-1 18.34 -1 17.68 -1 17 C-0.34 17 0.32 17 1 17 C0.9278125 16.02417969 0.855625 15.04835937 0.78125 14.04296875 C0.6884375 12.77066406 0.595625 11.49835938 0.5 10.1875 C0.4071875 8.92292969 0.314375 7.65835938 0.21875 6.35546875 C0.08085219 4.24021483 0 2.11974408 0 0 Z M4 3 C4 4.65 4 6.3 4 8 C5.32 8 6.64 8 8 8 C7.67 6.35 7.34 4.7 7 3 C6.01 3 5.02 3 4 3 Z " fill="#A8A8A8" transform="translate(192,185)"/>
<path d="M0 0 C0.66 0 1.32 0 2 0 C2.40992188 1.07121094 2.81984375 2.14242187 3.2421875 3.24609375 C3.78609408 4.64337101 4.33038483 6.04049877 4.875 7.4375 C5.14441406 8.14455078 5.41382813 8.85160156 5.69140625 9.58007812 C6.98036942 13.49946625 6.98036942 13.49946625 10 16 C10 16.66 10 17.32 10 18 C7.69 18 5.38 18 3 18 C3.33 16.02 3.66 14.04 4 12 C2.35 12 0.7 12 -1 12 C-1.5534764 14.07553648 -2 15.84365964 -2 18 C-3.98 18 -5.96 18 -8 18 C-8 17.34 -8 16.68 -8 16 C-7.34 16 -6.68 16 -6 16 C-5.81824219 15.34773437 -5.63648438 14.69546875 -5.44921875 14.0234375 C-4.02533404 9.07269989 -2.50592766 4.53453577 0 0 Z M0 5 C-0.33 6.32 -0.66 7.64 -1 9 C-0.01 9 0.98 9 2 9 C1.34 7.68 0.68 6.36 0 5 Z " fill="#B7B7B7" transform="translate(409,186)"/>
<path d="M0 0 C1.76150391 -0.02126953 1.76150391 -0.02126953 3.55859375 -0.04296875 C6.5625 0.1875 6.5625 0.1875 8.5625 2.1875 C8.1875 4.3125 8.1875 4.3125 7.5625 6.1875 C6.9025 6.1875 6.2425 6.1875 5.5625 6.1875 C5.5625 5.1975 5.5625 4.2075 5.5625 3.1875 C4.2425 3.1875 2.9225 3.1875 1.5625 3.1875 C1.70359986 5.29198938 1.85054175 7.3960877 2 9.5 C2.08121094 10.67175781 2.16242188 11.84351563 2.24609375 13.05078125 C2.4492371 16.21340958 2.4492371 16.21340958 3.5625 19.1875 C1.2525 19.1875 -1.0575 19.1875 -3.4375 19.1875 C-3.4375 18.5275 -3.4375 17.8675 -3.4375 17.1875 C-2.7775 17.1875 -2.1175 17.1875 -1.4375 17.1875 C-1.4375 12.5675 -1.4375 7.9475 -1.4375 3.1875 C-4.55535113 3.83394661 -4.55535113 3.83394661 -5.4375 6.1875 C-6.0975 6.1875 -6.7575 6.1875 -7.4375 6.1875 C-7.480221 4.52138095 -7.47813832 2.85367115 -7.4375 1.1875 C-5.56506019 -0.68493981 -2.50090482 0.01369608 0 0 Z " fill="#BBBBBB" transform="translate(332.4375,184.8125)"/>
<path d="M0 0 C2.64 0.66 5.28 1.32 8 2 C8 2.66 8 3.32 8 4 C7.34 4 6.68 4 6 4 C6 5.65 6 7.3 6 9 C6.92683594 9.19335938 7.85367187 9.38671875 8.80859375 9.5859375 C10.60490234 9.97652344 10.60490234 9.97652344 12.4375 10.375 C13.63246094 10.63023438 14.82742188 10.88546875 16.05859375 11.1484375 C17.02925781 11.42945313 17.99992187 11.71046875 19 12 C19.33 12.66 19.66 13.32 20 14 C13.90373091 13.32969264 7.99077746 12.23964287 2 10.9375 C1.12988281 10.75123047 0.25976562 10.56496094 -0.63671875 10.37304688 C-2.75846252 9.9183875 -4.87932571 9.45962195 -7 9 C-6.34 7.35 -5.68 5.7 -5 4 C-4.01 4.33 -3.02 4.66 -2 5 C-1.34 3.35 -0.68 1.7 0 0 Z " fill="#C5C5C7" transform="translate(395,26)"/>
<path d="M0 0 C1.58206057 0.00667536 3.16410534 0.0186375 4.74609375 0.03515625 C5.55240234 0.03966797 6.35871094 0.04417969 7.18945312 0.04882812 C9.18753131 0.06065107 11.18557158 0.07858711 13.18359375 0.09765625 C12.85359375 1.41765625 12.52359375 2.73765625 12.18359375 4.09765625 C10.86359375 4.42765625 9.54359375 4.75765625 8.18359375 5.09765625 C7.85359375 15.65765625 7.52359375 26.21765625 7.18359375 37.09765625 C6.85359375 37.09765625 6.52359375 37.09765625 6.18359375 37.09765625 C5.85359375 26.53765625 5.52359375 15.97765625 5.18359375 5.09765625 C2.54359375 4.76765625 -0.09640625 4.43765625 -2.81640625 4.09765625 C-3.47640625 3.10765625 -4.13640625 2.11765625 -4.81640625 1.09765625 C-3.81640625 0.09765625 -3.81640625 0.09765625 0 0 Z " fill="#B6B7B9" transform="translate(238.81640625,113.90234375)"/>
<path d="M0 0 C1.08410156 -0.00257813 2.16820312 -0.00515625 3.28515625 -0.0078125 C5.9375 0.125 5.9375 0.125 6.9375 1.125 C6.97813832 2.79117115 6.980221 4.45888095 6.9375 6.125 C4.9575 5.135 2.9775 4.145 0.9375 3.125 C0.9375 7.745 0.9375 12.365 0.9375 17.125 C1.5975 17.125 2.2575 17.125 2.9375 17.125 C2.9375 17.785 2.9375 18.445 2.9375 19.125 C0.9575 19.125 -1.0225 19.125 -3.0625 19.125 C-2.7325 13.845 -2.4025 8.565 -2.0625 3.125 C-5.1370356 3.9013932 -5.1370356 3.9013932 -7.0625 6.125 C-7.3925 4.475 -7.7225 2.825 -8.0625 1.125 C-5.31744537 -0.24752731 -3.05922588 -0.00729255 0 0 Z " fill="#A7A7A7" transform="translate(435.0625,184.875)"/>
<path d="M0 0 C0.94875 0.04125 1.8975 0.0825 2.875 0.125 C2.875 1.115 2.875 2.105 2.875 3.125 C4.35468324 2.98450482 5.83374516 2.83745174 7.3125 2.6875 C8.13621094 2.60628906 8.95992187 2.52507812 9.80859375 2.44140625 C11.86162025 2.33569185 11.86162025 2.33569185 12.875 1.125 C14.39428038 1.05320036 15.91667482 1.04107993 17.4375 1.0625 C18.26378906 1.07152344 19.09007812 1.08054688 19.94140625 1.08984375 C20.57949219 1.10144531 21.21757812 1.11304688 21.875 1.125 C21.875 2.445 21.875 3.765 21.875 5.125 C12.305 5.125 2.735 5.125 -7.125 5.125 C-3.80993151 0.15239726 -3.80993151 0.15239726 0 0 Z " fill="#C6C6C6" transform="translate(188.125,153.875)"/>
<path d="M0 0 C0.66 0 1.32 0 2 0 C2.86846831 1.74294678 3.71930627 3.49468663 4.5625 5.25 C5.03816406 6.22453125 5.51382812 7.1990625 6.00390625 8.203125 C7.03510273 11.09856297 7.11346788 12.19966161 6 15 C6 14.34 6 13.68 6 13 C5.34 13.66 4.68 14.32 4 15 C4.3185177 17.10820797 4.3185177 17.10820797 5 19 C4.34 19 3.68 19 3 19 C2.34 16.69 1.68 14.38 1 12 C-3.95 12 -8.9 12 -14 12 C-14.33 12.99 -14.66 13.98 -15 15 C-15.33 14.34 -15.66 13.68 -16 13 C-15.67 12.34 -15.34 11.68 -15 11 C-14.34 11 -13.68 11 -13 11 C-13.33 10.01 -13.66 9.02 -14 8 C-11.3333581 6.66667905 -9.83319697 7.32897967 -7 8 C-8.98 8.99 -8.98 8.99 -11 10 C-7.04 10.33 -3.08 10.66 1 11 C0.67 9.68 0.34 8.36 0 7 C0.33 6.01 0.66 5.02 1 4 C0.61067144 1.85744207 0.61067144 1.85744207 0 0 Z " fill="#B1B3B2" transform="translate(408,129)"/>
<path d="M0 0 C0.66 0 1.32 0 2 0 C5.06707855 6.37952339 5.06707855 6.37952339 4.75 9.3125 C4.19742351 10.55579711 3.60846174 11.78307651 3 13 C3.39938767 15.09821215 3.39938767 15.09821215 4 17 C3.34 17 2.68 17 2 17 C0.68 13.7 -0.64 10.4 -2 7 C-7.28 7 -12.56 7 -18 7 C-18 6.01 -18 5.02 -18 4 C-15.39576408 3.97302863 -12.79180756 3.95317511 -10.1875 3.9375 C-9.44951172 3.92912109 -8.71152344 3.92074219 -7.95117188 3.91210938 C-4.70077932 3.89740172 -2.10595105 3.96468298 1 5 C0.67 3.35 0.34 1.7 0 0 Z " fill="#B2B2B3" transform="translate(166,135)"/>
<path d="M0 0 C0.33 0 0.66 0 1 0 C1 6.27 1 12.54 1 19 C1.66 18.01 2.32 17.02 3 16 C3 21.94 3 27.88 3 34 C2.34 34 1.68 34 1 34 C1 31.36 1 28.72 1 26 C0.34 26 -0.32 26 -1 26 C-1 27.65 -1 29.3 -1 31 C-1.33 31 -1.66 31 -2 31 C-2.25568182 6.76704545 -2.25568182 6.76704545 0 0 Z " fill="#ABADAE" transform="translate(67,118)"/>
<path d="M0 0 C0.99 0 1.98 0 3 0 C2.88637738 1.4800841 2.75877092 2.95910074 2.625 4.4375 C2.55539062 5.26121094 2.48578125 6.08492187 2.4140625 6.93359375 C2.27742188 7.61550781 2.14078125 8.29742187 2 9 C-1.18824568 10.59412284 -4.62896662 10.10174735 -8.125 10.0625 C-8.87910156 10.05798828 -9.63320312 10.05347656 -10.41015625 10.04882812 C-12.27347127 10.03703499 -14.13674555 10.01909942 -16 10 C-16.33 9.34 -16.66 8.68 -17 8 C-11.555 7.505 -11.555 7.505 -6 7 C-6.33 6.34 -6.66 5.68 -7 5 C-6.21625 4.731875 -5.4325 4.46375 -4.625 4.1875 C-1.71885077 3.15185568 -1.71885077 3.15185568 0 0 Z " fill="#C6C6C6" transform="translate(264,149)"/>
<path d="M0 0 C2.31 0.33 4.62 0.66 7 1 C7 1.33 7 1.66 7 2 C9.97 2.495 9.97 2.495 13 3 C12.67 3.66 12.34 4.32 12 5 C7.90658501 5.02469575 3.81319879 5.04285793 -0.28027344 5.05493164 C-1.67318477 5.0599643 -3.0660908 5.06679098 -4.45898438 5.07543945 C-6.45961246 5.08755152 -8.46027888 5.09270412 -10.4609375 5.09765625 C-11.66540527 5.10289307 -12.86987305 5.10812988 -14.11083984 5.11352539 C-17 5 -17 5 -19 4 C-18.67 3.01 -18.34 2.02 -18 1 C-17.48953125 1.15339844 -16.9790625 1.30679688 -16.453125 1.46484375 C-13.2250662 2.16905403 -10.04581999 2.34888204 -6.75 2.5625 C-5.48671875 2.64628906 -4.2234375 2.73007813 -2.921875 2.81640625 C-1.95765625 2.87699219 -0.9934375 2.93757812 0 3 C0 2.01 0 1.02 0 0 Z " fill="#ABABAB" transform="translate(131,154)"/>
<path d="M0 0 C0.33 0 0.66 0 1 0 C1.33 5.94 1.66 11.88 2 18 C2.66 17.01 3.32 16.02 4 15 C4.4025134 26.31509887 4.4025134 26.31509887 2 31 C-0.125 31.875 -0.125 31.875 -2 32 C-3.41855056 29.16289888 -2.30911028 27.36533941 -1.52050781 24.43359375 C-0.53897774 19.8445263 -0.5223211 15.17744498 -0.375 10.5 C-0.33632813 9.48679688 -0.29765625 8.47359375 -0.2578125 7.4296875 C-0.16436381 4.95329716 -0.07860127 2.47689849 0 0 Z " fill="#ADAFAE" transform="translate(517,119)"/>
<path d="M0 0 C1.79296875 0.1953125 1.79296875 0.1953125 4 1 C5.73828125 3.1796875 5.73828125 3.1796875 7.3125 5.875 C7.84488281 6.75929688 8.37726563 7.64359375 8.92578125 8.5546875 C10 11 10 11 9 14 C8.34 12.35 7.68 10.7 7 9 C6.21625 9.185625 5.4325 9.37125 4.625 9.5625 C2 10 2 10 0 9 C-0.33 9.99 -0.66 10.98 -1 12 C-2 11 -2 11 -2.1875 7.6875 C-2.01798052 4.35361682 -1.75557129 2.74308013 0 0 Z " fill="#B5B5B6" transform="translate(69,105)"/>
<path d="M0 0 C1.32 0 2.64 0 4 0 C5.12904526 2.25809052 5.12889975 3.49583993 5.1328125 6 C5.13474609 6.80074951 5.13667969 7.60149902 5.13867188 8.42651367 C5.13416016 9.27576416 5.12964844 10.12501465 5.125 11 C5.12306641 11.85762939 5.12113281 12.71525879 5.11914062 13.59887695 C5.07917002 19.45845601 4.76262817 25.18496017 4 31 C3.67 31 3.34 31 3 31 C1.9772518 23.7555336 1.66255142 16.55603134 1.39453125 9.25 C1.35714844 8.34507813 1.31976563 7.44015625 1.28125 6.5078125 C1.25095703 5.68941895 1.22066406 4.87102539 1.18945312 4.02783203 C1.11713687 1.93254565 1.11713687 1.93254565 0 0 Z " fill="#D1D2D4" transform="translate(240,119)"/>
<path d="M0 0 C3.19119001 1.38053655 5.03343562 2.89939474 7.25 5.5625 C9.19656056 7.89414101 11.14067912 10.14383228 13.265625 12.31640625 C19 18.24125874 19 18.24125874 19 22.5625 C18.67 23.366875 18.34 24.17125 18 25 C14.125 23.125 14.125 23.125 13 22 C13.05542969 21.2575 13.11085938 20.515 13.16796875 19.75 C12.9461856 16.11894558 11.64063456 14.75417028 9.3125 12 C8.58675781 11.13375 7.86101562 10.2675 7.11328125 9.375 C5.45682633 7.51340187 3.78853216 5.73183518 2 4 C1.34 3.34 0.68 2.68 0 2 C0 1.34 0 0.68 0 0 Z " fill="#B1B2B2" transform="translate(317,118)"/>
<path d="M0 0 C0.99 0.33 1.98 0.66 3 1 C3 4.3 3 7.6 3 11 C0 11 0 11 -3 9 C-4.32 9 -5.64 9 -7 9 C-11 9 -11 9 -14 7 C-13.04287109 6.92652344 -13.04287109 6.92652344 -12.06640625 6.8515625 C-11.24011719 6.77679688 -10.41382813 6.70203125 -9.5625 6.625 C-8.73878906 6.55539063 -7.91507812 6.48578125 -7.06640625 6.4140625 C-6.38449219 6.27742187 -5.70257813 6.14078125 -5 6 C-4.67 5.34 -4.34 4.68 -4 4 C-3.01 4 -2.02 4 -1 4 C-0.67 2.68 -0.34 1.36 0 0 Z " fill="#AFB0B0" transform="translate(294,130)"/>
<path d="M0 0 C1.65 0.33 3.3 0.66 5 1 C4.34 2.98 3.68 4.96 3 7 C4.32 8.32 5.64 9.64 7 11 C5.948125 10.979375 4.89625 10.95875 3.8125 10.9375 C0.67295096 10.98896802 -1.96883396 11.26517187 -5 12 C-5 11.01 -5 10.02 -5 9 C-4.01 9 -3.02 9 -2 9 C-2.33 8.401875 -2.66 7.80375 -3 7.1875 C-4 5 -4 5 -4 2 C-2.02 2.495 -2.02 2.495 0 3 C0 2.01 0 1.02 0 0 Z " fill="#A1A1A1" transform="translate(303,193)"/>
<path d="M0 0 C0 0.99 0 1.98 0 3 C-0.928125 3.144375 -1.85625 3.28875 -2.8125 3.4375 C-7.39803107 4.23757226 -7.39803107 4.23757226 -11 7 C-11 6.01 -11 5.02 -11 4 C-13.97 3.505 -13.97 3.505 -17 3 C-17 2.01 -17 1.02 -17 0 C-11.1314592 -1.14819277 -5.9114744 -0.77313045 0 0 Z " fill="#B8B8B8" transform="translate(356,114)"/>
<path d="M0 0 C1.98 1.65 3.96 3.3 6 5 C5.34 6.65 4.68 8.3 4 10 C2.68 9.34 1.36 8.68 0 8 C-0.33 16.58 -0.66 25.16 -1 34 C-1.33 34 -1.66 34 -2 34 C-2 24.76 -2 15.52 -2 6 C-2.66 6 -3.32 6 -4 6 C-3.67 5.34 -3.34 4.68 -3 4 C-1.02 4.495 -1.02 4.495 1 5 C0.67 3.35 0.34 1.7 0 0 Z " fill="#AFB1B0" transform="translate(437,118)"/>
<path d="M0 0 C-0.33 1.32 -0.66 2.64 -1 4 C-4.79568461 4.97798721 -7.5005999 4.92653069 -11.3125 4.0625 C-12.19550781 3.86785156 -13.07851563 3.67320313 -13.98828125 3.47265625 C-14.98408203 3.23869141 -14.98408203 3.23869141 -16 3 C-16 2.01 -16 1.02 -16 0 C-10.49983036 -1.30267176 -5.52967941 -0.71033431 0 0 Z " fill="#B9BABB" transform="translate(475,114)"/>
<path d="M0 0 C0.33 0 0.66 0 1 0 C1.33 2.31 1.66 4.62 2 7 C2.33 7 2.66 7 3 7 C3 8.65 3 10.3 3 12 C4.98 12 6.96 12 9 12 C9 11.34 9 10.68 9 10 C9.66 10 10.32 10 11 10 C11 11.65 11 13.3 11 15 C6.34462607 15.83796731 2.62921525 16.0161692 -2 15 C-1.67 14.01 -1.34 13.02 -1 12 C-0.77674186 9.94106379 -0.59294241 7.87766347 -0.4375 5.8125 C-0.35371094 4.72582031 -0.26992188 3.63914063 -0.18359375 2.51953125 C-0.12300781 1.68808594 -0.06242187 0.85664063 0 0 Z " fill="#B9B9B9" transform="translate(381,189)"/>
<path d="M0 0 C2 2 2 2 2.1953125 3.9453125 C2.13020833 5.96354167 2.06510417 7.98177083 2 10 C3.32 9.67 4.64 9.34 6 9 C6 9.66 6 10.32 6 11 C5.01 11.495 5.01 11.495 4 12 C4.33 14.31 4.66 16.62 5 19 C2.69 19 0.38 19 -2 19 C-1.67 18.34 -1.34 17.68 -1 17 C-0.90284658 14.66831782 -0.87021783 12.33370043 -0.875 10 C-0.87242187 8.741875 -0.86984375 7.48375 -0.8671875 6.1875 C-0.77772642 3.10322182 -0.77772642 3.10322182 -2 1 C-1.34 0.67 -0.68 0.34 0 0 Z " fill="#A3A3A3" transform="translate(239,185)"/>
<path d="M0 0 C-0.99 0.495 -0.99 0.495 -2 1 C-1.34 2.65 -0.68 4.3 0 6 C-4.62 6 -9.24 6 -14 6 C-14 4.68 -14 3.36 -14 2 C-9.126739 0.4087311 -5.19209404 -0.21192221 0 0 Z " fill="#BDBDBE" transform="translate(259,29)"/>
<path d="M0 0 C1.125 3.75 1.125 3.75 0 6 C1.32 6 2.64 6 4 6 C4 6.66 4 7.32 4 8 C2.35 8.66 0.7 9.32 -1 10 C-1 11.65 -1 13.3 -1 15 C-2.98 15 -4.96 15 -7 15 C-7 14.34 -7 13.68 -7 13 C-6.34 13 -5.68 13 -5 13 C-4.80664062 12.31292969 -4.61328125 11.62585938 -4.4140625 10.91796875 C-4.15367187 10.01691406 -3.89328125 9.11585938 -3.625 8.1875 C-3.36976563 7.29417969 -3.11453125 6.40085938 -2.8515625 5.48046875 C-2 3 -2 3 0 0 Z " fill="#A8A8A8" transform="translate(408,189)"/>
<path d="M0 0 C3.33388318 0.16951948 4.94441987 0.43192871 7.6875 2.1875 C7.6875 3.8375 7.6875 5.4875 7.6875 7.1875 C6.6975 7.6825 6.6975 7.6825 5.6875 8.1875 C5.2853125 7.2284375 5.2853125 7.2284375 4.875 6.25 C3.80082248 3.85618314 3.80082248 3.85618314 0.6875 3.1875 C0.6875 5.1675 0.6875 7.1475 0.6875 9.1875 C-0.3025 9.1875 -1.2925 9.1875 -2.3125 9.1875 C-2.67372881 7.87692607 -3.02630311 6.56396376 -3.375 5.25 C-3.67083984 4.15365234 -3.67083984 4.15365234 -3.97265625 3.03515625 C-4.08480469 2.42542969 -4.19695312 1.81570312 -4.3125 1.1875 C-3.3125 0.1875 -3.3125 0.1875 0 0 Z " fill="#B9B9B9" transform="translate(456.3125,184.8125)"/>
<path d="M0 0 C-1.485 1.485 -1.485 1.485 -3 3 C-0.69 3.33 1.62 3.66 4 4 C4 4.33 4 4.66 4 5 C1.87506859 5.02693575 -0.24995912 5.04636628 -2.375 5.0625 C-3.55835938 5.07410156 -4.74171875 5.08570313 -5.9609375 5.09765625 C-9 5 -9 5 -11 4 C-10.1875 2.0625 -10.1875 2.0625 -9 0 C-5.52176885 -1.15941038 -3.54104422 -0.70820884 0 0 Z " fill="#B2B2B2" transform="translate(317,154)"/>
<path d="M0 0 C0.66 0 1.32 0 2 0 C2 0.99 2 1.98 2 3 C2.99 3.33 3.98 3.66 5 4 C4.67 4.99 4.34 5.98 4 7 C2.68 7 1.36 7 0 7 C0 8.98 0 10.96 0 13 C-1.98 13 -3.96 13 -6 13 C-6 12.34 -6 11.68 -6 11 C-5.34 10.67 -4.68 10.34 -4 10 C-2.86897474 7.65961814 -2.86897474 7.65961814 -1.875 4.9375 C-1.52179688 4.01839844 -1.16859375 3.09929687 -0.8046875 2.15234375 C-0.40636719 1.08693359 -0.40636719 1.08693359 0 0 Z " fill="#AFAFAF" transform="translate(265,191)"/>
<path d="M0 0 C0.66 0.33 1.32 0.66 2 1 C2 5.62 2 10.24 2 15 C2.66 15 3.32 15 4 15 C4 15.66 4 16.32 4 17 C2.02 17 0.04 17 -2 17 C-1.34 11.39 -0.68 5.78 0 0 Z " fill="#B4B5B5" transform="translate(434,187)"/>
<path d="M0 0 C0.66 0 1.32 0 2 0 C3.33957845 7.18501171 3.33957845 7.18501171 1.75 11 C1.1725 11.66 0.595 12.32 0 13 C-0.99 13 -1.98 13 -3 13 C-3.31563182 7.73946963 -2.66590937 4.55426184 0 0 Z " fill="#AFB0B1" transform="translate(154,119)"/>
<path d="M0 0 C0.33 0.66 0.66 1.32 1 2 C1.66 2 2.32 2 3 2 C2.67 3.32 2.34 4.64 2 6 C2.66 6.33 3.32 6.66 4 7 C2.68 9.31 1.36 11.62 0 14 C-0.33 13.34 -0.66 12.68 -1 12 C-1.66 12 -2.32 12 -3 12 C-3.88336837 9.5332355 -4.1312406 8.36140628 -3.22265625 5.859375 C-2.83980469 5.16328125 -2.45695312 4.4671875 -2.0625 3.75 C-1.68222656 3.04359375 -1.30195312 2.3371875 -0.91015625 1.609375 C-0.60980469 1.07828125 -0.30945313 0.5471875 0 0 Z " fill="#C9C9C9" transform="translate(108,120)"/>
<path d="M0 0 C-1.32 0.99 -2.64 1.98 -4 3 C-3.34 3 -2.68 3 -2 3 C-2 3.66 -2 4.32 -2 5 C-3.40751221 5.86916887 -4.8264521 6.71985149 -6.25 7.5625 C-7.03890625 8.03816406 -7.8278125 8.51382813 -8.640625 9.00390625 C-11.30844625 10.13022151 -12.34501768 10.0169313 -15 9 C-13.35 8.01 -11.7 7.02 -10 6 C-10.66 6 -11.32 6 -12 6 C-12 5.34 -12 4.68 -12 4 C-10.56988027 3.13353333 -9.13059381 2.28218171 -7.6875 1.4375 C-6.88699219 0.96183594 -6.08648437 0.48617187 -5.26171875 -0.00390625 C-3 -1 -3 -1 0 0 Z " fill="#AFB1B0" transform="translate(180,56)"/>
<path d="M0 0 C4.95 0 9.9 0 15 0 C15 0.66 15 1.32 15 2 C10.83423084 2.50766936 6.66726208 3.00474723 2.5 3.5 C0.74042969 3.71462891 0.74042969 3.71462891 -1.0546875 3.93359375 C-7.08191981 4.64467172 -12.93092562 5.18026954 -19 5 C-19 4.67 -19 4.34 -19 4 C-16.95928485 3.66089006 -14.91737379 3.32897296 -12.875 3 C-11.73804688 2.814375 -10.60109375 2.62875 -9.4296875 2.4375 C-6.23862398 2.03043951 -3.21182209 1.92190098 0 2 C0 1.34 0 0.68 0 0 Z " fill="#D0D2D3" transform="translate(277,29)"/>
<path d="M0 0 C2.17854707 3.2678206 3.49760034 6.38058265 5 10 C2.50935112 10.68707555 0.62113708 11 -2 11 C-2.96891192 5.62694301 -2.96891192 5.62694301 -3 3 C-1.5625 1 -1.5625 1 0 0 Z " fill="#C0C0C0" transform="translate(171,144)"/>
<path d="M0 0 C0.99 0 1.98 0 3 0 C2.85950482 1.47968324 2.71245174 2.95874516 2.5625 4.4375 C2.48128906 5.26121094 2.40007812 6.08492187 2.31640625 6.93359375 C2 9 2 9 1 10 C-0.66617115 10.04063832 -2.33388095 10.042721 -4 10 C-3.67 8.02 -3.34 6.04 -3 4 C-2.34 4 -1.68 4 -1 4 C-0.67 2.68 -0.34 1.36 0 0 Z " fill="#C3C4C4" transform="translate(298,149)"/>
<path d="M0 0 C1.9375 2.0625 1.9375 2.0625 3 4 C-1 4 -1 4 -3.5625 2.875 C-4.366875 2.58625 -5.17125 2.2975 -6 2 C-6.99 2.66 -7.98 3.32 -9 4 C-9.99 3.67 -10.98 3.34 -12 3 C-8.69167681 -1.96248478 -5.44333401 -1.26363111 0 0 Z " fill="#A9A9A9" transform="translate(176,186)"/>
<path d="M0 0 C5.61 0 11.22 0 17 0 C17.33 0.99 17.66 1.98 18 3 C16.02 3.33 14.04 3.66 12 4 C12 3.34 12 2.68 12 2 C9.69 2 7.38 2 5 2 C5 2.33 5 2.66 5 3 C3.35 3 1.7 3 0 3 C0 2.01 0 1.02 0 0 Z " fill="#B4B5B5" transform="translate(359,114)"/>
<path d="M0 0 C0.99 0 1.98 0 3 0 C4.26950234 3.0006419 3.98068499 4.05184556 2.8125 7.1875 C1 10 1 10 -1.1875 10.875 C-2.0846875 10.936875 -2.0846875 10.936875 -3 11 C-3.33 10.01 -3.66 9.02 -4 8 C-3.34 8 -2.68 8 -2 8 C-1.7834375 6.576875 -1.7834375 6.576875 -1.5625 5.125 C-1 2 -1 2 0 0 Z " fill="#BEC0C0" transform="translate(565,138)"/>
<path d="M0 0 C0.33 0.99 0.66 1.98 1 3 C-4.22771463 6.04157942 -7.92671312 7.50610724 -14 7 C-13.195625 6.38125 -12.39125 5.7625 -11.5625 5.125 C-8.96125481 3.25835959 -8.96125481 3.25835959 -8 1 C-6.865625 1.020625 -5.73125 1.04125 -4.5625 1.0625 C-1.18424326 1.41577477 -1.18424326 1.41577477 0 0 Z " fill="#BEC1BF" transform="translate(187,53)"/>
<path d="M0 0 C1.98 0 3.96 0 6 0 C6 0.99 6 1.98 6 3 C5.34 3 4.68 3 4 3 C4.33 4.98 4.66 6.96 5 9 C4.34 9 3.68 9 3 9 C2.01 10.485 2.01 10.485 1 12 C0.83126522 10.56274129 0.66509263 9.12518162 0.5 7.6875 C0.4071875 6.88699219 0.314375 6.08648437 0.21875 5.26171875 C0 3 0 3 0 0 Z " fill="#B9B9B9" transform="translate(351,185)"/>
<path d="M0 0 C1.98 0.495 1.98 0.495 4 1 C4.08131463 2.43655854 4.13933559 3.8744483 4.1875 5.3125 C4.22230469 6.11300781 4.25710937 6.91351563 4.29296875 7.73828125 C3.93801608 10.47851584 3.10633718 11.29171079 1 13 C1 12.34 1 11.68 1 11 C0.34 11 -0.32 11 -1 11 C-0.67 7.37 -0.34 3.74 0 0 Z " fill="#BEC0C1" transform="translate(64,143)"/>
<path d="M0 0 C1.65 0.33 3.3 0.66 5 1 C4.21658881 2.98244892 3.42302514 4.96088859 2.625 6.9375 C2.18414062 8.03964844 1.74328125 9.14179688 1.2890625 10.27734375 C0 13 0 13 -2 14 C-1.44661458 12.046875 -0.89322917 10.09375 -0.33984375 8.140625 C0.03649694 5.77011123 -0.38885788 4.29057992 -1 2 C-0.67 1.34 -0.34 0.68 0 0 Z " fill="#B2B3B3" transform="translate(398,121)"/>
<path d="M0 0 C3.63 0 7.26 0 11 0 C10.67 0.99 10.34 1.98 10 3 C6.7 3.33 3.4 3.66 0 4 C0 2.68 0 1.36 0 0 Z " fill="#C4C4C4" transform="translate(196,114)"/>
<path d="M0 0 C1.32 0.33 2.64 0.66 4 1 C4 1.66 4 2.32 4 3 C5.32 2.67 6.64 2.34 8 2 C8 2.66 8 3.32 8 4 C2.555 5.485 2.555 5.485 -3 7 C-1 2 -1 2 0 0 Z " fill="#C6C6C6" transform="translate(209,41)"/>
<path d="M0 0 C0.99 0 1.98 0 3 0 C3 3.63 3 7.26 3 11 C1.68 11.33 0.36 11.66 -1 12 C-0.67 8.04 -0.34 4.08 0 0 Z " fill="#C9CACB" transform="translate(120,138)"/>
<path d="M0 0 C0.66 1.32 1.32 2.64 2 4 C1.34 4.66 0.68 5.32 0 6 C-0.33 5.01 -0.66 4.02 -1 3 C-3.64 3.33 -6.28 3.66 -9 4 C-9.33 3.01 -9.66 2.02 -10 1 C-6.61981469 -0.04005702 -3.5219721 -0.08004482 0 0 Z " fill="#ABABAB" transform="translate(487,185)"/>
<path d="M0 0 C5.28 0 10.56 0 16 0 C16.33 0.66 16.66 1.32 17 2 C8.585 2.495 8.585 2.495 0 3 C0 2.01 0 1.02 0 0 Z " fill="#A2A2A2" transform="translate(148,139)"/>
<path d="M0 0 C0.33 1.32 0.66 2.64 1 4 C1.66 4 2.32 4 3 4 C3 5.98 3 7.96 3 10 C2.401875 9.814375 1.80375 9.62875 1.1875 9.4375 C-1.16408762 8.77906313 -1.16408762 8.77906313 -4 10 C-2.8905928 6.51329166 -1.73662334 3.22515763 0 0 Z " fill="#D0D0D0" transform="translate(150,128)"/>
<path d="M0 0 C0.33 0 0.66 0 1 0 C1.33 2.97 1.66 5.94 2 9 C0.35 9.66 -1.3 10.32 -3 11 C-4.33332095 8.3333581 -3.67102033 6.83319697 -3 4 C-2.34 4 -1.68 4 -1 4 C-0.67 2.68 -0.34 1.36 0 0 Z " fill="#C8C8C9" transform="translate(588,121)"/>
<path d="M0 0 C4.62 0 9.24 0 14 0 C14 0.33 14 0.66 14 1 C12.3603125 1.433125 12.3603125 1.433125 10.6875 1.875 C6.95986155 2.81893204 6.95986155 2.81893204 4 5 C2.68 4.34 1.36 3.68 0 3 C0 2.01 0 1.02 0 0 Z " fill="#B4B5B4" transform="translate(512,114)"/>
<path d="M0 0 C1.32 1.32 2.64 2.64 4 4 C3.01 4.495 3.01 4.495 2 5 C1.34227572 8.02934491 1.34227572 8.02934491 1 11 C0.34 11 -0.32 11 -1 11 C-1 9.02 -1 7.04 -1 5 C-1.66 4.67 -2.32 4.34 -3 4 C-2.01 2.68 -1.02 1.36 0 0 Z " fill="#C7C8C9" transform="translate(157,114)"/>
<path d="M0 0 C3.76854223 1.25618074 4.07958456 2.66014706 6 6 C6.66 6.33 7.32 6.66 8 7 C7.67 7.99 7.34 8.98 7 10 C2.48864333 7.80528594 0.93726652 5.58826282 -1 1 C-0.67 0.67 -0.34 0.34 0 0 Z " fill="#B9B9B9" transform="translate(459,195)"/>
<path d="M0 0 C1.98 0.495 1.98 0.495 4 1 C3.814375 1.7425 3.62875 2.485 3.4375 3.25 C3.00796892 5.94990963 3.14877026 7.44631077 4 10 C2.68 9.67 1.36 9.34 0 9 C-1.125 3.375 -1.125 3.375 0 0 Z " fill="#D3D3D3" transform="translate(163,190)"/>
<path d="M0 0 C0.89203125 0.20367187 1.7840625 0.40734375 2.703125 0.6171875 C3.37859375 0.78476563 4.0540625 0.95234375 4.75 1.125 C4.75 1.785 4.75 2.445 4.75 3.125 C0.46 3.125 -3.83 3.125 -8.25 3.125 C-8.58 2.465 -8.91 1.805 -9.25 1.125 C-5.82794357 -1.03377391 -3.8855015 -0.92025036 0 0 Z " fill="#C2C7C3" transform="translate(288.25,155.875)"/>
<path d="M0 0 C2.31 0.33 4.62 0.66 7 1 C6.67 2.32 6.34 3.64 6 5 C2.37 4.67 -1.26 4.34 -5 4 C-3.68 3.34 -2.36 2.68 -1 2 C-0.67 1.34 -0.34 0.68 0 0 Z " fill="#B5B5B5" transform="translate(207,114)"/>
<path d="M0 0 C3.16115776 1.36983503 3.9927092 1.9890638 6 5 C5.01 5 4.02 5 3 5 C2.67 5.66 2.34 6.32 2 7 C1.01 7 0.02 7 -1 7 C-1 6.01 -1 5.02 -1 4 C-1.66 3.67 -2.32 3.34 -3 3 C-2.34 3 -1.68 3 -1 3 C-0.67 2.01 -0.34 1.02 0 0 Z " fill="#B4B5C6" transform="translate(521,86)"/>
<path d="M0 0 C2.64 0 5.28 0 8 0 C8 0.66 8 1.32 8 2 C8.66 2.33 9.32 2.66 10 3 C9.67 3.66 9.34 4.32 9 5 C7.68 5 6.36 5 5 5 C5 4.34 5 3.68 5 3 C3.35 2.67 1.7 2.34 0 2 C0 1.34 0 0.68 0 0 Z " fill="#B6B6B8" transform="translate(268,26)"/>
<path d="M0 0 C1.0209375 0.2165625 1.0209375 0.2165625 2.0625 0.4375 C5.36273082 1.06945909 8.67144426 1.54313941 12 2 C12 2.66 12 3.32 12 4 C8.8125 4.8125 8.8125 4.8125 5 5 C2.0625 2.5625 2.0625 2.5625 0 0 Z " fill="#A1A1A1" transform="translate(164,200)"/>
<path d="M0 0 C0.66 0 1.32 0 2 0 C2 0.99 2 1.98 2 3 C2.66 3 3.32 3 4 3 C3.34 5.31 2.68 7.62 2 10 C1.34 10 0.68 10 0 10 C0 9.01 0 8.02 0 7 C-0.66 7 -1.32 7 -2 7 C-1.34 4.69 -0.68 2.38 0 0 Z " fill="#B2B2B2" transform="translate(145,139)"/>
<path d="M0 0 C2.00720923 0.28674418 4.0085944 0.61866701 6 1 C4.02 1.99 4.02 1.99 2 3 C6.29 3.33 10.58 3.66 15 4 C15 4.33 15 4.66 15 5 C9.72 5 4.44 5 -1 5 C-1.33 5.99 -1.66 6.98 -2 8 C-2.33 7.34 -2.66 6.68 -3 6 C-2.67 5.34 -2.34 4.68 -2 4 C-1.34 4 -0.68 4 0 4 C-0.33 3.01 -0.66 2.02 -1 1 C-0.67 0.67 -0.34 0.34 0 0 Z " fill="#A9ABAA" transform="translate(395,136)"/>
<path d="M0 0 C2.875 -0.125 2.875 -0.125 6 0 C6.66 0.66 7.32 1.32 8 2 C7.625 4.125 7.625 4.125 7 6 C6.34 6 5.68 6 5 6 C5 5.01 5 4.02 5 3 C3.35 3.33 1.7 3.66 0 4 C0 2.68 0 1.36 0 0 Z " fill="#A5A5A5" transform="translate(333,185)"/>
<path d="M0 0 C0.66 1.32 1.32 2.64 2 4 C-4.75 6.125 -4.75 6.125 -7 5 C-7 4.01 -7 3.02 -7 2 C-4.69 1.34 -2.38 0.68 0 0 Z " fill="#ADADAD" transform="translate(488,199)"/>
<path d="M0 0 C0.66 0.33 1.32 0.66 2 1 C2.40729228 3.32156597 2.74438677 5.6568787 3 8 C0.69 8 -1.62 8 -4 8 C-2.68 5.36 -1.36 2.72 0 0 Z " fill="#ABABAB" transform="translate(241,196)"/>
<path d="M0 0 C1.32 0 2.64 0 4 0 C4.33 2.97 4.66 5.94 5 9 C3.68 9 2.36 9 1 9 C0.63877119 7.68942607 0.28619689 6.37646376 -0.0625 5.0625 C-0.35833984 3.96615234 -0.35833984 3.96615234 -0.66015625 2.84765625 C-0.77230469 2.23792969 -0.88445312 1.62820312 -1 1 C-0.67 0.67 -0.34 0.34 0 0 Z " fill="#C6C6C6" transform="translate(192,185)"/>
<path d="M0 0 C-0.598125 0.28875 -1.19625 0.5775 -1.8125 0.875 C-4.19327792 2.04742026 -4.19327792 2.04742026 -7 4 C-9.33199388 4.07905064 -11.66832622 4.08798769 -14 4 C-14 3.34 -14 2.68 -14 2 C-9.07262981 0.02905192 -5.21979128 -0.1799928 0 0 Z " fill="#B0B0B0" transform="translate(187,155)"/>
<path d="M0 0 C0.99 1.485 0.99 1.485 2 3 C2.99387334 4.33790641 3.9926892 5.67218122 5 7 C5 6.01 5 5.02 5 4 C5.66 4 6.32 4 7 4 C7.33 5.98 7.66 7.96 8 10 C6.35 10.33 4.7 10.66 3 11 C0 4.5 0 4.5 0 0 Z " fill="#ABACAD" transform="translate(158,124)"/>
<path d="M0 0 C1.9375 0.3125 1.9375 0.3125 4 1 C5 4 5 4 5 7 C4.01 7.33 3.02 7.66 2 8 C0.4375 6.25 0.4375 6.25 -1 4 C-0.6875 1.75 -0.6875 1.75 0 0 Z " fill="#C4C5C5" transform="translate(441,124)"/>
<path d="M0 0 C0.33 1.32 0.66 2.64 1 4 C2.65 3.67 4.3 3.34 6 3 C6 4.65 6 6.3 6 8 C4.35 7.67 2.7 7.34 1 7 C0.67 8.65 0.34 10.3 0 12 C-0.33 12 -0.66 12 -1 12 C-0.67 8.04 -0.34 4.08 0 0 Z " fill="#A6A6A6" transform="translate(383,189)"/>
<path d="M0 0 C1.32 0.99 2.64 1.98 4 3 C3.34 3 2.68 3 2 3 C2 4.32 2 5.64 2 7 C-0.97 7 -3.94 7 -7 7 C-7 6.34 -7 5.68 -7 5 C-5.02 5 -3.04 5 -1 5 C-0.67 3.35 -0.34 1.7 0 0 Z " fill="#C3C6C6" transform="translate(419,152)"/>
<path d="M0 0 C0.66 0 1.32 0 2 0 C2.59732819 2.76264289 3 5.16032769 3 8 C2.01 8.33 1.02 8.66 0 9 C-0.33 7.68 -0.66 6.36 -1 5 C-1.99 5.495 -1.99 5.495 -3 6 C-1.125 1.125 -1.125 1.125 0 0 Z " fill="#C9C9C9" transform="translate(143,146)"/>
<path d="M0 0 C2.97 0 5.94 0 9 0 C9 0.99 9 1.98 9 3 C7.6078125 2.9071875 7.6078125 2.9071875 6.1875 2.8125 C3.01604897 2.69105736 3.01604897 2.69105736 1.125 4.5 C0.75375 4.995 0.3825 5.49 0 6 C-1.125 2.25 -1.125 2.25 0 0 Z " fill="#C5C5C4" transform="translate(345,115)"/>
<path d="M0 0 C1.4540625 0.0309375 1.4540625 0.0309375 2.9375 0.0625 C2.9375 1.0525 2.9375 2.0425 2.9375 3.0625 C2.298125 3.18625 1.65875 3.31 1 3.4375 C0.319375 3.64375 -0.36125 3.85 -1.0625 4.0625 C-1.3925 4.7225 -1.7225 5.3825 -2.0625 6.0625 C-2.7225 6.0625 -3.3825 6.0625 -4.0625 6.0625 C-4.105221 4.39638095 -4.10313832 2.72867115 -4.0625 1.0625 C-3.0625 0.0625 -3.0625 0.0625 0 0 Z " fill="#B3B4B4" transform="translate(329.0625,184.9375)"/>
<path d="M0 0 C3.3 0 6.6 0 10 0 C9.01 0.33 8.02 0.66 7 1 C7 1.66 7 2.32 7 3 C4.69 3.33 2.38 3.66 0 4 C0 2.68 0 1.36 0 0 Z " fill="#B6B7B6" transform="translate(421,155)"/>
<path d="M0 0 C0.66 0 1.32 0 2 0 C2.6875 3.3125 2.6875 3.3125 3 7 C1.5625 8.9375 1.5625 8.9375 0 10 C-1.125 2.25 -1.125 2.25 0 0 Z " fill="#B0B1B3" transform="translate(389,141)"/>
<path d="M0 0 C3.33557632 2.9905167 5.15083921 5.93184627 7 10 C6.34 10 5.68 10 5 10 C4.34 9.01 3.68 8.02 3 7 C2.01 7.33 1.02 7.66 0 8 C0 5.36 0 2.72 0 0 Z " fill="#A8A9AB" transform="translate(70,116)"/>
<path d="M0 0 C0.66 0 1.32 0 2 0 C2 1.65 2 3.3 2 5 C-0.31 5.33 -2.62 5.66 -5 6 C-5 5.01 -5 4.02 -5 3 C-3.35 2.67 -1.7 2.34 0 2 C0 1.34 0 0.68 0 0 Z " fill="#B1B1B1" transform="translate(390,199)"/>
<path d="M0 0 C2.97 0.495 2.97 0.495 6 1 C6 2.32 6 3.64 6 5 C4.68 5 3.36 5 2 5 C2 4.34 2 3.68 2 3 C1.01 3 0.02 3 -1 3 C-0.67 2.01 -0.34 1.02 0 0 Z " fill="#BCBCBE" transform="translate(71,154)"/>
<path d="M0 0 C0 1.65 0 3.3 0 5 C-1.98 5.33 -3.96 5.66 -6 6 C-6 5.34 -6 4.68 -6 4 C-6.66 4 -7.32 4 -8 4 C-7 2 -7 2 -4 0.875 C-1 0 -1 0 0 0 Z " fill="#A5A5A5" transform="translate(227,199)"/>
<path d="M0 0 C0.66 0 1.32 0 2 0 C2 1.65 2 3.3 2 5 C2.66 5 3.32 5 4 5 C4 5.66 4 6.32 4 7 C1.69 7 -0.62 7 -3 7 C-3 6.34 -3 5.68 -3 5 C-2.34 4.67 -1.68 4.34 -1 4 C-0.34786708 1.97536745 -0.34786708 1.97536745 0 0 Z " fill="#BABABA" transform="translate(194,197)"/>
<path d="M0 0 C0.99 0 1.98 0 3 0 C3 1.98 3 3.96 3 6 C3.66 6 4.32 6 5 6 C4.67 6.66 4.34 7.32 4 8 C1.03 7.505 1.03 7.505 -2 7 C-1.34 4.69 -0.68 2.38 0 0 Z " fill="#B7B7B7" transform="translate(216,197)"/>
<path d="M0 0 C0.66 0 1.32 0 2 0 C2 0.99 2 1.98 2 3 C2.99 3.33 3.98 3.66 5 4 C4.67 4.99 4.34 5.98 4 7 C2.68 7 1.36 7 0 7 C0 6.34 0 5.68 0 5 C-0.66 4.67 -1.32 4.34 -2 4 C-1.34 2.68 -0.68 1.36 0 0 Z " fill="#838383" transform="translate(265,191)"/>
<path d="M0 0 C0.99 0 1.98 0 3 0 C2.67 2.97 2.34 5.94 2 9 C1.67 7.68 1.34 6.36 1 5 C-0.32 4.67 -1.64 4.34 -3 4 C-1.6875 2 -1.6875 2 0 0 Z " fill="#D4D5D5" transform="translate(264,149)"/>
<path d="M0 0 C0.33 0.66 0.66 1.32 1 2 C1.66 2.33 2.32 2.66 3 3 C1.6875 5 1.6875 5 0 7 C-0.99 7 -1.98 7 -3 7 C-3.1875 4.625 -3.1875 4.625 -3 2 C-2.01 1.34 -1.02 0.68 0 0 Z " fill="#C6C6C6" transform="translate(121,101)"/>
<path d="M0 0 C2.05078125 0.03255208 4.1015625 0.06510417 6.15234375 0.09765625 C6.15234375 1.08765625 6.15234375 2.07765625 6.15234375 3.09765625 C2.77734375 3.22265625 2.77734375 3.22265625 -0.84765625 3.09765625 C-1.50765625 2.43765625 -2.16765625 1.77765625 -2.84765625 1.09765625 C-1.84765625 0.09765625 -1.84765625 0.09765625 0 0 Z " fill="#AAAAAA" transform="translate(357.84765625,192.90234375)"/>
<path d="M0 0 C1.98 0 3.96 0 6 0 C6.33 1.32 6.66 2.64 7 4 C5.02 4 3.04 4 1 4 C0.67 2.68 0.34 1.36 0 0 Z " fill="#B5B9B6" transform="translate(537,154)"/>
<path d="M0 0 C2.625 0.9375 2.625 0.9375 5 2 C4.67 2.66 4.34 3.32 4 4 C1.67843403 4.40729228 -0.6568787 4.74438677 -3 5 C-2.625 3.0625 -2.625 3.0625 -2 1 C-1.34 0.67 -0.68 0.34 0 0 Z " fill="#BDBFBE" transform="translate(156,68)"/>
<path d="M0 0 C0.88336837 2.4667645 1.1312406 3.63859372 0.22265625 6.140625 C-0.16019531 6.83671875 -0.54304688 7.5328125 -0.9375 8.25 C-1.31777344 8.95640625 -1.69804688 9.6628125 -2.08984375 10.390625 C-2.39019531 10.92171875 -2.69054687 11.4528125 -3 12 C-3.66 11.67 -4.32 11.34 -5 11 C-3.55049545 7.2089881 -1.84827434 3.6125362 0 0 Z " fill="#B0B0B0" transform="translate(106,132)"/>
<path d="M0 0 C1.125 3.75 1.125 3.75 0 6 C1.32 6 2.64 6 4 6 C4 6.66 4 7.32 4 8 C3.01 8.33 2.02 8.66 1 9 C0.34 8.67 -0.32 8.34 -1 8 C-1.75 5.625 -1.75 5.625 -2 3 C-1.34 2.01 -0.68 1.02 0 0 Z " fill="#939393" transform="translate(408,189)"/>
<path d="M0 0 C1.65 0.33 3.3 0.66 5 1 C5 2.65 5 4.3 5 6 C3.02 5.01 1.04 4.02 -1 3 C-0.67 2.01 -0.34 1.02 0 0 Z " fill="#B5B5B5" transform="translate(437,185)"/>
<path d="M0 0 C4.29 0 8.58 0 13 0 C12.67 1.32 12.34 2.64 12 4 C11.01 3.67 10.02 3.34 9 3 C9.33 2.67 9.66 2.34 10 2 C6.7 1.67 3.4 1.34 0 1 C0 0.67 0 0.34 0 0 Z " fill="#AFB0B1" transform="translate(239,114)"/>
<path d="M0 0 C1.98 0 3.96 0 6 0 C6.33 0.66 6.66 1.32 7 2 C5.02 2.33 3.04 2.66 1 3 C0.67 4.32 0.34 5.64 0 7 C0 4.69 0 2.38 0 0 Z " fill="#A1A1A1" transform="translate(193,194)"/>
<path d="M0 0 C0.99 0 1.98 0 3 0 C3 3.3 3 6.6 3 10 C2.34 10 1.68 10 1 10 C0.67 6.7 0.34 3.4 0 0 Z " fill="#C1C1C1" transform="translate(240,185)"/>
<path d="M0 0 C1.32 0 2.64 0 4 0 C3.67 1.65 3.34 3.3 3 5 C1.68 4.34 0.36 3.68 -1 3 C-0.67 2.01 -0.34 1.02 0 0 Z " fill="#B6B6B6" transform="translate(261,154)"/>
<path d="M0 0 C1.32 0.66 2.64 1.32 4 2 C3.01 2.33 2.02 2.66 1 3 C0.67 4.65 0.34 6.3 0 8 C-0.33 8 -0.66 8 -1 8 C-1.04241723 5.66705225 -1.04092937 3.33297433 -1 1 C-0.67 0.67 -0.34 0.34 0 0 Z " fill="#ADB1AE" transform="translate(432,114)"/>
<path d="M0 0 C0 1.65 0 3.3 0 5 C-2.97 4.505 -2.97 4.505 -6 4 C-6 3.34 -6 2.68 -6 2 C-2.25 0 -2.25 0 0 0 Z " fill="#ADADAD" transform="translate(487,192)"/>
<path d="M0 0 C0.99 0.66 1.98 1.32 3 2 C2.67 2.99 2.34 3.98 2 5 C-0.31 5.33 -2.62 5.66 -5 6 C-5 5.34 -5 4.68 -5 4 C-4.0409375 3.8453125 -4.0409375 3.8453125 -3.0625 3.6875 C-2.381875 3.460625 -1.70125 3.23375 -1 3 C-0.67 2.01 -0.34 1.02 0 0 Z " fill="#A3A3A3" transform="translate(461,190)"/>
<path d="M0 0 C-0.33 1.65 -0.66 3.3 -1 5 C-3.475 4.01 -3.475 4.01 -6 3 C-6 2.34 -6 1.68 -6 1 C-3 0 -3 0 0 0 Z " fill="#9D9D9D" transform="translate(225,192)"/>
<path d="M0 0 C2.475 0.495 2.475 0.495 5 1 C5.33 1.99 5.66 2.98 6 4 C5.01 4.99 4.02 5.98 3 7 C2.87625 6.401875 2.7525 5.80375 2.625 5.1875 C2.04524015 2.73768652 2.04524015 2.73768652 0 0 Z " fill="#BEBEBE" transform="translate(297,185)"/>
<path d="M0 0 C0.99 0 1.98 0 3 0 C3.625 2.375 3.625 2.375 4 5 C3.34 5.66 2.68 6.32 2 7 C2 6.01 2 5.02 2 4 C1.01 3.67 0.02 3.34 -1 3 C-0.67 2.01 -0.34 1.02 0 0 Z " fill="#C7C7C7" transform="translate(98,141)"/>
<path d="M0 0 C2.97 0.495 2.97 0.495 6 1 C6 1.66 6 2.32 6 3 C3.69 3 1.38 3 -1 3 C-0.67 2.01 -0.34 1.02 0 0 Z " fill="#B2B2B2" transform="translate(413,201)"/>
<path d="M0 0 C-0.3125 1.875 -0.3125 1.875 -1 4 C-1.99 4.66 -2.98 5.32 -4 6 C-4.33 5.01 -4.66 4.02 -5 3 C-2.25 0 -2.25 0 0 0 Z " fill="#B6B6B6" transform="translate(204,190)"/>
<path d="M0 0 C1.98 0 3.96 0 6 0 C6.33 0.99 6.66 1.98 7 3 C4.36 3 1.72 3 -1 3 C-0.67 2.01 -0.34 1.02 0 0 Z " fill="#CACACA" transform="translate(369,156)"/>
<path d="M0 0 C0.33 0.66 0.66 1.32 1 2 C2.97888961 2.72693904 4.97954558 3.39816251 7 4 C7 4.66 7 5.32 7 6 C4.69 5.34 2.38 4.68 0 4 C0 2.68 0 1.36 0 0 Z " fill="#B8B8B8" transform="translate(370,152)"/>
<path d="M0 0 C0.99 0.99 1.98 1.98 3 3 C1.35 4.65 -0.3 6.3 -2 8 C-2.66 7.67 -3.32 7.34 -4 7 C-3.525625 6.401875 -3.05125 5.80375 -2.5625 5.1875 C-0.83534256 2.99617076 -0.83534256 2.99617076 0 0 Z " fill="#C2C2C2" transform="translate(220,147)"/>
<path d="M0 0 C1.0625 1.8125 1.0625 1.8125 2 4 C1.67 4.99 1.34 5.98 1 7 C0.01 6.67 -0.98 6.34 -2 6 C-1.34 5.01 -0.68 4.02 0 3 C-0.99 3 -1.98 3 -3 3 C-3 2.34 -3 1.68 -3 1 C-2.01 0.67 -1.02 0.34 0 0 Z " fill="#C4C6C5" transform="translate(573,128)"/>
<path d="M0 0 C0.33 0.66 0.66 1.32 1 2 C1.66 2 2.32 2 3 2 C2.34 3.65 1.68 5.3 1 7 C0.01 6.67 -0.98 6.34 -2 6 C-1.34 4.02 -0.68 2.04 0 0 Z " fill="#C1C1C1" transform="translate(108,120)"/>
<path d="M0 0 C-6.16981132 4.11320755 -6.16981132 4.11320755 -9.75 3.625 C-10.4925 3.41875 -11.235 3.2125 -12 3 C-7.85930434 0.85826087 -4.68855996 -0.12671784 0 0 Z " fill="#B7B7B7" transform="translate(240,33)"/>
<path d="M0 0 C0.99 0 1.98 0 3 0 C3.33 1.65 3.66 3.3 4 5 C3.34 5 2.68 5 2 5 C1.34 5.99 0.68 6.98 0 8 C0 5.36 0 2.72 0 0 Z " fill="#C9C9C9" transform="translate(352,189)"/>
<path d="M0 0 C1.98 0 3.96 0 6 0 C6 0.99 6 1.98 6 3 C4.02 3 2.04 3 0 3 C0 2.01 0 1.02 0 0 Z " fill="#B2B2B2" transform="translate(362,185)"/>
<path d="M0 0 C1.65 0 3.3 0 5 0 C5 1.32 5 2.64 5 4 C3.35 4 1.7 4 0 4 C0 2.66666667 0 1.33333333 0 0 Z " fill="#BEBEBE" transform="translate(205,155)"/>
<path d="M0 0 C0 0.66 0 1.32 0 2 C-1.98 2.33 -3.96 2.66 -6 3 C-6 2.01 -6 1.02 -6 0 C-3.50907189 -1.24546405 -2.58919267 -0.7767578 0 0 Z " fill="#B3B3B3" transform="translate(172,155)"/>
<path d="M0 0 C-0.66 2.31 -1.32 4.62 -2 7 C-2.99 6.67 -3.98 6.34 -5 6 C-4.625 3.5625 -4.625 3.5625 -4 1 C-2 0 -2 0 0 0 Z " fill="#C2C2C2" transform="translate(137,85)"/>
<path d="" fill="#FFFFFF" transform="translate(0,0)"/>
</svg>
