<?xml version="1.0" encoding="UTF-8"?>
<svg version="1.1" xmlns="http://www.w3.org/2000/svg" width="425" height="146">
<path d="M0 0 C5.63208849 4.6195782 9.1448177 9.3995979 10.0234375 16.703125 C10.36049453 25.82473093 8.40897169 31.70738805 2.328125 38.515625 C1.06973227 39.84014451 -0.19886425 41.15503116 -1.4765625 42.4609375 C-2.13946289 43.15348633 -2.80236328 43.84603516 -3.48535156 44.55957031 C-8.0462498 49.30617648 -12.67996164 53.98023054 -17.3984375 58.5703125 C-19.24421517 60.47515505 -20.81526144 62.42733727 -22.3515625 64.5859375 C-25.07730521 64.21262926 -26.15978335 63.79399149 -28.0546875 61.73828125 C-28.56515625 61.00738281 -29.075625 60.27648437 -29.6015625 59.5234375 C-30.12234375 58.78996094 -30.643125 58.05648437 -31.1796875 57.30078125 C-31.56640625 56.73488281 -31.953125 56.16898438 -32.3515625 55.5859375 C-31.64580078 54.89757812 -31.64580078 54.89757812 -30.92578125 54.1953125 C-27.02061836 50.36008058 -27.02061836 50.36008058 -23.5390625 46.1484375 C-23.1471875 45.6328125 -22.7553125 45.1171875 -22.3515625 44.5859375 C-21.6915625 44.5859375 -21.0315625 44.5859375 -20.3515625 44.5859375 C-20.12082031 44.02519531 -19.89007813 43.46445313 -19.65234375 42.88671875 C-18.01230194 39.98586401 -15.95091206 38.06957613 -13.5390625 35.7734375 C-6.27191096 28.97767044 -6.27191096 28.97767044 -2.7890625 19.9609375 C-3.45794362 15.94765077 -4.32437491 14.29447376 -7.3515625 11.5859375 C-10.79345519 10.38875743 -12.60141945 10.31841924 -16.03515625 11.54296875 C-20.68639751 14.40822102 -23.92667978 18.21491719 -27.5390625 22.2734375 C-28.94175114 23.84653437 -30.35157635 25.41330604 -31.76953125 26.97265625 C-32.38594482 27.66576904 -33.0023584 28.35888184 -33.63745117 29.07299805 C-35.3515625 30.5859375 -35.3515625 30.5859375 -38.3515625 30.5859375 C-39.9921875 29.4140625 -39.9921875 29.4140625 -41.6015625 27.8359375 C-42.14296875 27.32546875 -42.684375 26.815 -43.2421875 26.2890625 C-44.3515625 24.5859375 -44.3515625 24.5859375 -44.20703125 22.6171875 C-43.23259637 20.30346084 -42.06463714 18.72461459 -40.4140625 16.8359375 C-39.88941406 16.22234375 -39.36476563 15.60875 -38.82421875 14.9765625 C-37.3515625 13.5859375 -37.3515625 13.5859375 -35.3515625 13.5859375 C-35.10921875 13.02003906 -34.866875 12.45414063 -34.6171875 11.87109375 C-31.20205352 5.70487962 -24.9693762 -0.00758479 -18.3515625 -2.4140625 C-12.03375747 -4.01724508 -5.64920131 -3.39702803 0 0 Z " fill="#BEBFC0" transform="translate(103.3515625,30.4140625)"/>
<path d="M0 0 C2.1875 1.0625 2.1875 1.0625 4.1875 4.0625 C4.11724553 8.36307697 3.64563335 10.49260747 0.9296875 13.87109375 C-0.01648438 14.73863281 -0.96265625 15.60617188 -1.9375 16.5 C-5.25149886 19.61774016 -8.49408828 22.7095536 -11.4375 26.1875 C-14.03827386 29.21442476 -16.72321552 32.13291359 -19.5 35 C-20.22574219 35.75152344 -20.95148438 36.50304687 -21.69921875 37.27734375 C-23.85354294 39.09717028 -25.02580137 39.81594024 -27.8125 40.0625 C-30.5 38.8125 -30.5 38.8125 -32.8125 37.0625 C-33.3075 35.5775 -33.3075 35.5775 -33.8125 34.0625 C-34.8025 33.7325 -35.7925 33.4025 -36.8125 33.0625 C-38.70868616 31.17951235 -40.37545625 29.16253849 -42.08984375 27.11328125 C-43.4306964 25.51702809 -44.85671501 23.99217962 -46.3125 22.5 C-47.8125 20.0625 -47.8125 20.0625 -47.625 16.3125 C-46.8125 13.0625 -46.8125 13.0625 -45.8125 12.0625 C-42.62109375 11.65625 -42.62109375 11.65625 -38.8125 12.0625 C-36.4918956 13.86969635 -34.78921859 15.40734934 -32.875 17.5625 C-32.38193359 18.08714844 -31.88886719 18.61179687 -31.38085938 19.15234375 C-30.17479501 20.44037365 -28.99126741 21.74944263 -27.8125 23.0625 C-24.76906051 21.71646653 -22.82446219 20.26600703 -20.60546875 17.796875 C-20.01830078 17.15363281 -19.43113281 16.51039062 -18.82617188 15.84765625 C-18.22353516 15.17605469 -17.62089844 14.50445312 -17 13.8125 C-4.65099654 0.10335548 -4.65099654 0.10335548 0 0 Z " fill="#BEBFC1" transform="translate(92.8125,43.9375)"/>
<path d="M0 0 C3.53740213 1.39974622 6.02131247 3.03032162 7.69140625 6.46875 C8.10473185 10.43667579 7.7881944 13.06146925 5.69140625 16.46875 C5.03140625 16.46875 4.37140625 16.46875 3.69140625 16.46875 C3.69140625 17.12875 3.69140625 17.78875 3.69140625 18.46875 C4.33078125 18.63375 4.97015625 18.79875 5.62890625 18.96875 C7.69140625 20.46875 7.69140625 20.46875 8.62890625 24.28125 C8.92150505 28.22062892 8.32325413 30.39826081 5.69140625 33.46875 C0.69140625 36.46875 0.69140625 36.46875 -17.30859375 36.46875 C-17.30859375 24.58875 -17.30859375 12.70875 -17.30859375 0.46875 C-12.51222576 -1.92943399 -5.12344807 -1.1789999 0 0 Z M-10.30859375 6.46875 C-10.30859375 9.43875 -10.30859375 12.40875 -10.30859375 15.46875 C-5.04587663 15.91586919 -5.04587663 15.91586919 -0.24609375 14.28125 C1.08595845 11.70594907 0.54493026 10.17157604 -0.30859375 7.46875 C-1.31695437 6.23607652 -1.31695437 6.23607652 -3.375 6.37109375 C-5.68619792 6.40364583 -7.99739583 6.43619792 -10.30859375 6.46875 Z M-10.30859375 21.46875 C-10.30859375 24.43875 -10.30859375 27.40875 -10.30859375 30.46875 C-8.88546875 30.530625 -7.46234375 30.5925 -5.99609375 30.65625 C-5.19558594 30.69105469 -4.39507812 30.72585937 -3.5703125 30.76171875 C-1.24058646 30.6475724 -1.24058646 30.6475724 0.5 29.12109375 C1.98062936 27.45025682 1.98062936 27.45025682 1.44140625 24.84375 C0.9139498 22.5375093 0.9139498 22.5375093 -0.30859375 21.46875 C-1.99468341 21.39669489 -3.68360034 21.38488932 -5.37109375 21.40625 C-6.29019531 21.41527344 -7.20929688 21.42429687 -8.15625 21.43359375 C-8.86652344 21.44519531 -9.57679688 21.45679687 -10.30859375 21.46875 Z " fill="#BEBFC0" transform="translate(281.30859375,39.53125)"/>
<path d="M0 0 C1.2065625 0.0309375 1.2065625 0.0309375 2.4375 0.0625 C10.88396925 14.65931093 10.88396925 14.65931093 14.4375 22.0625 C18.28688044 16.11345751 21.67752166 9.98411115 24.984375 3.72265625 C26.4375 1.0625 26.4375 1.0625 27.4375 0.0625 C29.4175 0.0625 31.3975 0.0625 33.4375 0.0625 C33.4375 11.6125 33.4375 23.1625 33.4375 35.0625 C30.9625 35.5575 30.9625 35.5575 28.4375 36.0625 C27.4375 35.0625 27.4375 35.0625 27.32397461 32.92944336 C27.32921143 32.01300049 27.33444824 31.09655762 27.33984375 30.15234375 C27.34306641 29.16298828 27.34628906 28.17363281 27.34960938 27.15429688 C27.35798828 26.11337891 27.36636719 25.07246094 27.375 24 C27.37951172 22.95521484 27.38402344 21.91042969 27.38867188 20.83398438 C27.40050087 18.2434334 27.41698311 15.65299441 27.4375 13.0625 C23.83204377 18.95441062 20.43518481 24.83653923 17.4375 31.0625 C15.23828125 31.09765625 15.23828125 31.09765625 12.4375 30.0625 C10.44518351 27.40427128 9.06650018 24.48399021 7.625 21.5 C6.243125 18.715625 4.86125 15.93125 3.4375 13.0625 C3.1075 20.6525 2.7775 28.2425 2.4375 36.0625 C0.7875 36.0625 -0.8625 36.0625 -2.5625 36.0625 C-2.72974111 31.09646287 -2.89033783 26.13027322 -3.04467773 21.16381836 C-3.09817115 19.47300377 -3.15350598 17.78224642 -3.21069336 16.09155273 C-3.29240041 13.66662953 -3.36756395 11.24158006 -3.44140625 8.81640625 C-3.46844131 8.05598526 -3.49547638 7.29556427 -3.52333069 6.51210022 C-3.57541299 4.69626666 -3.57436585 2.87904157 -3.5625 1.0625 C-2.5625 0.0625 -2.5625 0.0625 0 0 Z M27.4375 10.0625 C28.4375 12.0625 28.4375 12.0625 28.4375 12.0625 Z " fill="#BEC0C0" transform="translate(144.5625,39.9375)"/>
<path d="M0 0 C1.32 0 2.64 0 4 0 C4 2.64 4 5.28 4 8 C4.99 8.33 5.98 8.66 7 9 C7.33 9.66 7.66 10.32 8 11 C9.299375 10.2265625 9.299375 10.2265625 10.625 9.4375 C14.51399796 7.78107494 16.02899629 7.64816895 20 9 C22.8125 11.5 22.8125 11.5 25 14 C25.33 14.33 25.66 14.66 26 15 C25.979375 14.030625 25.95875 13.06125 25.9375 12.0625 C26 9 26 9 27 8 C29.86267567 7.92674832 32.700719 7.90761795 35.5625 7.9375 C36.36880859 7.94201172 37.17511719 7.94652344 38.00585938 7.95117188 C40.00393756 7.96299482 42.00197783 7.98093086 44 8 C44.495 10.475 44.495 10.475 45 13 C40.38 13 35.76 13 31 13 C31 18.28 31 23.56 31 29 C29.68 29 28.36 29 27 29 C26.67 26.03 26.34 23.06 26 20 C24.77023437 20.12568359 24.77023437 20.12568359 23.515625 20.25390625 C22.43796875 20.35574219 21.3603125 20.45757812 20.25 20.5625 C19.18265625 20.66691406 18.1153125 20.77132812 17.015625 20.87890625 C14.35858796 20.98560074 12.50039428 20.81930395 10 20 C11.66545339 22.16641665 11.66545339 22.16641665 14 24 C17.39154295 23.83849795 18.58296757 23.41703243 21 21 C22.32 21 23.64 21 25 21 C24.63515574 23.55390984 23.94055033 25.0891745 22.5 27.25 C19.28409337 29.50113464 17.05661974 29.63880595 13.19140625 29.44140625 C9.46944856 28.69170711 8.06802156 27.10203234 6 24 C5.06871084 20.56997022 4.35286987 17.29426026 6 14 C5.34 13.67 4.68 13.34 4 13 C4 18.28 4 23.56 4 29 C2.68 29 1.36 29 0 29 C-0.91471226 24.54077774 -1.05876239 20.38007185 -0.9375 15.85546875 C-0.78914184 13.98322445 -0.78914184 13.98322445 -2 13 C-2.04063832 11.33382885 -2.042721 9.66611905 -2 8 C-1.34 8 -0.68 8 0 8 C0 5.36 0 2.72 0 0 Z M14 13 C13.01 13.99 12.02 14.98 11 16 C13.97 16 16.94 16 20 16 C19.01 15.01 18.02 14.02 17 13 C16.01 13 15.02 13 14 13 Z " fill="#BCBDBD" transform="translate(293,90)"/>
<path d="M0 0 C2.83501639 2.16676253 5.20964078 4.64504514 7.640625 7.25390625 C6.980625 8.57390625 6.320625 9.89390625 5.640625 11.25390625 C1.93178466 9.56658768 -0.6870846 7.31619305 -3.67578125 4.59375 C-7.39612036 1.63301609 -11.82618153 1.78852137 -16.359375 2.25390625 C-21.62531844 4.11247452 -24.15333268 6.85704821 -27.359375 11.25390625 C-28.24888776 13.92244452 -28.58004437 15.73932094 -28.671875 18.50390625 C-28.70925781 19.2309375 -28.74664063 19.95796875 -28.78515625 20.70703125 C-27.70439516 27.17176729 -23.11242347 31.98980523 -18.734375 36.56640625 C-18.21456055 37.12110596 -17.69474609 37.67580566 -17.15917969 38.24731445 C-12.93322875 42.7298318 -8.56756789 47.06018635 -4.125 51.328125 C-2.359375 53.25390625 -2.359375 53.25390625 -2.359375 55.25390625 C-1.699375 55.25390625 -1.039375 55.25390625 -0.359375 55.25390625 C1.265625 57.25390625 1.265625 57.25390625 2.640625 59.25390625 C1.980625 60.57390625 1.320625 61.89390625 0.640625 63.25390625 C-2.93041939 61.3744092 -4.90681801 60.08337468 -6.359375 56.25390625 C-7.019375 56.25390625 -7.679375 56.25390625 -8.359375 56.25390625 C-9.734375 54.85546875 -9.734375 54.85546875 -11.359375 52.87890625 C-14.22901006 49.48806399 -17.24027524 46.35392653 -20.421875 43.25390625 C-27.37093278 36.35773323 -33.16486278 30.16613996 -33.734375 20.00390625 C-33.54213206 13.6598893 -31.69819779 8.00367187 -27.55859375 3.13671875 C-19.51026861 -4.39588847 -9.4689834 -5.9955479 0 0 Z " fill="#C1C3C2" transform="translate(57.359375,31.74609375)"/>
<path d="M0 0 C0 6.6 0 13.2 0 20 C4.71475919 15.69590544 4.71475919 15.69590544 6.375 12.6875 C8 11 8 11 11.6875 10.75 C12.780625 10.8325 13.87375 10.915 15 11 C13.44298069 15.67105792 10.91552627 19.08705685 8 23 C8.5775 23.92683594 9.155 24.85367188 9.75 25.80859375 C10.50011664 27.01815684 11.25011031 28.22779619 12 29.4375 C12.3815625 30.04916016 12.763125 30.66082031 13.15625 31.29101562 C16 35.88671875 16 35.88671875 16 37 C12.9375 37.625 12.9375 37.625 9 37 C6.8375573 34.57373929 5.18110731 32.05209908 3.48046875 29.28515625 C2.20325832 26.8901722 2.20325832 26.8901722 0 26 C0 29.63 0 33.26 0 37 C-2.31 37 -4.62 37 -7 37 C-7 24.79 -7 12.58 -7 0 C-2 -1 -2 -1 0 0 Z " fill="#BFC1C0" transform="translate(351,39)"/>
<path d="M0 0 C0.886875 -0.00257812 1.77375 -0.00515625 2.6875 -0.0078125 C5 0.125 5 0.125 7 1.125 C7 5.745 7 10.365 7 15.125 C3.00889681 17.1205516 1.30013434 17.32046065 -3 17.125 C-3 17.785 -3 18.445 -3 19.125 C-2.36191406 19.11339844 -1.72382813 19.10179688 -1.06640625 19.08984375 C-0.24011719 19.08082031 0.58617187 19.07179688 1.4375 19.0625 C2.26121094 19.05089844 3.08492188 19.03929688 3.93359375 19.02734375 C6 19.125 6 19.125 7 20.125 C7.07271741 22.47813555 7.08370868 24.83333668 7.0625 27.1875 C7.05347656 28.47785156 7.04445313 29.76820312 7.03515625 31.09765625 C7.02355469 32.09667969 7.01195312 33.09570312 7 34.125 C3.30742723 35.97128638 -0.96110097 35.46792539 -5 35.125 C-8.0625 34 -8.0625 34 -10 32.125 C-11.45454545 27.03409091 -11.45454545 27.03409091 -10 24.125 C-9.34 24.125 -8.68 24.125 -8 24.125 C-8.165 23.0525 -8.33 21.98 -8.5 20.875 C-9 17.125 -9 17.125 -9 13.125 C-9.226875 11.990625 -9.45375 10.85625 -9.6875 9.6875 C-10.04364578 5.62743806 -9.49457969 4.26632257 -7 1.125 C-4.51245214 -0.11877393 -2.77344699 -0.00806235 0 0 Z M-4 6.125 C-3.67 7.775 -3.34 9.425 -3 11.125 C-0.60280568 11.80458603 -0.60280568 11.80458603 2 12.125 C2.66 11.465 3.32 10.805 4 10.125 C3.6814823 8.01679203 3.6814823 8.01679203 3 6.125 C-0.58327753 5.12282936 -0.58327753 5.12282936 -4 6.125 Z M-4 25.125 C-4.33 26.445 -4.66 27.765 -5 29.125 C-2.22899606 30.51050197 -0.0665294 30.3127467 3 30.125 C3.99 29.465 4.98 28.805 6 28.125 C5.67 27.135 5.34 26.145 5 25.125 C2.03 25.125 -0.94 25.125 -4 25.125 Z " fill="#BFC1C0" transform="translate(414,49.875)"/>
<path d="M0 0 C1.65 0 3.3 0 5 0 C5 12.21 5 24.42 5 37 C3.35 37 1.7 37 0 37 C-0.33 36.34 -0.66 35.68 -1 35 C-1.66 35.66 -2.32 36.32 -3 37 C-5.93411795 37.95160582 -7.62468004 38.09829808 -10.625 37.3125 C-14.34715234 35.25552108 -15.67359354 32.97921939 -17 29 C-17.53694064 23.88586049 -17.58634539 20.09451139 -15.125 15.5 C-13 13 -13 13 -11 11 C-8.87109375 10.83984375 -8.87109375 10.83984375 -6.4375 10.9375 C-4.95918728 10.99190191 -3.47917459 11.02026267 -2 11 C-0.33657163 9.33657163 -0.63951903 7.2174291 -0.4375 4.9375 C-0.35371094 4.01839844 -0.26992187 3.09929688 -0.18359375 2.15234375 C-0.09271484 1.08693359 -0.09271484 1.08693359 0 0 Z M-10 17 C-11.88906692 20.05848931 -12.15691671 22.6143327 -11.9375 26.125 C-11.39641167 30.11774859 -11.39641167 30.11774859 -8.4375 32 C-7.633125 32.33 -6.82875 32.66 -6 33 C-2.81765895 31.24545615 -2.81765895 31.24545615 0 29 C0.42265102 25.29274678 0.5142385 21.69919954 0 18 C-3.80260621 14.58740468 -5.80848977 14.33267531 -10 17 Z " fill="#BEC0C0" transform="translate(222,39)"/>
<path d="M0 0 C3.51291123 3.51291123 4.8677107 6.28023904 5.25 11.25 C4.9160478 16.25928306 3.72962423 20.21073356 0.1875 23.875 C-3.70739911 25.87809097 -6.7754667 26.24990476 -11.0625 25.375 C-14.69537215 23.67450665 -16.59236982 22.23310338 -19 19 C-20.60396021 13.44863124 -20.29668598 8.32413567 -18 3 C-12.60516456 -2.5406418 -6.91617113 -2.96614034 0 0 Z M-11.25 5.5 C-13.3852702 8.550386 -13.58484127 10.43482479 -13.38671875 14.08984375 C-13.07717623 16.22992523 -13.07717623 16.22992523 -11.3125 18.5625 C-9.08201673 20.24183865 -9.08201673 20.24183865 -6.375 19.9375 C-3.67710239 19.13344454 -3.67710239 19.13344454 -2 16 C-1.53264932 10.53528016 -1.53264932 10.53528016 -3.25 5.5 C-6.09192529 3.06406403 -8.2718413 3.51456087 -11.25 5.5 Z " fill="#BEC1C0" transform="translate(311,51)"/>
<path d="M0 0 C3.702049 3.97970268 4.90846002 7.5991414 5 13 C4.15317465 17.15777367 3.06957553 20.77762797 0.25 24 C-4.36161536 26.04960683 -7.81275981 26.32196344 -12.6875 25 C-16.72527002 22.56210112 -18.50129244 20.44291413 -20 16 C-20.96185344 10.95274843 -20.13986386 6.78271205 -17.3203125 2.484375 C-12.53139308 -2.89961725 -6.1094526 -2.78884103 0 0 Z M-11.75 5.5 C-13.51783095 9.0356619 -13.71387071 12.12130247 -13 16 C-11.49720824 18.6715404 -11.49720824 18.6715404 -9 20 C-6.3566226 20.08805146 -6.3566226 20.08805146 -4 19 C-1.54877495 15.32316242 -1.29502645 12.27282747 -2 8 C-3.58526981 5.41290128 -3.58526981 5.41290128 -6 4 C-9.87797662 3.56613908 -9.87797662 3.56613908 -11.75 5.5 Z " fill="#BEC0BF" transform="translate(337,51)"/>
<path d="M0 0 C0.86625 0.020625 1.7325 0.04125 2.625 0.0625 C4.34410951 0.0625 6.06419327 0.04101772 7.78125 -0.04296875 C8.94140625 -0.08357422 8.94140625 -0.08357422 10.125 -0.125 C11.28515625 -0.17720703 11.28515625 -0.17720703 12.46875 -0.23046875 C15.18846066 0.13905716 15.97776649 0.9080391 17.625 3.0625 C18.58588383 5.94515149 18.74170941 7.73912271 18.72265625 10.73046875 C18.71943359 11.62314453 18.71621094 12.51582031 18.71289062 13.43554688 C18.70451172 14.36431641 18.69613281 15.29308594 18.6875 16.25 C18.68298828 17.19037109 18.67847656 18.13074219 18.67382812 19.09960938 C18.66204626 21.42063712 18.64559558 23.74153644 18.625 26.0625 C16.645 26.0625 14.665 26.0625 12.625 26.0625 C12.295 19.4625 11.965 12.8625 11.625 6.0625 C9.315 6.3925 7.005 6.7225 4.625 7.0625 C4.295 13.3325 3.965 19.6025 3.625 26.0625 C1.645 26.0625 -0.335 26.0625 -2.375 26.0625 C-3.36759618 23.08471146 -3.50391582 21.10007049 -3.5078125 17.9921875 C-3.50910156 17.01378906 -3.51039063 16.03539063 -3.51171875 15.02734375 C-3.50785156 14.00769531 -3.50398438 12.98804688 -3.5 11.9375 C-3.50386719 10.91011719 -3.50773437 9.88273437 -3.51171875 8.82421875 C-3.51042969 7.84839844 -3.50914062 6.87257813 -3.5078125 5.8671875 C-3.50668457 4.96983887 -3.50555664 4.07249023 -3.50439453 3.14794922 C-3.31792806 0.14267265 -3.02209094 0.07952871 0 0 Z " fill="#BEBFC1" transform="translate(382.375,49.9375)"/>
<path d="M0 0 C2.75569447 2.18159145 4.43588747 3.87177494 6 7 C6.125 10.0625 6.125 10.0625 6 13 C4.00383446 14.99616554 0.18298037 14.40983427 -2.5625 14.5625 C-3.27341797 14.60568359 -3.98433594 14.64886719 -4.71679688 14.69335938 C-6.47761912 14.79971777 -8.2387832 14.90038846 -10 15 C-9.19616007 17.49700762 -9.19616007 17.49700762 -8 20 C-3.51988914 21.45864074 0.4245356 20.82358359 5 20 C5 21.32 5 22.64 5 24 C0.44217429 26.6315391 -3.85447669 26.66716672 -9 26 C-12.39179534 24.16277753 -13.60009522 22.76345458 -15.375 19.375 C-16.47007711 13.46158361 -16.32145122 8.08874547 -13.0625 2.9375 C-9.18616755 -0.70390321 -5.12991617 -0.81511621 0 0 Z M-10 7 C-10 7.99 -10 8.98 -10 10 C-6.37 10 -2.74 10 1 10 C0.4260261 5.79819816 0.4260261 5.79819816 -3 4 C-6.52809907 4 -7.46815512 4.64276511 -10 7 Z " fill="#BDBFC0" transform="translate(197,50)"/>
<path d="M0 0 C2.475 0.495 2.475 0.495 5 1 C6.7015625 0.6596875 6.7015625 0.6596875 8.4375 0.3125 C13.00031943 -0.08774732 14.54809889 1.11003628 18 4 C20.50304378 7.75456567 20.45280074 9.54745934 20 14 C16.92307692 19.53846154 16.92307692 19.53846154 14 21 C10.99525503 21.13559318 8.00931153 21.04299016 5 21 C4.67 23.97 4.34 26.94 4 30 C2.68 30 1.36 30 0 30 C0 20.1 0 10.2 0 0 Z M5.6875 6.625 C3.68855968 8.93917754 3.68855968 8.93917754 4.0625 12.125 C4.76694687 15.29174932 4.76694687 15.29174932 8 17 C10.76653462 16.7925099 12.53071623 16.29721306 14.875 14.8125 C16.28389879 12.92121528 16.28389879 12.92121528 15.875 9.9375 C15.25349587 6.70744585 15.25349587 6.70744585 12 5 C8.074402 4.61670299 8.074402 4.61670299 5.6875 6.625 Z " fill="#C0C0C1" transform="translate(272,98)"/>
<path d="M0 0 C1.875 1.1875 1.875 1.1875 3 3 C3.6875 6.6875 3.6875 6.6875 4 10 C3.08476562 10.06058594 2.16953125 10.12117188 1.2265625 10.18359375 C0.03804688 10.26738281 -1.15046875 10.35117188 -2.375 10.4375 C-4.15003906 10.55931641 -4.15003906 10.55931641 -5.9609375 10.68359375 C-8.91518901 10.81084936 -8.91518901 10.81084936 -11 12 C-8.24104365 14.29637779 -8.24104365 14.29637779 -5.4375 13.75 C-2.84999433 13.16191948 -2.84999433 13.16191948 -1 11 C0.32 11 1.64 11 3 11 C2.69209738 13.84809926 2.34521809 15.58286148 0.5 17.8125 C-3.32831873 19.6309514 -6.84781481 19.77714696 -11 19 C-14.67080764 16.47631975 -15.75864984 14.82964117 -17 10.5625 C-17 6.35056907 -16.47814609 4.40745087 -14 1 C-8.7549161 -2.22774394 -5.64780251 -2.38945491 0 0 Z M-8 3 C-8.99 3.99 -9.98 4.98 -11 6 C-8.03 6 -5.06 6 -2 6 C-2 5.34 -2 4.68 -2 4 C-4.85078091 3.23283149 -4.85078091 3.23283149 -8 3 Z " fill="#BDBEBE" transform="translate(267,100)"/>
<path d="M0 0 C1.14662109 -0.00773437 1.14662109 -0.00773437 2.31640625 -0.015625 C4.4375 0.25 4.4375 0.25 7.4375 2.25 C7.1075 3.57 6.7775 4.89 6.4375 6.25 C5.73882812 6.21519531 5.04015625 6.18039063 4.3203125 6.14453125 C3.41023437 6.11746094 2.50015625 6.09039062 1.5625 6.0625 C0.65757812 6.02769531 -0.24734375 5.99289063 -1.1796875 5.95703125 C-1.96601563 6.05371094 -2.75234375 6.15039062 -3.5625 6.25 C-6.0279586 9.9481879 -6.22582074 12.95995158 -5.5625 17.25 C-4.3125 20 -4.3125 20 -1.5625 21.25 C1.51246668 21.26587762 4.42497893 20.842205 7.4375 20.25 C7.7675 20.91 8.0975 21.57 8.4375 22.25 C6.29129773 24.80893347 4.82251956 26.12166015 1.625 27.1875 C-2.52491767 27.26887093 -4.96195244 26.28804579 -8.5625 24.25 C-11.33893081 20.5523868 -11.9726056 17.83713166 -11.9375 13.25 C-11.94523438 12.239375 -11.95296875 11.22875 -11.9609375 10.1875 C-11.50122665 6.79825923 -10.63864404 4.95556328 -8.5625 2.25 C-5.71830705 0.311043 -3.40553417 -0.0230493 0 0 Z " fill="#BBBDBC" transform="translate(252.5625,49.75)"/>
<path d="M0 0 C5.94 0 11.88 0 18 0 C18 6.32220321 17.83196921 6.9442856 14 11.375 C12.88625 12.68597656 12.88625 12.68597656 11.75 14.0234375 C11.1725 14.67570312 10.595 15.32796875 10 16 C12.64 16.33 15.28 16.66 18 17 C18 18.32 18 19.64 18 21 C13.47258828 22.50913724 8.93573202 22.77429281 4.5 21 C4.005 20.67 3.51 20.34 3 20 C4.92800911 14.73073238 7.83326936 10.61241202 11 6 C7.37 5.67 3.74 5.34 0 5 C0 3.35 0 1.7 0 0 Z " fill="#B9BBBC" transform="translate(233,98)"/>
<path d="M0 0 C3.3 0 6.6 0 10 0 C10 4.62 10 9.24 10 14 C4.72 14 -0.56 14 -6 14 C-5 9 -5 9 -4 8 C-3.31731862 6.67479497 -2.6492959 5.34187818 -2 4 C-1.01 4 -0.02 4 1 4 C0.34 3.67 -0.32 3.34 -1 3 C-0.67 2.01 -0.34 1.02 0 0 Z " fill="#B2B3B3" transform="translate(221,114)"/>
<path d="M0 0 C0 10.23 0 20.46 0 31 C-1.65 31.33 -3.3 31.66 -5 32 C-6 31 -6 31 -6.08178711 28.93041992 C-6.0638208 28.03943604 -6.04585449 27.14845215 -6.02734375 26.23046875 C-6.01509766 25.25916016 -6.00285156 24.28785156 -5.99023438 23.28710938 C-5.95527624 21.23234795 -5.91626035 19.17765126 -5.87304688 17.12304688 C-5.86208984 16.14787109 -5.85113281 15.17269531 -5.83984375 14.16796875 C-5.82300537 13.27360107 -5.80616699 12.3792334 -5.78881836 11.45776367 C-6.01330253 8.84518315 -6.67699163 7.24112072 -8 5 C-3.375 0 -3.375 0 0 0 Z M-6 6 C-5 8 -5 8 -5 8 Z " fill="#CBCDCC" transform="translate(178,44)"/>
<path d="M0 0 C0.99 0 1.98 0 3 0 C3.6875 2.3125 3.6875 2.3125 4 5 C3 6 2 7 1 8 C-0.12392282 12.6686025 -0.31258555 15.73997398 2 20 C4.22189824 22.22189824 6.08482708 22.92598892 9 24 C8.67 24.66 8.34 25.32 8 26 C5.08605351 26.9713155 3.36031426 27.09436802 0.375 26.3125 C-3.34715234 24.25552108 -4.67359354 21.97921939 -6 18 C-6.53694064 12.88586049 -6.58634539 9.09451139 -4.125 4.5 C-2 2 -2 2 0 0 Z " fill="#C4C5C5" transform="translate(211,50)"/>
<path d="M0 0 C1.58206057 0.00667536 3.16410534 0.0186375 4.74609375 0.03515625 C5.55240234 0.03966797 6.35871094 0.04417969 7.18945312 0.04882812 C9.18753131 0.06065107 11.18557158 0.07858711 13.18359375 0.09765625 C13.51359375 1.74765625 13.84359375 3.39765625 14.18359375 5.09765625 C9.56359375 5.09765625 4.94359375 5.09765625 0.18359375 5.09765625 C0.18359375 10.37765625 0.18359375 15.65765625 0.18359375 21.09765625 C-1.13640625 21.09765625 -2.45640625 21.09765625 -3.81640625 21.09765625 C-3.88988281 20.15792969 -3.88988281 20.15792969 -3.96484375 19.19921875 C-4.03960937 18.38195312 -4.114375 17.5646875 -4.19140625 16.72265625 C-4.26101563 15.91054687 -4.330625 15.0984375 -4.40234375 14.26171875 C-4.64533213 11.89431434 -4.64533213 11.89431434 -6.81640625 10.09765625 C-6.15640625 9.10765625 -5.49640625 8.11765625 -4.81640625 7.09765625 C-4.77641425 5.09805613 -4.77293826 3.09718383 -4.81640625 1.09765625 C-3.81640625 0.09765625 -3.81640625 0.09765625 0 0 Z " fill="#C4C5C5" transform="translate(323.81640625,97.90234375)"/>
<path d="M0 0 C2.31 0 4.62 0 7 0 C7 8.58 7 17.16 7 26 C5.02 26 3.04 26 1 26 C0.07446257 22.86149936 -0.11664647 20.06319222 -0.09765625 16.796875 C-0.09443359 15.8171875 -0.09121094 14.8375 -0.08789062 13.828125 C-0.07951172 12.81234375 -0.07113281 11.7965625 -0.0625 10.75 C-0.05798828 9.71875 -0.05347656 8.6875 -0.04882812 7.625 C-0.03706088 5.08327427 -0.02062011 2.54166681 0 0 Z " fill="#B9BBBC" transform="translate(368,50)"/>
<path d="M0 0 C1.32 0 2.64 0 4 0 C4 2.64 4 5.28 4 8 C4.99 8.33 5.98 8.66 7 9 C7.6875 11.0625 7.6875 11.0625 8 13 C6.68 13 5.36 13 4 13 C4 18.28 4 23.56 4 29 C2.68 29 1.36 29 0 29 C-0.91471226 24.54077774 -1.05876239 20.38007185 -0.9375 15.85546875 C-0.78914184 13.98322445 -0.78914184 13.98322445 -2 13 C-2.04063832 11.33382885 -2.042721 9.66611905 -2 8 C-1.34 8 -0.68 8 0 8 C0 5.36 0 2.72 0 0 Z " fill="#A8A9AC" transform="translate(293,90)"/>
<path d="M0 0 C0.99 0 1.98 0 3 0 C3.33 1.98 3.66 3.96 4 6 C4.99 5.67 5.98 5.34 7 5 C9.625 5.8125 9.625 5.8125 12 7 C13.54586876 10.09173752 13.29359521 12.59429552 13 16 C11.5625 18.5 11.5625 18.5 9 20 C6.03 19.67 3.06 19.34 0 19 C0 12.73 0 6.46 0 0 Z M3 10 C2.957279 11.66611905 2.95936168 13.33382885 3 15 C4.05310277 16.27003323 4.05310277 16.27003323 6.4375 16.1875 C9.16734675 16.26839983 9.16734675 16.26839983 11 14 C10.6814823 11.89179203 10.6814823 11.89179203 10 10 C6.41672247 8.99782936 6.41672247 8.99782936 3 10 Z " fill="#BFC1C1" transform="translate(178,101)"/>
<path d="M0 0 C1.65 0 3.3 0 5 0 C5 8.58 5 17.16 5 26 C3.35 26 1.7 26 0 26 C0 17.42 0 8.84 0 0 Z " fill="#B2B4B3" transform="translate(232,50)"/>
<path d="M0 0 C0.33 0 0.66 0 1 0 C1 7.26 1 14.52 1 22 C12.88 22 24.76 22 37 22 C37.495 22.99 37.495 22.99 38 24 C34.50746534 25.16417822 31.75036326 25.12950829 28.06640625 25.1328125 C27.39206039 25.13376923 26.71771454 25.13472595 26.02293396 25.13571167 C24.59821479 25.13639141 23.1734925 25.1345515 21.7487793 25.13037109 C19.57398473 25.12502821 17.39939746 25.13031869 15.22460938 25.13671875 C13.83854121 25.13605777 12.45247318 25.13477619 11.06640625 25.1328125 C9.80771729 25.13168457 8.54902832 25.13055664 7.25219727 25.12939453 C4 25 4 25 0 24 C0 16.08 0 8.16 0 0 Z " fill="#ACADAD" transform="translate(233,104)"/>
<path d="M0 0 C1.00727394 -0.00143509 1.00727394 -0.00143509 2.03489685 -0.00289917 C3.44766331 -0.00357672 4.86043296 -0.0017522 6.27319336 0.00244141 C8.43024703 0.00780418 10.5870933 0.00247773 12.74414062 -0.00390625 C14.12109421 -0.00324556 15.49804766 -0.00196458 16.875 0 C18.12095947 0.00112793 19.36691895 0.00225586 20.65063477 0.00341797 C23.27088018 0.10869657 25.38815829 0.35158581 27.87109375 1.1328125 C27.87109375 3.4428125 27.87109375 5.7528125 27.87109375 8.1328125 C27.54109375 8.1328125 27.21109375 8.1328125 26.87109375 8.1328125 C26.87109375 6.4828125 26.87109375 4.8328125 26.87109375 3.1328125 C25.83178711 3.14328613 24.79248047 3.15375977 23.72167969 3.16455078 C19.86022394 3.20079186 15.99878318 3.22372791 12.13720703 3.24267578 C10.4669339 3.252724 8.79667833 3.26636486 7.12646484 3.28369141 C4.72358871 3.30799176 2.32094548 3.31930737 -0.08203125 3.328125 C-0.82696838 3.33844757 -1.57190552 3.34877014 -2.3394165 3.35940552 C-6.09818267 3.36021618 -8.94064336 3.23648368 -12.12890625 1.1328125 C-8.03623082 0.15329398 -4.20253433 0.00380099 0 0 Z " fill="#C7C8C8" transform="translate(310.12890625,88.8671875)"/>
<path d="M0 0 C0.5259375 0.680625 0.5259375 0.680625 1.0625 1.375 C-0.00296953 3.50593906 -1.22909719 4.74087557 -2.9375 6.375 C-3.2675 5.055 -3.5975 3.735 -3.9375 2.375 C-8.12768386 1.97672592 -8.12768386 1.97672592 -11.75 3.75 C-13.00737173 5.37586797 -13.00737173 5.37586797 -13.9375 7.375 C-16.5 8 -16.5 8 -18.9375 8.375 C-18.66353479 4.44816532 -18.16140251 2.64731386 -15.625 -0.4375 C-10.51462048 -4.59711124 -5.28890824 -4.43585852 0 0 Z " fill="#C4C6C5" transform="translate(268.9375,101.625)"/>
<path d="M0 0 C0.598125 0.78375 1.19625 1.5675 1.8125 2.375 C3.91085249 5.14574323 3.91085249 5.14574323 7 7 C9.29714187 7.02639829 9.29714187 7.02639829 11.6875 6.625 C12.49574219 6.51414062 13.30398438 6.40328125 14.13671875 6.2890625 C14.75160156 6.19367188 15.36648438 6.09828125 16 6 C16.33 6.66 16.66 7.32 17 8 C14.85379773 10.55893347 13.38501956 11.87166015 10.1875 12.9375 C6.10097597 13.01762792 3.57685909 11.92600105 0 10 C-2.14915785 6.77626323 -2.38286803 5.73296326 -2 2 C-1.34 1.34 -0.68 0.68 0 0 Z " fill="#C0C2C2" transform="translate(244,64)"/>
<path d="M0 0 C6.81598387 -0.33278764 11.92122066 -0.24201565 18 3 C18 3.99 18 4.98 18 6 C16.35 6.66 14.7 7.32 13 8 C12.67 7.34 12.34 6.68 12 6 C11.09507812 6.05220703 11.09507812 6.05220703 10.171875 6.10546875 C3.5626072 6.32933105 3.5626072 6.32933105 0.4375 4.5 C-0.036875 4.005 -0.51125 3.51 -1 3 C-0.67 2.01 -0.34 1.02 0 0 Z " fill="#B8B9BB" transform="translate(268,39)"/>
<path d="M0 0 C0.99 0 1.98 0 3 0 C3.99 1.98 4.98 3.96 6 6 C6.598125 5.01 7.19625 4.02 7.8125 3 C8.8953125 1.515 8.8953125 1.515 10 0 C10.99 0 11.98 0 13 0 C11.65647515 4.2877085 10.03752979 8.27700657 8.0625 12.3125 C7.55847656 13.36050781 7.05445313 14.40851563 6.53515625 15.48828125 C5 18 5 18 2 19 C2.16048828 18.07380859 2.16048828 18.07380859 2.32421875 17.12890625 C3.24359284 10.63397318 2.57345853 6.01927588 0 0 Z " fill="#CACACA" transform="translate(192,107)"/>
<path d="M0 0 C1 1 1 1 1.0625 4.0625 C1.041875 5.031875 1.02125 6.00125 1 7 C0.443125 6.649375 -0.11375 6.29875 -0.6875 5.9375 C-3.63159108 4.74394956 -5.00185923 5.02560425 -8 6 C-10.26454073 7.46771271 -10.26454073 7.46771271 -12 9 C-12.66 8.67 -13.32 8.34 -14 8 C-13.45712148 4.19985035 -11.88535357 2.46103687 -9 0 C-5.50340123 -1.16553292 -3.55568859 -0.77297578 0 0 Z " fill="#BEC0C0" transform="translate(313,99)"/>
<path d="M0 0 C1.39456452 0.00667256 2.78911118 0.01863093 4.18359375 0.03515625 C4.89451172 0.03966797 5.60542969 0.04417969 6.33789062 0.04882812 C8.09899388 0.06064761 9.86005411 0.07858362 11.62109375 0.09765625 C11.95109375 1.08765625 12.28109375 2.07765625 12.62109375 3.09765625 C12.29109375 3.75765625 11.96109375 4.41765625 11.62109375 5.09765625 C6.67109375 5.09765625 1.72109375 5.09765625 -3.37890625 5.09765625 C-3.70890625 3.77765625 -4.03890625 2.45765625 -4.37890625 1.09765625 C-3.37890625 0.09765625 -3.37890625 0.09765625 0 0 Z " fill="#C4C6C7" transform="translate(218.37890625,97.90234375)"/>
<path d="M0 0 C1.65 0.33 3.3 0.66 5 1 C3.6875 3 3.6875 3 2 5 C1.01 5 0.02 5 -1 5 C-0.505 5.45375 -0.01 5.9075 0.5 6.375 C2 8 2 8 2 10 C2.99 10.33 3.98 10.66 5 11 C2.60490662 13.89932357 0.68754757 14.50168276 -3 15 C-3.33 13.35 -3.66 11.7 -4 10 C-4.66 10 -5.32 10 -6 10 C-6 9.34 -6 8.68 -6 8 C-5.34 8 -4.68 8 -4 8 C-3.71125 7.4225 -3.4225 6.845 -3.125 6.25 C-2.08333333 4.16666667 -1.04166667 2.08333333 0 0 Z " fill="#BABEBB" transform="translate(411,61)"/>
<path d="M0 0 C3.3 0 6.6 0 10 0 C9.67 2.31 9.34 4.62 9 7 C5.37 7 1.74 7 -2 7 C-2 6.01 -2 5.02 -2 4 C-1.01 4 -0.02 4 1 4 C0.34 3.67 -0.32 3.34 -1 3 C-0.67 2.01 -0.34 1.02 0 0 Z " fill="#D4D8D9" transform="translate(221,114)"/>
<path d="M0 0 C4.29 0 8.58 0 13 0 C13.33 1.65 13.66 3.3 14 5 C9.05 5 4.1 5 -1 5 C-0.67 3.35 -0.34 1.7 0 0 Z " fill="#B6B8B7" transform="translate(324,98)"/>
<path d="M0 0 C1.794375 0.4640625 1.794375 0.4640625 3.625 0.9375 C2.635 1.5975 1.645 2.2575 0.625 2.9375 C-3.81122795 6.26467096 -6.18322407 8.70159084 -8.375 13.9375 C-8.705 13.9375 -9.035 13.9375 -9.375 13.9375 C-10.33014667 10.59448667 -10.93567517 8.10538859 -9.38671875 4.87890625 C-6.61176988 1.16152192 -4.76991272 -0.60367879 0 0 Z " fill="#C2C4C3" transform="translate(37.375,32.0625)"/>
<path d="M0 0 C4.33333333 0 8.66666667 0 13 0 C13.33 1.65 13.66 3.3 14 5 C9.33333333 5 4.66666667 5 0 5 C0 3.35 0 1.7 0 0 Z " fill="#A6A6A6" transform="translate(298,123)"/>
<path d="M0 0 C3.96 0 7.92 0 12 0 C12 0.66 12 1.32 12 2 C13.32 2.66 14.64 3.32 16 4 C10.72 4 5.44 4 0 4 C-0.33 3.34 -0.66 2.68 -1 2 C-0.67 1.34 -0.34 0.68 0 0 Z " fill="#C3C5C7" transform="translate(186,60)"/>
<path d="M0 0 C2.5625 0.1875 2.5625 0.1875 4.5625 2.1875 C4.1875 4.8125 4.1875 4.8125 3.5625 7.1875 C1.1875 7.8125 1.1875 7.8125 -1.4375 8.1875 C-3.4375 6.1875 -3.4375 6.1875 -3.625 3.625 C-3.37291261 0.34786389 -3.27713611 0.25208739 0 0 Z " fill="#C2C3C4" transform="translate(371.4375,38.8125)"/>
<path d="M0 0 C4.29 0 8.58 0 13 0 C12.67 1.32 12.34 2.64 12 4 C8.04 4 4.08 4 0 4 C0 2.68 0 1.36 0 0 Z " fill="#C3C4C6" transform="translate(215,104)"/>
<path d="M0 0 C-1.65 0.33 -3.3 0.66 -5 1 C-5 1.99 -5 2.98 -5 4 C-4.34 4.33 -3.68 4.66 -3 5 C-3.474375 5.45375 -3.94875 5.9075 -4.4375 6.375 C-6.09027808 7.93258204 -6.09027808 7.93258204 -7 10 C-9.5625 10.625 -9.5625 10.625 -12 11 C-11.72603479 7.07316532 -11.22390251 5.27231386 -8.6875 2.1875 C-3.71681416 -1.85840708 -3.71681416 -1.85840708 0 0 Z " fill="#C7C8C9" transform="translate(262,99)"/>
<path d="M0 0 C2.33294775 -0.04241723 4.66702567 -0.04092937 7 0 C8 1 8 1 8.09765625 3.50390625 C8.08605469 4.51324219 8.07445312 5.52257812 8.0625 6.5625 C8.05347656 7.57441406 8.04445313 8.58632812 8.03515625 9.62890625 C8.02355469 10.41136719 8.01195312 11.19382812 8 12 C6.68 11.34 5.36 10.68 4 10 C4.66 9.67 5.32 9.34 6 9 C6 8.34 6 7.68 6 7 C3.03 6.505 3.03 6.505 0 6 C0.66 5.01 1.32 4.02 2 3 C1.34 2.67 0.68 2.34 0 2 C0 1.34 0 0.68 0 0 Z " fill="#C7C9C7" transform="translate(413,69)"/>
<path d="M0 0 C3 1 3 1 4 3 C4.06996014 4.70702735 4.08440154 6.41668003 4.0625 8.125 C4.05347656 9.03507812 4.04445313 9.94515625 4.03515625 10.8828125 C4.02355469 11.58148438 4.01195312 12.28015625 4 13 C2.68 13 1.36 13 0 13 C0 8.71 0 4.42 0 0 Z " fill="#C9C9C9" transform="translate(272,115)"/>
<path d="M0 0 C1.125 1.75 1.125 1.75 2 4 C1.4375 6.1875 1.4375 6.1875 0 8 C-3.85214273 9.39105154 -7.05318074 8.82607845 -11 8 C-10.34 6.68 -9.68 5.36 -9 4 C-6.69 4 -4.38 4 -2 4 C-1.34 2.68 -0.68 1.36 0 0 Z " fill="#D1D2D1" transform="translate(189,112)"/>
<path d="M0 0 C1.32 0.33 2.64 0.66 4 1 C4.33 3.64 4.66 6.28 5 9 C4.01 9 3.02 9 2 9 C2 10.98 2 12.96 2 15 C-0.35119399 11.47320901 -0.21443452 9.97120515 -0.125 5.8125 C-0.10695313 4.72582031 -0.08890625 3.63914062 -0.0703125 2.51953125 C-0.04710937 1.68808594 -0.02390625 0.85664062 0 0 Z " fill="#C8C8C8" transform="translate(272,98)"/>
<path d="M0 0 C4.95 0.99 4.95 0.99 10 2 C10.33 4.31 10.66 6.62 11 9 C6.47793996 8.13037307 4.48389704 7.6079732 1.5625 3.9375 C0 1 0 1 0 0 Z " fill="#C6C8C6" transform="translate(318,68)"/>
<path d="M0 0 C0.99 0.495 0.99 0.495 2 1 C2.66 0.67 3.32 0.34 4 0 C6.3329866 -0.04022391 8.66706666 -0.04320247 11 0 C11.33 1.32 11.66 2.64 12 4 C9.42786866 5.61949011 8.32330841 6.04408751 5.25 5.625 C4.5075 5.41875 3.765 5.2125 3 5 C3 4.34 3 3.68 3 3 C2.01 3 1.02 3 0 3 C0 2.01 0 1.02 0 0 Z " fill="#B3B4B6" transform="translate(384,50)"/>
<path d="M0 0 C2.01584651 0.61709587 4.01751285 1.28293018 6 2 C6.66 1.67 7.32 1.34 8 1 C8 2.65 8 4.3 8 6 C4.7 6 1.4 6 -2 6 C-2.33 4.68 -2.66 3.36 -3 2 C-2.01 1.34 -1.02 0.68 0 0 Z M0 2 C-0.33 2.66 -0.66 3.32 -1 4 C-0.34 4 0.32 4 1 4 C0.67 3.34 0.34 2.68 0 2 Z " fill="#B4B5B6" transform="translate(321,122)"/>
<path d="M0 0 C0.99 0 1.98 0 3 0 C3 3.33333333 3 6.66666667 3 10 C3.061875 10.845625 3.12375 11.69125 3.1875 12.5625 C3.125625 13.366875 3.06375 14.17125 3 15 C2.01 15.66 1.02 16.32 0 17 C0 11.39 0 5.78 0 0 Z " fill="#ECEDED" transform="translate(178,101)"/>
<path d="M0 0 C3.3 0 6.6 0 10 0 C9.67 1.32 9.34 2.64 9 4 C6.03 4 3.06 4 0 4 C0 2.68 0 1.36 0 0 Z " fill="#CACBCC" transform="translate(215,109)"/>
<path d="M0 0 C2.125 0.375 2.125 0.375 4 1 C4.38218767 2.65614657 4.71395102 4.32457024 5 6 C4 7 4 7 1.4375 7.0625 C0.2309375 7.0315625 0.2309375 7.0315625 -1 7 C-1.625 4.625 -1.625 4.625 -2 2 C-1.34 1.34 -0.68 0.68 0 0 Z " fill="#C6C9CA" transform="translate(233,39)"/>
<path d="M0 0 C0.33 0 0.66 0 1 0 C1 3.96 1 7.92 1 12 C-2.90432869 13.95216435 -5.72213252 14.50639991 -10 15 C-10 14.34 -10 13.68 -10 13 C-9.01 13 -8.02 13 -7 13 C-6.67 12.01 -6.34 11.02 -6 10 C-4.35 10 -2.7 10 -1 10 C-0.67 6.7 -0.34 3.4 0 0 Z " fill="#C7C8C8" transform="translate(420,53)"/>
<path d="M0 0 C0.80824219 0.19464844 1.61648437 0.38929687 2.44921875 0.58984375 C3.06410156 0.74582031 3.67898437 0.90179688 4.3125 1.0625 C2.9925 1.3925 1.6725 1.7225 0.3125 2.0625 C0.3125 2.7225 0.3125 3.3825 0.3125 4.0625 C-2.3275 4.0625 -4.9675 4.0625 -7.6875 4.0625 C-7.6875 2.7425 -7.6875 1.4225 -7.6875 0.0625 C-4.39053895 -1.03648702 -3.28255097 -0.80874444 0 0 Z " fill="#CCCDCE" transform="translate(223.6875,122.9375)"/>
<path d="M0 0 C0.66 0 1.32 0 2 0 C0.66666667 2.66666667 -0.66666667 5.33333333 -2 8 C-1.34 8.33 -0.68 8.66 0 9 C-1.1875 10.5 -1.1875 10.5 -3 12 C-5.61328125 12.09375 -5.61328125 12.09375 -8 12 C-6.85573734 10.186508 -5.70954608 8.37423275 -4.5625 6.5625 C-3.60537109 5.04849609 -3.60537109 5.04849609 -2.62890625 3.50390625 C-1 1 -1 1 0 0 Z " fill="#C1C2C2" transform="translate(245,103)"/>
<path d="M0 0 C0.99 0 1.98 0 3 0 C3 0.99 3 1.98 3 3 C3.66 3 4.32 3 5 3 C5 4.98 5 6.96 5 9 C4.01 9 3.02 9 2 9 C1.34 9.99 0.68 10.98 0 12 C0 8.04 0 4.08 0 0 Z " fill="#B4B6B5" transform="translate(241,57)"/>
<path d="M0 0 C0.66 0.66 1.32 1.32 2 2 C1.625 4.125 1.625 4.125 1 6 C-1.31 6.33 -3.62 6.66 -6 7 C-6 6.34 -6 5.68 -6 5 C-6.99 5 -7.98 5 -9 5 C-9 4.34 -9 3.68 -9 3 C-7.88625 2.87625 -6.7725 2.7525 -5.625 2.625 C-1.96896323 2.3534187 -1.96896323 2.3534187 0 0 Z " fill="#C0C0C0" transform="translate(287,111)"/>
<path d="M0 0 C0.556875 0.28875 1.11375 0.5775 1.6875 0.875 C4.08494645 2.0413253 6.51596939 3.0339881 9 4 C8.67 4.66 8.34 5.32 8 6 C5.07286212 6.94934202 3.57168632 7.23176473 0.6875 6.0625 C0.130625 5.711875 -0.42625 5.36125 -1 5 C-0.67 3.35 -0.34 1.7 0 0 Z " fill="#C9CAC9" transform="translate(211,70)"/>
<path d="M0 0 C0.433125 0.61875 0.86625 1.2375 1.3125 1.875 C2.99740483 4.2197245 2.99740483 4.2197245 6 6 C5.01 6.33 4.02 6.66 3 7 C2.67 7.66 2.34 8.32 2 9 C-0.62187494 7.95125002 -1.79371361 7.35068687 -3.25 4.875 C-3.4975 4.25625 -3.745 3.6375 -4 3 C-2.68 3.33 -1.36 3.66 0 4 C0 2.68 0 1.36 0 0 Z " fill="#C9CBCA" transform="translate(186,66)"/>
<path d="M0 0 C3.3 0 6.6 0 10 0 C10 0.99 10 1.98 10 3 C6.01803543 4.05404945 3.01804691 3.84098656 -1 3 C-0.67 2.01 -0.34 1.02 0 0 Z " fill="#B2B3B3" transform="translate(221,114)"/>
<path d="M0 0 C0.70125 0.309375 1.4025 0.61875 2.125 0.9375 C5.08936657 2.03302678 7.87698108 2.56422992 11 3 C11 3.33 11 3.66 11 4 C8.69 4 6.38 4 4 4 C3.67 5.32 3.34 6.64 3 8 C2.34 8 1.68 8 1 8 C0.67 5.36 0.34 2.72 0 0 Z " fill="#B2B3B4" transform="translate(298,106)"/>
<path d="M0 0 C1.65 0.33 3.3 0.66 5 1 C4.67 2.65 4.34 4.3 4 6 C2.35 5.67 0.7 5.34 -1 5 C-0.67 3.35 -0.34 1.7 0 0 Z " fill="#CCCDCD" transform="translate(333,104)"/>
<path d="M0 0 C-0.625 1.9375 -0.625 1.9375 -2 4 C-5.125 4.75 -5.125 4.75 -8 5 C-7.625 2.5625 -7.625 2.5625 -7 0 C-4.3333581 -1.33332095 -2.83319697 -0.67102033 0 0 Z " fill="#C8C9C8" transform="translate(261,71)"/>
<path d="M0 0 C0 0.66 0 1.32 0 2 C-0.804375 2.12375 -1.60875 2.2475 -2.4375 2.375 C-3.7059375 2.684375 -3.7059375 2.684375 -5 3 C-5.33 3.66 -5.66 4.32 -6 5 C-8.31 5 -10.62 5 -13 5 C-13 4.34 -13 3.68 -13 3 C-11.58603098 2.49242138 -10.16868271 1.99425075 -8.75 1.5 C-7.96109375 1.2215625 -7.1721875 0.943125 -6.359375 0.65625 C-4 0 -4 0 0 0 Z " fill="#B1B3B2" transform="translate(47,28)"/>
<path d="M0 0 C0.66 0 1.32 0 2 0 C2 4.62 2 9.24 2 14 C1.34 14 0.68 14 0 14 C0 12.68 0 11.36 0 10 C-0.66 9.67 -1.32 9.34 -2 9 C-1.34 9 -0.68 9 0 9 C0 6.03 0 3.06 0 0 Z " fill="#BDBEBF" transform="translate(294,104)"/>
<path d="M0 0 C1.2065625 0.0309375 1.2065625 0.0309375 2.4375 0.0625 C1.89026317 3.43712715 1.3826 5.14485 -0.5625 8.0625 C-1.2225 7.7325 -1.8825 7.4025 -2.5625 7.0625 C-2.5625 6.0725 -2.5625 5.0825 -2.5625 4.0625 C-2.8925 3.0725 -3.2225 2.0825 -3.5625 1.0625 C-2.5625 0.0625 -2.5625 0.0625 0 0 Z " fill="#B9BBBA" transform="translate(163.5625,59.9375)"/>
<path d="M0 0 C0.66 0 1.32 0 2 0 C2 1.32 2 2.64 2 4 C-2.68493876 6.48887372 -5.9444214 5.85687773 -11 5 C-11 4.01 -11 3.02 -11 2 C-7.04 2.33 -3.08 2.66 1 3 C0.67 2.01 0.34 1.02 0 0 Z " fill="#9E9F9F" transform="translate(229,118)"/>
<path d="M0 0 C5.875 0.875 5.875 0.875 7 2 C7.04080783 3.99958364 7.04254356 6.00045254 7 8 C5.02 6.68 3.04 5.36 1 4 C1.33 3.01 1.66 2.02 2 1 C1.34 0.67 0.68 0.34 0 0 Z " fill="#C9CBCA" transform="translate(307,98)"/>
<path d="M0 0 C-0.33 1.98 -0.66 3.96 -1 6 C-3.54379491 4.15794162 -5.83312509 2.27521866 -8 0 C-5.13822943 -1.43088528 -3.06624227 -0.59991697 0 0 Z " fill="#C1C4C5" transform="translate(199,51)"/>
<path d="M0 0 C1.65 0.33 3.3 0.66 5 1 C4.375 3.4375 4.375 3.4375 3 6 C-0.125 6.8125 -0.125 6.8125 -3 7 C-3 5 -3 5 -1 3 C-0.67 2.01 -0.34 1.02 0 0 Z " fill="#B6BDB7" transform="translate(304,49)"/>
<path d="M0 0 C3.125 0.1875 3.125 0.1875 6.125 2.1875 C5.795 2.8475 5.465 3.5075 5.125 4.1875 C2.47639573 4.78105614 -0.16697322 4.92959269 -2.875 5.1875 C-2.545 4.1975 -2.215 3.2075 -1.875 2.1875 C-2.535 1.8575 -3.195 1.5275 -3.875 1.1875 C-2.875 0.1875 -2.875 0.1875 0 0 Z " fill="#B4B4B4" transform="translate(278.875,99.8125)"/>
<path d="M0 0 C1.32 0.33 2.64 0.66 4 1 C3.67 3.64 3.34 6.28 3 9 C2.01 8.67 1.02 8.34 0 8 C0 5.36 0 2.72 0 0 Z " fill="#BEC0C0" transform="translate(293,90)"/>
<path d="M0 0 C2.475 0.495 2.475 0.495 5 1 C5.33 2.32 5.66 3.64 6 5 C4.68 5.33 3.36 5.66 2 6 C1.34 4.02 0.68 2.04 0 0 Z " fill="#C8CAC9" transform="translate(254,50)"/>
<path d="M0 0 C7.66742597 5.96583144 7.66742597 5.96583144 9 11 C7.87411986 10.04270084 6.7493285 9.08412105 5.625 8.125 C4.99851562 7.59132813 4.37203125 7.05765625 3.7265625 6.5078125 C2.44163349 5.38567993 1.20628025 4.20628025 0 3 C0 2.01 0 1.02 0 0 Z " fill="#C3C5C5" transform="translate(102,30)"/>
<path d="M0 0 C1.32 0.66 2.64 1.32 4 2 C4 2.99 4 3.98 4 5 C2.35 5.33 0.7 5.66 -1 6 C-1.66 4.68 -2.32 3.36 -3 2 C-2.01 1.34 -1.02 0.68 0 0 Z " fill="#C3C3C3" transform="translate(255,112)"/>
<path d="M0 0 C0.66 0.33 1.32 0.66 2 1 C-1.3 4.3 -4.6 7.6 -8 11 C-8.66 10.34 -9.32 9.68 -10 9 C-9.52949219 8.60167969 -9.05898437 8.20335937 -8.57421875 7.79296875 C-7.95160156 7.26316406 -7.32898438 6.73335937 -6.6875 6.1875 C-6.07261719 5.66542969 -5.45773438 5.14335938 -4.82421875 4.60546875 C-3.14575321 3.12827531 -1.56117966 1.59960869 0 0 Z " fill="#CFD0D1" transform="translate(75,51)"/>
<path d="M0 0 C0.66 0 1.32 0 2 0 C2.43200679 4.75207471 0.98489083 7.78210698 -1 12 C-1.33 12 -1.66 12 -2 12 C-1.85904936 10.3745692 -1.71207913 8.74965949 -1.5625 7.125 C-1.48128906 6.22007813 -1.40007813 5.31515625 -1.31640625 4.3828125 C-1 2 -1 2 0 0 Z " fill="#B9BBBA" transform="translate(26,41)"/>
<path d="M0 0 C1.98 0 3.96 0 6 0 C6 0.66 6 1.32 6 2 C8.31 1.34 10.62 0.68 13 0 C13 0.66 13 1.32 13 2 C10.63386544 3.18306728 9.13219264 3.13354608 6.5 3.125 C5.7059375 3.12757812 4.911875 3.13015625 4.09375 3.1328125 C2 3 2 3 0 2 C0 1.34 0 0.68 0 0 Z " fill="#AFAFAF" transform="translate(275,116)"/>
<path d="M0 0 C2 1 2 1 2.6875 2.8125 C3.02688538 5.18819767 2.72856341 6.73335829 2 9 C1.34 9 0.68 9 0 9 C-1.125 2.25 -1.125 2.25 0 0 Z " fill="#B9BBBA" transform="translate(46,57)"/>
<path d="M0 0 C0.99 0.33 1.98 0.66 3 1 C3 1.66 3 2.32 3 3 C4.32 3 5.64 3 7 3 C7 3.66 7 4.32 7 5 C4.03 4.67 1.06 4.34 -2 4 C-1.34 2.68 -0.68 1.36 0 0 Z " fill="#B3B5B4" transform="translate(180,116)"/>
<path d="M0 0 C2.05078125 0.03255208 4.1015625 0.06510417 6.15234375 0.09765625 C6.15234375 1.41765625 6.15234375 2.73765625 6.15234375 4.09765625 C5.82234375 3.43765625 5.49234375 2.77765625 5.15234375 2.09765625 C4.38921875 2.30390625 3.62609375 2.51015625 2.83984375 2.72265625 C0.15234375 3.09765625 0.15234375 3.09765625 -2.84765625 1.09765625 C-1.84765625 0.09765625 -1.84765625 0.09765625 0 0 Z " fill="#B3B5B5" transform="translate(223.84765625,97.90234375)"/>
<path d="M0 0 C1.32 0.66 2.64 1.32 4 2 C4 2.66 4 3.32 4 4 C-0.29299643 5.26264601 -2.87831311 4.62950412 -7 3 C-6.34 2.34 -5.68 1.68 -5 1 C-5 1.66 -5 2.32 -5 3 C-3.68 3 -2.36 3 -1 3 C-0.67 2.01 -0.34 1.02 0 0 Z " fill="#CBCDCC" transform="translate(304,72)"/>
<path d="M0 0 C-1.38188453 3.21043882 -2.92421903 5.04936365 -5.625 7.25 C-6.57246094 8.03117187 -6.57246094 8.03117187 -7.5390625 8.828125 C-8.02117187 9.21484375 -8.50328125 9.6015625 -9 10 C-7.6834994 5.81113445 -4.97532335 0 0 0 Z " fill="#CDCECF" transform="translate(84,66)"/>
<path d="M0 0 C0.99 0.66 1.98 1.32 3 2 C3 3.32 3 4.64 3 6 C0.36 6 -2.28 6 -5 6 C-5 5.67 -5 5.34 -5 5 C-3.35 5 -1.7 5 0 5 C-0.2784375 4.0409375 -0.2784375 4.0409375 -0.5625 3.0625 C-0.706875 2.381875 -0.85125 1.70125 -1 1 C-0.67 0.67 -0.34 0.34 0 0 Z " fill="#B1B3B2" transform="translate(268,104)"/>
<path d="M0 0 C0 0.66 0 1.32 0 2 C-2.31 2 -4.62 2 -7 2 C-7 1.01 -7 0.02 -7 -1 C-3.51418144 -2.2020064 -3.32007656 -2.21338437 0 0 Z " fill="#B5B7B6" transform="translate(264,101)"/>
<path d="M0 0 C1.65 0.99 3.3 1.98 5 3 C4.34 4.32 3.68 5.64 3 7 C1.68 5.68 0.36 4.36 -1 3 C-0.67 2.01 -0.34 1.02 0 0 Z " fill="#BCBDBD" transform="translate(30,63)"/>
<path d="M0 0 C0.99 0.33 1.98 0.66 3 1 C3 2.98 3 4.96 3 7 C1.35 6.67 -0.3 6.34 -2 6 C-1.67 5.34 -1.34 4.68 -1 4 C-0.64830932 2.67139075 -0.31229724 1.33841672 0 0 Z " fill="#B6B7B9" transform="translate(200,56)"/>
<path d="M0 0 C2.31 0 4.62 0 7 0 C6.34 1.32 5.68 2.64 5 4 C4.01 3.34 3.02 2.68 2 2 C0.02 2.99 0.02 2.99 -2 4 C-1.34 2.68 -0.68 1.36 0 0 Z " fill="#C9CBCA" transform="translate(359,50)"/>
<path d="M0 0 C1.98 0 3.96 0 6 0 C5.1875 1.9375 5.1875 1.9375 4 4 C3.01 4.33 2.02 4.66 1 5 C0.67 3.35 0.34 1.7 0 0 Z " fill="#B5BDB6" transform="translate(214,50)"/>
<path d="M0 0 C1.33333333 0 2.66666667 0 4 0 C4 1.65 4 3.3 4 5 C2.35 4.67 0.7 4.34 -1 4 C-0.67 2.68 -0.34 1.36 0 0 Z " fill="#ADADAD" transform="translate(285,123)"/>
<path d="M0 0 C0.68359375 1.765625 0.68359375 1.765625 1 4 C-0.21484375 5.921875 -0.21484375 5.921875 -1.9375 7.75 C-2.50339844 8.36359375 -3.06929688 8.9771875 -3.65234375 9.609375 C-4.31943359 10.29773438 -4.31943359 10.29773438 -5 11 C-5.33 10.34 -5.66 9.68 -6 9 C-4.73046875 7.53515625 -3.4609375 6.0703125 -2.19140625 4.60546875 C-0.79128769 2.89287029 -0.79128769 2.89287029 0 0 Z " fill="#CDCECF" transform="translate(96,49)"/>
<path d="M0 0 C0.66 0 1.32 0 2 0 C2.66 1.65 3.32 3.3 4 5 C2.35 5 0.7 5 -1 5 C-0.67 3.35 -0.34 1.7 0 0 Z " fill="#BBBCBE" transform="translate(232,40)"/>
<path d="M0 0 C0.99 0 1.98 0 3 0 C3.1875 2.875 3.1875 2.875 3 6 C2.01 6.66 1.02 7.32 0 8 C0 5.36 0 2.72 0 0 Z " fill="#EDEDED" transform="translate(273,119)"/>
<path d="M0 0 C0 0.33 0 0.66 0 1 C-6.625 3 -6.625 3 -10 3 C-9.67 2.01 -9.34 1.02 -9 0 C-5.8033 -1.37001429 -3.30096158 -0.8252404 0 0 Z " fill="#CFCFCF" transform="translate(189,107)"/>
<path d="M0 0 C2.4375 0.375 2.4375 0.375 5 1 C5.33 1.66 5.66 2.32 6 3 C5.34 3 4.68 3 4 3 C3.01 4.485 3.01 4.485 2 6 C0 3 0 3 0 0 Z " fill="#C2C2C3" transform="translate(285,101)"/>
<path d="M0 0 C3.2542015 2.83430453 4.5206753 4.68607774 5 9 C4.401875 8.236875 3.80375 7.47375 3.1875 6.6875 C1.53040668 4.6516425 -0.10297674 2.8021721 -2 1 C-1.34 0.67 -0.68 0.34 0 0 Z " fill="#C7C9C9" transform="translate(353,63)"/>
<path d="M0 0 C1.98 0 3.96 0 6 0 C6 0.66 6 1.32 6 2 C6.99 2.33 7.98 2.66 9 3 C6.08517222 3.80967438 4.53886783 4.21845993 1.6875 3.0625 C1.130625 2.711875 0.57375 2.36125 0 2 C0 1.34 0 0.68 0 0 Z " fill="#C8C9C9" transform="translate(244,52)"/>
<path d="M0 0 C0.91007812 0.00902344 1.82015625 0.01804688 2.7578125 0.02734375 C3.45648438 0.03894531 4.15515625 0.05054688 4.875 0.0625 C2.875 2.0625 2.875 2.0625 -0.125 3.0625 C-2.55919051 2.60608928 -4.76973528 1.84758824 -7.125 1.0625 C-4.60024538 -0.19987731 -2.81299534 -0.03606404 0 0 Z " fill="#CFD0D0" transform="translate(414.125,49.9375)"/>
<path d="M0 0 C-0.99 0.66 -1.98 1.32 -3 2 C-4.33790641 2.99387334 -5.67218122 3.9926892 -7 5 C-7.66 4.67 -8.32 4.34 -9 4 C-6.73455663 -1.01633889 -5.27613404 -1.24961069 0 0 Z " fill="#CECFCF" transform="translate(41,33)"/>
<path d="M0 0 C0.99 0 1.98 0 3 0 C3.33 1.65 3.66 3.3 4 5 C2.68 5 1.36 5 0 5 C0 3.35 0 1.7 0 0 Z " fill="#C0C1C1" transform="translate(298,123)"/>
<path d="M0 0 C1.32 0 2.64 0 4 0 C4 1.98 4 3.96 4 6 C3.34 5.01 2.68 4.02 2 3 C1.34 3.99 0.68 4.98 0 6 C-0.38218767 4.34385343 -0.71395102 2.67542976 -1 1 C-0.67 0.67 -0.34 0.34 0 0 Z " fill="#BFC0C0" transform="translate(313,122)"/>
<path d="M0 0 C0.33 0.66 0.66 1.32 1 2 C-0.32 3.32 -1.64 4.64 -3 6 C-3.99 5.67 -4.98 5.34 -6 5 C-5.01 4.67 -4.02 4.34 -3 4 C-2.67 3.01 -2.34 2.02 -2 1 C-1.34 0.67 -0.68 0.34 0 0 Z " fill="#B5B5B5" transform="translate(269,112)"/>
<path d="M0 0 C0.66 0.66 1.32 1.32 2 2 C1.625 4.125 1.625 4.125 1 6 C-1.475 5.01 -1.475 5.01 -4 4 C-2.68 2.68 -1.36 1.36 0 0 Z " fill="#C8C8C9" transform="translate(287,111)"/>
<path d="M0 0 C1.98 0.99 1.98 0.99 4 2 C4 3.98 4 5.96 4 8 C3.34 7.01 2.68 6.02 2 5 C1.34 5 0.68 5 0 5 C0 3.35 0 1.7 0 0 Z " fill="#B0B2B3" transform="translate(288,103)"/>
<path d="M0 0 C1.32 0 2.64 0 4 0 C2.25 4.875 2.25 4.875 0 6 C-0.38218767 4.34385343 -0.71395102 2.67542976 -1 1 C-0.67 0.67 -0.34 0.34 0 0 Z " fill="#CACCCB" transform="translate(320,98)"/>
<path d="M0 0 C3.625 0.375 3.625 0.375 7 1 C6.67 1.66 6.34 2.32 6 3 C3.36 2.67 0.72 2.34 -2 2 C-1.34 1.34 -0.68 0.68 0 0 Z " fill="#AEB0AF" transform="translate(216,71)"/>
<path d="M0 0 C0.66 0 1.32 0 2 0 C2.33 1.65 2.66 3.3 3 5 C1.68 5 0.36 5 -1 5 C-0.67 3.35 -0.34 1.7 0 0 Z " fill="#B9B9B9" transform="translate(331,123)"/>
<path d="M0 0 C0.99 0 1.98 0 3 0 C3 1.65 3 3.3 3 5 C2.01 5 1.02 5 0 5 C0 3.35 0 1.7 0 0 Z " fill="#B2B2B3" transform="translate(294,123)"/>
<path d="M0 0 C0.66 0 1.32 0 2 0 C2.33 1.65 2.66 3.3 3 5 C2.01 5 1.02 5 0 5 C0 3.35 0 1.7 0 0 Z " fill="#B7B7B7" transform="translate(335,123)"/>
<path d="M0 0 C0.99 0.33 1.98 0.66 3 1 C2.67 2.65 2.34 4.3 2 6 C0 3 0 3 0 0 Z " fill="#BABABA" transform="translate(290,122)"/>
<path d="M0 0 C0.33 0 0.66 0 1 0 C1 1.65 1 3.3 1 5 C0.67 5 0.34 5 0 5 C0 3.35 0 1.7 0 0 Z " fill="#ABABAC" transform="translate(282,123)"/>
</svg>
