<?xml version="1.0" encoding="UTF-8"?>
<svg version="1.1" xmlns="http://www.w3.org/2000/svg" width="895" height="174">
<path d="M0 0 C6.34794673 0.05861549 12.06337763 1.78960261 17.953125 3.984375 C18.77520447 4.28184631 19.59728394 4.57931763 20.4442749 4.88580322 C23.04967617 5.83125149 25.64975947 6.79046235 28.25 7.75 C29.97754189 8.37849187 31.70540449 9.00610292 33.43359375 9.6328125 C36.76745401 10.84409863 40.0957367 12.06906011 43.41992188 13.30664062 C46.30157757 14.37940887 49.19030315 15.42115318 52.09570312 16.42773438 C53.27583984 16.84861328 54.45597656 17.26949219 55.671875 17.703125 C56.68862305 18.05536133 57.70537109 18.40759766 58.75292969 18.77050781 C61 20 61 20 61.92529297 21.92236328 C62.05576458 25.55083849 60.04629736 28.50895408 58.375 31.625 C58.0047168 32.33922119 57.63443359 33.05344238 57.25292969 33.78930664 C56.51341792 35.21530067 55.7693606 36.63894771 55.02050781 38.06005859 C53.73445458 40.5047904 52.48690434 42.96758096 51.25 45.4375 C50.90453125 46.11683594 50.5590625 46.79617187 50.203125 47.49609375 C48.37974879 51.29084748 46.69584593 55.1468924 45 59 C41.95874656 59.2021283 38.91780121 59.38645222 35.875 59.5625 C34.64910156 59.64661133 34.64910156 59.64661133 33.3984375 59.73242188 C22.80671787 60.31652406 12.77449672 59.48974985 2 59 C2.33 77.81 2.66 96.62 3 116 C5.97 110.72 8.94 105.44 12 100 C12.99 99.34 13.98 98.68 15 98 C14.67 97.34 14.34 96.68 14 96 C14.6809082 94.22827148 14.6809082 94.22827148 15.80078125 92.12109375 C16.20103516 91.36505859 16.60128906 90.60902344 17.01367188 89.83007812 C17.6565918 88.64575195 17.6565918 88.64575195 18.3125 87.4375 C18.72951172 86.64408203 19.14652344 85.85066406 19.57617188 85.03320312 C22.73587828 79.13206086 22.73587828 79.13206086 25 78 C25.19916016 76.94232422 25.19916016 76.94232422 25.40234375 75.86328125 C26.5996443 70.1271943 30.18402582 65.06875353 33 60 C42.57 60 52.14 60 62 60 C63.61732041 63.23464083 62.99875197 66.74708451 62.87890625 70.2890625 C62.85529526 71.10748627 62.83168427 71.92591003 62.80735779 72.76913452 C62.73067056 75.3879306 62.64666817 78.00643471 62.5625 80.625 C62.50928437 82.39842312 62.45654393 84.17186058 62.40429688 85.9453125 C62.2750486 90.29706054 62.13923848 94.64856061 62 99 C57.13849475 101.53030916 52.32423127 103.73651906 47.140625 105.55078125 C46.20629135 105.88083664 46.20629135 105.88083664 45.25308228 106.21755981 C43.25415127 106.9220438 41.25258405 107.61847263 39.25 108.3125 C36.46581076 109.27768506 33.68183856 110.24348146 30.8984375 111.2109375 C30.2151236 111.44781784 29.53180969 111.68469818 28.82778931 111.92875671 C24.83251598 113.32425614 20.89532366 114.81283376 16.9765625 116.4140625 C3.39667072 121.88152055 3.39667072 121.88152055 -3.9375 119.75 C-5.9779196 118.87779991 -7.99910312 117.9594044 -10 117 C-12.39202438 116.11464033 -14.78785788 115.23949989 -17.1875 114.375 C-22.72904483 112.27095517 -22.72904483 112.27095517 -25 110 C-25.25628055 107.26474312 -25.38783015 104.62619058 -25.43334961 101.88525391 C-25.45452347 101.04592316 -25.47569733 100.20659241 -25.49751282 99.34182739 C-25.70322331 90.53312141 -25.7884019 81.72126768 -25.86499023 72.91064453 C-25.90496419 68.7366502 -25.98133641 64.56581222 -26.09057617 60.39306641 C-26.22249301 55.34583563 -26.28938231 50.30153545 -26.3112812 45.25266647 C-26.33014783 43.3363794 -26.37118073 41.42016757 -26.43562126 39.50487137 C-26.93624025 23.78728816 -26.93624025 23.78728816 -22.23464966 18.25384521 C-19.59261239 15.61819651 -16.75116525 13.3618991 -13.70234871 11.21667099 C-10.92539785 9.23198035 -8.36109092 7.00939374 -5.75 4.8125 C-4.85796875 4.09707031 -3.9659375 3.38164063 -3.046875 2.64453125 C-1.12569477 1.16181243 -1.12569477 1.16181243 0 0 Z M2 16 C3 18 3 18 3 18 Z M2 36 C2.33 36.66 2.66 37.32 3 38 C3.33 37.34 3.66 36.68 4 36 C3.34 36 2.68 36 2 36 Z M6 37 C6 37.33 6 37.66 6 38 C7.65 38 9.3 38 11 38 C11 37.67 11 37.34 11 37 C9.35 37 7.7 37 6 37 Z M14 38 C18 39 18 39 18 39 Z M31 77 C31 77.33 31 77.66 31 78 C32.65 78 34.3 78 36 78 C36 77.67 36 77.34 36 77 C34.35 77 32.7 77 31 77 Z " fill="#BDBEC0" transform="translate(99,31)"/>
<path d="M0 0 C2.125 1.9375 2.125 1.9375 3.125 3.9375 C3.88683594 3.21433594 3.88683594 3.21433594 4.6640625 2.4765625 C10.71136626 -3.07246155 15.49984394 -5.59939291 23.81640625 -5.375 C29.161926 -4.65141019 32.91614472 -2.3986032 36.5 1.5625 C40.07620236 8.98999722 40.42305501 16.94018805 40.35546875 25.06640625 C40.35501053 25.98211899 40.35455231 26.89783173 40.3540802 27.84129333 C40.35108499 29.75464188 40.34328197 31.66798859 40.33081055 33.58129883 C40.3123514 36.52368678 40.31030263 39.46576283 40.31054688 42.40820312 C40.30563822 44.27344024 40.29981278 46.13867523 40.29296875 48.00390625 C40.29185593 48.88607315 40.2907431 49.76824005 40.28959656 50.67713928 C40.24111361 56.82138639 40.24111361 56.82138639 39.125 57.9375 C37.12541636 57.97830783 35.12454746 57.98004356 33.125 57.9375 C33.11913376 57.36200409 33.11326752 56.78650818 33.10722351 56.193573 C33.04317164 50.19090288 32.95872168 44.18876305 32.86254883 38.18652344 C32.82934334 35.94798789 32.80129784 33.70936951 32.77856445 31.47070312 C32.74493855 28.24833961 32.69261728 25.02673226 32.63671875 21.8046875 C32.63032883 20.80758759 32.6239389 19.81048767 32.61735535 18.78317261 C32.50500003 13.44459465 32.15803552 9.53252782 29.125 4.9375 C25.17354997 2.14729243 20.77635057 2.30762961 16.125 2.9375 C11.82558836 4.84834962 10.46932468 6.19262912 8.49072266 10.47290039 C6.80175779 15.27188319 6.66722079 19.82272108 6.6484375 24.87109375 C6.62506821 26.2489077 6.62506821 26.2489077 6.60122681 27.65455627 C6.55404014 30.56136344 6.52603128 33.46793318 6.5 36.375 C6.46351631 39.30689626 6.42299424 42.23865751 6.37734985 45.17042542 C6.35009714 46.98881581 6.32875721 48.80730604 6.31381226 50.62583923 C6.23573024 56.82676976 6.23573024 56.82676976 5.125 57.9375 C3.12541636 57.97830783 1.12454746 57.98004356 -0.875 57.9375 C-2.20918311 53.93495068 -1.93811223 50.12441076 -1.8671875 45.95703125 C-1.8496599 44.1347713 -1.83275272 42.3125053 -1.81640625 40.49023438 C-1.78554629 37.62442175 -1.75014474 34.7589139 -1.70361328 31.89331055 C-1.66099445 29.12284685 -1.63774867 26.35273516 -1.6171875 23.58203125 C-1.59856659 22.73590775 -1.57994568 21.88978424 -1.5607605 21.01802063 C-1.53645687 15.31506404 -2.48284602 11.13659693 -4.875 5.9375 C-7.88594407 3.18463685 -9.73315355 2.95326072 -13.8125 2.5 C-18.12029758 2.69507008 -20.64409056 4.00714027 -23.875 6.9375 C-26.9815549 12.67189478 -27.32829116 17.54415426 -27.3515625 23.9921875 C-27.37493179 25.40541794 -27.37493179 25.40541794 -27.39877319 26.84719849 C-27.4460491 29.83562485 -27.47399472 32.82381941 -27.5 35.8125 C-27.53647252 38.82244294 -27.57700276 41.83225381 -27.62265015 44.84207153 C-27.64991874 46.71054321 -27.67125171 48.57911244 -27.68618774 50.44772339 C-27.76428494 56.82678494 -27.76428494 56.82678494 -28.875 57.9375 C-31.875 58.0625 -31.875 58.0625 -34.875 57.9375 C-35.875 56.9375 -35.875 56.9375 -35.99525452 54.53941345 C-35.99303391 53.47574051 -35.99081329 52.41206757 -35.98852539 51.31616211 C-35.98844986 50.11499252 -35.98837433 48.91382294 -35.98829651 47.67625427 C-35.98313522 46.3689888 -35.97797394 45.06172333 -35.97265625 43.71484375 C-35.97079198 42.37105868 -35.96936812 41.02727293 -35.96836853 39.68348694 C-35.96454402 36.14067723 -35.95471432 32.5979083 -35.94366455 29.05511475 C-35.93344899 25.44234773 -35.9288706 21.82957416 -35.92382812 18.21679688 C-35.91309198 11.1236812 -35.89601636 4.03059326 -35.875 -3.0625 C-33.235 -3.0625 -30.595 -3.0625 -27.875 -3.0625 C-27.545 -2.0725 -27.215 -1.0825 -26.875 -0.0625 C-25.9675 -0.701875 -25.06 -1.34125 -24.125 -2 C-15.88578719 -7.2287312 -7.76785528 -5.57259183 0 0 Z " fill="#B9BABC" transform="translate(246.875,59.0625)"/>
<path d="M0 0 C8.92576104 5.93315894 13.28500392 13.28251766 15.5859375 23.63671875 C16.96997329 33.43261649 14.42900167 42.78760154 9 51 C3.5031783 57.38495446 -2.54321693 60.40199638 -10.8515625 61.3125 C-18.61580909 61.63350244 -26.47303009 60.47395735 -32.796875 55.62109375 C-34.1875 54.25 -34.1875 54.25 -36 52 C-36.77511497 57.45059932 -37.12776595 62.68378897 -37.0625 68.18359375 C-37.05871338 68.92456802 -37.05492676 69.6655423 -37.05102539 70.42897034 C-37.03893323 72.76520982 -37.02027894 75.10131818 -37 77.4375 C-36.97348792 80.5403607 -36.95350162 83.64316318 -36.9375 86.74609375 C-36.92920166 87.45954453 -36.92090332 88.1729953 -36.91235352 88.9080658 C-36.90379016 90.60560702 -36.94668158 92.30327472 -37 94 C-38 95 -38 95 -41.0625 95.0625 C-42.031875 95.041875 -43.00125 95.02125 -44 95 C-45.20663619 90.70829347 -45.13233957 86.52713639 -45.11352539 82.10058594 C-45.11367142 81.20267334 -45.11381744 80.30476074 -45.1139679 79.37963867 C-45.11327176 76.41452613 -45.10549329 73.44947656 -45.09765625 70.484375 C-45.09579101 68.42742955 -45.09436761 66.37048365 -45.09336853 64.3135376 C-45.0895517 58.90155815 -45.07972851 53.48960556 -45.06866455 48.07763672 C-45.05843252 42.55436568 -45.05386707 37.03109029 -45.04882812 31.5078125 C-45.03810552 20.6718632 -45.02103907 9.83593384 -45 -1 C-42.36 -1 -39.72 -1 -37 -1 C-36.67 1.31 -36.34 3.62 -36 6 C-35.236875 5.2575 -34.47375 4.515 -33.6875 3.75 C-24.10010833 -4.18673226 -11.0708617 -5.281512 0 0 Z M-32.52734375 12.9453125 C-37.22780341 19.50351351 -38.77680286 25.98742236 -38 34 C-36.42569143 41.75146848 -32.80400245 47.28285539 -26.375 51.875 C-20.10999432 54.84263427 -12.89853847 55.14334819 -6.26953125 53.19921875 C0.28394304 50.31410374 3.85524259 46.37748006 7 40 C10.06816136 31.91121096 9.36542589 25.55582046 6.25390625 17.65234375 C3.1670196 11.12276108 -0.89425793 7.28235262 -7.640625 4.65625 C-17.8073077 1.82843097 -26.0514047 4.8909555 -32.52734375 12.9453125 Z M-38 7 C-37 9 -37 9 -37 9 Z " fill="#B7B8B9" transform="translate(716,57)"/>
<path d="M0 0 C7.61204248 5.53342447 11.74164498 13.3813359 13.375 22.5 C13.8359375 25.59375 13.8359375 25.59375 14 28 C12.00747786 29.99252214 8.16537985 29.42395818 5.4375 29.5625 C4.63207764 29.6049585 3.82665527 29.64741699 2.99682617 29.69116211 C-10.65252739 30.30994608 -24.3405861 30.08223228 -38 30 C-37.74615384 31.74174028 -37.47438957 33.48087398 -37.1953125 35.21875 C-37.04594238 36.18748047 -36.89657227 37.15621094 -36.74267578 38.15429688 C-35.33317719 43.55505806 -31.81358827 47.27573058 -27.11328125 50.15625 C-20.71731312 52.9585403 -13.43623413 53.00021024 -6.8125 50.9375 C-1.87441403 48.8498539 2.59341637 44.81316726 5 40 C7.16874252 40.50603992 8.99967627 40.99983813 11 42 C10.48798992 46.48008821 9.14289476 48.77853287 6 52 C-2.81167689 58.88572043 -10.86986268 60.93617977 -22 60 C-29.0980945 58.54617342 -35.36966211 54.42176699 -39.765625 48.703125 C-45.94045139 39.0512119 -46.93950929 30.26031653 -45 19 C-43.98678425 15.77787788 -42.65879622 12.93571129 -41 10 C-40.443125 8.948125 -39.88625 7.89625 -39.3125 6.8125 C-29.29752167 -5.36787905 -13.55797388 -7.0393167 0 0 Z M-35.94140625 12.86328125 C-37.54722385 15.80968372 -37.54722385 15.80968372 -38 23 C-23.48 22.67 -8.96 22.34 6 22 C2.73618904 12.20856713 0.45772943 9.14818313 -8 4 C-18.83641582 0.38786139 -28.60345789 4.61068776 -35.94140625 12.86328125 Z " fill="#BDBEBF" transform="translate(456,58)"/>
<path d="M0 0 C7.60369799 5.94535086 11.100818 14.46744651 12.3125 23.875 C11.87890625 26.23046875 11.87890625 26.23046875 11.3125 27.875 C-5.35132959 29.06375727 -21.99235685 28.97913437 -38.6875 28.875 C-38.56107679 30.47328326 -38.4251168 32.07081401 -38.28515625 33.66796875 C-38.21047119 34.55766357 -38.13578613 35.4473584 -38.05883789 36.36401367 C-37.50602889 40.10210744 -36.21474683 42.08854836 -33.6875 44.875 C-26.6129836 50.12383475 -20.50480531 51.87906487 -11.6875 50.875 C-4.5251208 48.59327062 -0.12191546 44.82645232 4.3125 38.875 C6.2925 39.865 8.2725 40.855 10.3125 41.875 C5.71802745 49.98289273 0.62287981 54.6706914 -8 58.25 C-17.13522264 59.79834282 -25.5668219 59.74193839 -33.6875 54.875 C-40.26899437 49.72822586 -45.14146388 43.19758698 -46.6875 34.875 C-47.32960307 23.46532233 -47.06896885 14.25146043 -39.6875 4.875 C-28.74756622 -6.71138442 -13.58585122 -8.61033114 0 0 Z M-35.6875 9.875 C-37.48719769 12.57454653 -38.86355772 14.74401934 -39.6875 17.875 C-39.3575 19.195 -39.0275 20.515 -38.6875 21.875 C-24.4975 21.545 -10.3075 21.215 4.3125 20.875 C3.17883986 14.07303917 1.08827656 9.66093239 -4.53515625 5.51171875 C-15.07180997 -0.64025529 -27.36044837 0.44907059 -35.6875 9.875 Z " fill="#BEBFC1" transform="translate(651.6875,59.125)"/>
<path d="M0 0 C8.51528014 5.53413923 13.39721079 13.36200582 15.796875 23.2421875 C16.09765625 25.67578125 16.09765625 25.67578125 16.09765625 29.36328125 C15.09765625 30.36328125 15.09765625 30.36328125 13.04124451 30.48353577 C12.1374556 30.48131516 11.23366669 30.47909454 10.30249023 30.47680664 C9.28150742 30.47673111 8.2605246 30.47665558 7.20860291 30.47657776 C6.09820145 30.47141647 4.98779999 30.46625519 3.84375 30.4609375 C2.71316666 30.45952255 1.58258331 30.4581076 0.41773987 30.45664978 C-3.2098144 30.45103144 -6.83730799 30.43847583 -10.46484375 30.42578125 C-12.91731682 30.42076861 -15.36979085 30.4162053 -17.82226562 30.41210938 C-23.8489792 30.40105605 -29.87565714 30.38430009 -35.90234375 30.36328125 C-35.63832738 32.10473022 -35.35933429 33.84391206 -35.07421875 35.58203125 C-34.92049805 36.55076172 -34.76677734 37.51949219 -34.60839844 38.51757812 C-33.21179846 44.14647485 -29.86293572 47.91617765 -25.27734375 51.30078125 C-18.01497346 53.58708301 -10.24484021 54.45266288 -3.015625 51.6640625 C1.17747562 49.08309668 4.12469836 45.22731644 7.09765625 41.36328125 C9.26639877 41.86932117 11.09733252 42.36311938 13.09765625 43.36328125 C12.10562109 49.0611242 7.83427168 53.34185041 3.2890625 56.69921875 C-4.71757752 61.44257342 -12.8178042 62.91033325 -21.8828125 60.60546875 C-30.62298844 57.609511 -34.8302302 53.96053567 -39.5703125 46.09375 C-43.75347456 37.51888114 -44.27452407 27.76389454 -42.28515625 18.484375 C-39.49620228 10.59879275 -34.08934655 3.70280571 -26.58984375 -0.13671875 C-17.77660805 -3.72176378 -8.71337466 -4.20944342 0 0 Z M-32.46484375 13.30078125 C-35.06879867 16.89320631 -35.09363275 18.51101525 -35.90234375 23.36328125 C-21.38234375 23.36328125 -6.86234375 23.36328125 8.09765625 23.36328125 C6.95889949 16.5307407 4.78324163 12.45527475 -0.52734375 8 C-11.04700008 0.76773627 -24.6148195 3.56301307 -32.46484375 13.30078125 Z " fill="#BFC0C1" transform="translate(803.90234375,56.63671875)"/>
<path d="M0 0 C0 27.72 0 55.44 0 84 C-5 83 -5 83 -17 78 C-17 53.91 -17 29.82 -17 5 C-16.34 4.67 -15.68 4.34 -15 4 C-13.6696875 4.6496875 -13.6696875 4.6496875 -12.3125 5.3125 C-9.11154288 6.37885036 -9.11154288 6.37885036 -7.12109375 4.80078125 C-5.88749085 3.69594692 -4.68398058 2.55643095 -3.515625 1.3828125 C-2 0 -2 0 0 0 Z " fill="#BCBDBF" transform="translate(72,56)"/>
<path d="M0 0 C1.40897804 0.00333092 1.40897804 0.00333092 2.84642029 0.00672913 C3.90744461 0.00680466 4.96846893 0.00688019 6.06164551 0.00695801 C7.79286903 0.01469994 7.79286903 0.01469994 9.55906677 0.02259827 C10.73404221 0.02401321 11.90901764 0.02542816 13.11959839 0.02688599 C16.88981116 0.0325046 20.65996556 0.04506026 24.43016052 0.05775452 C26.97898779 0.06276712 29.52781599 0.06733044 32.0766449 0.07142639 C38.34033685 0.08248007 44.60399452 0.0992363 50.86766052 0.12025452 C50.86766052 3.57439956 50.54734295 3.82687757 48.27000427 6.19447327 C47.71933289 6.77543762 47.1686615 7.35640198 46.6013031 7.95497131 C46.00857605 8.56638977 45.415849 9.17780823 44.80516052 9.80775452 C43.59862259 11.07782003 42.39288591 12.34864722 41.18797302 13.62025452 C40.60821716 14.22869202 40.0284613 14.83712952 39.43113708 15.46400452 C37.08689857 17.94734526 34.8573147 20.52143695 32.62937927 23.10853577 C29.45576233 26.73251077 26.17192053 30.25853445 22.90672302 33.79994202 C20.85188724 35.93972333 20.85188724 35.93972333 19.86766052 38.12025452 C19.20766052 38.12025452 18.54766052 38.12025452 17.86766052 38.12025452 C17.54668396 38.91689514 17.54668396 38.91689514 17.21922302 39.72962952 C15.35421503 43.02842978 12.82541811 45.6301716 10.24266052 48.37025452 C9.46922302 49.20169983 9.46922302 49.20169983 8.68016052 50.04994202 C7.41341018 51.41052572 6.14108237 52.76591289 4.86766052 54.12025452 C5.72876686 54.13571571 5.72876686 54.13571571 6.60726929 54.15148926 C12.56031714 54.25932886 18.51320668 54.37394428 24.46604919 54.49256897 C26.69029948 54.53599039 28.91458467 54.57765997 31.13890076 54.61756897 C34.32854247 54.67509758 37.51800732 54.73884136 40.70750427 54.80384827 C42.20905312 54.82891701 42.20905312 54.82891701 43.74093628 54.85449219 C44.66181534 54.87443741 45.5826944 54.89438263 46.53147888 54.91493225 C47.34644333 54.93047653 48.16140778 54.94602081 49.00106812 54.96203613 C50.86766052 55.12025452 50.86766052 55.12025452 51.86766052 56.12025452 C51.99266052 58.62025452 51.99266052 58.62025452 51.86766052 61.12025452 C50.86766052 62.12025452 50.86766052 62.12025452 48.43161011 62.24050903 C47.35017227 62.23828842 46.26873444 62.23606781 45.15452576 62.23377991 C43.93333542 62.23370438 42.71214508 62.23362885 41.45394897 62.23355103 C40.11138367 62.22844363 38.76881877 62.22322762 37.42625427 62.21791077 C36.06004895 62.21604651 34.69384295 62.21462264 33.32763672 62.21362305 C29.72564357 62.20979846 26.12369052 62.19996869 22.52171326 62.18891907 C18.84862307 62.17870368 15.17552643 62.17412515 11.50242615 62.16908264 C4.29081929 62.15834636 -2.92075448 62.14127065 -10.13233948 62.12025452 C-9.39251582 58.72597501 -8.57742769 57.24441672 -6.00733948 54.87025452 C-2.83830994 51.83621407 0.05461411 48.67538249 2.91844177 45.35462952 C5.19786746 42.74174076 7.52978405 40.18095431 9.86766052 37.62025452 C12.67397381 34.54466979 15.46009841 31.45978679 18.18016052 28.30775452 C22.16323383 23.71042412 26.34125053 19.29234497 30.51341248 14.86708069 C31.33458557 13.99080017 31.33458557 13.99080017 32.17234802 13.09681702 C32.66718689 12.57168518 33.16202576 12.04655334 33.67185974 11.50550842 C34.97478604 10.11094633 34.97478604 10.11094633 35.86766052 8.12025452 C16.56266052 7.62525452 16.56266052 7.62525452 -3.13233948 7.12025452 C-3.13233948 0.17665009 -3.13233948 0.17665009 0 0 Z " fill="#BDBEBF" transform="translate(554.1323394775391,54.87974548339844)"/>
<path d="M0 0 C1.56139206 0.0001133 1.56139206 0.0001133 3.15432739 0.00022888 C4.28144135 0.00539017 5.4085553 0.01055145 6.56982422 0.01586914 C7.72118866 0.01728409 8.8725531 0.01869904 10.05880737 0.02015686 C13.74740158 0.02576823 17.43593576 0.03832269 21.12451172 0.05102539 C23.62060459 0.05603892 26.11669842 0.06060208 28.61279297 0.06469727 C34.7417198 0.07574136 40.87061147 0.0924906 46.99951172 0.11352539 C46.99951172 4.07381865 45.73905261 4.82509124 43.06201172 7.67602539 C42.24087891 8.56161133 41.41974609 9.44719727 40.57373047 10.35961914 C39.72423828 11.2684082 38.87474609 12.17719727 37.99951172 13.11352539 C36.45378328 14.81818445 34.91197619 16.52640919 33.37451172 18.23852539 C32.63716797 19.05836914 31.89982422 19.87821289 31.14013672 20.72290039 C25.53643217 26.83012069 25.53643217 26.83012069 20.42919922 33.34008789 C19.95740234 33.92532227 19.48560547 34.51055664 18.99951172 35.11352539 C18.33951172 35.11352539 17.67951172 35.11352539 16.99951172 35.11352539 C16.73146729 35.70375488 16.46342285 36.29398438 16.18725586 36.90209961 C14.99002178 39.13119443 13.73699977 40.67227321 11.99560547 42.49633789 C11.42003906 43.10606445 10.84447266 43.71579102 10.25146484 44.34399414 C9.65269531 44.96918945 9.05392578 45.59438477 8.43701172 46.23852539 C7.24618845 47.48920822 6.05729061 48.74172801 4.87060547 49.99633789 C4.34394287 50.54692871 3.81728027 51.09751953 3.2746582 51.66479492 C1.89713368 53.10557028 1.89713368 53.10557028 0.99951172 55.11352539 C16.50951172 55.11352539 32.01951172 55.11352539 47.99951172 55.11352539 C47.99951172 57.09352539 47.99951172 59.07352539 47.99951172 61.11352539 C46.99951172 62.11352539 46.99951172 62.11352539 44.5634613 62.23377991 C43.48202347 62.2315593 42.40058563 62.22933868 41.28637695 62.22705078 C40.06518661 62.22697525 38.84399628 62.22689972 37.58580017 62.2268219 C36.24323486 62.2217145 34.90066996 62.2164985 33.55810547 62.21118164 C32.19190014 62.20931738 30.82569415 62.20789352 29.45948792 62.20689392 C25.85749477 62.20306933 22.25554172 62.19323956 18.65356445 62.18218994 C14.98047427 62.17197455 11.30737763 62.16739603 7.63427734 62.16235352 C0.42267049 62.15161723 -6.78890329 62.13454153 -14.00048828 62.11352539 C-12.3787465 58.7017352 -10.51027651 56.27403681 -7.93798828 53.48852539 C-7.13232422 52.60938477 -6.32666016 51.73024414 -5.49658203 50.82446289 C-4.67287109 49.92985352 -3.84916016 49.03524414 -3.00048828 48.11352539 C-1.49821184 46.44891033 0.00183991 44.78228449 1.49951172 43.11352539 C2.24458984 42.28594727 2.98966797 41.45836914 3.75732422 40.60571289 C5.2324379 38.9661266 6.70642823 37.32552884 8.17919922 35.68383789 C13.15511202 30.1412731 18.1759016 24.64302465 23.22607422 19.16821289 C26.53230765 15.52669945 29.76064627 11.8150859 32.99951172 8.11352539 C13.19951172 7.61852539 13.19951172 7.61852539 -7.00048828 7.11352539 C-7.00048828 5.13352539 -7.00048828 3.15352539 -7.00048828 1.11352539 C-4.49499383 -0.13922184 -2.80313196 -0.00677085 0 0 Z " fill="#BDBEBE" transform="translate(362.00048828125,54.886474609375)"/>
<path d="M0 0 C11.29293602 2.50954134 11.29293602 2.50954134 14 5 C14.60127258 8.13212585 14.60127258 8.13212585 14.56762695 12.04174805 C14.56872215 13.11042114 14.56872215 13.11042114 14.56983948 14.20068359 C14.56635644 16.55513714 14.52746648 18.90761102 14.48828125 21.26171875 C14.47895555 22.89409809 14.47183829 24.52649143 14.46684265 26.15888977 C14.44775339 30.45499319 14.39863694 34.75025112 14.34332275 39.04602051 C14.29217126 43.42965252 14.26933744 47.81342119 14.24414062 52.19726562 C14.19051919 60.79856506 14.10518419 69.39917735 14 78 C8.61598274 77.3052881 5.39400929 75.39733746 0 73 C0 48.91 0 24.82 0 0 Z " fill="#BCBDBF" transform="translate(40,55)"/>
<path d="M0 0 C0.0093457 1.29099609 0.01869141 2.58199219 0.02832031 3.91210938 C0.06836561 8.72820816 0.13416485 13.54367791 0.20751953 18.359375 C0.23564499 20.43871952 0.25690121 22.51816929 0.27099609 24.59765625 C0.29254238 27.59689892 0.33925276 30.59488745 0.390625 33.59375 C0.39185364 34.51490601 0.39308228 35.43606201 0.39434814 36.38513184 C0.52795844 42.34996477 1.55689567 47.03329477 5 52 C9.22681178 54.98363184 15.01054562 54.50374299 20 54 C23.77332496 52.76509365 25.41560607 51.76575756 27.8125 48.625 C31.2321575 38.18604552 30.12785895 26.0975111 30.0625 15.1875 C30.05746824 13.70507966 30.05290834 12.22265764 30.04882812 10.74023438 C30.0379707 7.1601205 30.02080135 3.58007157 30 0 C32.64 0 35.28 0 38 0 C37.93272795 6.40499241 37.8428161 12.80938743 37.73754883 19.21386719 C37.70440219 21.39022711 37.67633866 23.56667088 37.65356445 25.74316406 C37.61982962 28.88122103 37.5675038 32.01851675 37.51171875 35.15625 C37.50532883 36.12115356 37.4989389 37.08605713 37.49235535 38.0802002 C37.35051626 44.67515863 36.64493712 50.68262124 32.38671875 56.0234375 C25.3508215 61.61980635 18.93867786 62.96896237 10 62 C3.22978875 60.31224196 -1.22434976 57.8994535 -5 52 C-7.42714681 46.48220816 -7.25788668 41.26326588 -7.1953125 35.3515625 C-7.1924826 34.33903412 -7.18965271 33.32650574 -7.18673706 32.28329468 C-7.17558254 29.06374062 -7.15048646 25.84446935 -7.125 22.625 C-7.1149641 20.43620195 -7.10583931 18.24739951 -7.09765625 16.05859375 C-7.0756587 10.70563342 -7.04222824 5.35283692 -7 0 C-2.25 -1.125 -2.25 -1.125 0 0 Z " fill="#BBBCBE" transform="translate(307,56)"/>
<path d="M0 0 C7.92568916 6.49106886 11.82993291 14.23753558 13.2578125 24.34375 C13.77214664 34.10051272 10.96021086 43.82917373 4.53125 51.296875 C-1.72006823 57.22441978 -8.03515235 59.30402116 -16.5546875 59.65625 C-22.65332674 59.4922661 -28.31955328 58.19762391 -33.6796875 55.21875 C-35.5078125 53.21875 -35.5078125 53.21875 -36.6796875 51.21875 C-36.3671875 48.96875 -36.3671875 48.96875 -35.6796875 47.21875 C-32.22230119 47.64038248 -29.64085366 48.2377862 -26.4921875 49.78125 C-20.81572849 52.29439595 -14.86552724 52.12506648 -8.9609375 50.4453125 C-2.06900981 47.51831912 1.42916655 43.04654856 4.3203125 36.21875 C6.51978232 27.12217727 4.7929744 19.42357971 0.2578125 11.3203125 C-2.9894452 6.87788357 -7.44410925 4.50856447 -12.6796875 3.21875 C-16.1105058 3.15108885 -19.4408329 3.27142567 -22.859375 3.56640625 C-23.79007813 3.45167969 -24.72078125 3.33695313 -25.6796875 3.21875 C-27.5625 0.71484375 -27.5625 0.71484375 -28.6796875 -1.78125 C-20.15127148 -7.46686068 -8.19905847 -5.45010301 0 0 Z " fill="#BEBFC0" transform="translate(718.6796875,58.78125)"/>
<path d="M0 0 C2.64 0 5.28 0 8 0 C8.02312154 12.36918715 8.04091412 24.73836919 8.05181217 37.10757351 C8.05704141 42.85045062 8.0641398 48.59331301 8.07543945 54.33618164 C8.08626687 59.87339995 8.09227652 65.41060404 8.09487724 70.94783211 C8.09673176 73.06544277 8.10035286 75.18305262 8.10573006 77.30065727 C8.11293856 80.25571274 8.11399102 83.21070871 8.11352539 86.16577148 C8.11712067 87.05049637 8.12071594 87.93522125 8.12442017 88.84675598 C8.11405216 94.88594784 8.11405216 94.88594784 7 96 C4 96.125 4 96.125 1 96 C-0.88885195 94.11114805 -0.12010635 91.35948241 -0.12442017 88.84675598 C-0.12082489 87.9620311 -0.11722961 87.07730621 -0.11352539 86.16577148 C-0.11367142 85.23903625 -0.11381744 84.31230103 -0.1139679 83.35748291 C-0.11326838 80.27866313 -0.10547421 77.19990303 -0.09765625 74.12109375 C-0.09579221 71.99259982 -0.09436824 69.86410547 -0.09336853 67.73561096 C-0.08954228 62.1213768 -0.07971108 56.50716832 -0.06866455 50.89294434 C-0.05845273 45.16886747 -0.0538714 39.44478647 -0.04882812 33.72070312 C-0.03808891 22.48045744 -0.0210112 11.24023085 0 0 Z " fill="#CFD0D1" transform="translate(484,56)"/>
<path d="M0 0 C1.4540625 0.0309375 1.4540625 0.0309375 2.9375 0.0625 C3.8959336 2.93780081 4.00406387 4.35299931 3.81640625 7.29296875 C3.76806641 8.09541016 3.71972656 8.89785156 3.66992188 9.72460938 C3.61384766 10.55798828 3.55777344 11.39136719 3.5 12.25 C3.44779297 13.09498047 3.39558594 13.93996094 3.34179688 14.81054688 C3.21226311 16.89486299 3.07556823 18.97873182 2.9375 21.0625 C3.64777344 21.05089844 4.35804688 21.03929688 5.08984375 21.02734375 C6.00894531 21.01832031 6.92804687 21.00929688 7.875 21 C8.79152344 20.98839844 9.70804688 20.97679688 10.65234375 20.96484375 C12.9375 21.0625 12.9375 21.0625 13.9375 22.0625 C13.97830783 24.06208364 13.98004356 26.06295254 13.9375 28.0625 C8.9875 28.5575 8.9875 28.5575 3.9375 29.0625 C3.9375 46.5525 3.9375 64.0425 3.9375 82.0625 C-1.0625 83.0625 -1.0625 83.0625 -4.0625 82.0625 C-4.0625 64.2425 -4.0625 46.4225 -4.0625 28.0625 C-6.3725 28.0625 -8.6825 28.0625 -11.0625 28.0625 C-11.0625 26.0825 -11.0625 24.1025 -11.0625 22.0625 C-9.0825 21.7325 -7.1025 21.4025 -5.0625 21.0625 C-5.03744385 20.46187744 -5.0123877 19.86125488 -4.98657227 19.24243164 C-4.8709472 16.53638563 -4.74807064 13.83071717 -4.625 11.125 C-4.58568359 10.17947266 -4.54636719 9.23394531 -4.50585938 8.25976562 C-4.46396484 7.36064453 -4.42207031 6.46152344 -4.37890625 5.53515625 C-4.32391968 4.28617554 -4.32391968 4.28617554 -4.26782227 3.01196289 C-3.92437423 -0.24895573 -3.36967909 0.06876896 0 0 Z M-1.0625 42.0625 C-1.22931109 44.97902174 -1.22931109 44.97902174 -1.0625 48.0625 C-0.4025 48.7225 0.2575 49.3825 0.9375 50.0625 C0.9375 47.4225 0.9375 44.7825 0.9375 42.0625 C0.2775 42.0625 -0.3825 42.0625 -1.0625 42.0625 Z M-0.0625 52.0625 C-1.47827477 53.24674326 -1.47827477 53.24674326 -1.125 56.625 C-1.104375 57.759375 -1.08375 58.89375 -1.0625 60.0625 C-0.4025 59.7325 0.2575 59.4025 0.9375 59.0625 C0.9375 56.7525 0.9375 54.4425 0.9375 52.0625 C0.6075 52.0625 0.2775 52.0625 -0.0625 52.0625 Z " fill="#BFC0C0" transform="translate(746.0625,33.9375)"/>
<path d="M0 0 C0.680625 -0.00257812 1.36125 -0.00515625 2.0625 -0.0078125 C4 0.125 4 0.125 7 1.125 C6.34 3.105 5.68 5.085 5 7.125 C4.32453125 7.15078125 3.6490625 7.1765625 2.953125 7.203125 C-2.59042594 7.48939352 -2.59042594 7.48939352 -7.5 9.8125 C-11.30265161 15.67492123 -11.33027579 21.57945646 -11.4140625 28.3359375 C-11.43342865 29.30407379 -11.4527948 30.27221008 -11.4727478 31.26968384 C-11.5322833 34.3463677 -11.5788247 37.42308951 -11.625 40.5 C-11.66320373 42.59246377 -11.70225685 44.68491222 -11.7421875 46.77734375 C-11.83796345 51.89310396 -11.92209042 57.00893776 -12 62.125 C-14.31 62.125 -16.62 62.125 -19 62.125 C-19.33 42.325 -19.66 22.525 -20 2.125 C-16.535 1.63 -16.535 1.63 -13 1.125 C-12.34 2.445 -11.68 3.765 -11 5.125 C-10.401875 4.485625 -9.80375 3.84625 -9.1875 3.1875 C-6.24218359 0.41048738 -3.90477706 -0.01479082 0 0 Z " fill="#BFC0C1" transform="translate(852,53.875)"/>
<path d="M0 0 C2.44215206 3.74882743 2.27355159 7.4764422 2.23046875 11.79296875 C2.23001053 12.53960281 2.22955231 13.28623688 2.2290802 14.05549622 C2.22606682 15.62807817 2.21820793 17.20065738 2.20581055 18.77319336 C2.18748561 21.18939687 2.18530144 23.60521843 2.18554688 26.02148438 C2.18063396 27.5494825 2.17480662 29.07747802 2.16796875 30.60546875 C2.16685593 31.33146774 2.1657431 32.05746674 2.16459656 32.8054657 C2.11607343 37.88392657 2.11607343 37.88392657 1 39 C-0.99958364 39.04080783 -3.00045254 39.04254356 -5 39 C-4.67 38.01 -4.34 37.02 -4 36 C-3.84653047 33.34393699 -3.74282102 30.70904905 -3.68359375 28.05078125 C-3.66281265 27.27816452 -3.64203156 26.50554779 -3.62062073 25.70951843 C-3.55528962 23.2439352 -3.49631685 20.77824639 -3.4375 18.3125 C-3.39429913 16.63996309 -3.35068434 14.96743681 -3.30664062 13.29492188 C-3.1996251 9.1967225 -3.09831143 5.09841704 -3 1 C-2.01 0.67 -1.02 0.34 0 0 Z " fill="#E4E5E5" transform="translate(677,113)"/>
<path d="M0 0 C2 3 2 3 2 5 C2.99 5 3.98 5 5 5 C4.67 6.65 4.34 8.3 4 10 C4.66 10.33 5.32 10.66 6 11 C4.35 11 2.7 11 1 11 C1.48082031 11.53109375 1.96164062 12.0621875 2.45703125 12.609375 C4.38380447 15.59465402 4.4958424 17.72350016 4.6875 21.25 C4.78611328 22.86648437 4.78611328 22.86648437 4.88671875 24.515625 C4.92410156 25.33546875 4.96148438 26.1553125 5 27 C3.02 27.99 3.02 27.99 1 29 C1 28.34 1 27.68 1 27 C0.01 27.33 -0.98 27.66 -2 28 C-4.20394142 18.70434386 -4.23280784 8.64198267 0 0 Z " fill="#C0C0C0" transform="translate(764,70)"/>
<path d="M0 0 C0.66 0.33 1.32 0.66 2 1 C2.042721 2.66611905 2.04063832 4.33382885 2 6 C1.67 6.33 1.34 6.66 1 7 C1.88214887 9.88214887 1.88214887 9.88214887 3 12 C3.09778606 14.16882101 3.13077494 16.34069536 3.1328125 18.51171875 C3.13474609 20.48495117 3.13474609 20.48495117 3.13671875 22.49804688 C3.13462402 23.18632568 3.1325293 23.87460449 3.13037109 24.58374023 C3.12506505 26.66202247 3.13029593 28.74008427 3.13671875 30.81835938 C3.13605711 32.1536463 3.13477417 33.4889331 3.1328125 34.82421875 C3.13168457 36.03166748 3.13055664 37.23911621 3.12939453 38.4831543 C2.99732481 42.07270976 2.69805444 45.47518432 2 49 C1.01 49.495 1.01 49.495 0 50 C-0.91983592 46.0293204 -1.19088698 42.23837938 -1.31640625 38.16796875 C-1.35830078 36.87568359 -1.40019531 35.58339844 -1.44335938 34.25195312 C-1.48316352 32.89713808 -1.52287591 31.54232033 -1.5625 30.1875 C-1.60573723 28.81313895 -1.64935312 27.43878976 -1.69335938 26.06445312 C-1.7992979 22.70973331 -1.90137189 19.3549414 -2 16 C-2.33 16 -2.66 16 -3 16 C-3 12.7 -3 9.4 -3 6 C-2.67 6 -2.34 6 -2 6 C-1.34 4.02 -0.68 2.04 0 0 Z M0 12 C-0.16681109 14.91652174 -0.16681109 14.91652174 0 18 C0.66 18.66 1.32 19.32 2 20 C2 17.36 2 14.72 2 12 C1.34 12 0.68 12 0 12 Z M1 22 C-0.41577477 23.18424326 -0.41577477 23.18424326 -0.0625 26.5625 C-0.041875 27.696875 -0.02125 28.83125 0 30 C0.66 29.67 1.32 29.34 2 29 C2 26.69 2 24.38 2 22 C1.67 22 1.34 22 1 22 Z " fill="#EFF2F4" transform="translate(745,64)"/>
<path d="M0 0 C0.33 0 0.66 0 1 0 C1 23.1 1 46.2 1 70 C0.01 69.67 -0.98 69.34 -2 69 C-2.02507213 64.80485403 -2.04303239 60.60974994 -2.05493164 56.41455078 C-2.05990212 54.99299356 -2.06668084 53.57144128 -2.07543945 52.14990234 C-2.12203588 44.38200409 -1.99620082 36.70696231 -1.25610352 28.96582031 C-0.77590551 23.40486186 -0.6299205 17.82703999 -0.4375 12.25 C-0.39431641 11.0640625 -0.35113281 9.878125 -0.30664062 8.65625 C-0.20193082 5.77091324 -0.09975479 2.88551158 0 0 Z " fill="#D0D1D3" transform="translate(486,82)"/>
<path d="M0 0 C2.64 0 5.28 0 8 0 C8 3.63 8 7.26 8 11 C7.34 11 6.68 11 6 11 C6.04125 11.9075 6.0825 12.815 6.125 13.75 C5.9973959 17.06770664 5.43116716 18.13766568 4 21 C3.80043172 22.39151032 3.63667823 23.78841189 3.5 25.1875 C3.335 26.445625 3.17 27.70375 3 29 C2.34 29.33 1.68 29.66 1 30 C0.67 20.1 0.34 10.2 0 0 Z " fill="#BBBCBE" transform="translate(671,56)"/>
<path d="M0 0 C1.47118538 0.00022659 1.47118538 0.00022659 2.97209167 0.00045776 C4.028423 0.01078033 5.08475433 0.02110291 6.1730957 0.03173828 C7.25645706 0.03456818 8.33981842 0.03739807 9.45600891 0.04031372 C12.92041003 0.05151987 16.3845538 0.07662544 19.84887695 0.10205078 C22.19587843 0.11208001 24.54288396 0.12120596 26.88989258 0.12939453 C32.64714203 0.15146062 38.40424111 0.18494251 44.16137695 0.22705078 C44.16137695 1.21705078 44.16137695 2.20705078 44.16137695 3.22705078 C40.20137695 2.89705078 36.24137695 2.56705078 32.16137695 2.22705078 C32.16137695 4.20705078 32.16137695 6.18705078 32.16137695 8.22705078 C29.85137695 7.89705078 27.54137695 7.56705078 25.16137695 7.22705078 C24.66637695 5.24705078 24.66637695 5.24705078 24.16137695 3.22705078 C13.60137695 2.89705078 3.04137695 2.56705078 -7.83862305 2.22705078 C-4.59577526 0.06515226 -3.73766084 -0.01921677 0 0 Z " fill="#B4B4B5" transform="translate(560.838623046875,54.77294921875)"/>
<path d="M0 0 C0.66 0 1.32 0 2 0 C2 12.87 2 25.74 2 39 C1.01 38.67 0.02 38.34 -1 38 C-1.02475064 33.23112363 -1.04288403 28.46228479 -1.05493164 23.69335938 C-1.05995505 22.07160796 -1.06677494 20.44986105 -1.07543945 18.828125 C-1.08759229 16.49478031 -1.09324828 14.1614956 -1.09765625 11.828125 C-1.10281754 11.10506165 -1.10797882 10.38199829 -1.11329651 9.63702393 C-1.11366918 6.2798725 -1.04907619 3.20893892 0 0 Z " fill="#FAFBFB" transform="translate(835,75)"/>
<path d="M0 0 C2.15502531 3.23253796 2.46856135 4.25150923 2 8 C0.875 9.8125 0.875 9.8125 -1 11 C-4.14485925 11.39310741 -6.13281671 11.47555213 -8.9375 9.9375 C-10.64787795 6.81857551 -9.80513863 4.34442199 -9 1 C-5.95699684 -0.52150158 -3.345915 -0.23899393 0 0 Z " fill="#C4C5C6" transform="translate(492,31)"/>
<path d="M0 0 C0 0.99 0 1.98 0 3 C-0.66 3 -1.32 3 -2 3 C-2.33 3.66 -2.66 4.32 -3 5 C-4.66666667 5.33333333 -6.33333333 5.66666667 -8 6 C-8.33 6.66 -8.66 7.32 -9 8 C-9.66 8 -10.32 8 -11 8 C-11 8.99 -11 9.98 -11 11 C-10.01 11.33 -9.02 11.66 -8 12 C-9.77074917 12.02705729 -11.54161711 12.04642195 -13.3125 12.0625 C-14.29863281 12.07410156 -15.28476562 12.08570312 -16.30078125 12.09765625 C-19 12 -19 12 -22 11 C-21.67 9.35 -21.34 7.7 -21 6 C-22.32 5.01 -23.64 4.02 -25 3 C-23.53240234 3.16048828 -23.53240234 3.16048828 -22.03515625 3.32421875 C-14.2896159 4.032513 -8.2457257 4.24808394 -1 1 C-0.67 0.67 -0.34 0.34 0 0 Z " fill="#C5C6C6" transform="translate(804,106)"/>
<path d="M0 0 C1.15113281 -0.01417969 2.30226563 -0.02835937 3.48828125 -0.04296875 C6.51162237 0.17482994 8.15315871 0.6043189 10.6875 2.1875 C9.6975 3.6725 9.6975 3.6725 8.6875 5.1875 C9.3475 5.1875 10.0075 5.1875 10.6875 5.1875 C10.6875 5.8475 10.6875 6.5075 10.6875 7.1875 C5.7375 7.1875 0.7875 7.1875 -4.3125 7.1875 C-4.6425 5.8675 -4.9725 4.5475 -5.3125 3.1875 C-5.9725 2.5275 -6.6325 1.8675 -7.3125 1.1875 C-5.45615553 -0.66884447 -2.48420097 0.01381647 0 0 Z " fill="#BCBDBD" transform="translate(771.3125,79.8125)"/>
<path d="M0 0 C0.33 0 0.66 0 1 0 C1 22.44 1 44.88 1 68 C-0.485 68.495 -0.485 68.495 -2 69 C-2 61.08 -2 53.16 -2 45 C-1.67 45 -1.34 45 -1 45 C-0.67 30.15 -0.34 15.3 0 0 Z " fill="#D5D5D5" transform="translate(491,83)"/>
<path d="M0 0 C0.66 0 1.32 0 2 0 C2 1.98 2 3.96 2 6 C2.99 6.33 3.98 6.66 5 7 C5 20.53 5 34.06 5 48 C4.67 48 4.34 48 4 48 C3.67 38.43 3.34 28.86 3 19 C2.67 19 2.34 19 2 19 C2 15.7 2 12.4 2 9 C1.34 9 0.68 9 0 9 C-0.33 10.32 -0.66 11.64 -1 13 C-1.02708567 11.39592672 -1.04643483 9.7917215 -1.0625 8.1875 C-1.07410156 7.29417969 -1.08570313 6.40085937 -1.09765625 5.48046875 C-1 3 -1 3 0 0 Z " fill="#E4E5E6" transform="translate(835,66)"/>
<path d="M0 0 C1.4540625 0.0309375 1.4540625 0.0309375 2.9375 0.0625 C2.9375 1.0525 2.9375 2.0425 2.9375 3.0625 C2.2775 2.7325 1.6175 2.4025 0.9375 2.0625 C0.9375 7.6725 0.9375 13.2825 0.9375 19.0625 C-0.0525 19.0625 -1.0425 19.0625 -2.0625 19.0625 C-2.7225 19.7225 -3.3825 20.3825 -4.0625 21.0625 C-4.09138146 17.75001813 -4.10925799 14.43756833 -4.125 11.125 C-4.13337891 10.17947266 -4.14175781 9.23394531 -4.15039062 8.25976562 C-4.15361328 7.36064453 -4.15683594 6.46152344 -4.16015625 5.53515625 C-4.16539307 4.70250244 -4.17062988 3.86984863 -4.17602539 3.01196289 C-3.98525275 -0.26399306 -3.34296677 0.06822381 0 0 Z " fill="#E8E8E8" transform="translate(746.0625,33.9375)"/>
<path d="M0 0 C0.74168427 0.00444122 1.48336853 0.00888245 2.24752808 0.01345825 C3.50860886 0.01368484 3.50860886 0.01368484 4.79516602 0.01391602 C6.15773026 0.02939987 6.15773026 0.02939987 7.54782104 0.04519653 C8.47722504 0.04802643 9.40662903 0.05085632 10.36419678 0.05377197 C13.33959704 0.06498834 16.3146989 0.09009543 19.29000854 0.11550903 C21.30432712 0.12553696 23.31865041 0.13466313 25.33297729 0.14285278 C30.27710311 0.16493243 35.22100519 0.1994721 40.16500854 0.24050903 C39.83500854 0.90050903 39.50500854 1.56050903 39.16500854 2.24050903 C36.11772366 3.25627066 35.02529061 3.23086067 31.95407104 2.80691528 C24.82813486 2.00003447 17.6991637 2.13289188 10.54000854 2.17800903 C9.14027057 2.18303706 7.74053084 2.18759765 6.34078979 2.19168091 C2.94881685 2.20337737 -0.44306379 2.21976818 -3.83499146 2.24050903 C-1.83499146 0.24050903 -1.83499146 0.24050903 0 0 Z " fill="#B2B3B2" transform="translate(367.8349914550781,54.759490966796875)"/>
<path d="M0 0 C1 1 1 1 1.0625 4.0625 C1.041875 5.031875 1.02125 6.00125 1 7 C-0.79093191 7.08086147 -2.58289628 7.13912702 -4.375 7.1875 C-5.87160156 7.23970703 -5.87160156 7.23970703 -7.3984375 7.29296875 C-8.25695312 7.19628906 -9.11546875 7.09960938 -10 7 C-10.66 6.01 -11.32 5.02 -12 4 C-11.34 4 -10.68 4 -10 4 C-10.33 3.01 -10.66 2.02 -11 1 C-7.11651516 -0.29449495 -4.09302664 -0.13203312 0 0 Z " fill="#B5B5B5" transform="translate(759,55)"/>
<path d="M0 0 C0 3.3 0 6.6 0 10 C-2.33163378 10.67258667 -4.6652039 11.33847444 -7 12 C-7.763125 12.2475 -8.52625 12.495 -9.3125 12.75 C-10.1478125 12.87375 -10.1478125 12.87375 -11 13 C-11.66 12.34 -12.32 11.68 -13 11 C-11.02 10.34 -9.04 9.68 -7 9 C-7 8.34 -7 7.68 -7 7 C-6.34 7 -5.68 7 -5 7 C-4.67 5.68 -4.34 4.36 -4 3 C-4.66 2.67 -5.32 2.34 -6 2 C-6 1.34 -6 0.68 -6 0 C-4 -1 -4 -1 0 0 Z " fill="#B6B6B8" transform="translate(161,108)"/>
<path d="M0 0 C2.4375 1.4375 2.4375 1.4375 3.25 4.5625 C3.311875 5.51125 3.37375 6.46 3.4375 7.4375 C2.1175 7.7675 0.7975 8.0975 -0.5625 8.4375 C-0.8925 10.0875 -1.2225 11.7375 -1.5625 13.4375 C-3.67077055 10.27509418 -3.90067465 8.93092531 -4.1875 5.25 C-4.26226563 4.34894531 -4.33703125 3.44789062 -4.4140625 2.51953125 C-4.46304688 1.83246094 -4.51203125 1.14539063 -4.5625 0.4375 C-2.5625 -0.5625 -2.5625 -0.5625 0 0 Z " fill="#C3C3C4" transform="translate(609.5625,87.5625)"/>
<path d="M0 0 C0.33 0 0.66 0 1 0 C1.05797565 3.93743833 1.09358789 7.87476719 1.125 11.8125 C1.15013672 13.49182617 1.15013672 13.49182617 1.17578125 15.20507812 C1.18222656 16.27822266 1.18867187 17.35136719 1.1953125 18.45703125 C1.20578613 19.44678955 1.21625977 20.43654785 1.22705078 21.45629883 C1 24 1 24 -1 27 C-2.27955991 22.49186474 -2.18398886 18.15577726 -2.1875 13.5 C-2.19974609 12.64535156 -2.21199219 11.79070312 -2.22460938 10.91015625 C-2.22654297 10.08386719 -2.22847656 9.25757812 -2.23046875 8.40625 C-2.23663208 7.28186523 -2.23663208 7.28186523 -2.24291992 6.13476562 C-1.96836704 3.72201143 -1.19750325 2.09540822 0 0 Z " fill="#ECEDED" transform="translate(676,73)"/>
<path d="M0 0 C-0.33 1.65 -0.66 3.3 -1 5 C-0.34 5.33 0.32 5.66 1 6 C0.34 6 -0.32 6 -1 6 C-1.268125 6.639375 -1.53625 7.27875 -1.8125 7.9375 C-3 10 -3 10 -6 11 C-6 10.01 -6 9.02 -6 8 C-6.99 7.67 -7.98 7.34 -9 7 C-7.4576387 2.93377477 -4.5679954 0 0 0 Z " fill="#B7B8B8" transform="translate(380,84)"/>
<path d="M0 0 C1.125 1.6875 1.125 1.6875 2 4 C1.25 6.6875 1.25 6.6875 0 9 C-0.99 9.495 -0.99 9.495 -2 10 C-1.67 10.66 -1.34 11.32 -1 12 C-2.65 11.67 -4.3 11.34 -6 11 C-5.67 10.01 -5.34 9.02 -5 8 C-4.34 8 -3.68 8 -3 8 C-3 7.34 -3 6.68 -3 6 C-3.99 6.66 -4.98 7.32 -6 8 C-8.6875 8.125 -8.6875 8.125 -11 8 C-8.80516417 6.53677611 -6.68038 5.25569634 -4.375 4 C-0.97179804 2.3948274 -0.97179804 2.3948274 0 0 Z " fill="#C6C7C7" transform="translate(718,103)"/>
<path d="M0 0 C2 3 2 3 2 5 C2.99 5 3.98 5 5 5 C4.67 6.65 4.34 8.3 4 10 C4.66 10.33 5.32 10.66 6 11 C3.03 11 0.06 11 -3 11 C-1.125 2.25 -1.125 2.25 0 0 Z " fill="#CCCDCE" transform="translate(764,70)"/>
<path d="M0 0 C9.41002278 -0.3690205 9.41002278 -0.3690205 14 2 C11 4 11 4 9 5 C9.33 5.66 9.66 6.32 10 7 C6.66135596 6.42437172 5.30897368 5.40936384 3 3 C2.01 2.67 1.02 2.34 0 2 C0 1.34 0 0.68 0 0 Z " fill="#BBBCBB" transform="translate(436,54)"/>
<path d="M0 0 C4.455 0.99 4.455 0.99 9 2 C6 5 6 5 1 6 C1 9.63 1 13.26 1 17 C0.67 17 0.34 17 0 17 C0 11.39 0 5.78 0 0 Z " fill="#C8C9C9" transform="translate(40,55)"/>
<path d="M0 0 C0.33 0 0.66 0 1 0 C1.02929977 3.35414799 1.0468989 6.70826253 1.0625 10.0625 C1.07087891 11.00544922 1.07925781 11.94839844 1.08789062 12.91992188 C1.10573446 18.04110137 1.08283619 22.98081592 0 28 C-0.66 28.33 -1.32 28.66 -2 29 C-3.25 21.375 -3.25 21.375 -1 18 C-0.63648496 15.97457852 -0.63648496 15.97457852 -0.5859375 13.76953125 C-0.54726563 12.96708984 -0.50859375 12.16464844 -0.46875 11.33789062 C-0.4378125 10.50451172 -0.406875 9.67113281 -0.375 8.8125 C-0.33632813 7.96751953 -0.29765625 7.12253906 -0.2578125 6.25195312 C-0.16363721 4.16832476 -0.08073325 2.08419247 0 0 Z " fill="#E5E8E9" transform="translate(747,85)"/>
<path d="M0 0 C1.9375 0.375 1.9375 0.375 4 1 C4.33 1.66 4.66 2.32 5 3 C7.57951874 3.69093896 7.57951874 3.69093896 10.5625 4.125 C11.57441406 4.29257813 12.58632813 4.46015625 13.62890625 4.6328125 C14.80259766 4.81457031 14.80259766 4.81457031 16 5 C16 5.33 16 5.66 16 6 C14.01432292 5.93489583 12.02864583 5.86979167 10.04296875 5.8046875 C7.68640281 5.86745538 7.68640281 5.86745538 5 8 C4.67 7.34 4.34 6.68 4 6 C2.68 6 1.36 6 0 6 C0 4.02 0 2.04 0 0 Z " fill="#ADADAF" transform="translate(605,82)"/>
<path d="M0 0 C0.33 0.99 0.66 1.98 1 3 C-0.2065625 3.86625 -0.2065625 3.86625 -1.4375 4.75 C-4.22153128 7.19451527 -4.25614423 7.62785383 -5 11 C-5.65140796 12.43362072 -6.3396927 13.85101812 -7.0625 15.25 C-7.42472656 15.95640625 -7.78695312 16.6628125 -8.16015625 17.390625 C-8.43730469 17.92171875 -8.71445312 18.4528125 -9 19 C-9.66 18.67 -10.32 18.34 -11 18 C-8.53175846 10.84209953 -5.63851526 5.23576417 0 0 Z " fill="#C3C7C7" transform="translate(616,60)"/>
<path d="M0 0 C-0.57584432 2.38564077 -1.22227595 4.66682784 -2 7 C-2.99 7.33 -3.98 7.66 -5 8 C-5.309375 7.05125 -5.61875 6.1025 -5.9375 5.125 C-6.87394742 2.13919592 -6.87394742 2.13919592 -8 0 C-4.71303767 -0.79953138 -3.28976808 -1.09658936 0 0 Z " fill="#C4C6C8" transform="translate(840,56)"/>
<path d="M0 0 C0 4.05164344 -1.61357669 5.79537442 -4 9 C-6.66559313 10.77706209 -9.0280615 11.87548273 -12 13 C-10.44997253 9.11602311 -7.99523379 6.97020381 -4.875 4.25 C-3.96492188 3.45078125 -3.05484375 2.6515625 -2.1171875 1.828125 C-1.06917969 0.92320313 -1.06917969 0.92320313 0 0 Z " fill="#B2B2B8" transform="translate(95,34)"/>
<path d="M0 0 C0.33 0 0.66 0 1 0 C1.33 5.28 1.66 10.56 2 16 C2.33 16 2.66 16 3 16 C3 18.31 3 20.62 3 23 C2.01 23.33 1.02 23.66 0 24 C0 16.08 0 8.16 0 0 Z " fill="#CCCDCE" transform="translate(489,128)"/>
<path d="M0 0 C1.32 0.33 2.64 0.66 4 1 C2.25 4 2.25 4 0 7 C-1.32 7 -2.64 7 -4 7 C-3.67 5.35 -3.34 3.7 -3 2 C-2.34 2 -1.68 2 -1 2 C-0.67 1.34 -0.34 0.68 0 0 Z " fill="#BBBBBB" transform="translate(658,100)"/>
<path d="M0 0 C0.99 0 1.98 0 3 0 C3.66 2.31 4.32 4.62 5 7 C4.34 7 3.68 7 3 7 C2.67 7.66 2.34 8.32 2 9 C1.34 9 0.68 9 0 9 C-0.33 9.66 -0.66 10.32 -1 11 C-1.33 9.02 -1.66 7.04 -2 5 C-0.68 4.67 0.64 4.34 2 4 C1.34 2.68 0.68 1.36 0 0 Z " fill="#C3C4C5" transform="translate(657,69)"/>
<path d="M0 0 C0.33 1.98 0.66 3.96 1 6 C0.67 5.34 0.34 4.68 0 4 C-0.66 4 -1.32 4 -2 4 C-1.67 6.31 -1.34 8.62 -1 11 C-1.66 11 -2.32 11 -3 11 C-4.75547734 8.3151523 -5.00627277 7.07997785 -4.75 3.8125 C-4.5025 2.884375 -4.255 1.95625 -4 1 C-2 0 -2 0 0 0 Z " fill="#B8B8BA" transform="translate(613,95)"/>
<path d="M0 0 C0.66 0 1.32 0 2 0 C2.05384521 2.29141286 2.09272087 4.58318188 2.125 6.875 C2.14820313 8.15117188 2.17140625 9.42734375 2.1953125 10.7421875 C2 14 2 14 0 16 C-0.83830296 13.07924603 -1.13527361 10.47335217 -1.125 7.4375 C-1.12757813 6.67308594 -1.13015625 5.90867187 -1.1328125 5.12109375 C-1 3 -1 3 0 0 Z " fill="#CECECE" transform="translate(677,80)"/>
<path d="M0 0 C2.16874252 0.50603992 3.99967627 0.99983813 6 2 C5.49396008 4.16874252 5.00016187 5.99967627 4 8 C3.01 7.67 2.02 7.34 1 7 C1.66 7 2.32 7 3 7 C3 6.34 3 5.68 3 5 C1.68 4.34 0.36 3.68 -1 3 C-0.67 2.01 -0.34 1.02 0 0 Z " fill="#C7C7C8" transform="translate(811,98)"/>
<path d="M0 0 C0.66 0 1.32 0 2 0 C2 2.97 2 5.94 2 9 C1.34 9 0.68 9 0 9 C-0.33 10.32 -0.66 11.64 -1 13 C-1.02708567 11.39592672 -1.04643483 9.7917215 -1.0625 8.1875 C-1.07410156 7.29417969 -1.08570313 6.40085937 -1.09765625 5.48046875 C-1 3 -1 3 0 0 Z " fill="#CACBCD" transform="translate(835,66)"/>
<path d="M0 0 C0.33 0 0.66 0 1 0 C1 2.97 1 5.94 1 9 C1.66 9.33 2.32 9.66 3 10 C-1.875 11 -1.875 11 -3 11 C-3 8.36 -3 5.72 -3 3 C-2.34 4.32 -1.68 5.64 -1 7 C-0.67 4.69 -0.34 2.38 0 0 Z " fill="#D3D4D4" transform="translate(747,106)"/>
<path d="M0 0 C0.33 0 0.66 0 1 0 C1.33 3.3 1.66 6.6 2 10 C-1 10 -1 10 -3 9 C-3 7.02 -3 5.04 -3 3 C-2.01 3.495 -2.01 3.495 -1 4 C-0.67 2.68 -0.34 1.36 0 0 Z " fill="#D6D7D8" transform="translate(767,87)"/>
<path d="M0 0 C0.99 0 1.98 0 3 0 C3.1875 2.875 3.1875 2.875 3 6 C2.01 6.66 1.02 7.32 0 8 C0 7.34 0 6.68 0 6 C-0.99 6.33 -1.98 6.66 -3 7 C-1.125 1.125 -1.125 1.125 0 0 Z " fill="#C9C9C9" transform="translate(726,72)"/>
<path d="M0 0 C3 1 3 1 4.9375 2.0625 C7.2293158 3.27586863 7.2293158 3.27586863 11 3 C11.33 3.99 11.66 4.98 12 6 C7.71 5.01 3.42 4.02 -1 3 C-0.67 2.01 -0.34 1.02 0 0 Z " fill="#B2B3B5" transform="translate(111,49)"/>
<path d="M0 0 C0.99 0 1.98 0 3 0 C2.34 1.32 1.68 2.64 1 4 C-2.96 4 -6.92 4 -11 4 C-11 3.67 -11 3.34 -11 3 C-10.28972656 2.86722656 -9.57945312 2.73445313 -8.84765625 2.59765625 C-7.92855469 2.42105469 -7.00945312 2.24445312 -6.0625 2.0625 C-4.68771484 1.80146484 -4.68771484 1.80146484 -3.28515625 1.53515625 C-1.04710156 1.22285012 -1.04710156 1.22285012 0 0 Z " fill="#B2B3B4" transform="translate(400,58)"/>
<path d="M0 0 C0.33 0 0.66 0 1 0 C1.02693575 2.12493141 1.04636628 4.24995912 1.0625 6.375 C1.07410156 7.55835938 1.08570313 8.74171875 1.09765625 9.9609375 C1 13 1 13 0 15 C-0.66 15 -1.32 15 -2 15 C-1.34 10.05 -0.68 5.1 0 0 Z " fill="#B7B9B9" transform="translate(673,136)"/>
<path d="M0 0 C3.63 0 7.26 0 11 0 C10.67 1.32 10.34 2.64 10 4 C5.38308839 3.47535095 3.90012114 2.92509086 0 0 Z " fill="#C4C5C7" transform="translate(133,91)"/>
<path d="M0 0 C1.32 0.33 2.64 0.66 4 1 C2.35 1.66 0.7 2.32 -1 3 C-0.01 3.33 0.98 3.66 2 4 C1.34 5.32 0.68 6.64 0 8 C-0.66 8 -1.32 8 -2 8 C-3 5 -3 5 -2 2 C-1.34 2 -0.68 2 0 2 C0 1.34 0 0.68 0 0 Z " fill="#C2C3C4" transform="translate(101,31)"/>
<path d="M0 0 C0.66 0.66 1.32 1.32 2 2 C1.34 2 0.68 2 0 2 C-0.33 2.99 -0.66 3.98 -1 5 C-1.66 4.67 -2.32 4.34 -3 4 C-3.99 4.33 -4.98 4.66 -6 5 C-6.99 4.34 -7.98 3.68 -9 3 C-6.03 2.01 -3.06 1.02 0 0 Z " fill="#ADAEB0" transform="translate(132,122)"/>
<path d="M0 0 C2.475 0.495 2.475 0.495 5 1 C4.67 1.99 4.34 2.98 4 4 C4.99 3.67 5.98 3.34 7 3 C7 3.66 7 4.32 7 5 C5.1875 5.625 5.1875 5.625 3 6 C2.01 5.34 1.02 4.68 0 4 C0 2.68 0 1.36 0 0 Z " fill="#B7B8B9" transform="translate(330,109)"/>
<path d="M0 0 C1.32 0.33 2.64 0.66 4 1 C3.67 1.66 3.34 2.32 3 3 C2.34 3 1.68 3 1 3 C1 4.32 1 5.64 1 7 C0.01 6.67 -0.98 6.34 -2 6 C-1.49396008 3.83125748 -1.00016187 2.00032373 0 0 Z " fill="#C6C8C8" transform="translate(461,98)"/>
<path d="M0 0 C1.32 0.66 2.64 1.32 4 2 C3.34 3.32 2.68 4.64 2 6 C1.01 5.67 0.02 5.34 -1 5 C-1.66 5.66 -2.32 6.32 -3 7 C-3 3.48283697 -2.17554415 2.62878252 0 0 Z " fill="#C3C5C5" transform="translate(389,69)"/>
<path d="M0 0 C1.32 0.33 2.64 0.66 4 1 C4 1.66 4 2.32 4 3 C-0.62 3 -5.24 3 -10 3 C-10 2.67 -10 2.34 -10 2 C-6.7 2 -3.4 2 0 2 C0 1.34 0 0.68 0 0 Z " fill="#AEAEAF" transform="translate(778,84)"/>
<path d="M0 0 C0.33 0.66 0.66 1.32 1 2 C2.65 1.67 4.3 1.34 6 1 C5.1875 2.9375 5.1875 2.9375 4 5 C3.01 5.33 2.02 5.66 1 6 C0 5 0 5 -0.0625 2.4375 C-0.041875 1.633125 -0.02125 0.82875 0 0 Z " fill="#C5C6C7" transform="translate(139,120)"/>
<path d="M0 0 C1.32 0.33 2.64 0.66 4 1 C4 1.66 4 2.32 4 3 C4.99 3.66 5.98 4.32 7 5 C4.69 5 2.38 5 0 5 C0 3.35 0 1.7 0 0 Z " fill="#ABA9A9" transform="translate(735,57)"/>
<path d="M0 0 C0.33 0 0.66 0 1 0 C1 2.64 1 5.28 1 8 C0.01 8.495 0.01 8.495 -1 9 C-1.625 5.625 -1.625 5.625 -2 2 C-1.34 1.34 -0.68 0.68 0 0 Z " fill="#F2F2F3" transform="translate(746,105)"/>
<path d="M0 0 C0.66 0 1.32 0 2 0 C2 1.65 2 3.3 2 5 C1.01 5.495 1.01 5.495 0 6 C-0.66 5.67 -1.32 5.34 -2 5 C-1.125 1.125 -1.125 1.125 0 0 Z " fill="#B3B5B5" transform="translate(70,56)"/>
<path d="M0 0 C2.97 0 5.94 0 9 0 C8.67 0.66 8.34 1.32 8 2 C2.55072464 3.27536232 2.55072464 3.27536232 0 2 C0 1.34 0 0.68 0 0 Z " fill="#AFB0B0" transform="translate(436,54)"/>
<path d="M0 0 C0.33 0 0.66 0 1 0 C1.33 3.96 1.66 7.92 2 12 C1.01 11.67 0.02 11.34 -1 11 C-0.67 7.37 -0.34 3.74 0 0 Z " fill="#B6B8B8" transform="translate(485,140)"/>
<path d="M0 0 C0.33 0.66 0.66 1.32 1 2 C2.65 1.67 4.3 1.34 6 1 C5.34 2.65 4.68 4.3 4 6 C3.01 5.67 2.02 5.34 1 5 C0.67 3.35 0.34 1.7 0 0 Z " fill="#B0B1B2" transform="translate(302,105)"/>
<path d="M0 0 C0 0.99 0 1.98 0 3 C-2.64 3 -5.28 3 -8 3 C-8.33 2.34 -8.66 1.68 -9 1 C-5.8035914 -0.06546953 -3.34252724 -0.07427838 0 0 Z " fill="#D4D4D6" transform="translate(161,105)"/>
<path d="M0 0 C1.98 0.495 1.98 0.495 4 1 C3.67 1.99 3.34 2.98 3 4 C0.9375 4.6875 0.9375 4.6875 -1 5 C-0.67 3.35 -0.34 1.7 0 0 Z " fill="#BDBEBE" transform="translate(42,55)"/>
<path d="M0 0 C0.66 0 1.32 0 2 0 C2.66 1.65 3.32 3.3 4 5 C3.01 5.33 2.02 5.66 1 6 C0 5 0 5 -0.0625 2.4375 C-0.041875 1.633125 -0.02125 0.82875 0 0 Z " fill="#B8BABB" transform="translate(482,34)"/>
</svg>
