<?xml version="1.0" encoding="UTF-8"?>
<svg version="1.1" xmlns="http://www.w3.org/2000/svg" width="691" height="169">
<path d="M0 0 C1.65322266 0.01740234 1.65322266 0.01740234 3.33984375 0.03515625 C4.99693359 0.04869141 4.99693359 0.04869141 6.6875 0.0625 C7.54214844 0.07410156 8.39679688 0.08570313 9.27734375 0.09765625 C8.64349585 5.61481125 6.77170066 10.36513434 4.71484375 15.47265625 C4.38548828 16.30410156 4.05613281 17.13554688 3.71679688 17.9921875 C2.90891969 20.02944301 2.0938529 22.06384495 1.27734375 24.09765625 C5.89734375 23.76765625 10.51734375 23.43765625 15.27734375 23.09765625 C15.90382812 21.60492188 16.5303125 20.1121875 17.17578125 18.57421875 C18.00104723 16.62359007 18.826582 14.6730751 19.65234375 12.72265625 C20.06484375 11.7378125 20.47734375 10.75296875 20.90234375 9.73828125 C21.30195312 8.79726563 21.7015625 7.85625 22.11328125 6.88671875 C22.4798584 6.01740723 22.84643555 5.1480957 23.22412109 4.25244141 C24.27734375 2.09765625 24.27734375 2.09765625 26.27734375 0.09765625 C29.09765625 -0.09765625 29.09765625 -0.09765625 32.40234375 -0.02734375 C33.49804688 -0.00929687 34.59375 0.00875 35.72265625 0.02734375 C36.98722656 0.06214844 36.98722656 0.06214844 38.27734375 0.09765625 C37.66430747 5.50273668 35.83353682 10.0220467 33.71484375 14.97265625 C33.38548828 15.75640625 33.05613281 16.54015625 32.71679688 17.34765625 C31.90937589 19.26674381 31.09414606 21.18254275 30.27734375 23.09765625 C35.88734375 23.42765625 41.49734375 23.75765625 47.27734375 24.09765625 C45.52734375 32.84765625 45.52734375 32.84765625 43.27734375 35.09765625 C41.30615234 35.32470703 41.30615234 35.32470703 38.92578125 35.29296875 C38.075 35.28652344 37.22421875 35.28007813 36.34765625 35.2734375 C35.45820312 35.25667969 34.56875 35.23992187 33.65234375 35.22265625 C32.3065625 35.20912109 32.3065625 35.20912109 30.93359375 35.1953125 C28.71457789 35.17170595 26.49609298 35.13877935 24.27734375 35.09765625 C24.07238281 35.71253906 23.86742188 36.32742187 23.65625 36.9609375 C22.52994792 40.33984375 21.40364583 43.71875 20.27734375 47.09765625 C26.21734375 47.09765625 32.15734375 47.09765625 38.27734375 47.09765625 C37.27734375 54.09765625 37.27734375 54.09765625 35.27734375 58.09765625 C28.34734375 58.09765625 21.41734375 58.09765625 14.27734375 58.09765625 C13.94734375 59.74765625 13.61734375 61.39765625 13.27734375 63.09765625 C12.1120274 66.24467272 10.71267201 69.28612773 9.33984375 72.34765625 C8.97955078 73.17523438 8.61925781 74.0028125 8.24804688 74.85546875 C7.89806641 75.64179687 7.54808594 76.428125 7.1875 77.23828125 C6.86918213 77.95532227 6.55086426 78.67236328 6.22290039 79.41113281 C5.27734375 81.09765625 5.27734375 81.09765625 3.27734375 82.09765625 C1.4035477 82.16799394 -0.47266727 82.18195845 -2.34765625 82.16015625 C-3.35054687 82.15113281 -4.3534375 82.14210938 -5.38671875 82.1328125 C-6.15757813 82.12121094 -6.9284375 82.10960937 -7.72265625 82.09765625 C-8.72265625 80.09765625 -8.72265625 80.09765625 -8.01000977 77.94287109 C-7.62772217 77.07355957 -7.24543457 76.20424805 -6.8515625 75.30859375 C-6.44228516 74.36757812 -6.03300781 73.4265625 -5.61132812 72.45703125 C-5.17369141 71.4721875 -4.73605469 70.48734375 -4.28515625 69.47265625 C-3.85138672 68.48007813 -3.41761719 67.4875 -2.97070312 66.46484375 C-1.89498373 64.00605656 -0.80970259 61.55145676 0.27734375 59.09765625 C-4.34265625 59.09765625 -8.96265625 59.09765625 -13.72265625 59.09765625 C-14.27695312 60.350625 -14.83125 61.60359375 -15.40234375 62.89453125 C-16.13406511 64.54559484 -16.86583868 66.1966353 -17.59765625 67.84765625 C-18.14486328 69.08515625 -18.14486328 69.08515625 -18.703125 70.34765625 C-19.05761719 71.146875 -19.41210938 71.94609375 -19.77734375 72.76953125 C-20.10202637 73.50268555 -20.42670898 74.23583984 -20.76123047 74.99121094 C-21.07850098 75.68633789 -21.39577148 76.38146484 -21.72265625 77.09765625 C-22.05152832 77.82629883 -22.38040039 78.55494141 -22.71923828 79.30566406 C-23.72265625 81.09765625 -23.72265625 81.09765625 -25.72265625 82.09765625 C-27.4296836 82.16761639 -29.13933628 82.18205779 -30.84765625 82.16015625 C-32.21277344 82.14662109 -32.21277344 82.14662109 -33.60546875 82.1328125 C-34.65347656 82.11541016 -34.65347656 82.11541016 -35.72265625 82.09765625 C-36.94025668 78.63456606 -36.53009946 76.87460386 -35.0703125 73.55078125 C-34.70615234 72.70644531 -34.34199219 71.86210938 -33.96679688 70.9921875 C-33.57685547 70.11949219 -33.18691406 69.24679688 -32.78515625 68.34765625 C-32.39908203 67.45949219 -32.01300781 66.57132812 -31.61523438 65.65625 C-30.661235 63.46558478 -29.69327177 61.28101019 -28.72265625 59.09765625 C-34.33265625 58.76765625 -39.94265625 58.43765625 -45.72265625 58.09765625 C-46.05265625 57.43765625 -46.38265625 56.77765625 -46.72265625 56.09765625 C-45.40265625 53.12765625 -44.08265625 50.15765625 -42.72265625 47.09765625 C-36.12265625 47.09765625 -29.52265625 47.09765625 -22.72265625 47.09765625 C-21.73265625 44.12765625 -20.74265625 41.15765625 -19.72265625 38.09765625 C-19.39265625 37.43765625 -19.06265625 36.77765625 -18.72265625 36.09765625 C-24.99265625 35.76765625 -31.26265625 35.43765625 -37.72265625 35.09765625 C-36.72265625 30.09765625 -36.72265625 30.09765625 -33.72265625 24.09765625 C-26.79265625 24.09765625 -19.86265625 24.09765625 -12.72265625 24.09765625 C-11.73265625 21.12765625 -10.74265625 18.15765625 -9.72265625 15.09765625 C-8.71247543 12.58476864 -7.67299305 10.08335941 -6.59765625 7.59765625 C-6.07945313 6.39109375 -5.56125 5.18453125 -5.02734375 3.94140625 C-3.27292014 0.11739312 -3.27292014 0.11739312 0 0 Z M-4.72265625 35.09765625 C-5.38265625 36.52078125 -6.04265625 37.94390625 -6.72265625 39.41015625 C-7.09390625 40.21066406 -7.46515625 41.01117188 -7.84765625 41.8359375 C-8.90306292 44.15979584 -8.90306292 44.15979584 -8.72265625 47.09765625 C-3.77265625 47.09765625 1.17734375 47.09765625 6.27734375 47.09765625 C7.92734375 43.13765625 9.57734375 39.17765625 11.27734375 35.09765625 C5.99734375 35.09765625 0.71734375 35.09765625 -4.72265625 35.09765625 Z " fill="#BDBFC0" transform="translate(70.72265625,50.90234375)"/>
<path d="M0 0 C5.59657028 3.84497195 10.26628298 9.12903035 12.49609375 15.640625 C14.12406689 25.23341297 13.54016547 33.74185285 7.859375 41.78125 C3.60004106 47.26659569 -1.35548779 51.04909262 -8.140625 52.78125 C-16.40217274 53.77550575 -22.91167465 52.9002629 -30.140625 48.78125 C-30.800625 48.45125 -31.460625 48.12125 -32.140625 47.78125 C-32.13538818 48.83626709 -32.13015137 49.89128418 -32.12475586 50.97827148 C-32.10670599 54.8788163 -32.09519305 58.7793574 -32.08569336 62.67993164 C-32.0806531 64.37069316 -32.07382095 66.06145029 -32.06518555 67.75219727 C-32.05310643 70.17725707 -32.04739377 72.60225944 -32.04296875 75.02734375 C-32.03780746 75.78776474 -32.03264618 76.54818573 -32.02732849 77.33164978 C-32.02713262 79.1485757 -32.07865223 80.96538127 -32.140625 82.78125 C-33.140625 83.78125 -33.140625 83.78125 -35.171875 83.9140625 C-35.9865625 83.91148437 -36.80125 83.90890625 -37.640625 83.90625 C-38.4553125 83.90882813 -39.27 83.91140625 -40.109375 83.9140625 C-42.140625 83.78125 -42.140625 83.78125 -43.140625 82.78125 C-43.23575444 80.10337027 -43.26617779 77.45136131 -43.25415039 74.77319336 C-43.25429642 73.93424026 -43.25444244 73.09528717 -43.2545929 72.23091125 C-43.2538935 69.44427956 -43.24609985 66.65771384 -43.23828125 63.87109375 C-43.23641717 61.94438209 -43.23499322 60.01766995 -43.23399353 58.09095764 C-43.23016759 53.00937603 -43.22033666 47.9278228 -43.20928955 42.84625244 C-43.19907706 37.66508366 -43.19449626 32.48391031 -43.18945312 27.30273438 C-43.17871446 17.12889375 -43.16163713 6.95507423 -43.140625 -3.21875 C-39.510625 -3.21875 -35.880625 -3.21875 -32.140625 -3.21875 C-31.810625 -2.22875 -31.480625 -1.23875 -31.140625 -0.21875 C-30.480625 -0.5075 -29.820625 -0.79625 -29.140625 -1.09375 C-18.92041772 -4.92632773 -9.75392118 -5.55332739 0 0 Z M-29.015625 14.40625 C-31.83060026 18.87709306 -32.53832301 22.53001307 -32.140625 27.78125 C-30.70391583 33.1806472 -27.76612589 36.91006607 -23.05859375 39.87109375 C-18.32123922 42.11916626 -14.0145729 42.30473889 -9.015625 40.78125 C-4.01212394 38.65944975 -0.5454422 34.59088439 1.859375 29.78125 C2.62262518 22.93702297 2.05050423 18.29589372 -2.140625 12.78125 C-6.98959685 9.02082285 -10.82348954 7.4015863 -17.01953125 7.50390625 C-22.06681091 8.16386363 -25.35568534 11.06456596 -29.015625 14.40625 Z " fill="#BDBEBF" transform="translate(279.140625,62.21875)"/>
<path d="M0 0 C18.15 0 36.3 0 55 0 C55.73316291 3.66581454 56.10380005 6.36699832 56 10 C54.02 10.66 52.04 11.32 50 12 C49.67 13.65 49.34 15.3 49 17 C50.98 17 52.96 17 55 17 C56.25513654 20.86761538 56.14416307 24.7385232 56.1328125 28.7578125 C56.13376923 29.50207489 56.13472595 30.24633728 56.13571167 31.01315308 C56.13639052 32.58152349 56.13455683 34.14989675 56.13037109 35.71826172 C56.12500349 38.1234361 56.13033378 40.52842504 56.13671875 42.93359375 C56.13605821 44.45833375 56.13477756 45.98307363 56.1328125 47.5078125 C56.13483673 48.22865021 56.13686096 48.94948792 56.13894653 49.69216919 C56.1149722 54.7700556 56.1149722 54.7700556 55 57 C49.60653012 57.02464849 44.21309275 57.04283531 38.81958008 57.05493164 C36.98331125 57.05997231 35.14704646 57.06680477 33.31079102 57.07543945 C30.67723599 57.08751672 28.04373384 57.09323081 25.41015625 57.09765625 C24.17109276 57.10539818 24.17109276 57.10539818 22.90699768 57.11329651 C20.93763632 57.11349205 18.96838386 57.06204152 17 57 C16 56 16 56 15.9375 52.9375 C15.958125 51.968125 15.97875 50.99875 16 50 C14.35 50 12.7 50 11 50 C11.020625 50.969375 11.04125 51.93875 11.0625 52.9375 C11 56 11 56 10 57 C8.31391034 57.07205511 6.62499341 57.08386068 4.9375 57.0625 C4.01839844 57.05347656 3.09929687 57.04445312 2.15234375 57.03515625 C1.44207031 57.02355469 0.73179687 57.01195312 0 57 C-1.02899781 53.91300657 -1.08942864 51.92943193 -1.02172852 48.70239258 C-1.00130493 47.60640747 -0.98088135 46.51042236 -0.95983887 45.38122559 C-0.9331311 44.23061646 -0.90642334 43.08000732 -0.87890625 41.89453125 C-0.84790833 40.30674866 -0.84790833 40.30674866 -0.81628418 38.68688965 C-0.73745603 34.72864072 -0.64942172 30.77057946 -0.5625 26.8125 C-0.376875 17.964375 -0.19125 9.11625 0 0 Z M18 19 C18 28.57 18 38.14 18 48 C27.9 48 37.8 48 48 48 C48.020625 43.235625 48.04125 38.47125 48.0625 33.5625 C48.071604 32.0576001 48.08070801 30.5527002 48.09008789 29.00219727 C48.09258545 27.82713623 48.09508301 26.6520752 48.09765625 25.44140625 C48.10289307 24.23170166 48.10812988 23.02199707 48.11352539 21.77563477 C48.31775285 19.09187983 48.31775285 19.09187983 47 18 C45.19361244 17.90032427 43.38335314 17.86919462 41.57421875 17.8671875 C40.46755859 17.86589844 39.36089844 17.86460938 38.22070312 17.86328125 C37.05474609 17.86714844 35.88878906 17.87101562 34.6875 17.875 C32.9559668 17.86919922 32.9559668 17.86919922 31.18945312 17.86328125 C30.07892578 17.86457031 28.96839844 17.86585937 27.82421875 17.8671875 C26.80416748 17.86831543 25.78411621 17.86944336 24.7331543 17.87060547 C21.75600436 17.92189171 21.75600436 17.92189171 18 19 Z " fill="#BEBFC0" transform="translate(373,59)"/>
<path d="M0 0 C6.55332812 6.40769861 9.537652 12.52686496 10.8125 21.75 C10.51838342 23.09252908 10.19137369 24.42888546 9.8125 25.75 C3.86783775 25.91738578 -2.07695397 26.07796884 -8.02197266 26.23217773 C-10.04546079 26.28563266 -12.06890023 26.34096466 -14.09228516 26.39819336 C-16.99631243 26.48000696 -19.90044644 26.55512562 -22.8046875 26.62890625 C-24.16725174 26.66945885 -24.16725174 26.66945885 -25.55734253 26.71083069 C-26.39806305 26.73092697 -27.23878357 26.75102325 -28.10498047 26.77172852 C-29.21750687 26.80170677 -29.21750687 26.80170677 -30.35250854 26.83229065 C-32.1875 26.75 -32.1875 26.75 -34.1875 25.75 C-31.95397783 30.89084433 -30.05416765 34.63034125 -25.1875 37.75 C-20.39945556 39.34601481 -15.65363596 39.81482554 -10.92578125 37.7734375 C-7.95050259 35.98057088 -5.70278614 34.56036453 -3.81640625 31.59375 C-2.1875 29.75 -2.1875 29.75 0.51171875 29.359375 C1.49785156 29.40578125 2.48398438 29.4521875 3.5 29.5 C4.49386719 29.53609375 5.48773438 29.5721875 6.51171875 29.609375 C7.27097656 29.65578125 8.03023437 29.7021875 8.8125 29.75 C8.51132281 35.77354371 5.8512488 39.50846883 1.8125 43.75 C-5.1837569 49.61033327 -11.60038236 52.11315095 -20.6875 51.625 C-27.91189531 50.77448255 -33.958093 47.83807168 -39.1875 42.75 C-44.51661567 35.80975634 -46.94957077 28.59002093 -46.1875 19.75 C-44.35649761 10.37957601 -40.44543707 3.77091531 -32.5625 -1.6875 C-22.60116508 -8.10120161 -9.42297039 -6.65150851 0 0 Z M-29.0625 9.6875 C-31.40962194 11.64884588 -31.40962194 11.64884588 -32.1875 14.75 C-22.6175 14.75 -13.0475 14.75 -3.1875 14.75 C-7.30919824 9.5978772 -9.28058154 7.4498137 -15.5625 5.9375 C-20.91251282 5.6607752 -24.62210581 6.69506044 -29.0625 9.6875 Z " fill="#BEBFC0" transform="translate(222.1875,64.25)"/>
<path d="M0 0 C8.07136481 4.80847265 12.4792145 11.11140918 15.46484375 19.95703125 C15.99507353 23.01003853 15.89537111 26.00320209 15.8359375 29.09375 C1.16009744 29.76957558 -13.47203403 30.25135221 -28.1640625 30.09375 C-25.67224259 35.66678218 -24.09308238 39.05512644 -18.3125 41.47265625 C-13.56855946 42.84408633 -9.68783963 42.63155369 -4.9765625 40.96875 C-1.94673351 39.2008498 -1.94673351 39.2008498 0.0234375 35.90625 C2.8359375 33.09375 2.8359375 33.09375 5.59375 32.70703125 C8.36445843 32.71766057 11.07819575 32.8329478 13.8359375 33.09375 C13.07009868 41.13505759 8.73214856 45.45971877 2.93359375 50.578125 C-2.49788912 54.50254838 -8.60809831 55.16405525 -15.1640625 55.09375 C-24.26775685 53.52864495 -30.6470942 49.54911257 -36.1640625 42.09375 C-40.52541848 34.30561432 -41.73800959 26.00624553 -39.41015625 17.26171875 C-35.86038218 7.97662344 -30.85813902 3.68027451 -22.1640625 -0.90625 C-15.38087509 -3.16731247 -6.56688735 -2.99250563 0 0 Z M-22.1640625 12.09375 C-23.8140625 14.07375 -25.4640625 16.05375 -27.1640625 18.09375 C-17.5940625 18.09375 -8.0240625 18.09375 1.8359375 18.09375 C-0.42540602 13.57106297 -2.68287767 12.02466704 -7.1640625 10.09375 C-12.67318509 8.59126202 -17.3427879 9.00246217 -22.1640625 12.09375 Z " fill="#BEBFC0" transform="translate(353.1640625,60.90625)"/>
<path d="M0 0 C5.88712078 4.45648713 9.81229738 11.46549528 11.06640625 18.75 C11.06640625 21.06 11.06640625 23.37 11.06640625 25.75 C-3.45359375 26.08 -17.97359375 26.41 -32.93359375 26.75 C-29.93450082 34.06869889 -29.93450082 34.06869889 -24.18359375 37.87109375 C-19.14251776 39.84026406 -14.71277598 39.36587077 -9.68359375 37.625 C-6.71512937 35.84441365 -6.71512937 35.84441365 -4.74609375 32.5625 C-1.93359375 29.75 -1.93359375 29.75 0.82421875 29.36328125 C3.59492718 29.37391057 6.3086645 29.4891978 9.06640625 29.75 C9.39640625 30.41 9.72640625 31.07 10.06640625 31.75 C6.69657236 40.03417497 1.51225388 46.3220335 -6.76953125 50.03125 C-13.75792352 52.35230447 -21.04538669 52.39931041 -27.93359375 49.75 C-35.98170065 45.44036856 -41.75083215 39.85913325 -44.49609375 30.91796875 C-46.51317422 20.92261462 -44.39603966 12.60952385 -39.30859375 4 C-27.83365169 -6.87099774 -13.28837564 -8.59046506 0 0 Z M-25.93359375 7.75 C-27.91359375 10.06 -29.89359375 12.37 -31.93359375 14.75 C-22.36359375 14.75 -12.79359375 14.75 -2.93359375 14.75 C-5.1920662 10.23305509 -6.5509793 9.10362628 -10.93359375 6.75 C-16.23935538 5.25405504 -20.85106507 5.49109836 -25.93359375 7.75 Z " fill="#BEBFC1" transform="translate(608.93359375,64.25)"/>
<path d="M0 0 C3.63 0 7.26 0 11 0 C11 10.89 11 21.78 11 33 C13.64 32.01 16.28 31.02 19 30 C25.49344487 29.10976966 32.34954983 29.42815095 38 33 C45.42020606 39.49454655 47.80891307 46.46215172 49 56 C49.08799548 58.40244251 49.13057855 60.80688504 49.1328125 63.2109375 C49.13376923 63.86454254 49.13472595 64.51814758 49.13571167 65.19155884 C49.13638654 66.55788267 49.13458113 67.92420983 49.13037109 69.29052734 C49.12496039 71.39037112 49.13036597 73.49000606 49.13671875 75.58984375 C49.13542969 76.90855469 49.13414062 78.22726563 49.1328125 79.5859375 C49.13168457 80.7929834 49.13055664 82.0000293 49.12939453 83.24365234 C49 86 49 86 48 87 C46.50261876 87.0979057 45.00057108 87.12974864 43.5 87.125 C42.6853125 87.12757812 41.870625 87.13015625 41.03125 87.1328125 C39 87 39 87 38 86 C37.86566836 84.04586197 37.7963442 82.08719618 37.75390625 80.12890625 C37.72103516 78.91396484 37.68816406 77.69902344 37.65429688 76.44726562 C37.59393137 73.89264891 37.53655366 71.33795953 37.48242188 68.78320312 C37.45134436 56.24388451 37.45134436 56.24388451 32.875 44.9375 C29.22266753 42.47614551 26.38520163 41.71625166 22 42 C17.92388888 43.30743187 16.4418235 44.28394122 14.1875 47.9375 C12.29088046 52.82878197 11.84442609 56.86199986 11.71875 62.13671875 C11.70034058 62.81676468 11.68193115 63.49681061 11.66296387 64.19746399 C11.58447703 67.09803988 11.51626476 69.99883198 11.44775391 72.8996582 C11.39617114 75.02046687 11.33890115 77.14106779 11.28125 79.26171875 C11.23581055 81.16377075 11.23581055 81.16377075 11.18945312 83.10424805 C11 86 11 86 10 87 C8.50261876 87.0979057 7.00057108 87.12974864 5.5 87.125 C4.6853125 87.12757812 3.870625 87.13015625 3.03125 87.1328125 C1 87 1 87 0 86 C-0.09512944 83.32212027 -0.12555279 80.67011131 -0.11352539 77.99194336 C-0.11367142 77.15299026 -0.11381744 76.31403717 -0.1139679 75.44966125 C-0.1132685 72.66302956 -0.10547485 69.87646384 -0.09765625 67.08984375 C-0.09579217 65.16313209 -0.09436822 63.23641995 -0.09336853 61.30970764 C-0.08954259 56.22812603 -0.07971166 51.1465728 -0.06866455 46.06500244 C-0.05845206 40.88383366 -0.05387126 35.70266031 -0.04882812 30.52148438 C-0.03808946 20.34764375 -0.02101213 10.17382423 0 0 Z " fill="#BCBDBE" transform="translate(434,29)"/>
<path d="M0 0 C7.29688016 5.28143572 12.17853809 11.0765077 14 20 C14.91453194 29.38519663 13.12896985 37.24406807 7.375 44.8125 C2.13667514 50.46508014 -5.52920111 53.64233609 -13.125 54.25 C-23.2217634 53.59859591 -30.24756079 49.75243921 -37.3125 42.6875 C-41.95233611 35.29813138 -42.97970441 27.61464226 -42 19 C-40.23277311 11.29755825 -36.29747212 5.72855173 -30 1 C-21.1337992 -4.28389745 -9.08365394 -5.46481394 0 0 Z M-28.8359375 16.28125 C-31.66676419 20.46099411 -31.56543885 25.15338129 -31 30 C-29.42483283 34.78243525 -26.32046897 38.38985134 -22.12109375 41.1171875 C-17.24457924 43.14682337 -11.8525149 42.9403318 -6.87890625 41.30078125 C-1.61264471 38.61668666 1.17149592 34.48551223 3 29 C3.52482138 22.17732212 2.04200336 17.4835176 -2.3125 12.1875 C-11.65977614 4.57925198 -21.80289564 7.70620431 -28.8359375 16.28125 Z " fill="#BEBFC0" transform="translate(529,62)"/>
<path d="M0 0 C18.48 0 36.96 0 56 0 C56 13.76111885 56 13.76111885 49.5 21.0625 C48.2123427 22.60577125 46.92587976 24.15003982 45.640625 25.6953125 C44.70186523 26.79601074 44.70186523 26.79601074 43.74414062 27.91894531 C41.43807676 30.67046944 39.34030751 33.51881137 37.25 36.4375 C36.65703125 37.26121094 36.0640625 38.08492187 35.453125 38.93359375 C34.27750341 40.60537821 33.13367332 42.29949002 32 44 C39.92 44.33 47.84 44.66 56 45 C56 48.63 56 52.26 56 56 C54.15723491 57.84276509 51.57036241 57.12874411 49.11865234 57.13894653 C48.29574707 57.1369223 47.4728418 57.13489807 46.625 57.1328125 C45.78533691 57.13376923 44.94567383 57.13472595 44.08056641 57.13571167 C42.30175705 57.13639348 40.52294523 57.13453917 38.74414062 57.13037109 C36.01166224 57.12502283 33.27934824 57.13031605 30.546875 57.13671875 C28.8229163 57.13605797 27.09895771 57.13477681 25.375 57.1328125 C24.55209473 57.13483673 23.72918945 57.13686096 22.88134766 57.13894653 C17.11495054 57.11495054 17.11495054 57.11495054 16 56 C14.92409407 51.24977383 15.28272219 47.36770605 17.55078125 43.04296875 C19.92258846 39.59582664 22.4216368 36.29349252 25 33 C26.13067072 31.52348492 27.25949279 30.04555286 28.38671875 28.56640625 C30.10541438 26.3118326 31.82754488 24.0609551 33.5690918 21.82397461 C34.10058838 21.13956299 34.63208496 20.45515137 35.1796875 19.75 C35.65132324 19.14671875 36.12295898 18.5434375 36.60888672 17.921875 C38.21102255 15.70846445 39.59419032 13.34301614 41 11 C27.47 11 13.94 11 0 11 C0 7.37 0 3.74 0 0 Z " fill="#BDBEC0" transform="translate(121,59)"/>
<path d="M0 0 C2 2 2 2 2.22705078 4.43017578 C2.21657715 5.4251709 2.20610352 6.42016602 2.1953125 7.4453125 C2.18886719 8.52167969 2.18242187 9.59804688 2.17578125 10.70703125 C2.15902344 11.83496094 2.14226562 12.96289062 2.125 14.125 C2.11597656 15.26066406 2.10695313 16.39632812 2.09765625 17.56640625 C2.07403098 20.37781299 2.04109013 23.18880298 2 26 C4.97 26 7.94 26 11 26 C11 29.63 11 33.26 11 37 C8.03 37 5.06 37 2 37 C2.01047363 38.47388184 2.02094727 39.94776367 2.03173828 41.46630859 C2.06785791 46.91924626 2.09087115 52.37217329 2.10986328 57.82519531 C2.11993924 60.18816911 2.13360029 62.55113039 2.15087891 64.9140625 C2.17505724 68.30471888 2.18646699 71.69521084 2.1953125 75.0859375 C2.20563507 76.14743011 2.21595764 77.20892273 2.22659302 78.30258179 C2.22674408 79.28344757 2.22689514 80.26431335 2.22705078 81.27490234 C2.231492 82.14094086 2.23593323 83.00697937 2.24050903 83.89926147 C2 86 2 86 0 88 C-2.12890625 88.23046875 -2.12890625 88.23046875 -4.5625 88.1875 C-5.36816406 88.18105469 -6.17382812 88.17460938 -7.00390625 88.16796875 C-9 88 -9 88 -10 87 C-10.09326716 85.43452952 -10.11745582 83.86487228 -10.11352539 82.29663086 C-10.11344986 81.29566879 -10.11337433 80.29470673 -10.11329651 79.26341248 C-10.10813522 78.1748848 -10.10297394 77.08635712 -10.09765625 75.96484375 C-10.0962413 74.85645645 -10.09482635 73.74806915 -10.09336853 72.60609436 C-10.08775033 69.04986931 -10.07519475 65.49370617 -10.0625 61.9375 C-10.05748734 59.53320403 -10.05292403 57.12890708 -10.04882812 54.72460938 C-10.03777499 48.81638496 -10.02101917 42.9081969 -10 37 C-11.65 37 -13.3 37 -15 37 C-15 33.37 -15 29.74 -15 26 C-13.35 26 -11.7 26 -10 26 C-10 17.75 -10 9.5 -10 1 C-3.55769231 -0.28846154 -3.55769231 -0.28846154 0 0 Z " fill="#BEBFC0" transform="translate(306,28)"/>
<path d="M0 0 C3.63 0 7.26 0 11 0 C11.33 7.92 11.66 15.84 12 24 C14.97 24.33 17.94 24.66 21 25 C21 28.63 21 32.26 21 36 C16.545 36.495 16.545 36.495 12 37 C11.97494385 38.47911865 11.9498877 39.9582373 11.92407227 41.48217773 C11.830195 46.94825532 11.729927 52.41419994 11.62768555 57.88012695 C11.5842619 60.24988708 11.54259251 62.61968 11.50268555 64.98950195 C11.44516232 68.38763333 11.38141697 71.78559843 11.31640625 75.18359375 C11.29969376 76.25024765 11.28298126 77.31690155 11.26576233 78.4158783 C11.24581711 79.39681961 11.22587189 80.37776093 11.20532227 81.38842773 C11.18977798 82.25668686 11.1742337 83.12494598 11.15821838 84.01951599 C11 86 11 86 10 87 C2.47761194 87.23880597 2.47761194 87.23880597 0 86 C0 69.5 0 53 0 36 C-1.65 36 -3.3 36 -5 36 C-5 32.37 -5 28.74 -5 25 C-3.35 25 -1.7 25 0 25 C0 16.75 0 8.5 0 0 Z " fill="#BCBDBE" transform="translate(547,29)"/>
<path d="M0 0 C3.63 0 7.26 0 11 0 C11 28.38 11 56.76 11 86 C4 87 4 87 0 86 C0 57.62 0 29.24 0 0 Z " fill="#B5B6B8" transform="translate(624,29)"/>
<path d="M0 0 C15.84 0 31.68 0 48 0 C48 0.33 48 0.66 48 1 C32.82 1.33 17.64 1.66 2 2 C2.33 3.65 2.66 5.3 3 7 C2.67 7.99 2.34 8.98 2 10 C13.88 10 25.76 10 38 10 C38 10.33 38 10.66 38 11 C25.46 11 12.92 11 0 11 C0 7.37 0 3.74 0 0 Z " fill="#CCCECE" transform="translate(121,59)"/>
<path d="M0 0 C3.63 0 7.26 0 11 0 C10.52389341 4.99911924 8.96837781 7.97832683 6 12 C5.67 11.01 5.34 10.02 5 9 C4.34 9 3.68 9 3 9 C3 8.01 3 7.02 3 6 C2.01 6.495 2.01 6.495 1 7 C1.50603992 4.83125748 1.99983813 3.00032373 3 1 C1.68 1.33 0.36 1.66 -1 2 C-0.67 1.34 -0.34 0.68 0 0 Z " fill="#C4C5C6" transform="translate(356,94)"/>
<path d="M0 0 C0.73605469 0.08121094 1.47210937 0.16242188 2.23046875 0.24609375 C2.56046875 0.90609375 2.89046875 1.56609375 3.23046875 2.24609375 C2.453125 4.19140625 2.453125 4.19140625 1.29296875 6.37109375 C0.91269531 7.09554687 0.53242187 7.82 0.140625 8.56640625 C-0.15972656 9.12070313 -0.46007812 9.675 -0.76953125 10.24609375 C-1.75953125 10.24609375 -2.74953125 10.24609375 -3.76953125 10.24609375 C-4.42953125 9.25609375 -5.08953125 8.26609375 -5.76953125 7.24609375 C-5.10953125 6.91609375 -4.44953125 6.58609375 -3.76953125 6.24609375 C-3.11398006 3.7187614 -3.11398006 3.7187614 -2.76953125 1.24609375 C-4.41953125 1.24609375 -6.06953125 1.24609375 -7.76953125 1.24609375 C-8.01703125 2.05046875 -8.26453125 2.85484375 -8.51953125 3.68359375 C-8.93203125 4.52921875 -9.34453125 5.37484375 -9.76953125 6.24609375 C-11.84765625 6.90625 -11.84765625 6.90625 -13.76953125 7.24609375 C-10.17284721 0.30077284 -7.72753636 -0.5001972 0 0 Z " fill="#C8C9CA" transform="translate(615.76953125,93.75390625)"/>
<path d="M0 0 C0.66 0.33 1.32 0.66 2 1 C1.875 3.8125 1.875 3.8125 1 7 C-1.8125 8.75 -1.8125 8.75 -5 10 C-5.78375 10.391875 -6.5675 10.78375 -7.375 11.1875 C-7.91125 11.455625 -8.4475 11.72375 -9 12 C-7.60090738 7.54834166 -5.39864635 5.14374788 -2 2 C-1.34 1.34 -0.68 0.68 0 0 Z " fill="#C5C5C6" transform="translate(325,63)"/>
<path d="M0 0 C2.48020497 0.11341491 4.95844969 0.24014686 7.4375 0.375 C8.14455078 0.4059375 8.85160156 0.436875 9.58007812 0.46875 C11.39239188 0.57280629 13.19817988 0.77919892 15 1 C15.33 1.66 15.66 2.32 16 3 C15.34 3.66 14.68 4.32 14 5 C14 4.34 14 3.68 14 3 C9.38 3 4.76 3 0 3 C0 2.01 0 1.02 0 0 Z " fill="#B1B1B2" transform="translate(29,106)"/>
<path d="M0 0 C3.3 0.33 6.6 0.66 10 1 C10 1.33 10 1.66 10 2 C7.03 2 4.06 2 1 2 C1 3.32 1 4.64 1 6 C0.67 6.66 0.34 7.32 0 8 C-1.65 7.67 -3.3 7.34 -5 7 C-3.35 4.69 -1.7 2.38 0 0 Z " fill="#B9B9B8" transform="translate(220,94)"/>
<path d="M0 0 C4.29 0 8.58 0 13 0 C13 0.99 13 1.98 13 3 C6.07 2.505 6.07 2.505 -1 2 C-0.67 1.34 -0.34 0.68 0 0 Z " fill="#CBCDCE" transform="translate(105,75)"/>
<path d="M0 0 C0.495 0.391875 0.99 0.78375 1.5 1.1875 C-0.81 2.5075 -3.12 3.8275 -5.5 5.1875 C-5.83 4.5275 -6.16 3.8675 -6.5 3.1875 C-7.49 3.6825 -7.49 3.6825 -8.5 4.1875 C-9.16 3.5275 -9.82 2.8675 -10.5 2.1875 C-3.28774617 -1.06851751 -3.28774617 -1.06851751 0 0 Z " fill="#B5B5B4" transform="translate(200.5,59.8125)"/>
<path d="M0 0 C4.21704138 1.56186718 6.2578799 4.55477218 9 8 C9.98290968 9.01680311 10.97334787 10.02738219 12 11 C7.72361306 10.5248459 5.76648508 8.12116265 3 5 C1.94712186 3.36622358 0.9272999 1.70818403 0 0 Z " fill="#B2B1B0" transform="translate(179,100)"/>
<path d="M0 0 C0.33 0 0.66 0 1 0 C1 1.65 1 3.3 1 5 C2.98 5 4.96 5 7 5 C7.33 6.32 7.66 7.64 8 9 C7.05125 8.814375 6.1025 8.62875 5.125 8.4375 C2.10131207 7.71313368 2.10131207 7.71313368 0 9 C-1.15941038 5.52176885 -0.70820884 3.54104422 0 0 Z " fill="#D1D1D1" transform="translate(421,71)"/>
<path d="M0 0 C5.61 0.66 11.22 1.32 17 2 C17 2.33 17 2.66 17 3 C11.39 3 5.78 3 0 3 C0 2.01 0 1.02 0 0 Z " fill="#B0B0B3" transform="translate(60,97)"/>
<path d="M0 0 C0 0.66 0 1.32 0 2 C-1.60379341 2.05416188 -3.20811406 2.09286638 -4.8125 2.125 C-5.70582031 2.14820312 -6.59914063 2.17140625 -7.51953125 2.1953125 C-10 2 -10 2 -13 0 C-8.34462607 -0.83796731 -4.62921525 -1.0161692 0 0 Z " fill="#B2B3B5" transform="translate(54,84)"/>
<path d="M0 0 C3.63 0 7.26 0 11 0 C10.67 1.65 10.34 3.3 10 5 C9.649375 4.525625 9.29875 4.05125 8.9375 3.5625 C6.15836457 1.32126175 3.4855283 1.32882342 0 1 C0 0.67 0 0.34 0 0 Z " fill="#D1D2D4" transform="translate(98,98)"/>
<path d="M0 0 C0.66 0.33 1.32 0.66 2 1 C-0.475 4.465 -0.475 4.465 -3 8 C-3.66 7.01 -4.32 6.02 -5 5 C-4 2 -4 2 -2.0625 0.75 C-1.381875 0.5025 -0.70125 0.255 0 0 Z " fill="#C7C9C8" transform="translate(251,61)"/>
<path d="M0 0 C0 3 0 3 -2 6 C-1.34 6.33 -0.68 6.66 0 7 C-0.99 7.33 -1.98 7.66 -3 8 C-3.66 7.34 -4.32 6.68 -5 6 C-3.35 4.02 -1.7 2.04 0 0 Z " fill="#C7C8C8" transform="translate(151,86)"/>
<path d="M0 0 C1.32 0 2.64 0 4 0 C3.25 5.75 3.25 5.75 1 8 C1.020625 7.236875 1.04125 6.47375 1.0625 5.6875 C1.12942841 2.89814214 1.12942841 2.89814214 0 0 Z " fill="#DADADA" transform="translate(105,51)"/>
<path d="M0 0 C5.75 1.625 5.75 1.625 8 5 C4.85262818 4.30058404 1.97411124 3.23921302 -1 2 C-0.67 1.34 -0.34 0.68 0 0 Z " fill="#B5B5B3" transform="translate(269,69)"/>
<path d="M0 0 C0.99 0.33 1.98 0.66 3 1 C2.34 1 1.68 1 1 1 C1.33 2.65 1.66 4.3 2 6 C1.01 6.33 0.02 6.66 -1 7 C-1.04254356 5.00045254 -1.04080783 2.99958364 -1 1 C-0.67 0.67 -0.34 0.34 0 0 Z " fill="#C5C6C6" transform="translate(122,60)"/>
</svg>
