<?xml version="1.0" encoding="UTF-8"?>
<svg version="1.1" xmlns="http://www.w3.org/2000/svg" width="768" height="187">
<path d="M0 0 C0.9075 0.00257812 1.815 0.00515625 2.75 0.0078125 C4.11125 0.00394531 4.11125 0.00394531 5.5 0 C7.75 0.1328125 7.75 0.1328125 8.75 1.1328125 C8.83651611 2.54851373 8.85704904 3.9684075 8.84765625 5.38671875 C8.84443359 6.24072266 8.84121094 7.09472656 8.83789062 7.97460938 C8.82951172 8.87244141 8.82113281 9.77027344 8.8125 10.6953125 C8.80798828 11.59701172 8.80347656 12.49871094 8.79882812 13.42773438 C8.78700225 15.66282564 8.7705222 17.89778687 8.75 20.1328125 C43.78947903 18.62551932 78.56631003 16.37418806 113.43225098 12.50115967 C116.95034702 12.11056933 120.46878056 11.72314025 123.98730469 11.33642578 C125.83702126 11.13307365 125.83702126 11.13307365 127.72410583 10.9256134 C130.23161363 10.65018305 132.73915139 10.37502539 135.24671936 10.10014343 C141.24708965 9.44197089 147.24673691 8.77859311 153.24487305 8.1003418 C170.77681364 6.1324135 188.06372864 4.94577141 205.70629883 4.94750977 C208.18262794 4.94531681 210.65851411 4.92703859 213.13476562 4.90820312 C227.04986495 4.85829244 241.44162289 5.28165367 254.875 9.2578125 C255.60452881 9.46809082 256.33405762 9.67836914 257.08569336 9.89501953 C277.42426623 16.10744924 292.09283798 27.96230672 303.6328125 45.78515625 C304.75 48.1328125 304.75 48.1328125 303.75 51.1328125 C303.25113281 50.45476562 302.75226563 49.77671875 302.23828125 49.078125 C285.86453946 27.85399291 261.59074375 19.00761501 235.75 15.1328125 C226.91998336 14.14371182 218.12869777 13.94988443 209.25 13.9453125 C208.06019531 13.93306641 206.87039063 13.92082031 205.64453125 13.90820312 C181.92616865 13.87163833 158.40589261 16.7272883 134.9375 19.8828125 C132.23739492 20.24029267 129.53692679 20.59498761 126.83642578 20.94946289 C122.07724733 21.57487738 117.31839216 22.20263058 112.56003189 22.83424091 C101.42091812 24.31279905 90.27758171 25.75753145 79.13174438 27.18444824 C76.21011323 27.55938967 73.28899717 27.9381538 70.36791992 28.31738281 C55.38792359 30.25127939 40.59522857 31.31658678 25.5 31.6953125 C17.20875 31.911875 17.20875 31.911875 8.75 32.1328125 C8.75 53.2528125 8.75 74.3728125 8.75 96.1328125 C4.79 96.1328125 0.83 96.1328125 -3.25 96.1328125 C-3.745 64.4528125 -3.745 64.4528125 -4.25 32.1328125 C-6.89 31.8028125 -9.53 31.4728125 -12.25 31.1328125 C-12.25 27.5028125 -12.25 23.8728125 -12.25 20.1328125 C-9.28 20.1328125 -6.31 20.1328125 -3.25 20.1328125 C-3.26740234 18.09287109 -3.26740234 18.09287109 -3.28515625 16.01171875 C-3.29453262 14.2395847 -3.30363298 12.46744917 -3.3125 10.6953125 C-3.32087891 9.79748047 -3.32925781 8.89964844 -3.33789062 7.97460938 C-3.34111328 7.12060547 -3.34433594 6.26660156 -3.34765625 5.38671875 C-3.35289307 4.59595947 -3.35812988 3.8052002 -3.36352539 2.99047852 C-3.19404162 0.21714084 -2.76977716 0.16349379 0 0 Z " fill="#C0C2C3" transform="translate(397.25,36.8671875)"/>
<path d="M0 0 C3.25764619 1.75411718 6.23250051 3.61567109 9.25 5.75 C10.549375 4.574375 10.549375 4.574375 11.875 3.375 C18.03317705 -1.66870417 24.5475829 -1.91929835 32.25 -1.25 C38.35580853 -0.17563299 41.74087572 2.78684288 45.70703125 7.421875 C50.12193301 14.08334703 50.67081379 19.44844612 50.54296875 27.27734375 C50.53872391 28.26626114 50.53447906 29.25517853 50.53010559 30.27406311 C50.51340129 33.41216009 50.47576415 36.54959928 50.4375 39.6875 C50.42244251 41.82355839 50.40875597 43.95962691 50.39648438 46.09570312 C50.36352493 51.31402402 50.31340838 56.531965 50.25 61.75 C48.10423363 61.77685938 45.95837355 61.79633088 43.8125 61.8125 C42.61753906 61.82410156 41.42257812 61.83570313 40.19140625 61.84765625 C37.25 61.75 37.25 61.75 36.25 60.75 C36.1860692 58.26146974 36.18380565 55.80003331 36.22265625 53.3125 C36.23532053 51.76172113 36.24768012 50.21093974 36.25976562 48.66015625 C36.28441807 46.21590337 36.31219925 43.77178155 36.34594727 41.32763672 C37.01962351 27.24910154 37.01962351 27.24910154 32.6875 14.1875 C28.94247261 11.9788941 25.4774261 11.86834429 21.25 12.75 C17.67308904 15.43268322 16.05563785 17.41679235 15.25 21.75 C15.1413807 23.12273678 15.07517402 24.49928691 15.04467773 25.87597656 C15.02473251 26.67650452 15.00478729 27.47703247 14.98423767 28.30181885 C14.95916893 29.58327789 14.95916893 29.58327789 14.93359375 30.890625 C14.91281265 31.77280701 14.89203156 32.65498901 14.87062073 33.56390381 C14.80535133 36.37585831 14.74634553 39.18790445 14.6875 42 C14.64429327 43.90886356 14.60067829 45.81771793 14.55664062 47.7265625 C14.44969313 52.40094826 14.34836215 57.07542602 14.25 61.75 C9.96 61.75 5.67 61.75 1.25 61.75 C1.23541748 60.68152832 1.22083496 59.61305664 1.20581055 58.51220703 C1.14733925 54.50488711 1.07011459 50.49810078 0.98754883 46.49121094 C0.95452714 44.7650628 0.92642625 43.03881259 0.90356445 41.3125 C1.15018718 27.62533506 1.15018718 27.62533506 -2.75 14.75 C-6.75701694 12.07865537 -10.03876296 11.92346719 -14.75 12.75 C-18.03175318 15.27968474 -19.44243777 16.82731331 -20.75 20.75 C-20.89642101 22.15257749 -20.99692863 23.56026302 -21.06640625 24.96875 C-21.10830078 25.81018555 -21.15019531 26.65162109 -21.19335938 27.51855469 C-21.25233398 28.87062012 -21.25233398 28.87062012 -21.3125 30.25 C-21.35568359 31.17458008 -21.39886719 32.09916016 -21.44335938 33.05175781 C-21.75672814 40.36120859 -21.82228074 47.65575418 -21.71313477 54.97070312 C-21.69132 56.89705109 -21.71575703 58.82383287 -21.75 60.75 C-22.75 61.75 -22.75 61.75 -25.4375 61.8828125 C-26.530625 61.88023437 -27.62375 61.87765625 -28.75 61.875 C-29.843125 61.87757813 -30.93625 61.88015625 -32.0625 61.8828125 C-34.75 61.75 -34.75 61.75 -35.75 60.75 C-35.8491056 58.88364212 -35.87799261 57.01351806 -35.87939453 55.14453125 C-35.88254669 53.94658936 -35.88569885 52.74864746 -35.88894653 51.5144043 C-35.8869223 50.21027588 -35.88489807 48.90614746 -35.8828125 47.5625 C-35.8834856 46.22110985 -35.88445568 44.87971981 -35.88571167 43.53833008 C-35.88718836 40.72378379 -35.88503504 37.90926918 -35.88037109 35.09472656 C-35.87467381 31.47959369 -35.87795297 27.86453505 -35.88394356 24.24940491 C-35.88754997 21.47855058 -35.88641022 18.70771398 -35.88381577 15.93685913 C-35.88282033 13.95310417 -35.88586741 11.96934853 -35.88894653 9.9855957 C-35.88579437 8.78765381 -35.88264221 7.58971191 -35.87939453 6.35546875 C-35.87859894 5.29481201 -35.87780334 4.23415527 -35.87698364 3.14135742 C-35.75 0.75 -35.75 0.75 -34.75 -0.25 C-32.73035801 -0.32244053 -30.70832876 -0.33377188 -28.6875 -0.3125 C-27.03041016 -0.29896484 -27.03041016 -0.29896484 -25.33984375 -0.28515625 C-24.48519531 -0.27355469 -23.63054688 -0.26195313 -22.75 -0.25 C-22.42 0.74 -22.09 1.73 -21.75 2.75 C-20.63625 2.09 -19.5225 1.43 -18.375 0.75 C-12.18381709 -2.32915469 -6.48106762 -2.16035587 0 0 Z " fill="#BFC0C2" transform="translate(561.75,71.25)"/>
<path d="M0 0 C0.66 0.33 1.32 0.66 2 1 C3.62343265 5.87029795 3.61555671 10.89239628 4 16 C8.95 13.69 13.9 11.38 19 9 C20 12 20 12 18.6875 15.375 C15.00633965 21.3998749 7.9254162 23.63410154 1.375 25.3125 C0.26125 25.539375 -0.8525 25.76625 -2 26 C-2.495 28.475 -2.495 28.475 -3 31 C-2.47019531 30.53851563 -1.94039062 30.07703125 -1.39453125 29.6015625 C1.48301677 27.67693821 3.93343784 27.09766664 7.3125 26.375 C8.4571875 26.12878906 9.601875 25.88257812 10.78125 25.62890625 C14.18554786 24.96374611 17.55553393 24.40051931 21 24 C21.495 24.99 21.495 24.99 22 26 C17.12727309 33.01672675 10.74032204 35.4313073 2.75 37.25 C2.04359375 37.42273438 1.3371875 37.59546875 0.609375 37.7734375 C-2.32821802 38.47445402 -4.96990358 39 -8 39 C-8.33 41.31 -8.66 43.62 -9 46 C-8.01 45.38125 -7.02 44.7625 -6 44.125 C-0.54589524 41.35388394 5.30333784 40.99320443 11.29296875 40.39453125 C14.26164799 40.07858119 17.09087451 39.64961055 20 39 C19.15489492 42.69733473 17.90940923 44.07737962 15 46.5625 C7.41842967 50.99912264 -3.27840568 53 -12 53 C-12.33 55.64 -12.66 58.28 -13 61 C-12.154375 60.21625 -11.30875 59.4325 -10.4375 58.625 C-6.02034842 54.9733501 -1.54748644 53.87057377 4.125 54.0625 C8.24885658 53.99598618 9.75693545 53.40913366 13 51 C13.99 50.34 14.98 49.68 16 49 C16.17993606 52.95859342 16.17725137 55.64081217 14 59 C8.40224777 62.20237542 1.30962891 62.6530969 -4.95703125 63.52734375 C-8.44451424 64.06904522 -11.64977731 64.90922982 -15 66 C-15 68.64 -15 71.28 -15 74 C-13.87851563 73.37351562 -12.75703125 72.74703125 -11.6015625 72.1015625 C-6.94349524 69.77355443 -2.50401802 69.01002128 2.625 68.375 C7.97298713 67.66866208 12.91903048 66.92386224 18 65 C16.60090802 69.45165631 14.52592921 71.96606091 11 75 C7.46487143 76.68155459 4.36914431 77.32867028 0.48046875 77.6328125 C-0.54111328 77.71660156 -1.56269531 77.80039063 -2.61523438 77.88671875 C-3.67033203 77.96535156 -4.72542969 78.04398437 -5.8125 78.125 C-6.88693359 78.21136719 -7.96136719 78.29773438 -9.06835938 78.38671875 C-11.71176643 78.59819131 -14.35552789 78.80237154 -17 79 C-17 81.97 -17 84.94 -17 88 C-16.29875 87.38125 -15.5975 86.7625 -14.875 86.125 C-8.6346895 81.51259659 -2.10568463 81.60665991 5.375 81.375 C6.39722656 81.33632812 7.41945312 81.29765625 8.47265625 81.2578125 C10.98159597 81.16402036 13.49053764 81.07832121 16 81 C14.1245362 85.18912008 12.05437997 86.74756668 8 89 C2.35697675 90.61919725 -3.17108018 91.50877104 -9 92.125 C-9.77472656 92.21136719 -10.54945312 92.29773438 -11.34765625 92.38671875 C-13.23123721 92.59600552 -15.11554808 92.79870627 -17 93 C-17 94.65 -17 96.3 -17 98 C-16.175 97.34 -15.35 96.68 -14.5 96 C-10.47519756 93.68946527 -6.41724407 93.51574355 -1.875 93.4375 C-1.18212891 93.41107422 -0.48925781 93.38464844 0.22460938 93.35742188 C4.10159271 93.38349189 5.86088067 93.89136499 8.94140625 96.296875 C11.42952178 99.56400203 11.76163471 101.94779003 12 106 C11.01 106.495 11.01 106.495 10 107 C9.38125 106.195625 8.7625 105.39125 8.125 104.5625 C6.25835959 101.96125481 6.25835959 101.96125481 4 101 C-3.27308267 100.45704418 -9.92625352 101.35971096 -17 103 C-16.505 109.93 -16.505 109.93 -16 117 C-16.66 117 -17.32 117 -18 117 C-18.8329678 111.27334636 -19.05621462 105.78307907 -19 100 C-19.60473145 99.89977539 -20.20946289 99.79955078 -20.83251953 99.69628906 C-23.59942361 99.22904621 -26.36199284 98.73973936 -29.125 98.25 C-30.07632813 98.09273438 -31.02765625 97.93546875 -32.0078125 97.7734375 C-37.59283382 96.76503087 -41.66775108 95.74999466 -46 92 C-47.27734375 89.96484375 -47.27734375 89.96484375 -47.9375 87.9375 C-48.29134766 86.93009766 -48.29134766 86.93009766 -48.65234375 85.90234375 C-49 84 -49 84 -48 81 C-46.81277344 82.14082031 -46.81277344 82.14082031 -45.6015625 83.3046875 C-41.62591783 86.61733564 -37.29548559 87.76997397 -32.375 89.125 C-22.22713042 91.98682298 -22.22713042 91.98682298 -19 95 C-19.37361174 92.17563239 -19.64682088 90.44780554 -21 88 C-23.83640144 85.97561761 -26.95803955 84.77625559 -30.1875 83.5 C-37.77828431 80.43101265 -43.8413214 77.12491442 -48.25073242 69.97070312 C-49 68 -49 68 -48 65 C-46.39125 65.86625 -46.39125 65.86625 -44.75 66.75 C-41.22359277 68.54138982 -37.72382569 69.74148363 -33.9375 70.875 C-28.59131023 72.58036686 -24.72737931 74.77804932 -21 79 C-20.505 79.99 -20.505 79.99 -20 81 C-19.36559848 78.70493002 -19.36559848 78.70493002 -20 76 C-22.27935698 74.0199039 -24.91907611 72.68836342 -27.5625 71.25 C-34.00460913 67.49840633 -39.52500471 63.86088814 -43 57 C-43.66015625 54.23828125 -43.66015625 54.23828125 -44 52 C-42.66666667 52.66666667 -41.33333333 53.33333333 -40 54 C-38.85789062 54.56074219 -37.71578125 55.12148437 -36.5390625 55.69921875 C-29.40202486 59.28995297 -23.63667908 62.25573952 -19 69 C-17.79172045 66.36223534 -17.79172045 66.36223534 -18 63 C-21.13067571 59.21879427 -25.13381905 56.54969175 -29.25 53.9375 C-33.27768594 51.09981218 -35.58432532 48.33336709 -36.46484375 43.390625 C-36.71913126 40.92438447 -36.90209554 38.4769829 -37 36 C-34 36 -34 36 -32.4921875 37.43359375 C-31.95851563 38.09488281 -31.42484375 38.75617188 -30.875 39.4375 C-27.45903852 43.55417153 -23.74080839 47.18945391 -19.8203125 50.82421875 C-17.78261996 53.25982979 -17.33878605 54.87988973 -17 58 C-16.34 58 -15.68 58 -15 58 C-13.96728605 49.29569669 -17.12746036 43.15035288 -22 36 C-24.13261257 34.15710084 -26.17578948 32.89954887 -28.625 31.5 C-31 30 -31 30 -33 27 C-33 26.01 -33 25.02 -33 24 C-18.09369294 28.15373379 -18.09369294 28.15373379 -15.78515625 32.05078125 C-14.13875462 35.63067945 -12.88358212 39.1594797 -12 43 C-10.81932479 40.41375907 -10.146638 38.79623498 -10 36 C-10.96652974 33.79716798 -10.96652974 33.79716798 -12.375 31.5625 C-16.19550854 24.73792036 -15.90727812 17.55529834 -15 10 C-13.96910451 7.0754424 -12.95135297 5.43919122 -11 3 C-10.67 3 -10.34 3 -10 3 C-9.89042969 3.72703125 -9.78085938 4.4540625 -9.66796875 5.203125 C-8.50330096 12.58882317 -6.92140389 19.77552138 -5 27 C-5.05800781 26.14019531 -5.11601563 25.28039062 -5.17578125 24.39453125 C-5.52758977 15.17714792 -3.87884962 8.33952668 0 0 Z M0 7 C0 9.97 0 12.94 0 16 C0.33 16 0.66 16 1 16 C1.67673447 12.59679066 1.67673447 12.59679066 2 9 C1.34 8.34 0.68 7.68 0 7 Z M-12 13 C-11 17 -11 17 -11 17 Z M-1 16 C0 20 0 20 0 20 Z M-11 17 C-11 18.65 -11 20.3 -11 22 C-10.67 22 -10.34 22 -10 22 C-10 20.35 -10 18.7 -10 17 C-10.33 17 -10.66 17 -11 17 Z M-10 22 C-10 23.65 -10 25.3 -10 27 C-9.67 27 -9.34 27 -9 27 C-9 25.35 -9 23.7 -9 22 C-9.33 22 -9.66 22 -10 22 Z M-9 27 C-9 28.65 -9 30.3 -9 32 C-8.67 32 -8.34 32 -8 32 C-8 30.35 -8 28.7 -8 27 C-8.33 27 -8.66 27 -9 27 Z M-28 29 C-25.4345406 31.5654594 -23.52313332 31.54046087 -20 32 C-20.33 31.34 -20.66 30.68 -21 30 C-23.32156597 29.59270772 -25.6568787 29.25561323 -28 29 Z M1 31 C4.93670488 32.31223496 7.12488144 31.24296256 11 30 C11 29.67 11 29.34 11 29 C7.14354879 28.77963136 4.50776784 29.39644899 1 31 Z M-20 32 C-19.34 32.66 -18.68 33.32 -18 34 C-18 33.34 -18 32.68 -18 32 C-18.66 32 -19.32 32 -20 32 Z M-34 40 C-33 42 -33 42 -33 42 Z M-33 42 C-31.44499019 45.81684226 -28.96404505 48.19195732 -26 51 C-25.34 50.67 -24.68 50.34 -24 50 C-25.3094668 48.66368764 -26.62265485 47.33102075 -27.9375 46 C-28.66839844 45.2575 -29.39929688 44.515 -30.15234375 43.75 C-31.69686153 41.88539008 -31.69686153 41.88539008 -33 42 Z M7 43 C11 44 11 44 11 44 Z M-6 47 C-3.09905209 48.45047396 -1.44027404 47.45356803 1.625 46.5625 C3.12933594 46.13130859 3.12933594 46.13130859 4.6640625 45.69140625 C5.43492188 45.46324219 6.20578125 45.23507813 7 45 C7 44.67 7 44.34 7 44 C1.73946963 43.68436818 -1.44573816 44.33409063 -6 47 Z M-35 60 C-31.97727468 63.25524265 -28.74281699 65.61820737 -25 68 C-24.34 67.67 -23.68 67.34 -23 67 C-23.928125 66.21625 -24.85625 65.4325 -25.8125 64.625 C-26.33457031 64.18414062 -26.85664062 63.74328125 -27.39453125 63.2890625 C-30.77762623 60.55897804 -30.77762623 60.55897804 -35 60 Z M-6 72 C-6 72.33 -6 72.66 -6 73 C1.05651252 73.14975239 1.05651252 73.14975239 8 72 C8 71.67 8 71.34 8 71 C0.94348748 70.85024761 0.94348748 70.85024761 -6 72 Z M-40 72 C-37.56163291 74.43836709 -35.07619256 75.63091698 -32 77.1875 C-30.9275 77.73792969 -29.855 78.28835937 -28.75 78.85546875 C-27.8425 79.23316406 -26.935 79.61085938 -26 80 C-25.34 79.67 -24.68 79.34 -24 79 C-29.20770173 74.78951775 -33.39070617 73.00413308 -40 72 Z M-8 86 C-2.84828377 86.09038099 1.91913204 85.84681133 7 85 C7 84.67 7 84.34 7 84 C5.25034642 83.94570041 3.50020213 83.90707177 1.75 83.875 C0.77546875 83.85179688 -0.1990625 83.82859375 -1.203125 83.8046875 C-4.0196498 84.00137219 -5.60949036 84.55431084 -8 86 Z M5 97 C6.32 98.32 7.64 99.64 9 101 C8.34 99.68 7.68 98.36 7 97 C6.34 97 5.68 97 5 97 Z " fill="#C1C2C2" transform="translate(93,38)"/>
<path d="M0 0 C3.96 0 7.92 0 12 0 C12.33 1.65 12.66 3.3 13 5 C13.53625 4.6390625 14.0725 4.278125 14.625 3.90625 C23.03305115 -1.07220134 32.32919543 -1.61313909 41.74609375 0.6640625 C50.49191568 4.15026535 56.18061678 10.25319205 60.08984375 18.66796875 C63.05039614 26.2535901 63.21232624 34.67707044 60.3125 42.3125 C56.60204072 50.40804751 52.06326068 56.45833012 43.6796875 59.97265625 C33.31718424 63.4647224 24.89669112 62.511969 15 58 C14.01 57.34 13.02 56.68 12 56 C12 65.24 12 74.48 12 84 C8.04 84 4.08 84 0 84 C0 56.28 0 28.56 0 0 Z M16.43359375 17.94140625 C12.88512673 23.43091506 11.15989482 28.37381831 12 35 C13.89397366 40.88755241 16.93373723 44.55494131 22 48 C27.27348811 50.63674405 32.36789913 50.25872401 38 49 C43.50340735 46.19637739 48.01703172 41.94890483 50 36 C50.73891135 29.46591247 50.58624924 24.13594171 46.6015625 18.7265625 C42.17942886 13.95928672 38.06090389 11.71920086 31.5 11.4375 C25.39305831 11.76737635 20.38451914 13.04462341 16.43359375 17.94140625 Z " fill="#BEBFC1" transform="translate(327,71)"/>
<path d="M0 0 C6.62597204 5.15213415 10.82344571 12.5841249 12.33203125 20.81640625 C12.57716207 23.42218049 12.73188705 25.98134227 12.7421875 28.59765625 C-3.58081057 29.85154911 -19.8992948 29.69905847 -36.2578125 29.59765625 C-34.45701249 35.32388435 -32.67245067 38.93040608 -27.6328125 42.41015625 C-21.7461203 44.4813998 -16.47434257 44.2256731 -10.5078125 42.53515625 C-7.38745111 40.67494081 -6.54870955 39.74299144 -4.5703125 36.91015625 C-2.492596 34.20058624 -1.66313145 33.65801183 1.78515625 33.14453125 C4.79990037 33.15866839 7.74379589 33.29199497 10.7421875 33.59765625 C10.37033359 41.03473449 5.61815431 46.056625 0.3671875 50.91015625 C-6.70697551 56.52967535 -13.56389952 57.27341322 -22.4296875 57.0703125 C-30.35154393 56.09220574 -36.79056719 52.56514653 -42.2578125 46.78515625 C-49.11162927 37.87016719 -50.43204777 29.82478328 -49.2578125 18.59765625 C-47.23560933 10.0430552 -42.60053636 3.62925104 -35.3203125 -1.21484375 C-23.87223448 -7.7812885 -11.09197347 -6.88930532 0 0 Z M-29.2578125 9.59765625 C-30.2478125 10.09265625 -30.2478125 10.09265625 -31.2578125 10.59765625 C-31.2578125 11.25765625 -31.2578125 11.91765625 -31.2578125 12.59765625 C-31.9178125 12.59765625 -32.5778125 12.59765625 -33.2578125 12.59765625 C-33.9178125 13.91765625 -34.5778125 15.23765625 -35.2578125 16.59765625 C-24.3678125 16.59765625 -13.4778125 16.59765625 -2.2578125 16.59765625 C-5.53455242 11.13642305 -8.24194028 8.60294699 -14.2578125 6.59765625 C-20.27839337 6.19628419 -23.87583642 6.90666821 -29.2578125 9.59765625 Z " fill="#C0C1C3" transform="translate(310.2578125,76.40234375)"/>
<path d="M0 0 C5.70281124 4.41184518 10.75579339 11.55128639 11.96484375 18.75 C12.03108882 20.49886981 12.0503697 22.25002748 12.02734375 24 C12.01832031 24.89203125 12.00929688 25.7840625 12 26.703125 C11.98839844 27.37859375 11.97679687 28.0540625 11.96484375 28.75 C0.79714137 29.58720393 -10.33593579 29.858428 -21.53515625 29.875 C-23.47684692 29.88176758 -23.47684692 29.88176758 -25.45776367 29.88867188 C-26.66924072 29.88673828 -27.88071777 29.88480469 -29.12890625 29.8828125 C-30.21880859 29.88168457 -31.30871094 29.88055664 -32.43164062 29.87939453 C-35.03515625 29.75 -35.03515625 29.75 -37.03515625 28.75 C-34.77551163 34.51209378 -32.66048248 38.93727474 -27.41015625 42.5625 C-21.40093368 44.67685609 -15.58817817 44.77501841 -9.72265625 42.125 C-6.70189982 40.46208854 -5.85361709 39.48777676 -3.78515625 36.5 C-1.03515625 33.75 -1.03515625 33.75 1.9375 33.3671875 C4.96844872 33.37427744 7.9457312 33.48998074 10.96484375 33.75 C10.59298984 41.18707824 5.84081056 46.20896875 0.58984375 51.0625 C-6.48431926 56.6820191 -13.34124327 57.42575697 -22.20703125 57.22265625 C-30.12888768 56.24454949 -36.56791094 52.71749028 -42.03515625 46.9375 C-43.08046969 45.57527002 -44.08330569 44.17910154 -45.03515625 42.75 C-45.46699219 42.10675781 -45.89882813 41.46351562 -46.34375 40.80078125 C-50.16245034 33.86369586 -50.26258791 25.43578706 -49.03515625 17.75 C-46.55078406 9.7347262 -42.21208143 3.20764038 -35.03515625 -1.25 C-23.30274746 -7.22318685 -11.28670708 -6.93233448 0 0 Z M-31.91015625 12.3125 C-34.03902783 14.54885801 -34.03902783 14.54885801 -35.03515625 16.75 C-24.14515625 16.75 -13.25515625 16.75 -2.03515625 16.75 C-5.08140492 11.67291889 -7.46142143 9.13338122 -12.97265625 7 C-20.60003355 6.07546942 -26.05915142 7.09747396 -31.91015625 12.3125 Z " fill="#C1C2C3" transform="translate(460.03515625,76.25)"/>
<path d="M0 0 C6.86352984 4.96076909 11.76977688 11.12611651 13.6171875 19.5234375 C13.66381636 21.25463972 13.67564354 22.98698919 13.66015625 24.71875 C13.65085083 26.06864014 13.65085083 26.06864014 13.64135742 27.44580078 C13.63338135 28.1314209 13.62540527 28.81704102 13.6171875 29.5234375 C-2.38916526 30.55610542 -18.34695289 30.63639056 -34.3828125 30.5234375 C-32.89902462 36.5078142 -31.54293782 38.98217503 -26.3828125 42.5234375 C-21.77656735 45.21041384 -16.56469861 45.29638246 -11.3828125 44.5234375 C-7.08924786 42.74729623 -4.09612295 40.6698293 -1.6328125 36.7109375 C1.31877993 33.84133375 2.82352503 34.2109375 6.8671875 34.2109375 C8.78500269 34.29122881 10.70247906 34.38796285 12.6171875 34.5234375 C11.58169202 41.4429838 7.67123483 46.46939017 2.8046875 51.3359375 C-6.05137093 57.41362466 -13.5887206 58.65223142 -24.3828125 57.5234375 C-32.22156652 55.67358404 -39.19297676 50.09193105 -43.765625 43.54296875 C-47.97043122 35.7407172 -49.51388791 27.17383827 -47.3828125 18.5234375 C-44.01989383 9.42377521 -39.55582825 2.66623427 -30.8125 -1.78515625 C-20.40447475 -6.06994157 -9.67590609 -5.99588935 0 0 Z M-32.3828125 14.5234375 C-32.7128125 15.5134375 -33.0428125 16.5034375 -33.3828125 17.5234375 C-22.4928125 17.5234375 -11.6028125 17.5234375 -0.3828125 17.5234375 C-4.00995031 12.08273078 -5.45113896 9.96505113 -11.2578125 7.8359375 C-19.69833308 6.59468447 -26.14265314 8.65034634 -32.3828125 14.5234375 Z " fill="#C1C2C3" transform="translate(664.3828125,75.4765625)"/>
<path d="M0 0 C20.46 0 40.92 0 62 0 C63.38758328 5.55033311 63.54244475 10.21710739 60.70068359 15.34423828 C58.94637451 17.82817459 57.10026149 20.19848103 55.1875 22.5625 C53.82526373 24.30839318 52.46328847 26.05449004 51.1015625 27.80078125 C50.41610352 28.66654785 49.73064453 29.53231445 49.02441406 30.42431641 C45.96704258 34.31424273 43.01699841 38.28180156 40.0625 42.25 C37.5565625 45.59125 37.5565625 45.59125 35 49 C48.365 49.495 48.365 49.495 62 50 C62 53.96 62 57.92 62 62 C47.48 62 32.96 62 18 62 C18 48.50298426 18 48.50298426 21.078125 44.796875 C21.74585938 43.96027344 22.41359375 43.12367187 23.1015625 42.26171875 C23.81054688 41.43285156 24.51953125 40.60398438 25.25 39.75 C26.61087897 38.07934897 27.97020644 36.40743315 29.328125 34.734375 C30.86984375 32.84203125 32.4115625 30.9496875 34 29 C37.96 23.72 41.92 18.44 46 13 C30.82 12.67 15.64 12.34 0 12 C0 8.04 0 4.08 0 0 Z " fill="#BFC0C2" transform="translate(199,71)"/>
<path d="M0 0 C14.85 0 29.7 0 45 0 C45 3.96 45 7.92 45 12 C34.11 12 23.22 12 12 12 C12 28.5 12 45 12 62 C8.04 62 4.08 62 0 62 C0 41.54 0 21.08 0 0 Z " fill="#BFC1C2" transform="translate(477,71)"/>
<path d="M0 0 C0.76166977 0.00222061 1.52333954 0.00444122 2.30809021 0.00672913 C3.16890701 0.00680466 4.02972382 0.00688019 4.91662598 0.00695801 C5.8520372 0.01211929 6.78744843 0.01728058 7.75120544 0.02259827 C8.70422043 0.02401321 9.65723541 0.02542816 10.63912964 0.02688599 C13.69605085 0.032503 16.75289996 0.04505836 19.80979919 0.05775452 C21.87685543 0.06276733 23.94391281 0.06733061 26.01097107 0.07142639 C31.08977507 0.08247795 36.16852489 0.09975397 41.24729919 0.12025452 C41.87229919 1.99525452 41.87229919 1.99525452 42.24729919 4.12025452 C41.58729919 4.78025452 40.92729919 5.44025452 40.24729919 6.12025452 C28.03729919 6.12025452 15.82729919 6.12025452 3.24729919 6.12025452 C3.24729919 37.47025452 3.24729919 68.82025452 3.24729919 101.12025452 C14.13729919 101.12025452 25.02729919 101.12025452 36.24729919 101.12025452 C36.90729919 102.44025452 37.56729919 103.76025452 38.24729919 105.12025452 C33.89556867 107.27213302 29.89413571 107.39711756 25.13792419 107.35072327 C24.37050903 107.35026505 23.60309387 107.34980682 22.81242371 107.34933472 C21.19874006 107.34632511 19.585059 107.33847767 17.97142029 107.32606506 C15.49166179 107.3077128 13.01227504 107.3055562 10.53245544 107.30580139 C8.96344178 107.30088935 7.39443065 107.2950624 5.82542419 107.28822327 C4.70832062 107.28655403 4.70832062 107.28655403 3.56864929 107.28485107 C-1.63661885 107.23633647 -1.63661885 107.23633647 -2.75270081 106.12025452 C-2.85020556 104.75650323 -2.8790168 103.38775542 -2.87968445 102.02052307 C-2.88250427 101.13710739 -2.8853241 100.25369171 -2.88822937 99.34350586 C-2.88620514 98.36684464 -2.88418091 97.39018341 -2.88209534 96.38392639 C-2.88384766 95.36126175 -2.88559998 94.33859711 -2.8874054 93.28494263 C-2.89182608 89.8862796 -2.88888516 86.48766812 -2.88551331 83.08900452 C-2.88618628 80.73870331 -2.88715625 78.38840217 -2.88841248 76.0381012 C-2.88988974 71.1050297 -2.88773397 66.17197627 -2.8830719 61.23890686 C-2.8773746 54.89974784 -2.88065345 48.56063116 -2.88664436 42.22147369 C-2.8902492 37.36608051 -2.88911175 32.51069744 -2.88651657 27.65530396 C-2.88584709 25.31719966 -2.88667647 22.97909445 -2.88899612 20.64099121 C-2.89152138 17.37949675 -2.88768385 14.11807189 -2.88209534 10.85658264 C-2.88513168 9.39159081 -2.88513168 9.39159081 -2.88822937 7.89700317 C-2.88540955 7.01358749 -2.88258972 6.13017181 -2.87968445 5.21998596 C-2.87930742 4.44790047 -2.8789304 3.67581497 -2.87854195 2.88033295 C-2.70730571 0.48533558 -2.3965771 0.1644315 0 0 Z " fill="#C2C3C4" transform="translate(30.752700805664063,46.87974548339844)"/>
<path d="M0 0 C0.99773437 0.02320313 1.99546875 0.04640625 3.0234375 0.0703125 C4.52777344 0.09738281 4.52777344 0.09738281 6.0625 0.125 C6.83335938 0.14820313 7.60421875 0.17140625 8.3984375 0.1953125 C8.42176808 13.99872137 8.43935104 27.8021272 8.45024967 41.60555172 C8.45547916 48.01430378 8.462578 54.42304265 8.47387695 60.83178711 C8.48470349 67.01090691 8.49071384 73.19001398 8.49331474 79.36914253 C8.49516942 81.7323686 8.49879082 84.09559394 8.50416756 86.45881462 C8.51137488 89.75633146 8.51242857 93.05379497 8.51196289 96.35131836 C8.51555817 97.33890137 8.51915344 98.32648438 8.52285767 99.34399414 C8.521483 100.23726913 8.52010834 101.13054413 8.51869202 102.05088806 C8.51961381 102.83164672 8.5205356 103.61240538 8.52148533 104.41682339 C8.3984375 106.1953125 8.3984375 106.1953125 7.3984375 107.1953125 C6.06359512 107.29314906 4.72367617 107.32329219 3.38525391 107.32470703 C2.53412018 107.32785919 1.68298645 107.33101135 0.80606079 107.33425903 C-0.11993927 107.3322348 -1.04593933 107.33021057 -2 107.328125 C-2.94589996 107.32908173 -3.89179993 107.33003845 -4.86636353 107.33102417 C-6.87217271 107.3317062 -8.87798409 107.32985033 -10.88378906 107.32568359 C-13.95643075 107.32034746 -17.02892546 107.32562171 -20.1015625 107.33203125 C-22.04687532 107.33137024 -23.99218806 107.3300886 -25.9375 107.328125 C-27.3204274 107.33116135 -27.3204274 107.33116135 -28.73129272 107.33425903 C-29.58873077 107.33110687 -30.44616882 107.32795471 -31.32958984 107.32470703 C-32.08380219 107.32391144 -32.83801453 107.32311584 -33.61508179 107.32229614 C-35.6015625 107.1953125 -35.6015625 107.1953125 -38.6015625 106.1953125 C-38.6015625 104.8753125 -38.6015625 103.5553125 -38.6015625 102.1953125 C-26.07603301 95.93254776 -10.60553019 101.1953125 3.3984375 101.1953125 C3.3984375 69.8453125 3.3984375 38.4953125 3.3984375 6.1953125 C1.4184375 6.1953125 -0.5615625 6.1953125 -2.6015625 6.1953125 C-3.2615625 4.8753125 -3.9215625 3.5553125 -4.6015625 2.1953125 C-2.6015625 0.1953125 -2.6015625 0.1953125 0 0 Z " fill="#BABCBD" transform="translate(119.6015625,46.8046875)"/>
<path d="M0 0 C0.33 0 0.66 0 1 0 C1.02312079 13.28187409 1.04091374 26.56374343 1.05181217 39.84563351 C1.05704158 46.0122492 1.06414027 52.17885118 1.07543945 58.34545898 C1.08626629 64.29116006 1.0922764 70.23684789 1.09487724 76.18255806 C1.09673186 78.45646943 1.10035317 80.73038004 1.10573006 83.00428581 C1.11293778 86.1772712 1.11399106 89.35020117 1.11352539 92.52319336 C1.11712067 93.47337341 1.12071594 94.42355347 1.12442017 95.40252686 C1.11405216 101.88594784 1.11405216 101.88594784 0 103 C-1.33484238 103.09783656 -2.67476133 103.12797969 -4.01318359 103.12939453 C-4.86431732 103.13254669 -5.71545105 103.13569885 -6.59237671 103.13894653 C-7.51837677 103.1369223 -8.44437683 103.13489807 -9.3984375 103.1328125 C-10.34433746 103.13376923 -11.29023743 103.13472595 -12.26480103 103.13571167 C-14.27061021 103.1363937 -16.27642159 103.13453783 -18.28222656 103.13037109 C-21.35486825 103.12503496 -24.42736296 103.13030921 -27.5 103.13671875 C-29.44531282 103.13605774 -31.39062556 103.1347761 -33.3359375 103.1328125 C-34.7188649 103.13584885 -34.7188649 103.13584885 -36.12973022 103.13894653 C-36.98716827 103.13579437 -37.84460632 103.13264221 -38.72802734 103.12939453 C-39.48223969 103.12859894 -40.23645203 103.12780334 -41.01351929 103.12698364 C-43 103 -43 103 -46 102 C-46 100.68 -46 99.36 -46 98 C-32.58027985 91.29013993 -16.00370325 97 -1 97 C-0.67 64.99 -0.34 32.98 0 0 Z " fill="#C6C7C7" transform="translate(127,51)"/>
<path d="M0 0 C0.495 0.99 0.495 0.99 1 2 C-0.98 2.33 -2.96 2.66 -5 3 C-5 3.66 -5 4.32 -5 5 C2.48200521 7.49400174 11.33804487 6.03559366 19.078125 5.22265625 C24.70921166 4.79354938 30.35659564 4.92585308 36 5 C36 5.33 36 5.66 36 6 C34.96057251 6.08918701 34.96057251 6.08918701 33.90014648 6.18017578 C8.50909973 8.40268539 -16.73344087 11.67405133 -42 15 C-42 14.34 -42 13.68 -42 13 C-38.535 12.505 -38.535 12.505 -35 12 C-35.20625 11.4225 -35.4125 10.845 -35.625 10.25 C-36 8 -36 8 -35.50048828 5.93847656 C-34 4 -34 4 -30.65185547 3.17871094 C-29.22573937 3.01152844 -27.7971412 2.86471888 -26.3671875 2.734375 C-25.23943405 2.60968842 -25.23943405 2.60968842 -24.08889771 2.48248291 C-21.68575625 2.22084391 -19.28086241 1.98516309 -16.875 1.75 C-15.24591234 1.57722288 -13.61700205 1.40276435 -11.98828125 1.2265625 C-7.99398462 0.79816654 -3.99792499 0.39303135 0 0 Z " fill="#C8C9CB" transform="translate(549,45)"/>
<path d="M0 0 C0.66 1.65 1.32 3.3 2 5 C-1.96 5 -5.92 5 -10 5 C-10.33 5.66 -10.66 6.32 -11 7 C-11.88300781 6.98839844 -12.76601563 6.97679687 -13.67578125 6.96484375 C-19.33758363 6.92227381 -24.92732062 6.90813944 -30.5625 7.5 C-47.66720822 9.25107547 -47.66720822 9.25107547 -53 6 C-52.67 5.01 -52.34 4.02 -52 3 C-50.02 3 -48.04 3 -46 3 C-46 2.34 -46 1.68 -46 1 C-45.20078125 1.01160156 -44.4015625 1.02320313 -43.578125 1.03515625 C-38.18200219 1.07949059 -32.87082446 1.0510528 -27.5 0.5 C-18.36848721 -0.37613163 -9.16317104 -0.08369957 0 0 Z " fill="#BEBEC0" transform="translate(596,44)"/>
<path d="M0 0 C11.42604568 1.82886402 17.29112779 5.13850504 24.375 14.125 C26.4021519 16.95640239 27.95281639 19.64901243 29 23 C16.17290608 19.18905181 7.55233156 14.32849735 0 3 C0 2.01 0 1.02 0 0 Z " fill="#C1C2C2" transform="translate(708,95)"/>
<path d="M0 0 C7.51600153 9.07103633 8.54595367 15.36186577 8 27 C7.57666845 30.39538088 7.12199712 33.75867499 6 37 C5.01 37.495 5.01 37.495 4 38 C2.81217026 34.84087836 1.65375367 31.67170892 0.5 28.5 C0.16613281 27.613125 -0.16773438 26.72625 -0.51171875 25.8125 C-3.12010383 18.57290058 -3.89379994 12.66840997 -2.0625 5.0625 C-1.88847656 4.31097656 -1.71445312 3.55945313 -1.53515625 2.78515625 C-1 1 -1 1 0 0 Z " fill="#BEC0C1" transform="translate(698,92)"/>
<path d="M0 0 C0.66 0.33 1.32 0.66 2 1 C3.62343265 5.87029795 3.61555671 10.89239628 4 16 C8.95 13.69 13.9 11.38 19 9 C20 12 20 12 18.6875 15.375 C15.74909924 20.15371403 11.2534028 22.38236027 6 24 C2.99626767 24.14700158 0.96041214 23.75355945 -2 23 C-4.36398087 20.63601913 -3.841407 15.61443165 -4.078125 12.45703125 C-3.96879375 7.61912331 -2.46768335 4.09868436 0 0 Z M0 7 C0 9.97 0 12.94 0 16 C0.33 16 0.66 16 1 16 C1.67673447 12.59679066 1.67673447 12.59679066 2 9 C1.34 8.34 0.68 7.68 0 7 Z M-1 16 C0 20 0 20 0 20 Z " fill="#BBBCBC" transform="translate(93,38)"/>
<path d="M0 0 C0.76570313 0.36351563 0.76570313 0.36351563 1.546875 0.734375 C6.0128198 2.79314388 10.41166609 4.46218707 15.125 5.875 C20.64274514 7.63898502 23.92327497 9.92327497 28 14 C27.67 15.32 27.34 16.64 27 18 C27.66 18.33 28.32 18.66 29 19 C29 19.66 29 20.32 29 21 C24.51995047 22.49334984 21.86361883 20.46907613 17.75 18.5 C16.98163818 18.13487305 16.21327637 17.76974609 15.42163086 17.39355469 C8.56272975 14.00770971 3.06456845 10.24093383 0 3 C0 2.01 0 1.02 0 0 Z M9 7 C11.43836709 9.43836709 13.92380744 10.63091698 17 12.1875 C18.0725 12.73792969 19.145 13.28835937 20.25 13.85546875 C21.1575 14.23316406 22.065 14.61085938 23 15 C23.66 14.67 24.32 14.34 25 14 C19.79229827 9.78951775 15.60929383 8.00413308 9 7 Z " fill="#C1C2C2" transform="translate(44,103)"/>
<path d="M0 0 C1.19882812 0.07250977 1.19882812 0.07250977 2.421875 0.14648438 C3.246875 0.20255859 4.071875 0.25863281 4.921875 0.31640625 C5.76234375 0.36861328 6.6028125 0.42082031 7.46875 0.47460938 C9.5368102 0.60386314 11.6043972 0.74064899 13.671875 0.87890625 C12.671875 3.87890625 12.671875 3.87890625 10.2734375 5.23046875 C9.29117188 5.65070313 8.30890625 6.0709375 7.296875 6.50390625 C5.83121094 7.14199219 5.83121094 7.14199219 4.3359375 7.79296875 C-3.17307754 10.85382825 -9.73264782 10.46460061 -17.328125 7.87890625 C-16.328125 4.87890625 -16.328125 4.87890625 -14.62109375 3.74609375 C-13.57888672 3.25496094 -13.57888672 3.25496094 -12.515625 2.75390625 C-11.82855469 2.42132813 -11.14148438 2.08875 -10.43359375 1.74609375 C-6.84712535 0.26892123 -3.87275151 -0.2489626 0 0 Z " fill="#C6C6C7" transform="translate(725.328125,81.12109375)"/>
<path d="M0 0 C-0.84148501 3.68149694 -2.28859037 5.5305447 -5.3125 7.625 C-13.02670652 12.07928683 -22.19613889 13.51787418 -31 13 C-30.875 10.75 -30.875 10.75 -30 8 C-23.40696256 2.37179731 -15.71687785 1.81964318 -7.41796875 1.24609375 C-4.81321527 0.9809896 -2.61153344 0 0 0 Z M-13 4 C-9 5 -9 5 -9 5 Z M-26 8 C-23.09905209 9.45047396 -21.44027404 8.45356803 -18.375 7.5625 C-16.87066406 7.13130859 -16.87066406 7.13130859 -15.3359375 6.69140625 C-14.56507812 6.46324219 -13.79421875 6.23507813 -13 6 C-13 5.67 -13 5.34 -13 5 C-18.26053037 4.68436818 -21.44573816 5.33409063 -26 8 Z " fill="#B5B7B6" transform="translate(113,77)"/>
<path d="M0 0 C0.95003906 0.75667969 1.90007813 1.51335937 2.87890625 2.29296875 C7.25047106 5.41551505 11.81742521 6.83682825 16.9375 8.3125 C17.81212891 8.57611328 18.68675781 8.83972656 19.58789062 9.11132812 C21.72204423 9.75274041 23.85899389 10.38192812 26 11 C26 14 26 14 25 16 C10.12284623 16.81642917 10.12284623 16.81642917 4 12 C0.90156135 8.30186355 0.46425113 4.73536149 0 0 Z " fill="#BEBFC1" transform="translate(44,119)"/>
<path d="M0 0 C0.99 0 1.98 0 3 0 C3.185625 1.2065625 3.185625 1.2065625 3.375 2.4375 C3.58125 3.283125 3.7875 4.12875 4 5 C4.66 5.33 5.32 5.66 6 6 C7.36222983 5.39456452 8.68861096 4.70885894 10 4 C16.1381441 0.78361249 21.571708 0.4688453 28.4375 0.3125 C29.45521484 0.27833984 30.47292969 0.24417969 31.52148438 0.20898438 C34.01421266 0.12706373 36.50661402 0.05773351 39 0 C37.3327868 3.77070649 35.66521894 5.0709374 32 7 C32 6.34 32 5.68 32 5 C30.02 5 28.04 5 26 5 C26 4.67 26 4.34 26 4 C25.34 4 24.68 4 24 4 C24 4.66 24 5.32 24 6 C22.865625 6.309375 21.73125 6.61875 20.5625 6.9375 C17.21224901 7.62924531 17.21224901 7.62924531 16 9 C13.66705225 9.04241723 11.33297433 9.04092937 9 9 C6.84365964 9 5.07553648 9.4465236 3 10 C2.34 8.35 1.68 6.7 1 5 C1.66 5 2.32 5 3 5 C3 4.34 3 3.68 3 3 C2.01 2.67 1.02 2.34 0 2 C0 1.34 0 0.68 0 0 Z " fill="#CED0D0" transform="translate(70,119)"/>
<path d="M0 0 C2.475 0.495 2.475 0.495 5 1 C5 2.32 5 3.64 5 5 C1.45811722 6.09828769 -1.8209762 6.11445011 -5.515625 6.09765625 C-6.76601563 6.09443359 -8.01640625 6.09121094 -9.3046875 6.08789062 C-11.25761719 6.07532227 -11.25761719 6.07532227 -13.25 6.0625 C-15.22613281 6.05573242 -15.22613281 6.05573242 -17.2421875 6.04882812 C-20.49483741 6.03704316 -23.74739584 6.02059011 -27 6 C-25.84643555 4.03808594 -25.84643555 4.03808594 -24 2 C-21.45629883 1.45410156 -21.45629883 1.45410156 -18.45703125 1.390625 C-17.38388672 1.35839844 -16.31074219 1.32617188 -15.20507812 1.29296875 C-13.52575195 1.27169922 -13.52575195 1.27169922 -11.8125 1.25 C-10.11577148 1.20552734 -10.11577148 1.20552734 -8.38476562 1.16015625 C-5.58977167 1.08939691 -2.79561472 1.03673024 0 1 C0 0.67 0 0.34 0 0 Z " fill="#BBBBBC" transform="translate(63,148)"/>
<path d="M0 0 C2.64 0.33 5.28 0.66 8 1 C7.67 1.99 7.34 2.98 7 4 C1.42011755 5.78107855 -4.1914387 6.51092333 -10 7.125 C-10.77472656 7.21136719 -11.54945312 7.29773438 -12.34765625 7.38671875 C-14.23123721 7.59600552 -16.11554808 7.79870627 -18 8 C-18.1546875 8.928125 -18.1546875 8.928125 -18.3125 9.875 C-19 12 -19 12 -22 14 C-24.91796875 13.7578125 -24.91796875 13.7578125 -28.1875 13.125 C-29.27417969 12.92132813 -30.36085937 12.71765625 -31.48046875 12.5078125 C-32.72763672 12.25644531 -32.72763672 12.25644531 -34 12 C-34 11.67 -34 11.34 -34 11 C-27.25 10.875 -27.25 10.875 -25 12 C-24.67 11.01 -24.34 10.02 -24 9 C-22.68 9.33 -21.36 9.66 -20 10 C-19.9175 9.21625 -19.835 8.4325 -19.75 7.625 C-19 5 -19 5 -16.9375 3.6875 C-15.9784375 3.3471875 -15.9784375 3.3471875 -15 3 C-15 3.66 -15 4.32 -15 5 C-9.98464948 4.67039784 -9.98464948 4.67039784 -6 2 C-2.875 1.875 -2.875 1.875 0 2 C0 1.34 0 0.68 0 0 Z " fill="#B8B8B9" transform="translate(94,123)"/>
<path d="M0 0 C0.66 0.99 1.32 1.98 2 3 C4.31 2.34 6.62 1.68 9 1 C9.33 1.99 9.66 2.98 10 4 C10.99 3.67 11.98 3.34 13 3 C15.33299825 2.96045766 17.66708189 2.95598268 20 3 C19.67 3.66 19.34 4.32 19 5 C16.48828125 5.59765625 16.48828125 5.59765625 13.3125 6.0625 C12.27738281 6.21847656 11.24226563 6.37445313 10.17578125 6.53515625 C8.60376953 6.76525391 8.60376953 6.76525391 7 7 C5.02 7.33 3.04 7.66 1 8 C1.33 12.62 1.66 17.24 2 22 C1.34 22 0.68 22 0 22 C-0.8320582 16.27959989 -1.12036664 10.77759884 -1 5 C-1.66 5 -2.32 5 -3 5 C-2.67 4.01 -2.34 3.02 -2 2 C-1.34 2 -0.68 2 0 2 C0 1.34 0 0.68 0 0 Z " fill="#B8B9BA" transform="translate(75,133)"/>
<path d="M0 0 C13.8630137 3.8630137 13.8630137 3.8630137 17 7 C16.91062197 8.52519276 16.75462854 10.04681929 16.5625 11.5625 C16.46066406 12.38878906 16.35882813 13.21507813 16.25390625 14.06640625 C16.17011719 14.70449219 16.08632812 15.34257813 16 16 C12.21218043 14.26224768 9.94664464 11.94664464 7 9 C5.33675599 7.99431758 3.67063747 6.99335201 2 6 C0 3 0 3 0 0 Z M5 5 C7.5654594 7.5654594 9.47686668 7.54046087 13 8 C12.67 7.34 12.34 6.68 12 6 C9.67843403 5.59270772 7.3431213 5.25561323 5 5 Z M13 8 C13.66 8.66 14.32 9.32 15 10 C15 9.34 15 8.68 15 8 C14.34 8 13.68 8 13 8 Z " fill="#C7CCCD" transform="translate(60,62)"/>
<path d="M0 0 C0.33 0.66 0.66 1.32 1 2 C-0.06541016 2.30744141 -0.06541016 2.30744141 -1.15234375 2.62109375 C-2.53099609 3.02521484 -2.53099609 3.02521484 -3.9375 3.4375 C-5.31228516 3.83775391 -5.31228516 3.83775391 -6.71484375 4.24609375 C-8.9402493 4.79026051 -8.9402493 4.79026051 -10 6 C-8.11153817 8.32866229 -8.11153817 8.32866229 -4.9609375 8.1953125 C-3.77757812 8.17210937 -2.59421875 8.14890625 -1.375 8.125 C-0.18648437 8.10695313 1.00203125 8.08890625 2.2265625 8.0703125 C3.59941406 8.03550781 3.59941406 8.03550781 5 8 C5 8.33 5 8.66 5 9 C-4.24 10.32 -13.48 11.64 -23 13 C-23 12.34 -23 11.68 -23 11 C-19.535 10.505 -19.535 10.505 -16 10 C-16.20625 9.4225 -16.4125 8.845 -16.625 8.25 C-17 6 -17 6 -16.5 3.9375 C-15 2 -15 2 -11.5234375 1.171875 C-10.14265418 1.01255385 -8.7595257 0.87261482 -7.375 0.75 C-6.66859375 0.67265625 -5.9621875 0.5953125 -5.234375 0.515625 C-3.4912947 0.32718389 -1.74579076 0.16141131 0 0 Z " fill="#D0D1D2" transform="translate(530,47)"/>
<path d="M0 0 C0 0.33 0 0.66 0 1 C-20.68293099 3.79115852 -41.15564576 4.66919525 -62 5 C-62 5.66 -62 6.32 -62 7 C-62.66 7 -63.32 7 -64 7 C-63.67 5.35 -63.34 3.7 -63 2 C-62.14059814 2.01047363 -61.28119629 2.02094727 -60.39575195 2.03173828 C-44.98549439 2.19426553 -29.77303612 2.28017716 -14.4453125 0.4375 C-9.62823652 -0.11823297 -4.8427366 -0.09120508 0 0 Z " fill="#E6E6E7" transform="translate(468,64)"/>
<path d="M0 0 C0 0.66 0 1.32 0 2 C0.66 2.33 1.32 2.66 2 3 C-5.53994257 6.26682231 -11.78762084 7.57184845 -20 7 C-20 6.01 -20 5.02 -20 4 C-17.60612843 3.32550034 -15.21030779 2.66023359 -12.8125 2 C-11.80219727 1.71382813 -11.80219727 1.71382813 -10.77148438 1.421875 C-7.09444844 0.4174164 -3.8149818 -0.23704741 0 0 Z " fill="#C0C2C2" transform="translate(105,82)"/>
<path d="M0 0 C4.32274002 1.50999823 6.22288961 4.77428165 8.625 8.4375 C9.21667969 9.31631836 9.21667969 9.31631836 9.8203125 10.21289062 C10.88873788 11.80289529 11.94493068 13.40110151 13 15 C13.99 16.485 13.99 16.485 15 18 C14.67 18.99 14.34 19.98 14 21 C13.46632813 20.29875 12.93265625 19.5975 12.3828125 18.875 C7.15816719 12.22216445 1.86076854 6.99876456 -5 2 C-4.01 2 -3.02 2 -2 2 C-1.34 1.34 -0.68 0.68 0 0 Z " fill="#C9C9C9" transform="translate(687,67)"/>
<path d="M0 0 C0.66 0.33 1.32 0.66 2 1 C2.40729228 3.32156597 2.74438677 5.6568787 3 8 C2.01 8.495 2.01 8.495 1 9 C0.5316735 11.58605332 0.5316735 11.58605332 0.375 14.5625 C0.26285156 16.08037109 0.26285156 16.08037109 0.1484375 17.62890625 C0.09945312 18.41136719 0.05046875 19.19382812 0 20 C1.98 20.99 3.96 21.98 6 23 C2.23375329 24.25541557 0.62811066 23.37061958 -3 22 C-4.19886825 13.56882875 -4.47469197 7.4322137 0 0 Z " fill="#C5C6C5" transform="translate(93,38)"/>
<path d="M0 0 C0.33 0 0.66 0 1 0 C1.12117188 0.73863281 1.24234375 1.47726563 1.3671875 2.23828125 C2.51246229 9.17159861 3.72138721 16.09005 5 23 C4.01 23.33 3.02 23.66 2 24 C1.66048381 22.43883181 1.32867456 20.87598662 1 19.3125 C0.814375 18.44238281 0.62875 17.57226562 0.4375 16.67578125 C0.01027953 14.06287036 -0.07616201 11.64186962 0 9 C-0.99 9.495 -0.99 9.495 -2 10 C-2.46651207 12.12576782 -2.46651207 12.12576782 -2.625 14.5625 C-2.69976562 15.38878906 -2.77453125 16.21507813 -2.8515625 17.06640625 C-2.90054688 17.70449219 -2.94953125 18.34257813 -3 19 C-3.33 19 -3.66 19 -4 19 C-4.44701413 11.43801103 -4.53574091 6.23664375 0 0 Z " fill="#B5B6B6" transform="translate(82,41)"/>
<path d="M0 0 C0.33 0 0.66 0 1 0 C1 11.22 1 22.44 1 34 C2.32 34.33 3.64 34.66 5 35 C3.34385343 35.38218767 1.67542976 35.71395102 0 36 C-1.70018003 34.29981997 -1.12801936 32.17429865 -1.13894653 29.90663147 C-1.1369223 29.19623215 -1.13489807 28.48583282 -1.1328125 27.75390625 C-1.13376923 27.02759506 -1.13472595 26.30128387 -1.13571167 25.55296326 C-1.13639344 24.0137422 -1.13453937 22.47451829 -1.13037109 20.93530273 C-1.12503043 18.57594343 -1.13031215 16.21677516 -1.13671875 13.85742188 C-1.13605782 12.36458291 -1.13477634 10.87174407 -1.1328125 9.37890625 C-1.13483673 8.67053116 -1.13686096 7.96215607 -1.13894653 7.23231506 C-1.11495714 2.22991429 -1.11495714 2.22991429 0 0 Z " fill="#CBCDCC" transform="translate(29,118)"/>
<path d="M0 0 C0.33 0 0.66 0 1 0 C1.17958661 3.95090535 1.20865961 6.66307774 -1 10 C-5.281986 12.25456237 -10.1624976 13.46814539 -15 13 C-14.38125 12.95875 -13.7625 12.9175 -13.125 12.875 C-12.42375 12.58625 -11.7225 12.2975 -11 12 C-10.566875 10.576875 -10.566875 10.576875 -10.125 9.125 C-9 6 -9 6 -6.0625 4.3125 C-4.5465625 3.6628125 -4.5465625 3.6628125 -3 3 C-1.24850835 1.41754725 -1.24850835 1.41754725 0 0 Z " fill="#C4C5C5" transform="translate(108,87)"/>
<path d="M0 0 C-2.27780129 4.98269033 -6.01734276 7.89040722 -11 10 C-11.99 9.67 -12.98 9.34 -14 9 C-13.34 9 -12.68 9 -12 9 C-12.33 8.34 -12.66 7.68 -13 7 C-13.33 6.34 -13.66 5.68 -14 5 C-12.02 4.67 -10.04 4.34 -8 4 C-8 3.34 -8 2.68 -8 2 C-9.98 2 -11.96 2 -14 2 C-14 1.67 -14 1.34 -14 1 C-12.23103898 0.63659714 -10.45973374 0.28459117 -8.6875 -0.0625 C-7.70136719 -0.25972656 -6.71523437 -0.45695312 -5.69921875 -0.66015625 C-3 -1 -3 -1 0 0 Z " fill="#CFCFCF" transform="translate(115,63)"/>
<path d="M0 0 C2.95417295 1.3715803 5.52711406 2.86820178 8 5 C8.33 5.99 8.66 6.98 9 8 C10.95597184 9.39712274 12.95436401 10.73779907 15 12 C12.10765685 12.82638376 10.11257569 13 7 13 C3.30291562 9.51071428 0.32315562 5.17048998 0 0 Z " fill="#C6C6C7" transform="translate(49,90)"/>
<path d="M0 0 C-1.05960937 0.04898438 -2.11921875 0.09796875 -3.2109375 0.1484375 C-4.59898497 0.22346709 -5.98700451 0.29901485 -7.375 0.375 C-8.42300781 0.42140625 -8.42300781 0.42140625 -9.4921875 0.46875 C-13.70185827 0.59499498 -13.70185827 0.59499498 -17 3 C-16.67 3.66 -16.34 4.32 -16 5 C-16.61488281 4.9278125 -17.22976563 4.855625 -17.86328125 4.78125 C-18.67152344 4.6884375 -19.47976563 4.595625 -20.3125 4.5 C-21.51326172 4.36078125 -21.51326172 4.36078125 -22.73828125 4.21875 C-25.11896555 3.95186537 -25.11896555 3.95186537 -28 4 C-20.22142424 -1.6916408 -8.9341933 -5.27263867 0 0 Z " fill="#C8C9CB" transform="translate(301,73)"/>
<path d="M0 0 C3.63 0.33 7.26 0.66 11 1 C11.33 1.99 11.66 2.98 12 4 C8.70932284 4.36380017 5.41737181 4.71439793 2.125 5.0625 C1.18785156 5.16626953 0.25070313 5.27003906 -0.71484375 5.37695312 C-2.05869141 5.51713867 -2.05869141 5.51713867 -3.4296875 5.66015625 C-4.67081299 5.79369507 -4.67081299 5.79369507 -5.93701172 5.92993164 C-8 6 -8 6 -10 5 C-10 4.34 -10 3.68 -10 3 C-9.36191406 2.95101562 -8.72382812 2.90203125 -8.06640625 2.8515625 C-7.24011719 2.77679688 -6.41382812 2.70203125 -5.5625 2.625 C-4.73878906 2.55539063 -3.91507812 2.48578125 -3.06640625 2.4140625 C-2.38449219 2.27742188 -1.70257813 2.14078125 -1 2 C-0.67 1.34 -0.34 0.68 0 0 Z " fill="#BEBEC1" transform="translate(87,111)"/>
<path d="M0 0 C2.64 0.33 5.28 0.66 8 1 C7.67 1.99 7.34 2.98 7 4 C2.18912503 5.54926482 -1.91996441 6.25400178 -7 6 C-7 3 -7 3 -6 2 C-4.00041636 1.95919217 -1.99954746 1.95745644 0 2 C0 1.34 0 0.68 0 0 Z " fill="#B9BBBE" transform="translate(94,123)"/>
<path d="M0 0 C1.15227823 0.76116551 2.2966386 1.53432693 3.4375 2.3125 C4.07558594 2.74175781 4.71367188 3.17101562 5.37109375 3.61328125 C7 5 7 5 8 8 C8.66 8.66 9.32 9.32 10 10 C7 12 7 12 4 12 C1.03176403 8.23262357 0.46101836 4.70238725 0 0 Z " fill="#C6C7C7" transform="translate(44,119)"/>
<path d="M0 0 C1.4606285 2.64738916 2 3.89448334 2 7 C2.66 7.33 3.32 7.66 4 8 C3.01 8 2.02 8 1 8 C1.33 12.62 1.66 17.24 2 22 C1.34 22 0.68 22 0 22 C-0.8320582 16.27959989 -1.12036664 10.77759884 -1 5 C-1.66 5 -2.32 5 -3 5 C-2.67 4.01 -2.34 3.02 -2 2 C-1.34 2 -0.68 2 0 2 C0 1.34 0 0.68 0 0 Z " fill="#CDCDCD" transform="translate(75,133)"/>
<path d="M0 0 C7.32294569 0.52306755 12.96858241 2.27172417 18.5 7.25 C18.995 7.8275 19.49 8.405 20 9 C19.67 9.99 19.34 10.98 19 12 C18.0925 11.113125 17.185 10.22625 16.25 9.3125 C11.47855221 5.17068656 5.8612154 3.175098 0 1 C0 0.67 0 0.34 0 0 Z " fill="#B9B9BA" transform="translate(52,108)"/>
<path d="M0 0 C6.875 0.875 6.875 0.875 8 2 C8.33 1.34 8.66 0.68 9 0 C9.66 0 10.32 0 11 0 C10.67 2.97 10.34 5.94 10 9 C5.69378811 6.84689406 2.20028327 4.40056653 0 0 Z " fill="#BFC0C0" transform="translate(66,69)"/>
<path d="M0 0 C0.99 0.99 1.98 1.98 3 3 C2.443125 3.4125 1.88625 3.825 1.3125 4.25 C-1.16195956 6.12256399 -3.5835229 8.05339344 -6 10 C-6.53109375 9.66226563 -7.0621875 9.32453125 -7.609375 8.9765625 C-8.31578125 8.53054687 -9.0221875 8.08453125 -9.75 7.625 C-10.44609375 7.18414062 -11.1421875 6.74328125 -11.859375 6.2890625 C-13.86517383 5.08119094 -15.89178296 4.01612263 -18 3 C-16.35 2.67 -14.7 2.34 -13 2 C-13 2.66 -13 3.32 -13 4 C-8.545 4.99 -8.545 4.99 -4 6 C-4.33 5.01 -4.66 4.02 -5 3 C-4.01 3.33 -3.02 3.66 -2 4 C-1.34 2.68 -0.68 1.36 0 0 Z " fill="#C8C9CA" transform="translate(463,80)"/>
<path d="M0 0 C-1 3 -1 3 -4 5 C-6.04296875 5.4140625 -6.04296875 5.4140625 -8.1875 5.625 C-9.445625 5.74875 -10.70375 5.8725 -12 6 C-11.67 4.35 -11.34 2.7 -11 1 C-7.32589215 -0.17571451 -3.83070817 -0.07366746 0 0 Z " fill="#C1C2C2" transform="translate(104,69)"/>
<path d="M0 0 C1.32 1.65 2.64 3.3 4 5 C3.67 5.66 3.34 6.32 3 7 C2.855625 7.680625 2.71125 8.36125 2.5625 9.0625 C2.2840625 10.0215625 2.2840625 10.0215625 2 11 C1.01 11.495 1.01 11.495 0 12 C-0.66 11.67 -1.32 11.34 -2 11 C-2 12.98 -2 14.96 -2 17 C-2.33 17 -2.66 17 -3 17 C-3.23733045 11.42273453 -2.57846031 6.36906939 -1 1 C-0.67 0.67 -0.34 0.34 0 0 Z " fill="#C8C8CA" transform="translate(698,92)"/>
<path d="M0 0 C2.5 2.3125 2.5 2.3125 5 5 C5 7.66420516 4.90837763 9.52260646 4 12 C3.01 12.33 2.02 12.66 1 13 C-0.2834998 8.9088444 -1.38021934 5.3091525 -1 1 C-0.67 0.67 -0.34 0.34 0 0 Z M2 5 C3 7 3 7 3 7 Z " fill="#CCCDCD" transform="translate(57,73)"/>
<path d="M0 0 C0.66 1.32 1.32 2.64 2 4 C-0.5986701 6.5986701 -2.39842758 6.63249261 -6 7 C-6.99 6.67 -7.98 6.34 -9 6 C-9 6.66 -9 7.32 -9 8 C-8.34 8.33 -7.68 8.66 -7 9 C-7.99 9 -8.98 9 -10 9 C-10 7.35 -10 5.7 -10 4 C-6.66666667 2.66666667 -3.33333333 1.33333333 0 0 Z " fill="#D2D3D4" transform="translate(86,108)"/>
<path d="M0 0 C0.66 0.33 1.32 0.66 2 1 C0.94124926 4.40312738 -0.00902154 7.01353231 -2 10 C-4.475 9.01 -4.475 9.01 -7 8 C-6.01 6.68 -5.02 5.36 -4 4 C-4.66 3.67 -5.32 3.34 -6 3 C-4.03533587 1.93224776 -2.03144641 0.93446535 0 0 Z " fill="#CDCFCE" transform="translate(111,47)"/>
<path d="M0 0 C1.51400391 0.01740234 1.51400391 0.01740234 3.05859375 0.03515625 C4.07050781 0.04417969 5.08242187 0.05320313 6.125 0.0625 C7.29869141 0.07990234 7.29869141 0.07990234 8.49609375 0.09765625 C8.49609375 0.75765625 8.49609375 1.41765625 8.49609375 2.09765625 C4.52911489 3.90082846 0.81383955 4.58968616 -3.50390625 5.09765625 C-3.50390625 0.13665781 -3.50390625 0.13665781 0 0 Z " fill="#C4C5C6" transform="translate(119.50390625,46.90234375)"/>
<path d="M0 0 C2.72426311 2.35277269 3.8141763 4.62496331 5 8 C-0.46737191 6.25192871 -5.75824848 4.34205919 -11 2 C-7.67803635 0.89267878 -6.31749961 1.14935907 -3 2 C-1 3 -1 3 0 4 C0 2.68 0 1.36 0 0 Z " fill="#CFCFCF" transform="translate(732,110)"/>
<path d="M0 0 C2.475 0.99 2.475 0.99 5 2 C5 3.98 5 5.96 5 8 C5.99 8.33 6.98 8.66 8 9 C7.01 10.485 7.01 10.485 6 12 C3.34930567 9.52601863 1.28384156 7.42357749 0 4 C0 2.68 0 1.36 0 0 Z " fill="#BDC4C3" transform="translate(79,63)"/>
<path d="M0 0 C8.57142857 1.71428571 8.57142857 1.71428571 12 6 C7.94473518 7.15864709 6.44674036 7.23164315 2.625 5.25 C1.75875 4.5075 0.8925 3.765 0 3 C0 2.01 0 1.02 0 0 Z " fill="#C2C2C2" transform="translate(59,102)"/>
<path d="M0 0 C0.99 0.33 1.98 0.66 3 1 C2.6875 2.875 2.6875 2.875 2 5 C1.01 5.66 0.02 6.32 -1 7 C-0.67 7.99 -0.34 8.98 0 10 C-0.66 10.66 -1.32 11.32 -2 12 C-2.45375 11.030625 -2.9075 10.06125 -3.375 9.0625 C-4.65786221 5.92920418 -4.65786221 5.92920418 -7 5 C-6.67 4.34 -6.34 3.68 -6 3 C-5.01 3.33 -4.02 3.66 -3 4 C-2.67 3.34 -2.34 2.68 -2 2 C-1.34 2 -0.68 2 0 2 C0 1.34 0 0.68 0 0 Z " fill="#C4C5C6" transform="translate(563,79)"/>
<path d="M0 0 C5.03985731 0.44469329 7.37634988 2.71343362 11 6 C8.17116253 7.41441874 6.12623255 7.31900332 3 7 C1.125 5.1875 1.125 5.1875 0 3 C0 2.01 0 1.02 0 0 Z " fill="#C4C5C4" transform="translate(59,84)"/>
<path d="M0 0 C5.28 0.33 10.56 0.66 16 1 C15 4 15 4 13.2578125 5.203125 C12.55398438 5.54859375 11.85015625 5.8940625 11.125 6.25 C10.42632813 6.60578125 9.72765625 6.9615625 9.0078125 7.328125 C7 8 7 8 4 7 C9.75 4 9.75 4 12 4 C12 3.34 12 2.68 12 2 C8.04 2 4.08 2 0 2 C0 1.34 0 0.68 0 0 Z " fill="#D7D7D8" transform="translate(723,81)"/>
<path d="M0 0 C-1 3 -1 3 -2.875 4.1875 C-5 5 -5 5 -8 5 C-8.33 3.35 -8.66 1.7 -9 0 C-5.67465243 -1.10844919 -3.37817425 -0.84454356 0 0 Z " fill="#C1C1C1" transform="translate(107,56)"/>
<path d="M0 0 C-0.68707031 0.25394531 -1.37414062 0.50789063 -2.08203125 0.76953125 C-2.98308594 1.11371094 -3.88414062 1.45789063 -4.8125 1.8125 C-6.15248047 2.31716797 -6.15248047 2.31716797 -7.51953125 2.83203125 C-9.95887357 3.98063496 -11.25158403 4.98984511 -13 7 C-14.29355827 8.37195574 -15.62298702 9.71182656 -17 11 C-17.66 11 -18.32 11 -19 11 C-16.6066719 5.32965342 -11.55836922 2.33732937 -6.25 -0.4375 C-3.72310961 -1.0692226 -2.45835942 -0.70755303 0 0 Z " fill="#CFD0D2" transform="translate(642,73)"/>
<path d="M0 0 C1.6065676 0.25620684 3.2102483 0.53055871 4.8125 0.8125 C6.15248047 1.03873047 6.15248047 1.03873047 7.51953125 1.26953125 C10.18321256 2.05395393 11.25690322 2.88627799 13 5 C10.60375166 5.85580298 9.4523967 6.18971474 7.0625 5.1875 C6.381875 4.795625 5.70125 4.40375 5 4 C3.33859237 3.32033324 1.67299959 2.65061095 0 2 C0 1.34 0 0.68 0 0 Z " fill="#D0D1D2" transform="translate(58,127)"/>
<path d="M0 0 C2.95409701 1.37154504 5.44008376 2.98863724 8 5 C7.67 5.66 7.34 6.32 7 7 C6.34 7 5.68 7 5 7 C4.67 7.66 4.34 8.32 4 9 C1.49701566 6.06171403 0.53069061 3.82097239 0 0 Z " fill="#D7D8D8" transform="translate(49,90)"/>
<path d="M0 0 C-0.33 0.99 -0.66 1.98 -1 3 C-1 2.34 -1 1.68 -1 1 C-4.07412449 1.07225506 -7.00775776 1.2661513 -10 2 C-12.45198044 4.4158995 -12.45198044 4.4158995 -14 7 C-14.66 7 -15.32 7 -16 7 C-16.33 7.66 -16.66 8.32 -17 9 C-17 5.55742752 -16.12538137 3.84611357 -13.91015625 1.23046875 C-9.85786831 -1.37990079 -4.62171139 -0.39804213 0 0 Z " fill="#D4D5D6" transform="translate(677,110)"/>
<path d="M0 0 C1.07765625 0.00902344 2.1553125 0.01804687 3.265625 0.02734375 C4.08546875 0.03894531 4.9053125 0.05054687 5.75 0.0625 C2.89206684 2.92043316 0.60334416 2.47049941 -3.375 2.6875 C-4.65632813 2.76226562 -5.93765625 2.83703125 -7.2578125 2.9140625 C-8.24523437 2.96304688 -9.23265625 3.01203125 -10.25 3.0625 C-10.25 2.4025 -10.25 1.7425 -10.25 1.0625 C-6.78777385 -0.00473961 -3.60960734 -0.03923486 0 0 Z " fill="#C0C1C2" transform="translate(97.25,106.9375)"/>
<path d="M0 0 C0.33 0 0.66 0 1 0 C1.33 3.3 1.66 6.6 2 10 C3.65 10.33 5.3 10.66 7 11 C6.67 11.66 6.34 12.32 6 13 C3.69 12.67 1.38 12.34 -1 12 C-1.02687279 10.18757948 -1.04633715 8.37504767 -1.0625 6.5625 C-1.07410156 5.55316406 -1.08570312 4.54382812 -1.09765625 3.50390625 C-1 1 -1 1 0 0 Z " fill="#B1B2B1" transform="translate(89,50)"/>
<path d="M0 0 C3 1 3 1 5 3 C-0.75 6 -0.75 6 -3 6 C-3 6.66 -3 7.32 -3 8 C-3.99 8 -4.98 8 -6 8 C-4.55746343 4.63408134 -2.66735273 2.48952921 0 0 Z " fill="#C6C6C8" transform="translate(282,81)"/>
<path d="M0 0 C0.33 0.66 0.66 1.32 1 2 C-0.134375 2.309375 -1.26875 2.61875 -2.4375 2.9375 C-5.78775099 3.62924531 -5.78775099 3.62924531 -7 5 C-9.33297433 5.04092937 -11.66705225 5.04241723 -14 5 C-13.67 4.01 -13.34 3.02 -13 2 C-11.35 2.33 -9.7 2.66 -8 3 C-8 2.34 -8 1.68 -8 1 C-5.36 0.67 -2.72 0.34 0 0 Z " fill="#C8CACC" transform="translate(93,123)"/>
<path d="M0 0 C0 0.66 0 1.32 0 2 C-2.12437212 2.19448477 -4.24953191 2.38038289 -6.375 2.5625 C-7.55835937 2.66691406 -8.74171875 2.77132812 -9.9609375 2.87890625 C-13 3 -13 3 -15 2 C-15 1.34 -15 0.68 -15 0 C-9.76528314 -0.75612577 -5.22745859 -1.2063366 0 0 Z " fill="#B1B2B5" transform="translate(92,114)"/>
<path d="M0 0 C1.5 1.3125 1.5 1.3125 3 3 C3 3.99 3 4.98 3 6 C2.01 6.495 2.01 6.495 1 7 C0.67 7.99 0.34 8.98 0 10 C-0.66 10.66 -1.32 11.32 -2 12 C-1 3.42857143 -1 3.42857143 0 0 Z " fill="#CACBCB" transform="translate(77,97)"/>
<path d="M0 0 C0.33 0 0.66 0 1 0 C1.125 2.875 1.125 2.875 1 6 C0.34 6.66 -0.32 7.32 -1 8 C-2.98 7.34 -4.96 6.68 -7 6 C-6.21625 5.38125 -5.4325 4.7625 -4.625 4.125 C-2.03162353 2.10141339 -2.03162353 2.10141339 0 0 Z " fill="#D3D5D4" transform="translate(108,87)"/>
<path d="M0 0 C0.99 0 1.98 0 3 0 C3 0.66 3 1.32 3 2 C2.34 2.66 1.68 3.32 1 4 C3.31 4 5.62 4 8 4 C6 6 6 6 4.0546875 6.1953125 C2.03645833 6.13020833 0.01822917 6.06510417 -2 6 C-1.125 1.125 -1.125 1.125 0 0 Z " fill="#B0B2B1" transform="translate(84,84)"/>
<path d="M0 0 C3.3 0 6.6 0 10 0 C10.33 1.65 10.66 3.3 11 5 C10.67 4.01 10.34 3.02 10 2 C8.6696875 2.2784375 8.6696875 2.2784375 7.3125 2.5625 C4.14821189 2.98042484 2.05160358 2.80777742 -1 2 C-0.67 1.34 -0.34 0.68 0 0 Z " fill="#DEDEDF" transform="translate(395,37)"/>
<path d="M0 0 C0.66 0.66 1.32 1.32 2 2 C-0.3125 3.5625 -0.3125 3.5625 -3 5 C-3.99 4.67 -4.98 4.34 -6 4 C-5.34 4 -4.68 4 -4 4 C-4.33 3.34 -4.66 2.68 -5 2 C-5.33 1.34 -5.66 0.68 -6 0 C-3 -1 -3 -1 0 0 Z " fill="#C8C9C9" transform="translate(107,68)"/>
<path d="M0 0 C0.66 0.33 1.32 0.66 2 1 C2.40729228 3.32156597 2.74438677 5.6568787 3 8 C2.01 8.495 2.01 8.495 1 9 C1 8.34 1 7.68 1 7 C0.01 7 -0.98 7 -2 7 C-1.34 4.69 -0.68 2.38 0 0 Z " fill="#E6E7E7" transform="translate(93,38)"/>
<path d="M0 0 C0.66 0.33 1.32 0.66 2 1 C2.625 3.0625 2.625 3.0625 3 5 C0.69 5.33 -1.62 5.66 -4 6 C-2.68 4.02 -1.36 2.04 0 0 Z " fill="#BBBCBC" transform="translate(82,97)"/>
<path d="M0 0 C0.33 0.66 0.66 1.32 1 2 C1.66 2.33 2.32 2.66 3 3 C0.65887549 4.44977894 -0.5796929 5.04314411 -3.359375 4.7578125 C-4.54273437 4.44457031 -4.54273437 4.44457031 -5.75 4.125 C-6.54921875 3.92132813 -7.3484375 3.71765625 -8.171875 3.5078125 C-9.07679687 3.25644531 -9.07679687 3.25644531 -10 3 C-10 2.67 -10 2.34 -10 2 C-3.25 1.875 -3.25 1.875 -1 3 C-0.67 2.01 -0.34 1.02 0 0 Z " fill="#ABABAB" transform="translate(70,132)"/>
<path d="M0 0 C5.75 3.75 5.75 3.75 8 6 C7.67 6.99 7.34 7.98 7 9 C5.82460004 8.07347299 4.65989423 7.13336613 3.5 6.1875 C2.52546875 5.40439453 2.52546875 5.40439453 1.53125 4.60546875 C0 3 0 3 0 0 Z " fill="#ADADAE" transform="translate(64,111)"/>
<path d="M0 0 C2.31 0 4.62 0 7 0 C6 3 6 3 4.0625 4.25 C3.381875 4.4975 2.70125 4.745 2 5 C1.34 4.67 0.68 4.34 0 4 C0 2.68 0 1.36 0 0 Z " fill="#BCBCBC" transform="translate(97,69)"/>
<path d="M0 0 C2.31 1.65 4.62 3.3 7 5 C6.67 5.66 6.34 6.32 6 7 C4.68 7 3.36 7 2 7 C0.5393715 4.35261084 0 3.10551666 0 0 Z " fill="#D3D3D3" transform="translate(44,119)"/>
<path d="M0 0 C2.5 2.3125 2.5 2.3125 5 5 C5 5.99 5 6.98 5 8 C3.02 7.34 1.04 6.68 -1 6 C-1.042721 4.33388095 -1.04063832 2.66617115 -1 1 C-0.67 0.67 -0.34 0.34 0 0 Z " fill="#E8E9E9" transform="translate(57,73)"/>
<path d="M0 0 C0 0.99 0 1.98 0 3 C-5.94 2.01 -5.94 2.01 -12 1 C-12 0.67 -12 0.34 -12 0 C-7.66726186 -0.92844389 -4.33273814 -0.92844389 0 0 Z " fill="#C9C9CA" transform="translate(102,111)"/>
<path d="M0 0 C1.4540625 0.0309375 1.4540625 0.0309375 2.9375 0.0625 C-0.02533313 2.44922669 -3.00520509 4.7978371 -6.0625 7.0625 C-3.83347902 0.07823427 -3.83347902 0.07823427 0 0 Z " fill="#C8C9CB" transform="translate(637.0625,83.9375)"/>
<path d="M0 0 C-3.65333143 2.63379708 -6.48521602 4.46884894 -11 5 C-4.75324675 -1.58441558 -4.75324675 -1.58441558 0 0 Z " fill="#CBCCCE" transform="translate(583,72)"/>
<path d="M0 0 C2.31 0.33 4.62 0.66 7 1 C7 1.66 7 2.32 7 3 C5.02 3 3.04 3 1 3 C1 3.66 1 4.32 1 5 C0.34 5 -0.32 5 -1 5 C-0.67 3.35 -0.34 1.7 0 0 Z " fill="#D7D8D8" transform="translate(405,66)"/>
<path d="M0 0 C1.98 0.495 1.98 0.495 4 1 C4.33 2.65 4.66 4.3 5 6 C2.03 5.505 2.03 5.505 -1 5 C-0.67 3.35 -0.34 1.7 0 0 Z " fill="#B0B0B0" transform="translate(94,55)"/>
<path d="M0 0 C0.33 0 0.66 0 1 0 C1 2.64 1 5.28 1 8 C-0.32 7.67 -1.64 7.34 -3 7 C-1.125 1.125 -1.125 1.125 0 0 Z " fill="#D4D5D5" transform="translate(82,41)"/>
<path d="M0 0 C1.32 0 2.64 0 4 0 C4.33 1.98 4.66 3.96 5 6 C4.01 6.495 4.01 6.495 3 7 C1.68 5.02 0.36 3.04 -1 1 C-0.67 0.67 -0.34 0.34 0 0 Z " fill="#E9EEEE" transform="translate(100,138)"/>
<path d="M0 0 C0.66 0.33 1.32 0.66 2 1 C2 1.66 2 2.32 2 3 C2.99 3.33 3.98 3.66 5 4 C4.01 5.485 4.01 5.485 3 7 C1.68 6.01 0.36 5.02 -1 4 C-0.67 2.68 -0.34 1.36 0 0 Z " fill="#BCBCBC" transform="translate(52,111)"/>
<path d="M0 0 C0 0.66 0 1.32 0 2 C0.66 2.33 1.32 2.66 2 3 C0.68 3.33 -0.64 3.66 -2 4 C-2 3.34 -2 2.68 -2 2 C-4.64 2 -7.28 2 -10 2 C-10 1.67 -10 1.34 -10 1 C-6.59437148 0.22157062 -3.49234244 -0.09978121 0 0 Z " fill="#D0D1D0" transform="translate(105,82)"/>
<path d="M0 0 C0.99 0.495 0.99 0.495 2 1 C2.40729228 3.32156597 2.74438677 5.6568787 3 8 C2.01 8.33 1.02 8.66 0 9 C0 6.03 0 3.06 0 0 Z " fill="#989B9A" transform="translate(84,56)"/>
<path d="M0 0 C3.7952131 1.49097658 5.61042731 3.75700849 8 7 C5.5625 6.1875 5.5625 6.1875 3 5 C2.67 4.01 2.34 3.02 2 2 C1.34 2 0.68 2 0 2 C0 1.34 0 0.68 0 0 Z " fill="#CACBCC" transform="translate(721,99)"/>
<path d="M0 0 C3.34373475 0.55728913 6.03312999 1.35173889 9 3 C9 3.66 9 4.32 9 5 C5.51694958 4.35499066 2.93797836 2.95865224 0 1 C0 0.67 0 0.34 0 0 Z " fill="#B3B4B6" transform="translate(56,95)"/>
<path d="M0 0 C0.99 0.33 1.98 0.66 3 1 C2.34 2.65 1.68 4.3 1 6 C-0.32 4.68 -1.64 3.36 -3 2 C-2.01 1.34 -1.02 0.68 0 0 Z " fill="#C7C7C8" transform="translate(597,83)"/>
<path d="M0 0 C-0.66 1.65 -1.32 3.3 -2 5 C-3.32 5 -4.64 5 -6 5 C-5.6875 3.0625 -5.6875 3.0625 -5 1 C-2 0 -2 0 0 0 Z " fill="#D3D4D4" transform="translate(113,77)"/>
<path d="M0 0 C2.0245738 1.93254772 3.42105792 3.63158688 5 6 C4.67 6.99 4.34 7.98 4 9 C2.35 6.69 0.7 4.38 -1 2 C-0.67 1.34 -0.34 0.68 0 0 Z " fill="#E2E2E2" transform="translate(697,79)"/>
<path d="M0 0 C2.02045442 0.60183749 4.02111039 1.27306096 6 2 C6.33 2.66 6.66 3.32 7 4 C5.1875 4.625 5.1875 4.625 3 5 C2.01 4.34 1.02 3.68 0 3 C0 2.01 0 1.02 0 0 Z " fill="#BDBEBE" transform="translate(60,62)"/>
<path d="M0 0 C2.0625 1.6875 2.0625 1.6875 4 4 C3.75 6.75 3.75 6.75 3 9 C1.5 7.875 1.5 7.875 0 6 C-0.1875 2.8125 -0.1875 2.8125 0 0 Z " fill="#D0D2D2" transform="translate(79,79)"/>
<path d="M0 0 C1.32 0.33 2.64 0.66 4 1 C4 2.65 4 4.3 4 6 C2.68 5.34 1.36 4.68 0 4 C0 2.68 0 1.36 0 0 Z " fill="#B8BAB9" transform="translate(79,63)"/>
<path d="M0 0 C0.66 0 1.32 0 2 0 C3.03039555 4.53374042 3.17766075 5.64467851 1 10 C0.67 6.7 0.34 3.4 0 0 Z " fill="#A5ADAD" transform="translate(82,50)"/>
<path d="M0 0 C1 2 1 2 0.0625 5.125 C-0.288125 6.07375 -0.63875 7.0225 -1 8 C-3 5 -3 5 -3 2 C-2.01 1.34 -1.02 0.68 0 0 Z " fill="#CECFD1" transform="translate(704,122)"/>
<path d="M0 0 C4.875 4.75 4.875 4.75 6 7 C4.35 6.67 2.7 6.34 1 6 C0.67 4.02 0.34 2.04 0 0 Z " fill="#CBCCCD" transform="translate(425,112)"/>
<path d="M0 0 C5.75 0.75 5.75 0.75 8 3 C7.67 3.99 7.34 4.98 7 6 C5.83054208 5.19152271 4.66449539 4.37810888 3.5 3.5625 C2.8503125 3.11003906 2.200625 2.65757813 1.53125 2.19140625 C1.0259375 1.79824219 0.520625 1.40507813 0 1 C0 0.67 0 0.34 0 0 Z " fill="#CBCCCD" transform="translate(299,84)"/>
<path d="M0 0 C2.64 0.33 5.28 0.66 8 1 C5.03312999 2.64826111 2.34373475 3.44271087 -1 4 C-0.67 2.68 -0.34 1.36 0 0 Z " fill="#CACBCC" transform="translate(349,81)"/>
<path d="M0 0 C0 0.99 0 1.98 0 3 C-2.31 3.66 -4.62 4.32 -7 5 C-7 4.34 -7 3.68 -7 3 C-4.69 2.01 -2.38 1.02 0 0 Z " fill="#C9C9CB" transform="translate(350,71)"/>
<path d="M0 0 C0.66 0 1.32 0 2 0 C1.67 2.97 1.34 5.94 1 9 C0.34 9 -0.32 9 -1 9 C-0.67 6.03 -0.34 3.06 0 0 Z " fill="#B5B6B7" transform="translate(75,69)"/>
<path d="" fill="#E5E5E5" transform="translate(0,0)"/>
</svg>
