<?xml version="1.0" encoding="UTF-8"?>
<svg version="1.1" xmlns="http://www.w3.org/2000/svg" width="454" height="180">
<path d="M0 0 C1.51400391 0.01740234 1.51400391 0.01740234 3.05859375 0.03515625 C4.07050781 0.04417969 5.08242187 0.05320313 6.125 0.0625 C7.29869141 0.07990234 7.29869141 0.07990234 8.49609375 0.09765625 C9.15609375 1.74765625 9.81609375 3.39765625 10.49609375 5.09765625 C11.08777344 4.82050781 11.67945313 4.54335938 12.2890625 4.2578125 C21.93489255 -0.16384858 31.28044271 -1.52219966 41.49609375 2.09765625 C49.87764091 6.37999295 56.33413482 12.60071934 59.93359375 21.34765625 C62.80997285 30.36280112 62.39225935 38.80561633 58.83203125 47.5546875 C54.3989185 55.9931565 47.33990325 61.78122769 38.49609375 65.09765625 C27.80266787 68.19312164 18.06741048 64.94201168 8.49609375 60.09765625 C8.53162354 61.0920874 8.56715332 62.08651855 8.60375977 63.11108398 C8.73377404 66.78783803 8.85705828 70.46479184 8.97827148 74.1418457 C9.03176169 75.73565881 9.0870963 77.3294111 9.14428711 78.9230957 C9.22600317 81.20901367 9.30116272 83.49506571 9.375 85.78125 C9.40203506 86.49792343 9.42907013 87.21459686 9.45692444 87.95298767 C9.50907019 89.66713392 9.50795003 91.38275801 9.49609375 93.09765625 C8.49609375 94.09765625 8.49609375 94.09765625 5.7734375 94.1953125 C4.67128906 94.18371094 3.56914062 94.17210937 2.43359375 94.16015625 C1.32886719 94.15113281 0.22414062 94.14210938 -0.9140625 94.1328125 C-1.76871094 94.12121094 -2.62335938 94.10960937 -3.50390625 94.09765625 C-3.52702803 81.98923681 -3.54482049 69.88082258 -3.55571842 57.7723856 C-3.56094761 52.15057663 -3.56804591 46.52878272 -3.5793457 40.90698242 C-3.59017331 35.48647348 -3.59618281 30.06597905 -3.59878349 24.64546013 C-3.60063797 22.5725068 -3.60425902 20.49955431 -3.60963631 18.42660713 C-3.61684505 15.53381732 -3.61789726 12.64108829 -3.61743164 9.74829102 C-3.62102692 8.88226761 -3.62462219 8.0162442 -3.62832642 7.12397766 C-3.61608083 0.14103279 -3.61608083 0.14103279 0 0 Z M11.6875 22.24609375 C8.59101354 27.05833828 8.08892638 31.69237688 9.03125 37.1875 C10.61131013 43.68035212 14.23867722 47.31888812 19.49609375 51.09765625 C23.88704916 53.63978833 28.54706242 53.75145805 33.49609375 53.09765625 C39.67061259 51.2228478 44.02922334 47.48551387 47.49609375 42.09765625 C49.92949593 36.27865103 50.07487824 31.04870759 47.7421875 25.2109375 C45.0251567 19.9701375 41.32316227 16.70220865 36.18359375 13.78515625 C26.155798 11.21990617 18.04006132 14.11066099 11.6875 22.24609375 Z " fill="#BFC0C1" transform="translate(215.50390625,51.90234375)"/>
<path d="M0 0 C7.51849736 5.38448777 12.85017167 12.29093683 15.515625 21.17578125 C15.86723039 24.69183511 15.82551239 28.14242497 15.765625 31.67578125 C12.83644207 32.65217556 10.97536762 32.79714306 7.92700195 32.78930664 C6.45581657 32.78919334 6.45581657 32.78919334 4.95491028 32.78907776 C3.89857895 32.78391647 2.84224762 32.77875519 1.75390625 32.7734375 C0.12886421 32.77131508 0.12886421 32.77131508 -1.52900696 32.76914978 C-4.99332425 32.76354684 -8.4575772 32.75099383 -11.921875 32.73828125 C-14.26887928 32.73326663 -16.61588456 32.72870366 -18.96289062 32.72460938 C-24.72007408 32.71357646 -30.47721994 32.69683545 -36.234375 32.67578125 C-35.95722656 33.21847656 -35.68007813 33.76117188 -35.39453125 34.3203125 C-35.03230469 35.03574219 -34.67007812 35.75117187 -34.296875 36.48828125 C-33.93722656 37.19597656 -33.57757813 37.90367188 -33.20703125 38.6328125 C-32.234375 40.67578125 -32.234375 40.67578125 -31.234375 43.67578125 C-28.93903242 44.81123687 -28.93903242 44.81123687 -26.234375 45.67578125 C-25.491875 46.04703125 -24.749375 46.41828125 -23.984375 46.80078125 C-18.52664301 48.53733234 -13.30820148 48.46172775 -8.046875 46.11328125 C-5.0057237 44.46475109 -3.44560045 42.74468546 -1.484375 39.92578125 C0.56993334 37.23452256 1.38148559 36.73256278 4.8046875 36.2265625 C7.82145771 36.23716005 10.76529102 36.36992196 13.765625 36.67578125 C13.4585925 44.04456116 10.13287974 48.25458879 5.05859375 53.41015625 C-1.83890078 59.70042215 -9.50323978 62.01802972 -18.765625 61.89453125 C-28.55791466 61.02686001 -35.88054259 56.54781017 -42.625 49.609375 C-49.55020458 41.28904426 -49.85585424 32.11433069 -49.234375 21.67578125 C-47.73598754 13.10449705 -42.99930364 6.39519119 -35.984375 1.36328125 C-24.80569594 -5.52023421 -11.56509347 -6.85413756 0 0 Z M-34.234375 17.67578125 C-34.234375 18.33578125 -34.234375 18.99578125 -34.234375 19.67578125 C-22.684375 19.67578125 -11.134375 19.67578125 0.765625 19.67578125 C-3.12527827 13.83942634 -5.66182954 10.86662974 -12.234375 8.67578125 C-21.45827261 7.56600264 -28.23827355 10.55541078 -34.234375 17.67578125 Z " fill="#C0C1C2" transform="translate(349.234375,56.32421875)"/>
<path d="M0 0 C6.28205136 5.37120086 11.57168987 11.72542764 13.11328125 20.046875 C13.17952632 21.79574481 13.1988072 23.54690248 13.17578125 25.296875 C13.16675781 26.18890625 13.15773438 27.0809375 13.1484375 28 C13.13683594 28.67546875 13.12523437 29.3509375 13.11328125 30.046875 C10.0869207 30.92630112 7.39985056 31.16868176 4.25292969 31.16040039 C3.29223572 31.16032486 2.33154175 31.16024933 1.34173584 31.16017151 C0.31243958 31.15501022 -0.71685669 31.14984894 -1.77734375 31.14453125 C-2.83709412 31.1431163 -3.89684448 31.14170135 -4.9887085 31.14024353 C-8.37140737 31.13464882 -11.7540399 31.12209725 -15.13671875 31.109375 C-17.43098863 31.10435932 -19.72525954 31.09979653 -22.01953125 31.09570312 C-27.64194969 31.08468111 -33.26432948 31.06794821 -38.88671875 31.046875 C-38.26094091 32.33915796 -37.63048359 33.62917567 -36.99804688 34.91821289 C-36.64746216 35.63682999 -36.29687744 36.35544708 -35.93566895 37.09584045 C-34.71484088 39.36656573 -33.39540995 40.87285683 -31.38671875 42.484375 C-30.81953125 42.95746094 -30.25234375 43.43054688 -29.66796875 43.91796875 C-25.04776581 46.84612368 -19.16270641 46.67091655 -13.88671875 46.046875 C-11.28590419 44.95805135 -9.25063122 43.62281665 -6.88671875 42.046875 C-6.22671875 42.046875 -5.56671875 42.046875 -4.88671875 42.046875 C-4.57734375 41.428125 -4.26796875 40.809375 -3.94921875 40.171875 C-3.26171875 38.796875 -2.57421875 37.421875 -1.88671875 36.046875 C1.0546875 35.6328125 1.0546875 35.6328125 4.67578125 35.421875 C5.87332031 35.34710938 7.07085937 35.27234375 8.3046875 35.1953125 C9.23152344 35.14632812 10.15835938 35.09734375 11.11328125 35.046875 C12.11328125 38.046875 12.11328125 38.046875 11.2578125 40.1328125 C5.65541121 49.76039947 0.19132791 55.21565634 -10.32421875 59.421875 C-20.68189867 61.23901183 -29.8533174 60.272838 -38.625 54.12890625 C-45.79237689 48.12954633 -50.41374275 41.36600038 -51.88671875 32.046875 C-52.7524602 22.14079498 -50.85272027 13.55524573 -44.48046875 5.79296875 C-32.72779055 -7.08312721 -14.71638993 -9.95696207 0 0 Z M-35.88671875 15.046875 C-36.21671875 16.036875 -36.54671875 17.026875 -36.88671875 18.046875 C-25.66671875 17.716875 -14.44671875 17.386875 -2.88671875 17.046875 C-5.34373646 12.13283957 -7.73910828 9.98061868 -12.76171875 7.796875 C-22.23128095 5.52418007 -29.07622433 8.56068983 -35.88671875 15.046875 Z " fill="#C2C3C4" transform="translate(193.88671875,57.953125)"/>
<path d="M0 0 C1.05119019 -0.00315216 2.10238037 -0.00630432 3.1854248 -0.009552 C4.31984009 -0.00752777 5.45425537 -0.00550354 6.62304688 -0.00341797 C7.78807739 -0.00437469 8.95310791 -0.00533142 10.15344238 -0.00631714 C12.61808323 -0.00699802 15.08272587 -0.00515011 17.54736328 -0.00097656 C21.32653825 0.00437293 25.10559437 -0.00092468 28.88476562 -0.00732422 C31.27669297 -0.00666342 33.66862024 -0.00538223 36.06054688 -0.00341797 C37.7621698 -0.00645432 37.7621698 -0.00645432 39.49816895 -0.009552 C41.07495422 -0.00482376 41.07495422 -0.00482376 42.68359375 0 C44.07233704 0.00119339 44.07233704 0.00119339 45.48913574 0.00241089 C47.84179688 0.12939453 47.84179688 0.12939453 50.84179688 1.12939453 C52.01921527 6.4184327 52.36045622 11.38392704 49.69335938 16.20556641 C46.40251301 20.94595224 42.61678331 25.29092822 38.87451172 29.67675781 C35.39855663 33.87078194 32.22567102 38.28341925 29.02929688 42.69189453 C27.85709865 44.29807812 26.68400499 45.90360882 25.50976562 47.50830078 C25.01758545 48.18449463 24.52540527 48.86068848 24.01831055 49.55737305 C22.84179687 51.12939453 22.84179687 51.12939453 21.84179688 52.12939453 C31.41179687 52.45939453 40.98179687 52.78939453 50.84179688 53.12939453 C50.84179688 57.41939453 50.84179688 61.70939453 50.84179688 66.12939453 C35.66179687 66.12939453 20.48179688 66.12939453 4.84179688 66.12939453 C3.25886723 61.38060559 3.76362093 56.97994888 4.84179688 52.12939453 C6.49689404 48.91700454 8.65884406 46.34250248 11.02929688 43.62939453 C12.3002228 42.09125424 13.5683596 40.55080595 14.83398438 39.00830078 C15.49108398 38.2182666 16.14818359 37.42823242 16.82519531 36.61425781 C20.25964309 32.38231962 23.4497478 27.97393319 26.65429688 23.56689453 C27.82674599 21.96089408 28.99986108 20.35537948 30.17382812 18.75048828 C30.6660083 18.07429443 31.15818848 17.39810059 31.6652832 16.70141602 C32.84179688 15.12939453 32.84179688 15.12939453 33.84179688 14.12939453 C19.98179688 13.79939453 6.12179688 13.46939453 -8.15820312 13.12939453 C-8.15820312 9.16939453 -8.15820312 5.20939453 -8.15820312 1.12939453 C-5.14837856 0.12611968 -3.14505374 0.00270264 0 0 Z " fill="#C1C2C4" transform="translate(92.158203125,51.87060546875)"/>
<path d="M0 0 C1.02814316 0.00222061 2.05628632 0.00444122 3.11558533 0.00672913 C4.85727745 0.00684242 4.85727745 0.00684242 6.63415527 0.00695801 C8.52943214 0.01469994 8.52943214 0.01469994 10.46299744 0.02259827 C12.39193092 0.02472069 12.39193092 0.02472069 14.35983276 0.02688599 C17.78427561 0.03071034 21.20867628 0.0405399 24.63310242 0.05158997 C28.12522308 0.06180587 31.61735053 0.06638399 35.10948181 0.07142639 C41.96562072 0.08216225 48.82172459 0.09975838 55.67784119 0.12025452 C55.67784119 4.41025452 55.67784119 8.70025452 55.67784119 13.12025452 C40.49784119 13.12025452 25.31784119 13.12025452 9.67784119 13.12025452 C9.68944275 16.86240295 9.70104431 20.60455139 9.71299744 24.46009827 C9.72078666 28.0674379 9.72686419 31.67477661 9.73277283 35.28211975 C9.73781482 37.79742347 9.74464821 40.31272423 9.75328064 42.82801819 C9.76535213 46.43455226 9.77107067 50.04104774 9.77549744 53.64759827 C9.78065872 54.7798735 9.78582001 55.91214874 9.7911377 57.07873535 C9.79121323 58.11973892 9.79128876 59.16074249 9.79136658 60.23329163 C9.79358719 61.15484543 9.7958078 62.07639923 9.7980957 63.02587891 C9.67784119 65.12025452 9.67784119 65.12025452 8.67784119 66.12025452 C6.84668236 66.21876623 5.01164185 66.24998081 3.17784119 66.24525452 C2.17752869 66.24783264 1.17721619 66.25041077 0.14659119 66.25306702 C-2.32215881 66.12025452 -2.32215881 66.12025452 -3.32215881 65.12025452 C-3.42146414 63.13137958 -3.45015343 61.13895035 -3.45155334 59.14759827 C-3.45470551 57.86957336 -3.45785767 56.59154846 -3.46110535 55.27479553 C-3.45931557 53.86911485 -3.45726461 52.46343447 -3.45497131 51.05775452 C-3.4556444 49.62668339 -3.45661446 48.19561236 -3.45787048 46.76454163 C-3.45934725 43.76168227 -3.45719358 40.75885261 -3.45252991 37.7559967 C-3.44683262 33.89872881 -3.45011174 30.04153048 -3.45610237 26.18426514 C-3.45970855 23.22811861 -3.45856914 20.27198869 -3.45597458 17.31584167 C-3.45530547 15.89321383 -3.45613319 14.47058449 -3.45845413 13.04795837 C-3.46098155 11.06294278 -3.45644924 9.07792193 -3.45155334 7.09291077 C-3.45075775 5.96119446 -3.44996216 4.82947815 -3.44914246 3.66346741 C-3.28517568 0.37956089 -3.268834 0.16927871 0 0 Z " fill="#BFC0C1" transform="translate(372.32215881347656,51.87974548339844)"/>
<path d="M0 0 C3.96 0 7.92 0 12 0 C12 9.24 12 18.48 12 28 C14.64 28 17.28 28 20 28 C21 29 21 29 21.1328125 31.46875 C21.13023437 32.4690625 21.12765625 33.469375 21.125 34.5 C21.12886719 36.00046875 21.12886719 36.00046875 21.1328125 37.53125 C21 40 21 40 20 41 C17.36 41 14.72 41 12 41 C12 58.49 12 75.98 12 94 C8.04 94 4.08 94 0 94 C0 76.51 0 59.02 0 41 C-1.98 41 -3.96 41 -6 41 C-6 36.71 -6 32.42 -6 28 C-4.02 28 -2.04 28 0 28 C0 18.76 0 9.52 0 0 Z " fill="#BFC0C2" transform="translate(282,24)"/>
<path d="M0 0 C15.84 0 31.68 0 48 0 C48 4.29 48 8.58 48 13 C30.84 13 13.68 13 -4 13 C-3 7 -3 7 0 0 Z " fill="#BEBFC0" transform="translate(28,133)"/>
<path d="M0 0 C0.93429337 -0.00315216 1.86858673 -0.00630432 2.83119202 -0.009552 C4.34065651 -0.00651566 4.34065651 -0.00651566 5.88061523 -0.00341797 C7.43195412 -0.00485306 7.43195412 -0.00485306 9.01463318 -0.00631714 C11.20099956 -0.00699775 13.38736797 -0.00515177 15.57373047 -0.00097656 C18.92932649 0.00437876 22.28478898 -0.0009284 25.64038086 -0.00732422 C27.76212595 -0.00666352 29.88387095 -0.00538254 32.00561523 -0.00341797 C33.51811607 -0.00645432 33.51811607 -0.00645432 35.06117249 -0.009552 C36.45788429 -0.00482376 36.45788429 -0.00482376 37.8828125 0 C38.70427261 0.00079559 39.52573273 0.00159119 40.37208557 0.00241089 C42.37670898 0.12939453 42.37670898 0.12939453 44.37670898 1.12939453 C43.7925468 6.03635686 42.72176717 8.43927816 40.37670898 13.12939453 C24.53670898 13.12939453 8.69670898 13.12939453 -7.62329102 13.12939453 C-7.62329102 9.16939453 -7.62329102 5.20939453 -7.62329102 1.12939453 C-4.75913654 0.17467637 -2.97199089 0.00287562 0 0 Z " fill="#C7C7C9" transform="translate(31.623291015625,51.87060546875)"/>
<path d="M0 0 C0.99 0 1.98 0 3 0 C3 24.09 3 48.18 3 73 C61.905 72.505 61.905 72.505 122 72 C122.33 73.32 122.66 74.64 123 76 C82.41 76 41.82 76 0 76 C0 50.92 0 25.84 0 0 Z " fill="#D7D7D7" transform="translate(84,70)"/>
<path d="M0 0 C42.24 0 84.48 0 128 0 C128 7.59 128 15.18 128 23 C127.01 23 126.02 23 125 23 C125 16.4 125 9.8 125 3 C124.34 3.33 123.68 3.66 123 4 C121.3781223 4.09276153 119.75242654 4.12192241 118.12789917 4.12025452 C117.09862305 4.12162918 116.06934692 4.12300385 115.00888062 4.12442017 C113.87528107 4.12082489 112.74168152 4.11722961 111.57373047 4.11352539 C110.38350281 4.11367142 109.19327515 4.11381744 107.96697998 4.1139679 C104.6985906 4.11338958 101.43024373 4.10836573 98.16186285 4.10139394 C94.74789457 4.09515317 91.3339255 4.09455603 87.91995239 4.09336853 C81.45305527 4.09025735 74.98617501 4.08204683 68.51928532 4.07201904 C61.15783358 4.06085129 53.79638104 4.05534578 46.43492293 4.05032361 C31.28993922 4.03986405 16.14497129 4.02226873 1 4 C0.67 2.68 0.34 1.36 0 0 Z " fill="#D7D9D9" transform="translate(300,24)"/>
<path d="M0 0 C13.2 0 26.4 0 40 0 C40.495 4.95 40.495 4.95 41 10 C36.60109958 12.19945021 33.38807561 12.27442408 28.62109375 12.23046875 C27.8126149 12.23001053 27.00413605 12.22955231 26.17115784 12.2290802 C24.46573413 12.22606481 22.76031301 12.21819986 21.05493164 12.20581055 C18.44342301 12.18754144 15.83226903 12.18530108 13.22070312 12.18554688 C11.56249693 12.18063173 9.90429314 12.17480342 8.24609375 12.16796875 C7.46479599 12.16685593 6.68349823 12.1657431 5.87852478 12.16459656 C2.66199739 12.1363941 0.07303319 12.0243444 -3 11 C-2.31282934 7.10603294 -1.27666659 3.82999978 0 0 Z " fill="#C7C7C9" transform="translate(36,117)"/>
<path d="M0 0 C14.19 0 28.38 0 43 0 C41 9 41 9 40 11 C35.77864995 12.25803802 31.47578128 12.14517826 27.109375 12.1328125 C26.36415588 12.13376923 25.61893677 12.13472595 24.85113525 12.13571167 C23.28454503 12.13638946 21.71795195 12.13456327 20.15136719 12.13037109 C17.74407744 12.12498675 15.33697171 12.13034509 12.9296875 12.13671875 C11.40624959 12.13605849 9.88281179 12.13477841 8.359375 12.1328125 C7.63651306 12.13483673 6.91365112 12.13686096 6.16888428 12.13894653 C1.1149722 12.1149722 1.1149722 12.1149722 0 11 C0 7.37 0 3.74 0 0 Z " fill="#C6C7C9" transform="translate(24,70)"/>
<path d="M0 0 C1.19044922 -0.00128906 2.38089844 -0.00257812 3.60742188 -0.00390625 C4.85201172 -0.00003906 6.09660156 0.00382812 7.37890625 0.0078125 C9.23999023 0.00201172 9.23999023 0.00201172 11.13867188 -0.00390625 C12.33041016 -0.00261719 13.52214844 -0.00132813 14.75 0 C15.84111084 0.00112793 16.93222168 0.00225586 18.05639648 0.00341797 C20.53277855 0.11448529 22.58232858 0.41369907 24.94140625 1.1328125 C24.46590064 2.61316014 23.98589409 4.09206271 23.50390625 5.5703125 C23.23707031 6.39402344 22.97023437 7.21773438 22.6953125 8.06640625 C21.94140625 10.1328125 21.94140625 10.1328125 20.94140625 11.1328125 C18.72285361 11.22064792 16.50152129 11.23975859 14.28125 11.23046875 C13.2845504 11.22834633 13.2845504 11.22834633 12.26771545 11.22618103 C10.13806726 11.22056768 8.00852286 11.20801304 5.87890625 11.1953125 C4.43815256 11.19029921 2.99739722 11.18573601 1.55664062 11.18164062 C-1.98180477 11.17059395 -5.52018914 11.15332042 -9.05859375 11.1328125 C-9.05859375 7.8328125 -9.05859375 4.5328125 -9.05859375 1.1328125 C-5.80861753 0.04948709 -3.41811867 0.00353712 0 0 Z " fill="#C8CACB" transform="translate(33.05859375,85.8671875)"/>
<path d="M0 0 C10.23 0 20.46 0 31 0 C31.495 4.455 31.495 4.455 32 9 C31 10 31 10 27.76538086 10.11352539 C26.33185874 10.11336631 24.89833088 10.10767407 23.46484375 10.09765625 C22.33496788 10.09553383 22.33496788 10.09553383 21.18226624 10.09336853 C18.7673044 10.08775376 16.35243399 10.07519883 13.9375 10.0625 C12.30403779 10.0574869 10.67057414 10.05292366 9.03710938 10.04882812 C5.02470415 10.03777954 1.01236759 10.02050506 -3 10 C-2.36738317 6.30973516 -1.42909641 3.57274103 0 0 Z " fill="#BFC0C1" transform="translate(45,102)"/>
<path d="M0 0 C25.74 0 51.48 0 78 0 C78 7.59 78 15.18 78 23 C77.01 23 76.02 23 75 23 C75 16.4 75 9.8 75 3 C49.92 2.67 24.84 2.34 -1 2 C-0.67 1.34 -0.34 0.68 0 0 Z " fill="#C5C7C7" transform="translate(350,24)"/>
<path d="M0 0 C10.46484632 -0.36934752 10.46484632 -0.36934752 12.828125 1.26171875 C14.2228874 3.3306163 14.43279978 4.51828539 14.4375 7 C14.45683594 7.680625 14.47617187 8.36125 14.49609375 9.0625 C14 11 14 11 12.30078125 12.73828125 C9.5522873 14.24551987 7.86121629 14.31031117 4.75 14.1875 C3.1825 14.125625 1.615 14.06375 0 14 C0 9.38 0 4.76 0 0 Z M4 3 C4 5.31 4 7.62 4 10 C5.65 10 7.3 10 9 10 C9.66 8.68 10.32 7.36 11 6 C9.7511573 4.4166747 9.7511573 4.4166747 8 3 C6.68 3 5.36 3 4 3 Z " fill="#D0D0D0" transform="translate(247,132)"/>
<path d="M0 0 C5.45949074 1.09189815 6.01471081 1.68791562 9 6 C9.33 4.02 9.66 2.04 10 0 C11.32 0 12.64 0 14 0 C14 4.62 14 9.24 14 14 C9 14 9 14 7.41796875 12.46875 C7.01191406 11.8190625 6.60585938 11.169375 6.1875 10.5 C5.55908203 9.52546875 5.55908203 9.52546875 4.91796875 8.53125 C4.61503906 8.0259375 4.31210937 7.520625 4 7 C3.67 9.31 3.34 11.62 3 14 C2.01 14 1.02 14 0 14 C0 9.38 0 4.76 0 0 Z " fill="#D6D6D7" transform="translate(315,132)"/>
<path d="M0 0 C3.96 0 7.92 0 12 0 C12 0.99 12 1.98 12 3 C9.36 3 6.72 3 4 3 C4 3.66 4 4.32 4 5 C6.31 5 8.62 5 11 5 C11 5.99 11 6.98 11 8 C8.69 8 6.38 8 4 8 C4 8.66 4 9.32 4 10 C6.64 10 9.28 10 12 10 C12 11.32 12 12.64 12 14 C8.04 14 4.08 14 0 14 C0 9.38 0 4.76 0 0 Z " fill="#D3D3D4" transform="translate(282,132)"/>
<path d="M0 0 C2.69990662 1.79993774 4.5418865 3.083773 6 6 C6.48602588 10.29322859 6.46241608 12.32082639 4 15.9375 C-0.15080314 18.79117716 -2.0301078 18.7099846 -7 18 C-10.30290812 15.88275121 -10.88526042 14.38724609 -12 10.625 C-12 6.16331516 -10.81998243 4.38397892 -8 1 C-5.14675563 -0.42662219 -3.16545451 -0.31033868 0 0 Z M-7.875 4.0625 C-9.66235303 7.14071911 -9.43386742 9.52906068 -9 13 C-7.5 15.16666667 -7.5 15.16666667 -5 16 C-1.5196355 15.92897215 0.29485909 15.61415498 2.9375 13.3125 C4.39615475 10.13778084 4.00471852 8.30121799 3 5 C-0.68147191 2.54568539 -3.85415952 1.78402373 -7.875 4.0625 Z " fill="#E4E5E4" transform="translate(422,70)"/>
<path d="M0 0 C1.65 0 3.3 0 5 0 C5.84026396 1.76755526 6.67198722 3.53917263 7.5 5.3125 C7.9640625 6.29863281 8.428125 7.28476563 8.90625 8.30078125 C10 11 10 11 10 14 C8.35 13.67 6.7 13.34 5 13 C5 12.34 5 11.68 5 11 C4.0925 11.309375 3.185 11.61875 2.25 11.9375 C-0.16563338 12.7272263 -2.52780285 13.42949297 -5 14 C-4.34580901 8.93001981 -2.1453591 4.58009223 0 0 Z M2 5 C1.67 5.66 1.34 6.32 1 7 C1.66 7 2.32 7 3 7 C2.67 6.34 2.34 5.68 2 5 Z " fill="#CACACA" transform="translate(387,132)"/>
<path d="M0 0 C15.84 0 31.68 0 48 0 C48 4.29 48 8.58 48 13 C46.35 13 44.7 13 43 13 C44.32 12.67 45.64 12.34 47 12 C47 8.7 47 5.4 47 2 C40.50356716 2.09345199 34.00751066 2.19952775 27.51147461 2.31738281 C25.30092032 2.35570017 23.09030308 2.39054814 20.87963867 2.421875 C17.70468629 2.46746552 14.53016828 2.52547003 11.35546875 2.5859375 C10.36475876 2.59748871 9.37404877 2.60903992 8.35331726 2.62094116 C6.97222527 2.6507457 6.97222527 2.6507457 5.56323242 2.68115234 C4.7527092 2.69447601 3.94218597 2.70779968 3.10710144 2.7215271 C0.69899809 2.88223777 0.69899809 2.88223777 -2 5 C-1.34 3.35 -0.68 1.7 0 0 Z " fill="#D3D4D4" transform="translate(28,133)"/>
<path d="M0 0 C4.29 0 8.58 0 13 0 C13 0.99 13 1.98 13 3 C11.35 3 9.7 3 8 3 C8.33 6.3 8.66 9.6 9 13 C7.68 13.33 6.36 13.66 5 14 C3.39274365 10.78548731 3.94251815 7.56387464 4 4 C2.68 3.67 1.36 3.34 0 3 C0 2.01 0 1.02 0 0 Z " fill="#CED0CF" transform="translate(349,132)"/>
<path d="M0 0 C1.32 0 2.64 0 4 0 C3.67 3.3 3.34 6.6 3 10 C5.31 10 7.62 10 10 10 C10 11.32 10 12.64 10 14 C6.7 14 3.4 14 0 14 C0 9.38 0 4.76 0 0 Z " fill="#D5D5D5" transform="translate(418,132)"/>
<path d="M0 0 C3.3 0 6.6 0 10 0 C10 0.66 10 1.32 10 2 C7.69 2 5.38 2 3 2 C3 2.66 3 3.32 3 4 C5.31 4 7.62 4 10 4 C10 4.99 10 5.98 10 7 C7.36 7 4.72 7 2 7 C1.34 8.32 0.68 9.64 0 11 C0 7.37 0 3.74 0 0 Z " fill="#C8C9CA" transform="translate(283,133)"/>
<path d="M0 0 C0.99 0 1.98 0 3 0 C3.19412181 1.47831221 3.38012131 2.95769316 3.5625 4.4375 C3.71912109 5.67306641 3.71912109 5.67306641 3.87890625 6.93359375 C3.93884766 7.95646484 3.93884766 7.95646484 4 9 C3 10 3 10 -0.23461914 10.11352539 C-1.66814126 10.11336631 -3.10166912 10.10767407 -4.53515625 10.09765625 C-5.66503212 10.09553383 -5.66503212 10.09553383 -6.81773376 10.09336853 C-9.2326956 10.08775376 -11.64756601 10.07519883 -14.0625 10.0625 C-15.69596221 10.0574869 -17.32942586 10.05292366 -18.96289062 10.04882812 C-22.97529585 10.03777954 -26.98763241 10.02050506 -31 10 C-30.67 9.01 -30.34 8.02 -30 7 C-29.30688721 7.16298584 -28.61377441 7.32597168 -27.8996582 7.49389648 C-24.74082435 8.04523627 -21.81146304 8.11285054 -18.60546875 8.09765625 C-17.40341797 8.09443359 -16.20136719 8.09121094 -14.96289062 8.08789062 C-13.71701172 8.07951172 -12.47113281 8.07113281 -11.1875 8.0625 C-9.92228516 8.05798828 -8.65707031 8.05347656 -7.35351562 8.04882812 C-4.2356289 8.03706251 -1.11783867 8.02062272 2 8 C2 5.69 2 3.38 2 1 C1.34 0.67 0.68 0.34 0 0 Z " fill="#CFCFD1" transform="translate(73,102)"/>
<path d="M0 0 C1.65 0 3.3 0 5 0 C4.33300789 1.33398422 3.62390484 2.64771944 2.875 3.9375 C1.67608107 6.13094595 1.67608107 6.13094595 3 9 C1.68 8.67 0.36 8.34 -1 8 C-0.690625 8.928125 -0.690625 8.928125 -0.375 9.875 C-0.25125 10.57625 -0.1275 11.2775 0 12 C-0.66 12.66 -1.32 13.32 -2 14 C-2.99 14 -3.98 14 -5 14 C-4.34580901 8.93001981 -2.1453591 4.58009223 0 0 Z " fill="#DBDBDB" transform="translate(387,132)"/>
<path d="M0 0 C0.33 0 0.66 0 1 0 C1.02887512 3.64581687 1.04675585 7.29160463 1.0625 10.9375 C1.07087891 11.97841797 1.07925781 13.01933594 1.08789062 14.09179688 C1.09111328 15.08115234 1.09433594 16.07050781 1.09765625 17.08984375 C1.10289307 18.00628662 1.10812988 18.92272949 1.11352539 19.86694336 C1 22 1 22 0 23 C-1.85287502 23.07226502 -3.70833878 23.0838122 -5.5625 23.0625 C-6.57441406 23.05347656 -7.58632813 23.04445313 -8.62890625 23.03515625 C-9.41136719 23.02355469 -10.19382812 23.01195313 -11 23 C-11.33 22.01 -11.66 21.02 -12 20 C-8.04 20.33 -4.08 20.66 0 21 C0 14.07 0 7.14 0 0 Z " fill="#C8CAC9" transform="translate(381,95)"/>
<path d="M0 0 C0.99 0.66 1.98 1.32 3 2 C2.34 2.66 1.68 3.32 1 4 C0.49968794 7.41571853 0.49968794 7.41571853 1 11 C2.85420839 13.44098818 2.85420839 13.44098818 5 15 C4.01 15.33 3.02 15.66 2 16 C-0.92447412 13.64155313 -1.93464909 12.23962001 -2.9375 8.5625 C-3.0064284 4.63358094 -2.33704506 3.08489948 0 0 Z " fill="#EFF0F0" transform="translate(413,72)"/>
<path d="M0 0 C2.31 0 4.62 0 7 0 C7 2.64 7 5.28 7 8 C5.68 7.34 4.36 6.68 3 6 C2.67 6.66 2.34 7.32 2 8 C1.34 8 0.68 8 0 8 C0 5.36 0 2.72 0 0 Z M2 1 C2 1.99 2 2.98 2 4 C2.99 3.67 3.98 3.34 5 3 C5 2.34 5 1.68 5 1 C4.01 1 3.02 1 2 1 Z " fill="#E5E7E7" transform="translate(416,75)"/>
<path d="M0 0 C2.875 2 2.875 2 5 4 C4.67 5.32 4.34 6.64 4 8 C3.505 7.360625 3.01 6.72125 2.5 6.0625 C-0.98806387 3.18484731 -3.53461041 3.29769264 -8 3 C-8 2.34 -8 1.68 -8 1 C-5.14675563 -0.42662219 -3.16545451 -0.31033868 0 0 Z " fill="#D6D7D7" transform="translate(422,70)"/>
<path d="M0 0 C0.66 0 1.32 0 2 0 C1.67 1.65 1.34 3.3 1 5 C-2.98196457 6.05404945 -5.98195309 5.84098656 -10 5 C-9.67 4.34 -9.34 3.68 -9 3 C-6.93734178 2.6088062 -4.90556733 2.49325481 -2.8125 2.34375 C-2.214375 2.2303125 -1.61625 2.116875 -1 2 C-0.67 1.34 -0.34 0.68 0 0 Z " fill="#C5C5C5" transform="translate(258,140)"/>
<path d="M0 0 C3.96 0 7.92 0 12 0 C11.67 0.99 11.34 1.98 11 3 C10.31292969 2.98839844 9.62585938 2.97679688 8.91796875 2.96484375 C8.01691406 2.95582031 7.11585938 2.94679688 6.1875 2.9375 C5.29417969 2.92589844 4.40085937 2.91429688 3.48046875 2.90234375 C0.86586209 2.88990033 0.86586209 2.88990033 -2 4 C-1.34 2.68 -0.68 1.36 0 0 Z " fill="#CDCDCD" transform="translate(351,93)"/>
<path d="M0 0 C0.66 0.33 1.32 0.66 2 1 C-0.82522609 5.67248931 -3.67760044 8.65996398 -8 12 C-7.649375 11.38125 -7.29875 10.7625 -6.9375 10.125 C-6.628125 9.42375 -6.31875 8.7225 -6 8 C-6.33 7.34 -6.66 6.68 -7 6 C-5.5459375 5.62875 -5.5459375 5.62875 -4.0625 5.25 C-2.5465625 4.63125 -2.5465625 4.63125 -1 4 C-0.03122943 1.96756452 -0.03122943 1.96756452 0 0 Z " fill="#C9CACC" transform="translate(359,100)"/>
<path d="M0 0 C0.33 0 0.66 0 1 0 C1 5.28 1 10.56 1 16 C0.01 16 -0.98 16 -2 16 C-2 14.02 -2 12.04 -2 10 C-1.34 10 -0.68 10 0 10 C0 6.7 0 3.4 0 0 Z " fill="#C8CAC9" transform="translate(427,31)"/>
<path d="M0 0 C0.66 0.33 1.32 0.66 2 1 C0.68 3.31 -0.64 5.62 -2 8 C0.31 8.33 2.62 8.66 5 9 C5 9.33 5 9.66 5 10 C2.03 10 -0.94 10 -4 10 C-3.43454163 6.04179141 -2.19097652 3.3340947 0 0 Z " fill="#C8C9CB" transform="translate(37,118)"/>
<path d="M0 0 C0.66 1.32 1.32 2.64 2 4 C0.02 6.97 0.02 6.97 -2 10 C-2.99 9.67 -3.98 9.34 -5 9 C-3.35 6.03 -1.7 3.06 0 0 Z " fill="#C7C8C8" transform="translate(263,91)"/>
<path d="M0 0 C-1.65 1.98 -3.3 3.96 -5 6 C-6.32 5.01 -7.64 4.02 -9 3 C-6.38220849 -0.01046024 -3.86655673 -1.93327837 0 0 Z " fill="#C8CACB" transform="translate(125,90)"/>
<path d="M0 0 C4.30840713 1.07710178 7.63576723 2.03947516 11 5 C10.67 5.66 10.34 6.32 10 7 C7.03824877 6.38722388 5.61941217 5.74627478 3 4 C3 3.34 3 2.68 3 2 C2.01 1.67 1.02 1.34 0 1 C0 0.67 0 0.34 0 0 Z " fill="#CBCDCE" transform="translate(342,54)"/>
<path d="M0 0 C0.33 0 0.66 0 1 0 C1.66 3.63 2.32 7.26 3 11 C1.68 11.33 0.36 11.66 -1 12 C-0.67 8.04 -0.34 4.08 0 0 Z " fill="#C5C5C5" transform="translate(326,133)"/>
<path d="M0 0 C0.66 0.66 1.32 1.32 2 2 C-0.97 5.3 -3.94 8.6 -7 12 C-7 8.19654123 -5.86213669 7.22298985 -3.5 4.3125 C-2.8503125 3.50425781 -2.200625 2.69601563 -1.53125 1.86328125 C-1.0259375 1.24839844 -0.520625 0.63351563 0 0 Z " fill="#C9C9CA" transform="translate(120,74)"/>
<path d="M0 0 C0.99 0.66 1.98 1.32 3 2 C2.525625 2.391875 2.05125 2.78375 1.5625 3.1875 C-0.35179633 5.40808374 -0.61266988 7.13375709 -1 10 C-1.66 9.67 -2.32 9.34 -3 9 C-2.5020163 5.26512223 -2.12508244 3.18762365 0 0 Z " fill="#E5E7E6" transform="translate(413,72)"/>
<path d="M0 0 C-0.33 0.99 -0.66 1.98 -1 3 C-1.99 2.67 -2.98 2.34 -4 2 C-5.72795352 1.93197033 -7.45835365 1.91504355 -9.1875 1.9375 C-10.08855469 1.94652344 -10.98960937 1.95554687 -11.91796875 1.96484375 C-12.94857422 1.98224609 -12.94857422 1.98224609 -14 2 C-14 1.34 -14 0.68 -14 0 C-12.2300132 -0.19532961 -10.45895721 -0.38098882 -8.6875 -0.5625 C-7.70136719 -0.66691406 -6.71523437 -0.77132812 -5.69921875 -0.87890625 C-3 -1 -3 -1 0 0 Z " fill="#D2D2D2" transform="translate(206,94)"/>
<path d="M0 0 C0.33 0.66 0.66 1.32 1 2 C-0.73397418 5.65047197 -2.19333016 7.55609075 -6 9 C-2.25 2.25 -2.25 2.25 0 0 Z " fill="#CCCCCD" transform="translate(111,86)"/>
<path d="M0 0 C0.33 0.66 0.66 1.32 1 2 C3.64 2 6.28 2 9 2 C9 3.32 9 4.64 9 6 C8.01 5.67 7.02 5.34 6 5 C6 4.67 6 4.34 6 4 C3.03 3.505 3.03 3.505 0 3 C0 2.01 0 1.02 0 0 Z " fill="#D9D9DB" transform="translate(285,140)"/>
<path d="M0 0 C2.5 1.375 2.5 1.375 5 3 C5 3.66 5 4.32 5 5 C4.01 5.33 3.02 5.66 2 6 C1.01 5.34 0.02 4.68 -1 4 C-0.67 2.68 -0.34 1.36 0 0 Z " fill="#BFBFBF" transform="translate(386,138)"/>
<path d="M0 0 C0.99 0 1.98 0 3 0 C3.33 2.97 3.66 5.94 4 9 C2.68 9.33 1.36 9.66 0 10 C0 9.34 0 8.68 0 8 C0.66 8 1.32 8 2 8 C2 5.69 2 3.38 2 1 C1.34 0.67 0.68 0.34 0 0 Z " fill="#D6D7D8" transform="translate(73,102)"/>
</svg>
