<?xml version="1.0" encoding="UTF-8"?>
<svg version="1.1" xmlns="http://www.w3.org/2000/svg" width="677" height="122">
<path d="M0 0 C1.0909765 2.65925523 2.07391513 5.28414903 3 8 C3.23259521 8.66030212 3.46519043 9.32060425 3.70483398 10.00091553 C4.41692178 12.02608062 5.11622542 14.0552842 5.8125 16.0859375 C6.19498901 17.19867538 6.19498901 17.19867538 6.58520508 18.33389282 C7.12021747 19.89166403 7.65463422 21.44963993 8.18847656 23.0078125 C8.99580276 25.36275677 9.80639576 27.7165595 10.6171875 30.0703125 C13.22819045 37.67127237 15.80340706 45.26616234 18 53 C18.29656494 52.09983154 18.59312988 51.19966309 18.89868164 50.2722168 C28.8497101 20.09903725 28.8497101 20.09903725 33.125 8.5 C33.40738525 7.73131592 33.68977051 6.96263184 33.98071289 6.1706543 C35.86478535 1.13521465 35.86478535 1.13521465 37 0 C39.01964199 -0.07244053 41.04167124 -0.08377188 43.0625 -0.0625 C44.71958984 -0.04896484 44.71958984 -0.04896484 46.41015625 -0.03515625 C47.26480469 -0.02355469 48.11945313 -0.01195313 49 0 C49.40989545 5.68840793 49.8187818 11.37688727 50.22680664 17.06542969 C50.36521356 18.9931831 50.50387745 20.92091809 50.64282227 22.84863281 C51.31814665 32.22028234 51.991114 41.59209763 52.59375 50.96875 C52.67173828 52.17982422 52.74972656 53.39089844 52.83007812 54.63867188 C53.07220199 59.42827153 53.09140982 64.2060626 53 69 C49.04369799 70.36948916 47.66750453 69.77791742 43 69 C42.01 51.84 41.02 34.68 40 17 C38.87873219 20.79788698 38.87873219 20.79788698 39 24 C38.54206055 24.45560303 38.08412109 24.91120605 37.61230469 25.38061523 C35.57959268 27.42225344 35.06403811 29.1692128 34.203125 31.91015625 C33.88730469 32.89242187 33.57148438 33.8746875 33.24609375 34.88671875 C32.91738281 35.93472656 32.58867187 36.98273437 32.25 38.0625 C28.87131742 48.54021226 25.12330244 58.79482647 21 69 C18.36 69 15.72 69 13 69 C11.37746959 64.32849199 9.76035398 59.65515303 8.14770508 54.98022461 C7.60124912 53.3983616 7.05345098 51.81696145 6.50415039 50.23608398 C2.68498967 39.24068177 -0.81646221 28.19631788 -4 17 C-4.77795003 23.4316235 -5.25589585 29.81413552 -5.53515625 36.28515625 C-5.57813339 37.22685165 -5.62111053 38.16854706 -5.66539001 39.13877869 C-5.80051185 42.11323589 -5.93157417 45.08785545 -6.0625 48.0625 C-6.15402735 50.09311112 -6.24582166 52.12371024 -6.33789062 54.15429688 C-6.56167905 59.1027311 -6.78182978 64.05131502 -7 69 C-10.69541586 69.95024979 -13.30458414 69.95024979 -17 69 C-16.55555549 55.07045866 -15.86282323 41.19337366 -14.73535156 27.30175781 C-13.99903901 18.20760321 -13.44738504 9.11252679 -13 0 C-2.74018399 -1.33094651 -2.74018399 -1.33094651 0 0 Z " fill="#BCBDBF" transform="translate(360,25)"/>
<path d="M0 0 C6.86626844 5.03031103 12.75998348 10.58873796 15 19 C16.14389749 28.37042691 16.00765493 37.22620578 10 45 C2.85568206 52.6565025 -4.16677236 56.87250119 -14.6875 57.25 C-22.5176748 57.15664471 -29.94290586 55.09346553 -36 50 C-42.20156451 42.88419993 -45.52463863 36.61518905 -45.4375 27.125 C-45.45748047 26.36058594 -45.47746094 25.59617187 -45.49804688 24.80859375 C-45.49118715 16.72783276 -42.11338789 10.53893259 -36.77734375 4.60546875 C-27.46030993 -3.81057718 -10.99505397 -6.9746403 0 0 Z M-20 2 C-20.86441757 5.45767028 -21.13464292 7.98997714 -21.125 11.5 C-21.12757813 12.4384375 -21.13015625 13.376875 -21.1328125 14.34375 C-21.01332235 16.73355296 -20.61568116 18.70357654 -20 21 C-20.57032959 20.99476318 -21.14065918 20.98952637 -21.72827148 20.98413086 C-24.29800323 20.96341779 -26.86771747 20.9503581 -29.4375 20.9375 C-30.33533203 20.92912109 -31.23316406 20.92074219 -32.15820312 20.91210938 C-33.01220703 20.90888672 -33.86621094 20.90566406 -34.74609375 20.90234375 C-35.93223267 20.89448853 -35.93223267 20.89448853 -37.14233398 20.88647461 C-39.01592689 20.79504091 -39.01592689 20.79504091 -40 22 C-40.07205511 23.68608966 -40.08386068 25.37500659 -40.0625 27.0625 C-40.041875 28.691875 -40.02125 30.32125 -40 32 C-33.73 32.33 -27.46 32.66 -21 33 C-21.0625 41.9375 -21.0625 41.9375 -21.09008789 44.75756836 C-21.09258545 45.48596924 -21.09508301 46.21437012 -21.09765625 46.96484375 C-21.10289307 47.7137085 -21.10812988 48.46257324 -21.11352539 49.23413086 C-21.19341752 51.02667739 -21.19341752 51.02667739 -20 52 C-16.66381769 52.14257189 -13.34024394 52.04228157 -10 52 C-9.67 45.73 -9.34 39.46 -9 33 C-2.73 32.67 3.54 32.34 10 32 C10 28.7 10 25.4 10 22 C7.29283758 21.09761253 5.76223232 20.88148698 2.98828125 20.90234375 C2.30548096 20.90484131 1.62268066 20.90733887 0.91918945 20.90991211 C0.05898193 20.91901611 -0.80122559 20.92812012 -1.6875 20.9375 C-5.8021875 20.9684375 -5.8021875 20.9684375 -10 21 C-10 14.73 -10 8.46 -10 2 C-13.3 2 -16.6 2 -20 2 Z " fill="#BFC0C1" transform="translate(323,40)"/>
<path d="M0 0 C6.2418355 3.58097335 9.63621044 7.98648344 11.6875 14.875 C13.66341459 23.51962635 13.31114081 31.16051419 9.8125 39.4375 C6.12585645 45.19247174 1.90900437 49.42724759 -4.82421875 51.13671875 C-10.54155688 51.86437997 -15.90806003 51.60616045 -20.8125 48.375 C-21.59625 47.735625 -22.38 47.09625 -23.1875 46.4375 C-24.15044592 49.32633775 -24.29257913 51.07617202 -24.25 54.0703125 C-24.24226563 54.95847656 -24.23453125 55.84664062 -24.2265625 56.76171875 C-24.21367188 57.68597656 -24.20078125 58.61023438 -24.1875 59.5625 C-24.16210747 61.3983801 -24.14103481 63.23432682 -24.125 65.0703125 C-24.11339844 65.88387207 -24.10179688 66.69743164 -24.08984375 67.53564453 C-24.1875 69.4375 -24.1875 69.4375 -25.1875 70.4375 C-26.70678038 70.50929964 -28.22917482 70.52142007 -29.75 70.5 C-30.98943359 70.48646484 -30.98943359 70.48646484 -32.25390625 70.47265625 C-33.21103516 70.45525391 -33.21103516 70.45525391 -34.1875 70.4375 C-35.61256348 67.58737305 -35.31478307 65.17033753 -35.31689453 61.98413086 C-35.31864685 61.3222023 -35.32039917 60.66027374 -35.32220459 59.97828674 C-35.32661264 57.78627923 -35.32368914 55.59435211 -35.3203125 53.40234375 C-35.32098576 51.88302088 -35.32195597 50.36369811 -35.32321167 48.84437561 C-35.32468716 45.65917943 -35.32253857 42.47401128 -35.31787109 39.28881836 C-35.31216904 35.19729099 -35.31545675 31.10582914 -35.32144356 27.01430416 C-35.32504906 23.8771566 -35.32391072 20.74002469 -35.32131577 17.60287666 C-35.32064672 16.09372513 -35.32147415 14.58457219 -35.32379532 13.07542229 C-35.3263222 10.97073448 -35.32248103 8.86615435 -35.31689453 6.76147461 C-35.31609894 5.56171494 -35.31530334 4.36195526 -35.31448364 3.12583923 C-35.1875 0.4375 -35.1875 0.4375 -34.1875 -0.5625 C-31.51691149 -0.70365161 -28.86317762 -0.60497107 -26.1875 -0.5625 C-25.8575 1.7475 -25.5275 4.0575 -25.1875 6.4375 C-24.506875 5.674375 -23.82625 4.91125 -23.125 4.125 C-16.4606228 -1.97219616 -8.30069984 -3.67511901 0 0 Z M-19.1875 9.4375 C-23.93412655 14.69727537 -24.41777996 18.25909129 -24.5 25.1875 C-24.52900391 25.98671875 -24.55800781 26.7859375 -24.58789062 27.609375 C-24.6459831 33.04325554 -23.8571962 36.16384665 -20.1875 40.4375 C-15.80281363 43.05144765 -12.10808093 44.08381511 -7.11328125 43.2109375 C-2.60989263 41.40227432 -0.0549671 37.26749908 1.953125 33.03125 C3.99897235 26.85651074 3.54146564 20.41044084 1.0625 14.4375 C-0.57743676 11.24873408 -1.81150274 8.93794323 -5.1875 7.4375 C-10.9424522 6.13799466 -14.1325073 5.99091407 -19.1875 9.4375 Z " fill="#BFC0C2" transform="translate(142.1875,44.5625)"/>
<path d="M0 0 C2.97 0 5.94 0 9 0 C10.46041228 2.92082455 10.11928796 5.48301369 10.11352539 8.74462891 C10.11367142 9.43742447 10.11381744 10.13022003 10.1139679 10.8440094 C10.11327018 13.13822541 10.10548442 15.43236064 10.09765625 17.7265625 C10.09579157 19.31554113 10.0943679 20.90452034 10.09336853 22.49349976 C10.08954731 26.67909325 10.07972039 30.86465213 10.06866455 35.05023193 C10.05844194 39.31994153 10.05386909 43.5896567 10.04882812 47.859375 C10.03809778 56.23959923 10.02102608 64.61979531 10 73 C7.03 73 4.06 73 1 73 C0.34 71.68 -0.32 70.36 -1 69 C-1.45890625 69.34933594 -1.9178125 69.69867188 -2.390625 70.05859375 C-3.00421875 70.51363281 -3.6178125 70.96867187 -4.25 71.4375 C-4.85328125 71.88996094 -5.4565625 72.34242187 -6.078125 72.80859375 C-10.2903257 75.41981573 -15.15807243 75.61624533 -20 75 C-26.13229414 73.09370631 -30.64714138 69.45231215 -34 64 C-37.6760833 55.8710007 -38.35135421 46.89129852 -35.875 38.3125 C-33.6876065 32.56543311 -30.33130474 27.72072492 -25.375 24.0625 C-20.16628336 21.73228466 -15.66248552 21.63230614 -10 22 C-5.545 23.98 -5.545 23.98 -1 26 C-0.67 17.42 -0.34 8.84 0 0 Z M-23 34 C-27.37666553 39.28307555 -27.60643762 45.22324173 -27.390625 51.8671875 C-26.73473417 57.12743194 -25.08072051 61.05468429 -21.19921875 64.68359375 C-17.11350739 67.12921494 -12.59741007 66.60114723 -8 66 C-4.16340088 64.00177129 -2.05264505 61.40403924 -0.50390625 57.32421875 C1.18977378 49.51228375 1.04743358 41.95276956 -3 35 C-4.76595657 32.48690795 -6.05674118 31.28389343 -9.01171875 30.39453125 C-14.64393574 29.42873513 -18.75110799 30.03730278 -23 34 Z " fill="#BEBFC0" transform="translate(510,21)"/>
<path d="M0 0 C0.75509857 -0.00095673 1.51019714 -0.00191345 2.28817749 -0.00289917 C3.87310877 -0.00357543 5.4580429 -0.00176007 7.04296875 0.00244141 C9.46100084 0.00781264 11.87884849 0.00246988 14.296875 -0.00390625 C15.84375041 -0.00324566 17.3906257 -0.0019649 18.9375 0 C19.65531647 -0.00202423 20.37313293 -0.00404846 21.11270142 -0.00613403 C24.81247285 0.01107318 28.23817468 0.25110231 31.8359375 1.1328125 C32.36604131 7.1249986 30.88356296 10.52350735 27.515625 15.296875 C27.06459412 15.96351669 26.61356323 16.63015839 26.14886475 17.31700134 C24.68433699 19.47445778 23.19801292 21.61585161 21.7109375 23.7578125 C20.70201115 25.23580539 19.69469277 26.71489719 18.68896484 28.19506836 C16.6860522 31.13922031 14.67551641 34.077905 12.65820312 37.01220703 C8.86711022 42.53441229 5.16305291 48.11314469 1.4609375 53.6953125 C-0.3953125 56.4796875 -2.2515625 59.2640625 -4.1640625 62.1328125 C8.0459375 62.1328125 20.2559375 62.1328125 32.8359375 62.1328125 C32.8359375 64.7728125 32.8359375 67.4128125 32.8359375 70.1328125 C29.90036457 70.97728773 27.30148461 71.25490673 24.25097656 71.24633789 C23.35034485 71.24626236 22.44971313 71.24618683 21.52178955 71.24610901 C20.55811462 71.24094772 19.5944397 71.23578644 18.6015625 71.23046875 C17.60840027 71.2290538 16.61523804 71.22763885 15.59197998 71.22618103 C12.42326838 71.22058838 9.25462771 71.2080372 6.0859375 71.1953125 C3.93619894 71.19029655 1.78645927 71.18573381 -0.36328125 71.18164062 C-5.63023249 71.17062136 -10.89714243 71.1538905 -16.1640625 71.1328125 C-16.66580514 64.69980962 -16.10417766 60.92227631 -12.31640625 55.46484375 C-11.91259232 54.87049026 -11.50877838 54.27613678 -11.09272766 53.66377258 C-9.78148177 51.74360512 -8.44228769 49.84498202 -7.1015625 47.9453125 C-6.18978406 46.62161945 -5.27996833 45.29657242 -4.37207031 43.97021484 C-2.53796604 41.29719238 -0.6929125 38.63232728 1.16259766 35.97412109 C4.29746702 31.47970542 7.37351084 26.94657755 10.44604492 22.40942383 C13.23030576 18.30879369 16.03505197 14.22210537 18.8359375 10.1328125 C7.6159375 9.8028125 -3.6040625 9.4728125 -15.1640625 9.1328125 C-15.1640625 6.4928125 -15.1640625 3.8528125 -15.1640625 1.1328125 C-10.08253766 0.29709545 -5.15298152 -0.01461375 0 0 Z " fill="#C0C1C3" transform="translate(16.1640625,23.8671875)"/>
<path d="M0 0 C5.20433019 3.01303327 8.72221993 7.29806979 10.5625 13.03125 C11.53848809 17.53163951 11.99282227 21.88637696 11.75 26.5 C7.74679847 27.45377184 4.02788253 27.6157616 -0.08203125 27.59765625 C-1.37431641 27.59443359 -2.66660156 27.59121094 -3.99804688 27.58789062 C-5.35286526 27.57953665 -6.70768297 27.57107172 -8.0625 27.5625 C-9.43684735 27.55748 -10.81119645 27.55291797 -12.18554688 27.54882812 C-15.54040924 27.53705668 -18.89518221 27.52061283 -22.25 27.5 C-21.96707134 28.95094997 -21.67332155 30.39979276 -21.375 31.84765625 C-21.21257812 32.65468994 -21.05015625 33.46172363 -20.8828125 34.29321289 C-20.34784992 36.70934715 -20.34784992 36.70934715 -18.25 38.9375 C-10.14519567 43.15875226 -2.10334632 42.62568321 6.75 41.5 C7.41 43.48 8.07 45.46 8.75 47.5 C0.5308338 51.8962982 -7.95894704 53.01565266 -17 50.3125 C-24.11552793 47.61437212 -27.93668116 43.24935319 -31.25 36.5 C-33.46088743 29.77948788 -33.38009434 20.72722044 -31.0625 14.0625 C-24.89639063 1.94290571 -13.90336998 -5.8943945 0 0 Z M-20.19140625 10.50390625 C-21.74890453 13.16837084 -21.74890453 13.16837084 -22.25 19.5 C-14.33 19.5 -6.41 19.5 1.75 19.5 C0.84665878 12.41255625 0.84665878 12.41255625 -3.25 7.5 C-9.30602638 4.47198681 -15.65842935 5.76546864 -20.19140625 10.50390625 Z " fill="#BFC0C1" transform="translate(86.25,44.5)"/>
<path d="M0 0 C4.77446058 4.66836145 7.79441939 9.43809243 8.1796875 16.11328125 C8.18666503 19.08222051 8.13148752 22.03422599 8 25 C1.20336964 26.26750669 -5.54298684 26.11139726 -12.4375 26.0625 C-13.64599609 26.05798828 -14.85449219 26.05347656 -16.09960938 26.04882812 C-19.06645789 26.03710145 -22.0332027 26.02068896 -25 26 C-24.27826178 32.43653119 -24.27826178 32.43653119 -20.76171875 37.76953125 C-15.02759518 41.77451778 -7.88404468 41.1969541 -1.3125 40.125 C0.46219212 39.76870857 2.23475715 39.4004914 4 39 C5.35439668 41.70879335 5.06501451 44.00933268 5 47 C-3.33403565 50.67678043 -11.94937613 51.20146313 -20.625 48.5 C-27.17195999 45.87754824 -31.22873238 41.99963656 -34.08984375 35.5390625 C-37.08219949 26.57578493 -36.69399086 18.7161582 -33 10 C-29.71880203 4.36679287 -25.54880891 -0.61679076 -19.0859375 -2.58203125 C-12.47980915 -3.90573113 -5.88661851 -3.42634688 0 0 Z M-20.9375 6.4375 C-23.81802103 9.71162197 -23.81802103 9.71162197 -26 18 C-17.75 18 -9.5 18 -1 18 C-1.90334122 10.91255625 -1.90334122 10.91255625 -6 6 C-10.57729723 3.71135138 -16.46032912 4.24654404 -20.9375 6.4375 Z " fill="#BEBFC1" transform="translate(458,46)"/>
<path d="M0 0 C5.1014008 3.91502852 7.39216097 8.8937261 9 15 C9.28873145 18.36853356 9.25803569 21.63120066 9 25 C4.99679847 25.95377184 1.27788253 26.1157616 -2.83203125 26.09765625 C-4.12431641 26.09443359 -5.41660156 26.09121094 -6.74804688 26.08789062 C-8.10286526 26.07953665 -9.45768297 26.07107172 -10.8125 26.0625 C-12.18684735 26.05748 -13.56119645 26.05291797 -14.93554688 26.04882812 C-18.29040924 26.03705668 -21.64518221 26.02061283 -25 26 C-24.5401017 27.45079573 -24.07408013 28.89965139 -23.60546875 30.34765625 C-23.34660889 31.15468994 -23.08774902 31.96172363 -22.82104492 32.79321289 C-21.71239212 35.77302635 -20.64429813 37.21331207 -18 39 C-10.51628789 41.96524442 -2.83215131 40.75466041 5 40 C5.495 43.465 5.495 43.465 6 47 C-3.30465624 50.39085087 -12.45697437 51.70832694 -21.9296875 48.109375 C-27.67605304 45.03019045 -31.68510286 40.04445364 -34 34 C-36.03585433 25.48642735 -35.42753164 17.05469936 -32 9 C-24.40489012 -2.37555872 -12.44514042 -7.07664847 0 0 Z M-23 10 C-24.56978799 12.99686799 -25 14.61244725 -25 18 C-16.75 18 -8.5 18 0 18 C-1.60697634 9.88213948 -1.60697634 9.88213948 -7 5 C-13.94755498 3.58497211 -18.32542657 4.74110489 -23 10 Z " fill="#BFC0C2" transform="translate(229,46)"/>
<path d="M0 0 C4.50066264 3.60053011 5.72336023 6.4535225 7 12 C7.29640188 14.85337649 7.36998018 17.69134052 7.4140625 20.55859375 C7.43342865 21.34774673 7.4527948 22.13689972 7.4727478 22.94996643 C7.53204824 25.44570447 7.5787285 27.94148989 7.625 30.4375 C7.66322551 32.13999296 7.70227984 33.84246752 7.7421875 35.54492188 C7.83770828 39.69646341 7.92191969 43.84809533 8 48 C4.34811918 49.07174763 1.73567172 48.76411467 -2 48 C-2.33 47.01 -2.66 46.02 -3 45 C-3.9075 45.639375 -4.815 46.27875 -5.75 46.9375 C-10.62344033 50.03026021 -14.2061364 50.48282197 -20 50 C-24.69699978 48.6216281 -28.05125096 46.65278285 -30.5625 42.375 C-32.58557955 37.5032793 -32.5228274 33.01878061 -31 28 C-28.22822222 22.83977541 -24.0186412 19.85956685 -18.65625 17.7109375 C-13.53125922 16.33924879 -8.28233631 16.16328706 -3 16 C-3.44909061 14.51800098 -3.90956564 13.03944764 -4.375 11.5625 C-4.63023437 10.73878906 -4.88546875 9.91507813 -5.1484375 9.06640625 C-5.80882227 6.82201984 -5.80882227 6.82201984 -8 6 C-14.35198686 5.54703908 -19.99722901 5.86568143 -26 8 C-27.4606285 5.35261084 -28 4.10551666 -28 1 C-19.04923512 -3.78761843 -9.1438579 -5.19944861 0 0 Z M-19.1875 27 C-21.46286973 29.5107528 -21.96529466 30.46785142 -22.1875 33.875 C-22.00510688 36.91488536 -21.6688086 38.49678709 -20 41 C-16.77140153 42.61429923 -13.49006347 42.59570657 -10 42 C-6.97491855 40.26397895 -4.58209931 38.16419863 -3 35 C-2.92934383 32.95944995 -2.91578024 30.91665743 -2.9375 28.875 C-2.94652344 27.77929688 -2.95554687 26.68359375 -2.96484375 25.5546875 C-2.97644531 24.71164063 -2.98804688 23.86859375 -3 23 C-8.58436993 23 -14.48251601 24.04785318 -19.1875 27 Z " fill="#BDBEBF" transform="translate(630,46)"/>
<path d="M0 0 C0 4.29 0 8.58 0 13 C3.96 13 7.92 13 12 13 C12 15.64 12 18.28 12 21 C8.04 21 4.08 21 0 21 C0.09344448 25.52104123 0.1995163 30.04154113 0.31738281 34.56201172 C0.35570301 36.10034021 0.39055056 37.63875925 0.421875 39.17724609 C0.46746059 41.38672276 0.5254634 43.59557448 0.5859375 45.8046875 C0.59748871 46.49432587 0.60903992 47.18396423 0.62094116 47.89450073 C0.64951022 51.8920154 0.64951022 51.8920154 3 55 C5.65537372 55.56520003 8.29144713 55.73788198 11 56 C11.33 58.31 11.66 60.62 12 63 C8.25842263 65.49438492 4.33514123 65.6308601 0 65 C-4.3172948 63.64656234 -6.52603029 61.87772169 -8.6875 57.875 C-11.03694974 51.09130144 -10.3111407 43.58562293 -10.1875 36.5 C-10.1724286 34.99480503 -10.15874453 33.48959549 -10.14648438 31.984375 C-10.11366687 28.32261059 -10.06201989 24.66139979 -10 21 C-12.64 21 -15.28 21 -18 21 C-18.04241723 18.66705225 -18.04092937 16.33297433 -18 14 C-17 13 -17 13 -13.4375 12.9375 C-12.303125 12.958125 -11.16875 12.97875 -10 13 C-10 9.04 -10 5.08 -10 1 C-3.375 -1.125 -3.375 -1.125 0 0 Z " fill="#BCBDC2" transform="translate(177,31)"/>
<path d="M0 0 C-0.33 2.64 -0.66 5.28 -1 8 C-1.92941406 7.89300781 -2.85882812 7.78601562 -3.81640625 7.67578125 C-13.39637217 6.55295678 -13.39637217 6.55295678 -22 10 C-25.83618053 13.60460008 -27.70165465 16.89606086 -28.203125 22.11328125 C-28.31634318 27.42510092 -27.68913055 31.27083938 -25 36 C-19.78410583 40.83424337 -16.28454172 41.13540913 -9.375 41.0625 C-8.57320312 41.05798828 -7.77140625 41.05347656 -6.9453125 41.04882812 C-4.96350994 41.03703168 -2.98174567 41.01909605 -1 41 C-0.505 44.465 -0.505 44.465 0 48 C-8.27141703 51.35651706 -15.60054211 52.42737201 -24.1875 49.5 C-30.16847317 46.85330164 -34.31412504 42.51079114 -37.13671875 36.6328125 C-39.88069784 28.26429709 -39.95315685 18.94706789 -36 11 C-31.73022434 4.49957637 -26.47174289 0.65476096 -19.0625 -1.5859375 C-12.52237964 -2.89891621 -6.23677178 -2.16931192 0 0 Z " fill="#BEBFC1" transform="translate(592,45)"/>
<path d="M0 0 C1.23556641 0.01740234 1.23556641 0.01740234 2.49609375 0.03515625 C3.32238281 0.04417969 4.14867187 0.05320312 5 0.0625 C5.63808594 0.07410156 6.27617188 0.08570312 6.93359375 0.09765625 C8.39400603 3.0184808 8.05288171 5.58066994 8.04711914 8.84228516 C8.04726517 9.53508072 8.04741119 10.22787628 8.04756165 10.94166565 C8.04686393 13.23588166 8.03907817 15.53001689 8.03125 17.82421875 C8.02938532 19.41319738 8.02796165 21.00217659 8.02696228 22.59115601 C8.02314106 26.7767495 8.01331414 30.96230838 8.0022583 35.14788818 C7.99203569 39.41759778 7.98746284 43.68731295 7.98242188 47.95703125 C7.97169153 56.33725548 7.95461983 64.71745156 7.93359375 73.09765625 C4.93827836 74.09609471 3.76103643 74.10498386 0.74609375 73.66015625 C-1.14109375 73.38171875 -1.14109375 73.38171875 -3.06640625 73.09765625 C-3.08953129 63.72729687 -3.10732216 54.35694724 -3.11821842 44.98656559 C-3.1234469 40.63597166 -3.1305439 36.28539718 -3.1418457 31.93481445 C-3.15267584 27.73975367 -3.15868335 23.54471166 -3.16128349 19.34963799 C-3.16313751 17.74558657 -3.16675769 16.14153622 -3.17213631 14.53749275 C-3.17934844 12.2984911 -3.18039712 10.05956795 -3.17993164 7.82055664 C-3.18215225 6.54370499 -3.18437286 5.26685333 -3.18666077 3.9513092 C-3.0261771 0.14301404 -3.0261771 0.14301404 0 0 Z " fill="#B8B9BA" transform="translate(653.06640625,20.90234375)"/>
<path d="M0 0 C1.6415049 3.2830098 0.51888624 6.42545033 0 10 C-1.98567708 10.22786458 -3.97135417 10.45572917 -5.95703125 10.68359375 C-8.19396393 10.97170735 -8.19396393 10.97170735 -11 12 C-12.16953416 14.42383077 -12.16953416 14.42383077 -13 17 C-13.33 17.66 -13.66 18.32 -14 19 C-14.15608023 21.40560273 -14.25804458 23.78702772 -14.31640625 26.1953125 C-14.33718735 26.90275604 -14.35796844 27.61019958 -14.37937927 28.33908081 C-14.44481078 30.60095425 -14.50372974 32.86294462 -14.5625 35.125 C-14.60569133 36.65756422 -14.64930582 38.19011657 -14.69335938 39.72265625 C-14.80048555 43.48165073 -14.9017709 47.24076292 -15 51 C-16.47831221 51.19412181 -17.95769316 51.38012131 -19.4375 51.5625 C-20.67306641 51.71912109 -20.67306641 51.71912109 -21.93359375 51.87890625 C-22.95646484 51.93884766 -22.95646484 51.93884766 -24 52 C-25 51 -25 51 -25.12025452 48.98155212 C-25.11803391 48.09552811 -25.11581329 47.20950409 -25.11352539 46.29663086 C-25.11344986 45.29566879 -25.11337433 44.29470673 -25.11329651 43.26341248 C-25.10813522 42.1748848 -25.10297394 41.08635712 -25.09765625 39.96484375 C-25.0962413 38.85645645 -25.09482635 37.74806915 -25.09336853 36.60609436 C-25.08775033 33.04986931 -25.07519475 29.49370617 -25.0625 25.9375 C-25.05748734 23.53320403 -25.05292403 21.12890708 -25.04882812 18.72460938 C-25.03777499 12.81638496 -25.02101917 6.9081969 -25 1 C-22.36 1 -19.72 1 -17 1 C-16.34 2.98 -15.68 4.96 -15 7 C-14.443125 6.21625 -13.88625 5.4325 -13.3125 4.625 C-9.35880608 0.13702312 -5.82329443 -0.2708509 0 0 Z " fill="#BFC1C2" transform="translate(273,43)"/>
<path d="M0 0 C2.97 0 5.94 0 9 0 C9 16.5 9 33 9 50 C5.7 50 2.4 50 -1 50 C-1.02464201 43.03996034 -1.04283222 36.07994584 -1.05493164 29.11987305 C-1.05997341 26.75007688 -1.06680665 24.38028385 -1.07543945 22.01049805 C-1.0875119 18.61245961 -1.09322971 15.21446215 -1.09765625 11.81640625 C-1.10281754 10.74975235 -1.10797882 9.68309845 -1.11329651 8.5841217 C-1.11337204 7.60318039 -1.11344757 6.62223907 -1.11352539 5.61157227 C-1.115746 4.74331314 -1.11796661 3.87505402 -1.12025452 2.98048401 C-1 1 -1 1 0 0 Z " fill="#C0C1C3" transform="translate(534,44)"/>
<path d="M0 0 C1.13264786 -0.00143509 1.13264786 -0.00143509 2.28817749 -0.00289917 C3.87310877 -0.00357543 5.4580429 -0.00176007 7.04296875 0.00244141 C9.46100084 0.00781264 11.87884849 0.00246988 14.296875 -0.00390625 C15.84375041 -0.00324566 17.3906257 -0.0019649 18.9375 0 C19.65531647 -0.00202423 20.37313293 -0.00404846 21.11270142 -0.00613403 C24.81247285 0.01107318 28.23817468 0.25110231 31.8359375 1.1328125 C32.29326417 6.84939586 31.35867504 9.61930503 27.8359375 14.1328125 C25.8359375 13.1328125 25.8359375 13.1328125 24.5859375 11.6328125 C20.57281508 8.19299329 14.25928913 9.01511909 9.25 9.03515625 C8.54821625 9.0365712 7.8464325 9.03798615 7.12338257 9.03944397 C4.90252246 9.0449996 2.68176666 9.05754358 0.4609375 9.0703125 C-1.05338395 9.07533324 -2.567707 9.07989514 -4.08203125 9.08398438 C-7.77607502 9.09495443 -11.47005856 9.11218801 -15.1640625 9.1328125 C-15.1640625 6.4928125 -15.1640625 3.8528125 -15.1640625 1.1328125 C-10.08253766 0.29709545 -5.15298152 -0.01461375 0 0 Z " fill="#C4C5C6" transform="translate(16.1640625,23.8671875)"/>
<path d="M0 0 C3.20196975 2.71471348 5.52300119 4.70701074 6 9 C5.401875 8.835 4.80375 8.67 4.1875 8.5 C1.88655664 7.8885876 1.88655664 7.8885876 -1 8 C-1.33 8.66 -1.66 9.32 -2 10 C-5 9 -5 9 -6.359375 7.45703125 C-9.22596008 4.91123069 -12.53216886 5.66938739 -16.19140625 5.76171875 C-19.7189473 6.06099553 -22.67168617 6.81659953 -26 8 C-27.4606285 5.35261084 -28 4.10551666 -28 1 C-19.04923512 -3.78761843 -9.1438579 -5.19944861 0 0 Z " fill="#BFC0C1" transform="translate(630,46)"/>
<path d="M0 0 C2.05078125 0.03255208 4.1015625 0.06510417 6.15234375 0.09765625 C6.15234375 3.39765625 6.15234375 6.69765625 6.15234375 10.09765625 C4.17234375 10.75765625 2.19234375 11.41765625 0.15234375 12.09765625 C-0.17765625 31.23765625 -0.50765625 50.37765625 -0.84765625 70.09765625 C-1.50765625 69.76765625 -2.16765625 69.43765625 -2.84765625 69.09765625 C-2.87078214 60.24883235 -2.88857259 51.40001878 -2.89946842 42.5511713 C-2.90469671 38.4427134 -2.91179338 34.33427611 -2.9230957 30.22583008 C-2.9339265 26.26418797 -2.93993349 22.30256573 -2.94253349 18.34090996 C-2.94438739 16.82617314 -2.94800735 15.31143746 -2.95338631 13.79670906 C-2.96059932 11.68223812 -2.96164708 9.56785031 -2.96118164 7.45336914 C-2.96340225 6.24757706 -2.96562286 5.04178497 -2.96791077 3.79945374 C-2.80540025 0.14827697 -2.80540025 0.14827697 0 0 Z " fill="#ACADAF" transform="translate(109.84765625,43.90234375)"/>
<path d="M0 0 C3.0625 0.3125 3.0625 0.3125 4.9375 1.4375 C6.60913625 4.22356042 6.52626624 6.13238862 6.0625 9.3125 C4.4375 11.25 4.4375 11.25 2.0625 12.3125 C-1.0625 12.1875 -1.0625 12.1875 -3.9375 11.3125 C-5.9375 8.3125 -5.9375 8.3125 -5.6875 5.25 C-4.69210355 1.35136391 -4.04786381 0.43062381 0 0 Z " fill="#BFBFC0" transform="translate(537.9375,24.6875)"/>
<path d="M0 0 C0.33 0.99 0.66 1.98 1 3 C4.63 3.33 8.26 3.66 12 4 C11.67 5.65 11.34 7.3 11 9 C7.7 9 4.4 9 1 9 C-1.09230769 4.56923077 -1.09230769 4.56923077 -0.625 1.6875 C-0.41875 1.130625 -0.2125 0.57375 0 0 Z " fill="#C8C9CA" transform="translate(302,88)"/>
<path d="M0 0 C0.33 0.66 0.66 1.32 1 2 C1.85549438 1.99214478 1.85549438 1.99214478 2.72827148 1.98413086 C5.29800323 1.96341779 7.86771747 1.9503581 10.4375 1.9375 C11.33533203 1.92912109 12.23316406 1.92074219 13.15820312 1.91210938 C14.01220703 1.90888672 14.86621094 1.90566406 15.74609375 1.90234375 C16.93223267 1.89448853 16.93223267 1.89448853 18.14233398 1.88647461 C20 2 20 2 21 3 C21.04063832 4.66617115 21.042721 6.33388095 21 8 C20.64808594 7.51789063 20.29617188 7.03578125 19.93359375 6.5390625 C17.09094426 4.27642836 14.64811752 4.51797321 11.0625 4.375 C3.38850943 4.03608559 3.38850943 4.03608559 0 3 C0 2.01 0 1.02 0 0 Z " fill="#CBCCCD" transform="translate(282,70)"/>
<path d="M0 0 C2.74086056 -0.22223194 4.43963721 -0.34781139 6.8125 1.125 C8.57002414 3.90003811 8.46822746 5.78929745 8 9 C6.375 10.9375 6.375 10.9375 4 12 C0.875 11.9375 0.875 11.9375 -2 11 C-3.375 8.9375 -3.375 8.9375 -4 7 C-3.34 7 -2.68 7 -2 7 C-1.67 7.66 -1.34 8.32 -1 9 C0.98 9 2.96 9 5 9 C5.33 7.68 5.66 6.36 6 5 C5.34 5 4.68 5 4 5 C3.67 4.01 3.34 3.02 3 2 C2.01 1.34 1.02 0.68 0 0 Z " fill="#D1D1D3" transform="translate(536,25)"/>
<path d="M0 0 C0.33 2.31 0.66 4.62 1 7 C-0.32 7.33 -1.64 7.66 -3 8 C-3.33 6.35 -3.66 4.7 -4 3 C-6.31 3 -8.62 3 -11 3 C-11 2.34 -11 1.68 -11 1 C-7.26513121 0.4254048 -3.78706732 0 0 0 Z " fill="#CACACC" transform="translate(591,86)"/>
<path d="M0 0 C0.99 0 1.98 0 3 0 C2.67 2.64 2.34 5.28 2 8 C-0.64 7.67 -3.28 7.34 -6 7 C-6 6.34 -6 5.68 -6 5 C-5.195625 4.731875 -4.39125 4.46375 -3.5625 4.1875 C-2.716875 3.795625 -1.87125 3.40375 -1 3 C-0.67 2.01 -0.34 1.02 0 0 Z " fill="#C6C7CA" transform="translate(589,45)"/>
<path d="M0 0 C2 2 2 2 2.125 5.125 C2.08375 6.07375 2.0425 7.0225 2 8 C0.68 8.33 -0.64 8.66 -2 9 C-2.33 7.02 -2.66 5.04 -3 3 C-4.65 3 -6.3 3 -8 3 C-8 2.67 -8 2.34 -8 2 C-6.71254964 1.61077082 -5.41980403 1.23901964 -4.125 0.875 C-3.04605469 0.56175781 -3.04605469 0.56175781 -1.9453125 0.2421875 C-1.30335938 0.16226563 -0.66140625 0.08234375 0 0 Z " fill="#CDCECF" transform="translate(461,85)"/>
<path d="M0 0 C0.33 0.66 0.66 1.32 1 2 C-9.01973334 3.50296 -18.93612504 2.64602167 -29 2 C-29 1.67 -29 1.34 -29 1 C-25.10423907 0.83161213 -21.20838071 0.66559171 -17.3125 0.5 C-16.20970703 0.45230469 -15.10691406 0.40460938 -13.97070312 0.35546875 C-12.90400391 0.31035156 -11.83730469 0.26523438 -10.73828125 0.21875 C-9.26935425 0.1559082 -9.26935425 0.1559082 -7.77075195 0.09179688 C-5.1778941 0.00589375 -2.59402311 -0.016562 0 0 Z " fill="#D2D2D4" transform="translate(97,69)"/>
<path d="M0 0 C0.67095703 0.61488281 0.67095703 0.61488281 1.35546875 1.2421875 C4.73744485 4.25640074 7.579668 6.66050545 12 8 C9.44855176 8.93045933 8.25993522 9.08564091 5.640625 8.22265625 C4.85171875 7.83980469 4.0628125 7.45695312 3.25 7.0625 C2.45078125 6.68222656 1.6515625 6.30195312 0.828125 5.91015625 C0.22484375 5.60980469 -0.3784375 5.30945313 -1 5 C-0.67 3.35 -0.34 1.7 0 0 Z " fill="#C7C8C9" transform="translate(565,79)"/>
<path d="M0 0 C0.33 0.66 0.66 1.32 1 2 C0.0409375 2.6496875 0.0409375 2.6496875 -0.9375 3.3125 C-3.26746003 4.91239177 -3.26746003 4.91239177 -4 8 C-3.01 8.33 -2.02 8.66 -1 9 C-1.99 9.33 -2.98 9.66 -4 10 C-5.4606285 7.35261084 -6 6.10551666 -6 3 C-4.02 2.01 -2.04 1.02 0 0 Z " fill="#CDCDCD" transform="translate(608,44)"/>
<path d="M0 0 C2.05078125 0.03255208 4.1015625 0.06510417 6.15234375 0.09765625 C4.15234375 2.09765625 4.15234375 2.09765625 1.65234375 2.53515625 C-1.19702154 2.87421185 -1.19702154 2.87421185 -2.84765625 6.09765625 C-2.89037725 4.4315372 -2.88829457 2.7638274 -2.84765625 1.09765625 C-1.84765625 0.09765625 -1.84765625 0.09765625 0 0 Z " fill="#C9CCCC" transform="translate(315.84765625,71.90234375)"/>
<path d="M0 0 C2 3 2 3 1.7578125 5.48046875 C1.54898437 6.37378906 1.34015625 7.26710938 1.125 8.1875 C0.92132813 9.08855469 0.71765625 9.98960938 0.5078125 10.91796875 C0.25644531 11.94857422 0.25644531 11.94857422 0 13 C-0.33 13 -0.66 13 -1 13 C-1.22151549 11.20991533 -1.42682213 9.41781838 -1.625 7.625 C-1.74101562 6.62726562 -1.85703125 5.62953125 -1.9765625 4.6015625 C-1.98429687 3.74304687 -1.99203125 2.88453125 -2 2 C-1.34 1.34 -0.68 0.68 0 0 Z " fill="#A7A8A9" transform="translate(355,31)"/>
<path d="M0 0 C2 1.375 2 1.375 4 3 C4 3.66 4 4.32 4 5 C3.01 5.33 2.02 5.66 1 6 C0.01 5.01 -0.98 4.02 -2 3 C-1.34 2.01 -0.68 1.02 0 0 Z " fill="#C4C5C7" transform="translate(147,49)"/>
<path d="" fill="#FFFFFF" transform="translate(0,0)"/>
</svg>
