<?xml version="1.0" encoding="UTF-8"?>
<svg version="1.1" xmlns="http://www.w3.org/2000/svg" width="670" height="143">
<path d="M0 0 C1.51400391 0.01740234 1.51400391 0.01740234 3.05859375 0.03515625 C4.07050781 0.04417969 5.08242187 0.05320313 6.125 0.0625 C7.29869141 0.07990234 7.29869141 0.07990234 8.49609375 0.09765625 C8.82609375 1.41765625 9.15609375 2.73765625 9.49609375 4.09765625 C10.07875 3.80890625 10.66140625 3.52015625 11.26171875 3.22265625 C19.20363947 -0.37368521 27.20574417 -1.48109322 35.68359375 1.09765625 C42.81203515 4.26750597 48.74288427 9.99490546 51.78515625 17.16796875 C52.01976562 17.80476563 52.254375 18.4415625 52.49609375 19.09765625 C52.92921875 20.23203125 53.36234375 21.36640625 53.80859375 22.53515625 C55.59944062 31.81499914 52.5116764 39.2580825 47.49609375 47.09765625 C42.22604463 53.37521476 36.14297866 56.36429457 28.08984375 57.41015625 C23.16491386 57.65951979 19.28096648 56.82417264 14.67578125 55.0703125 C13.21374268 54.51935913 13.21374268 54.51935913 11.72216797 53.95727539 C10.98756348 53.67360107 10.25295898 53.38992676 9.49609375 53.09765625 C9.4710376 53.97091553 9.44598145 54.8441748 9.42016602 55.74389648 C9.32521666 58.97368177 9.22597346 62.20329779 9.1237793 65.43286133 C9.08037941 66.83254824 9.03870811 68.23228984 8.9987793 69.63208008 C8.9411993 71.6402712 8.87695375 73.64826774 8.8125 75.65625 C8.77584229 76.86595459 8.73918457 78.07565918 8.70141602 79.32202148 C8.49609375 82.09765625 8.49609375 82.09765625 7.49609375 83.09765625 C5.83180324 83.19589562 4.16327444 83.22739256 2.49609375 83.22265625 C1.13484375 83.22652344 1.13484375 83.22652344 -0.25390625 83.23046875 C-2.50390625 83.09765625 -2.50390625 83.09765625 -3.50390625 82.09765625 C-3.60426441 79.57763174 -3.64008337 77.08499425 -3.63330078 74.56445312 C-3.6350531 73.77587418 -3.63680542 72.98729523 -3.63861084 72.17481995 C-3.64302983 69.55532665 -3.64009121 66.93590029 -3.63671875 64.31640625 C-3.63739178 62.50419095 -3.63836179 60.69197573 -3.63961792 58.87976074 C-3.64109496 55.07657006 -3.63894015 51.27340281 -3.63427734 47.47021484 C-3.62858005 42.5838713 -3.63185903 37.69758268 -3.63784981 32.81124115 C-3.64145526 29.06760236 -3.64031691 25.3239767 -3.63772202 21.58033752 C-3.6370527 19.77812188 -3.63788132 17.97590507 -3.64020157 16.1736908 C-3.64272784 13.65938134 -3.63888787 11.14516208 -3.63330078 8.63085938 C-3.63532501 7.87861588 -3.63734924 7.12637238 -3.63943481 6.35133362 C-3.61373734 0.14094139 -3.61373734 0.14094139 0 0 Z M13.765625 15.75390625 C9.4644709 20.57610277 8.13084032 24.29223658 8.21484375 30.75 C8.81881739 35.79150217 11.38182874 39.08951172 15.12109375 42.47265625 C20.29606684 46.01342731 25.36256067 45.652327 31.49609375 45.09765625 C36.96839777 42.70974177 40.22281048 38.54005051 42.49609375 33.09765625 C43.58085361 28.08501595 42.90763355 24.2241009 40.37109375 19.78515625 C37.42302526 15.6512725 34.39386739 12.86050708 29.359375 11.53515625 C23.26520056 10.54187824 18.41095091 11.30781553 13.765625 15.75390625 Z " fill="#BBBCBE" transform="translate(139.50390625,46.90234375)"/>
<path d="M0 0 C7.00351273 4.83950599 12.3964665 11.46452483 14 20 C14.12205329 22.67540816 14.04467313 25.31961238 14 28 C9.33298903 29.15748463 4.75972901 29.21985583 -0.01953125 29.31640625 C-0.87810226 29.33718735 -1.73667328 29.35796844 -2.6212616 29.37937927 C-5.35159654 29.44452523 -8.08202395 29.50359654 -10.8125 29.5625 C-12.66862918 29.6057185 -14.52474916 29.64933384 -16.38085938 29.69335938 C-20.92047925 29.80017061 -25.46019172 29.90153565 -30 30 C-27.55068263 35.21997375 -25.24433143 38.37783429 -20 41 C-13.7882863 41.52779267 -8.241651 41.74403643 -3 38 C-2.2575 36.948125 -1.515 35.89625 -0.75 34.8125 C2 32 2 32 4.53515625 31.61328125 C7.04934299 31.62388963 9.50026296 31.73789165 12 32 C13 35 13 35 12.06640625 37.26953125 C7.37351599 45.20478206 1.95523814 50.61772903 -6.94140625 53.53125 C-14.14553435 55.17165868 -21.3130019 54.04150559 -28 51 C-34.62930165 46.61909786 -39.48403858 40.54788425 -42 33 C-43.10522173 15.08265547 -43.10522173 15.08265547 -37.11328125 7.6640625 C-27.55203059 -2.64807171 -13.07558393 -7.81752997 0 0 Z M-26.9375 13.625 C-29.10928111 15.60157929 -29.10928111 15.60157929 -29 17 C-19.43 17 -9.86 17 0 17 C-2.27034826 12.45930349 -3.57032737 11.33564557 -8 9 C-15.55446055 6.96716334 -21.02178137 8.33861314 -26.9375 13.625 Z " fill="#BEC0C1" transform="translate(255,50)"/>
<path d="M0 0 C8.38666765 4.44724211 12.99562665 9.54710932 16.35546875 18.48046875 C17.44788254 22.36289711 17.57207396 25.43793085 17.1875 29.4375 C12.19347153 30.41884406 7.35754074 30.64805382 2.2890625 30.75390625 C1.45410248 30.77468735 0.61914246 30.79546844 -0.24111938 30.81687927 C-2.8898349 30.88189469 -5.53864359 30.94103491 -8.1875 31 C-9.99089478 31.04323096 -11.79428038 31.08684666 -13.59765625 31.13085938 C-18.00251039 31.23752639 -22.4074576 31.33892695 -26.8125 31.4375 C-24.36318263 36.65747375 -22.05683143 39.81533429 -16.8125 42.4375 C-11.0299495 42.84379031 -5.07670326 43.13709142 0.1875 40.4375 C1.27916275 38.50419397 1.27916275 38.50419397 2.1875 36.4375 C4.61509464 34.30415926 6.25520972 33.42185755 9.515625 33.4765625 C11.75892275 33.72346634 13.96704358 34.03597956 16.1875 34.4375 C13.11492825 43.81692956 9.10113818 48.22953727 0.6875 53.23828125 C-6.34560957 56.611976 -14.07813088 56.23484992 -21.375 53.9375 C-28.59881355 51.05404501 -33.61755764 46.19841271 -37.3125 39.375 C-40.31006291 31.6535991 -40.27800156 21.94293623 -37.0625 14.3125 C-36.35071832 12.99938553 -35.60486435 11.70362066 -34.8125 10.4375 C-34.27625 9.550625 -33.74 8.66375 -33.1875 7.75 C-24.33023257 -0.87418145 -11.84748312 -4.83823918 0 0 Z M-22.8125 13.4375 C-24.2975 15.9125 -24.2975 15.9125 -25.8125 18.4375 C-16.2425 18.4375 -6.6725 18.4375 3.1875 18.4375 C-0.10288432 12.95352613 -2.01026862 11.44679124 -7.8125 9.4375 C-13.47779231 8.62817253 -18.26569077 9.98785561 -22.8125 13.4375 Z " fill="#BFC0C2" transform="translate(115.8125,48.5625)"/>
<path d="M0 0 C0.33 -1.32 0.66 -2.64 1 -4 C4.63 -4 8.26 -4 12 -4 C12.02255606 3.28421977 12.04091801 10.56842059 12.05181217 17.85266781 C12.05703975 21.23471813 12.06413511 24.6167434 12.07543945 27.9987793 C12.08834267 31.88329777 12.09322924 35.76780597 12.09765625 39.65234375 C12.10281754 40.87211411 12.10797882 42.09188446 12.11329651 43.34861755 C12.11337204 44.46970413 12.11344757 45.59079071 12.11352539 46.74584961 C12.115746 47.73846298 12.11796661 48.73107635 12.12025452 49.75376892 C12 52 12 52 11 53 C9.30858344 52.91036938 7.62040398 52.75422324 5.9375 52.5625 C5.01839844 52.46066406 4.09929687 52.35882813 3.15234375 52.25390625 C2.44207031 52.17011719 1.73179687 52.08632812 1 52 C1 50.68 1 49.36 1 48 C0.46632813 48.27714844 -0.06734375 48.55429688 -0.6171875 48.83984375 C-8.50299349 52.67360064 -16.17396982 54.14186053 -24.7734375 51.84765625 C-32.26546984 48.99542639 -38.08172103 43.98866806 -42 37 C-45.11621466 29.25765224 -45.59338531 19.86708438 -42.375 12.0625 C-37.9938599 3.8630746 -32.7165108 -0.65820672 -24 -4 C-15.0384268 -6.20108815 -7.86431546 -4.43261417 0 0 Z M-30.38671875 13.5390625 C-33.60803579 18.30887229 -33.88923711 23.41307595 -33 29 C-31.27352334 33.85629264 -28.26702462 37.15531692 -24 40 C-18.96702758 41.67765747 -13.76983295 41.96731815 -8.70703125 40.19921875 C-3.94902978 37.60151063 -1.45318454 34.46300626 0.44140625 29.40234375 C1.71960532 23.9051939 0.85886495 19.62570866 -1.75 14.6875 C-5.24151523 10.51707903 -8.44047502 7.49145315 -13.98046875 6.7265625 C-20.91427075 6.40748489 -25.70182741 8.33949296 -30.38671875 13.5390625 Z " fill="#BCBDBF" transform="translate(442,51)"/>
<path d="M0 0 C3.63 0 7.26 0 11 0 C11.33 9.57 11.66 19.14 12 29 C14.97 27.68 17.94 26.36 21 25 C29.24078913 23.87135214 37.124867 23.99990327 44 29 C45.051875 29.721875 46.10375 30.44375 47.1875 31.1875 C55.56984818 39.56984818 57.0485547 49.68513334 57.23046875 61.1640625 C57.22653774 63.6510798 57.21208433 66.1381011 57.1875 68.625 C57.18685547 69.90246094 57.18621094 71.17992188 57.18554688 72.49609375 C57.14067516 81.85932484 57.14067516 81.85932484 56 83 C54.31391034 83.07205511 52.62499341 83.08386068 50.9375 83.0625 C49.55884766 83.04896484 49.55884766 83.04896484 48.15234375 83.03515625 C47.08693359 83.01775391 47.08693359 83.01775391 46 83 C44.85262407 79.55787221 44.85721005 76.83678582 44.82421875 73.20703125 C44.80100423 71.84047966 44.77688625 70.47394318 44.75195312 69.10742188 C44.71699953 66.96596392 44.68757919 64.82505672 44.67407227 62.68334961 C44.65577429 51.2302573 44.65577429 51.2302573 40 41 C36.59053448 37.9629971 32.39192812 36.77882798 27.875 36.5625 C22.30409416 37.19147324 18.84839802 38.79519713 15.1875 43 C11.96803368 47.4152681 11.81226656 51.02304355 11.68359375 56.29296875 C11.66281265 56.99899734 11.64203156 57.70502594 11.62062073 58.43244934 C11.55532509 60.68403551 11.49633353 62.93573662 11.4375 65.1875 C11.39429575 66.7155066 11.35068084 68.24350164 11.30664062 69.77148438 C11.19966426 73.51420562 11.09834078 77.2570423 11 81 C9 82 9 82 -1 81 C-0.67 54.27 -0.34 27.54 0 0 Z " fill="#B8BABB" transform="translate(516,22)"/>
<path d="M0 0 C1.09376953 -0.00128906 2.18753906 -0.00257812 3.31445312 -0.00390625 C5.01311523 0.00189453 5.01311523 0.00189453 6.74609375 0.0078125 C7.88240234 0.00394531 9.01871094 0.00007813 10.18945312 -0.00390625 C11.28193359 -0.00261719 12.37441406 -0.00132813 13.5 0 C14.49459229 0.00112793 15.48918457 0.00225586 16.51391602 0.00341797 C19.18359375 0.1328125 19.18359375 0.1328125 23.18359375 1.1328125 C23.18359375 4.7628125 23.18359375 8.3928125 23.18359375 12.1328125 C21.79853638 12.15468628 21.79853638 12.15468628 20.38549805 12.17700195 C16.95782171 12.23807558 13.53094713 12.3122286 10.10375977 12.39526367 C8.62079521 12.42850673 7.13770431 12.45654073 5.65454102 12.47924805 C3.52175082 12.51280718 1.39011763 12.56511888 -0.7421875 12.62109375 C-2.66671753 12.66036987 -2.66671753 12.66036987 -4.63012695 12.70043945 C-7.77100379 12.88041221 -7.77100379 12.88041221 -9.77807617 14.49682617 C-11.09534645 16.19275416 -11.09534645 16.19275416 -10.50390625 18.8203125 C-10.27703125 19.5834375 -10.05015625 20.3465625 -9.81640625 21.1328125 C-9.23375 21.27976562 -8.65109375 21.42671875 -8.05078125 21.578125 C9.17447276 26.29069449 9.17447276 26.29069449 14.00390625 32.45703125 C16.11105556 37.23649242 15.80114022 42.01897264 15.18359375 47.1328125 C12.89252334 52.06742569 9.8896921 54.48563218 5.18359375 57.1328125 C1.55788374 58.37252254 -1.96348581 58.24659606 -5.76953125 58.23046875 C-6.42975281 58.2290538 -7.08997437 58.22763885 -7.77020264 58.22618103 C-9.86898419 58.22060495 -11.9676572 58.20805697 -14.06640625 58.1953125 C-15.49348804 58.1902944 -16.9205715 58.18573204 -18.34765625 58.18164062 C-21.83727457 58.17064338 -25.32682981 58.1533953 -28.81640625 58.1328125 C-28.81640625 54.5028125 -28.81640625 50.8728125 -28.81640625 47.1328125 C-22.67211197 46.54764162 -16.67608428 46.0782674 -10.50390625 46.1953125 C-5.83936614 46.25047789 -2.19057837 45.72342054 2.18359375 44.1328125 C2.51359375 42.8128125 2.84359375 41.4928125 3.18359375 40.1328125 C-0.72619671 36.69934169 -5.26202595 35.58644199 -10.15234375 34.203125 C-15.6827325 32.50832845 -19.82699395 30.07066555 -23.16015625 25.1484375 C-24.79716845 20.12047146 -24.94104797 14.58221013 -22.71875 9.7421875 C-18.88031466 4.21484062 -14.96945254 2.11857346 -8.46508789 0.57470703 C-5.59815349 0.09640016 -2.906081 0.00329194 0 0 Z " fill="#BEBFC0" transform="translate(619.81640625,45.8671875)"/>
<path d="M0 0 C17.16 0 34.32 0 52 0 C52 12.37087659 52 12.37087659 48.81640625 16.2109375 C48.13964844 17.05760986 47.46289062 17.90428223 46.765625 18.77661133 C46.03859375 19.63407959 45.3115625 20.49154785 44.5625 21.375 C43.09292254 23.19750364 41.62546746 25.02172074 40.16015625 26.84765625 C39.44617676 27.72309082 38.73219727 28.59852539 37.99658203 29.50048828 C35.3351059 32.83237782 32.8869042 36.28078916 30.5 39.8125 C29.8090625 40.82957031 29.118125 41.84664062 28.40625 42.89453125 C27.9421875 43.58933594 27.478125 44.28414062 27 45 C28.21816406 44.98839844 29.43632813 44.97679687 30.69140625 44.96484375 C32.31510262 44.95545822 33.93880067 44.94635884 35.5625 44.9375 C36.36236328 44.92912109 37.16222656 44.92074219 37.98632812 44.91210938 C42.77163104 44.89257753 47.28145051 45.19562982 52 46 C52.02688151 47.64574566 52.04634123 49.29161413 52.0625 50.9375 C52.07410156 51.85402344 52.08570313 52.77054688 52.09765625 53.71484375 C52 56 52 56 51 57 C48.12735944 57.10106874 45.27926372 57.13969672 42.40625 57.1328125 C41.54439087 57.13376923 40.68253174 57.13472595 39.79455566 57.13571167 C37.96866788 57.1363935 36.14277769 57.13453904 34.31689453 57.13037109 C31.51198922 57.12502286 28.70724405 57.13031599 25.90234375 57.13671875 C24.13281214 57.13605797 22.36328064 57.13477681 20.59375 57.1328125 C19.74897095 57.13483673 18.90419189 57.13686096 18.03381348 57.13894653 C12.11495031 57.11495031 12.11495031 57.11495031 11 56 C10.09232506 50.42705617 10.45414111 46.10056231 13.67578125 41.39453125 C14.86436518 39.8487072 16.07784838 38.3217843 17.3125 36.8125 C18.59288988 35.16701047 19.87283156 33.5211721 21.15234375 31.875 C22.11889893 30.65683594 22.11889893 30.65683594 23.10498047 29.4140625 C25.95627536 25.78180227 28.66345303 22.04943599 31.375 18.3125 C32.90125 16.229375 34.4275 14.14625 36 12 C24.12 11.67 12.24 11.34 0 11 C0 7.37 0 3.74 0 0 Z " fill="#BEBEC0" transform="translate(26,47)"/>
<path d="M0 0 C3.73048199 3.92682315 7 8.44510949 7 14 C3.27155733 14.35260228 -0.2827131 14.52126261 -4 14 C-6.8125 11.1875 -6.8125 11.1875 -9 8 C-13.84288705 4.69803156 -18.3099197 4.26315507 -24 5 C-29.27322153 6.82534591 -31.79691086 9.60719203 -35 14 C-36.78816966 19.36450899 -36.68834152 24.10384524 -34.4375 29.25 C-32.12205859 33.34841198 -29.52819923 35.63380706 -25 37 C-19.0414422 37.82154442 -14.06446784 37.49689446 -9 34 C-8.46375 33.13375 -7.9275 32.2675 -7.375 31.375 C-3.45353045 27.45353045 1.66545851 28.09226408 7 28 C7.33 28.66 7.66 29.32 8 30 C4.61532031 37.74652631 -0.64883485 44.38769134 -8.3125 48.12890625 C-16.10234433 50.9127769 -24.71428289 50.76994807 -32.3125 47.375 C-40.19289712 42.82042536 -45.15475455 36.15081815 -47.75 27.5 C-48.71965177 17.80348233 -47.22356213 9.77945266 -41 2 C-35.39801223 -3.69977809 -29.3109896 -7.26871521 -21.1640625 -7.9921875 C-12.76437102 -8.0225113 -6.43083697 -5.31071168 0 0 Z " fill="#BEBFC1" transform="translate(505,54)"/>
<path d="M0 0 C1.64990234 1.86669922 1.64990234 1.86669922 3.0859375 4.3046875 C3.6212207 5.19381836 4.15650391 6.08294922 4.70800781 6.99902344 C5.25811523 7.9480957 5.80822266 8.89716797 6.375 9.875 C7.52306571 11.79449326 8.67150004 13.71376608 9.8203125 15.6328125 C10.36719727 16.55868164 10.91408203 17.48455078 11.47753906 18.43847656 C13.34539991 21.58113146 15.28097587 24.66982532 17.25 27.75 C17.77078125 28.56984375 18.2915625 29.3896875 18.828125 30.234375 C19.8806006 31.94664093 19.8806006 31.94664093 21 33 C21.34780518 32.07662842 21.69561035 31.15325684 22.05395508 30.2019043 C23.34852138 26.77152555 24.65372691 23.34527766 25.9621582 19.92016602 C26.52658689 18.43819635 27.088138 16.95512734 27.64672852 15.47094727 C28.45091815 13.33573443 29.26543024 11.20471074 30.08203125 9.07421875 C30.32903275 8.41161545 30.57603424 7.74901215 30.83052063 7.06632996 C32.09027733 3.81007546 33.13770661 1.11127665 36 -1 C38.26171875 -1.29296875 38.26171875 -1.29296875 40.6875 -1.1875 C41.89986328 -1.14689453 41.89986328 -1.14689453 43.13671875 -1.10546875 C43.75160156 -1.07066406 44.36648438 -1.03585938 45 -1 C44.37269736 3.94652261 42.88995987 8.34277086 41.078125 12.95703125 C40.78155502 13.72549881 40.48498505 14.49396637 40.1794281 15.28572083 C39.20855978 17.79686146 38.22944222 20.3046925 37.25 22.8125 C36.57487251 24.55306594 35.90015355 26.29379038 35.22583008 28.03466797 C28.23583422 46.05561977 21.18910185 64.05743419 14 82 C10.7 82 7.4 82 4 82 C2.66108607 77.98325822 4.06878984 75.61561969 5.59765625 71.8828125 C6.15731266 70.45719277 6.71654429 69.03140622 7.27539062 67.60546875 C8.16694708 65.36245126 9.06378578 63.12182175 9.96899414 60.88427734 C10.83929295 58.72269797 11.6882745 56.55365267 12.53515625 54.3828125 C12.81110123 53.71806915 13.0870462 53.05332581 13.37135315 52.36843872 C14.51481566 49.40871353 15.12336882 47.49886336 14.3515625 44.37792969 C13.90554688 43.59321289 13.45953125 42.80849609 13 42 C12.51781006 41.13391113 12.03562012 40.26782227 11.53881836 39.37548828 C10.97815674 38.44978027 10.41749512 37.52407227 9.83984375 36.5703125 C8.90217163 35.01582397 8.90217163 35.01582397 7.94555664 33.42993164 C7.28289795 32.3393042 6.62023926 31.24867676 5.9375 30.125 C5.26517334 29.0105249 4.59284668 27.8960498 3.90014648 26.74780273 C0.94747945 21.85482177 -2.01723554 16.96930174 -4.9921875 12.08984375 C-5.62435181 11.04836182 -5.62435181 11.04836182 -6.26928711 9.98583984 C-7.02904327 8.73498111 -7.79267692 7.4864665 -8.56079102 6.24072266 C-11 2.22411476 -11 2.22411476 -11 0 C-6.98608309 -0.84012214 -3.93440077 -1.26046114 0 0 Z " fill="#BDBEBF" transform="translate(356,47)"/>
<path d="M0 0 C1.35568336 0.00333092 1.35568336 0.00333092 2.73875427 0.00672913 C3.75973709 0.00680466 4.78071991 0.00688019 5.8326416 0.00695801 C6.94304306 0.01211929 8.05344452 0.01728058 9.19749451 0.02259827 C10.89336952 0.02472069 10.89336952 0.02472069 12.62350464 0.02688599 C16.25105891 0.03250433 19.8785525 0.04505994 23.50608826 0.05775452 C25.95856133 0.06276715 28.41103536 0.06733047 30.86351013 0.07142639 C36.89022639 0.08247972 42.91689702 0.09975664 48.94358826 0.12025452 C48.94358826 3.75025452 48.94358826 7.38025452 48.94358826 11.12025452 C35.74358826 11.12025452 22.54358826 11.12025452 8.94358826 11.12025452 C8.95518982 14.35709045 8.96679138 17.59392639 8.97874451 20.92884827 C8.98653413 24.04969688 8.99261143 27.17054442 8.9985199 30.29139709 C9.00356133 32.46718324 9.01039433 34.64296598 9.01902771 36.81874084 C9.03110164 39.93878519 9.0368183 43.0587849 9.04124451 46.17884827 C9.04640579 47.15800705 9.05156708 48.13716583 9.05688477 49.14599609 C9.0569603 50.0468544 9.05703583 50.94771271 9.05711365 51.87586975 C9.05933426 52.67306931 9.06155487 53.47026886 9.06384277 54.29162598 C8.94358826 56.12025452 8.94358826 56.12025452 7.94358826 57.12025452 C6.27929774 57.21849389 4.61076895 57.24999083 2.94358826 57.24525452 C1.58233826 57.2491217 1.58233826 57.2491217 0.19358826 57.25306702 C-2.05641174 57.12025452 -2.05641174 57.12025452 -3.05641174 56.12025452 C-3.15522768 54.40706506 -3.18440144 52.68980649 -3.18580627 50.97377014 C-3.19053452 49.32701294 -3.19053452 49.32701294 -3.19535828 47.64698792 C-3.19333405 46.45222839 -3.19130981 45.25746887 -3.18922424 44.02650452 C-3.19018097 42.80950867 -3.1911377 41.59251282 -3.19212341 40.33863831 C-3.19280546 37.75949553 -3.19094946 35.18035105 -3.18678284 32.60121155 C-3.18143497 28.63746816 -3.18672704 24.6738381 -3.19313049 20.71009827 C-3.19246972 18.2114001 -3.19118856 15.712702 -3.18922424 13.21400452 C-3.19124847 12.019245 -3.19327271 10.82448547 -3.19535828 9.59352112 C-3.19220612 8.49568298 -3.18905396 7.39784485 -3.18580627 6.26673889 C-3.18501068 5.29490662 -3.18421509 4.32307434 -3.18339539 3.3217926 C-3.01726591 0.44157626 -2.8787819 0.16834495 0 0 Z " fill="#C1C2C4" transform="translate(275.05641174316406,46.87974548339844)"/>
<path d="M0 0 C0.9075 0.00257812 1.815 0.00515625 2.75 0.0078125 C4.11125 0.00394531 4.11125 0.00394531 5.5 0 C7.75 0.1328125 7.75 0.1328125 8.75 1.1328125 C8.83726223 2.91352496 8.85699041 4.6976439 8.84765625 6.48046875 C8.84443359 7.56005859 8.84121094 8.63964844 8.83789062 9.75195312 C8.82951172 10.88826172 8.82113281 12.02457031 8.8125 13.1953125 C8.80798828 14.33548828 8.80347656 15.47566406 8.79882812 16.65039062 C8.78699747 19.47791601 8.7705141 22.3053389 8.75 25.1328125 C11.06 25.1328125 13.37 25.1328125 15.75 25.1328125 C16.79028969 28.51375399 16.90672777 31.60643778 16.75 35.1328125 C15.75 36.1328125 15.75 36.1328125 12.1875 36.1953125 C11.053125 36.1746875 9.91875 36.1540625 8.75 36.1328125 C8.75222061 36.69435532 8.75444122 37.25589813 8.75672913 37.8344574 C8.77878306 43.65761685 8.79390705 49.48076451 8.80493164 55.30395508 C8.80997308 57.47974123 8.81680607 59.65552397 8.82543945 61.83129883 C8.83751338 64.95134317 8.84323005 68.07134288 8.84765625 71.19140625 C8.85281754 72.17056503 8.85797882 73.14972382 8.86329651 74.15855408 C8.86340981 75.50984154 8.86340981 75.50984154 8.86352539 76.88842773 C8.865746 77.68562729 8.86796661 78.48282684 8.87025452 79.30418396 C8.75 81.1328125 8.75 81.1328125 7.75 82.1328125 C6.08570949 82.23105187 4.41718069 82.26254881 2.75 82.2578125 C1.38875 82.26167969 1.38875 82.26167969 0 82.265625 C-2.25 82.1328125 -2.25 82.1328125 -3.25 81.1328125 C-3.3427833 79.75121135 -3.36747043 78.36493212 -3.36352539 76.98022461 C-3.36341209 75.65896828 -3.36341209 75.65896828 -3.36329651 74.3110199 C-3.35555458 72.87509239 -3.35555458 72.87509239 -3.34765625 71.41015625 C-3.3462413 70.43494522 -3.34482635 69.45973419 -3.34336853 68.45497131 C-3.33775133 65.32672107 -3.32519593 62.19854127 -3.3125 59.0703125 C-3.30748722 56.95507916 -3.30292393 54.83984469 -3.29882812 52.72460938 C-3.28777631 47.52731954 -3.27102146 42.33007105 -3.25 37.1328125 C-4.9 36.4728125 -6.55 35.8128125 -8.25 35.1328125 C-8.25 32.1628125 -8.25 29.1928125 -8.25 26.1328125 C-6.6 25.4728125 -4.95 24.8128125 -3.25 24.1328125 C-3.25523682 23.44131104 -3.26047363 22.74980957 -3.26586914 22.03735352 C-3.286575 18.92334898 -3.29963963 15.80935889 -3.3125 12.6953125 C-3.32087891 11.60669922 -3.32925781 10.51808594 -3.33789062 9.39648438 C-3.34111328 8.36201172 -3.34433594 7.32753906 -3.34765625 6.26171875 C-3.35289307 5.30338135 -3.35812988 4.34504395 -3.36352539 3.35766602 C-3.20922332 0.33367726 -3.02201977 0.17838311 0 0 Z " fill="#BBBCBE" transform="translate(199.25,21.8671875)"/>
<path d="M0 0 C1.37478516 0.01740234 1.37478516 0.01740234 2.77734375 0.03515625 C3.69644531 0.04417969 4.61554687 0.05320312 5.5625 0.0625 C6.27277344 0.07410156 6.98304688 0.08570312 7.71484375 0.09765625 C8.69528339 3.03897516 8.83105577 4.9226729 8.8125 7.984375 C8.80927734 8.92216797 8.80605469 9.85996094 8.80273438 10.82617188 C8.79435547 11.80263672 8.78597656 12.77910156 8.77734375 13.78515625 C8.77283203 14.77322266 8.76832031 15.76128906 8.76367188 16.77929688 C8.75188678 19.21881099 8.73543386 21.65820314 8.71484375 24.09765625 C10.16890625 24.06671875 10.16890625 24.06671875 11.65234375 24.03515625 C14.71484375 24.09765625 14.71484375 24.09765625 15.71484375 25.09765625 C15.78689886 26.78374591 15.79870443 28.47266284 15.77734375 30.16015625 C15.76832031 31.07925781 15.75929688 31.99835937 15.75 32.9453125 C15.73839844 33.65558594 15.72679687 34.36585937 15.71484375 35.09765625 C13.40484375 35.75765625 11.09484375 36.41765625 8.71484375 37.09765625 C8.71706436 37.64667099 8.71928497 38.19568573 8.72157288 38.76133728 C8.74362733 44.45473584 8.75875101 50.14812235 8.76977539 55.84155273 C8.77481673 57.96883639 8.78164966 60.09611656 8.7902832 62.22338867 C8.80235754 65.27393451 8.80807389 68.3244347 8.8125 71.375 C8.81766129 72.332285 8.82282257 73.28957001 8.82814026 74.27586365 C8.82825356 75.59711998 8.82825356 75.59711998 8.82836914 76.94506836 C8.83058975 77.72450302 8.83281036 78.50393768 8.83509827 79.30699158 C8.71484375 81.09765625 8.71484375 81.09765625 7.71484375 82.09765625 C6.05055324 82.19589562 4.38202444 82.22739256 2.71484375 82.22265625 C1.35359375 82.22652344 1.35359375 82.22652344 -0.03515625 82.23046875 C-2.28515625 82.09765625 -2.28515625 82.09765625 -3.28515625 81.09765625 C-3.37802885 79.68540579 -3.40262397 78.26856691 -3.39868164 76.85327148 C-3.39860611 75.95241318 -3.39853058 75.05155487 -3.39845276 74.12339783 C-3.39329147 73.14423904 -3.38813019 72.16508026 -3.3828125 71.15625 C-3.38139755 70.15884293 -3.3799826 69.16143585 -3.37852478 68.13380432 C-3.37290739 64.93422501 -3.36035196 61.73471456 -3.34765625 58.53515625 C-3.34264349 56.3717458 -3.3380802 54.20833426 -3.33398438 52.04492188 C-3.32293232 46.729143 -3.30617729 41.41340454 -3.28515625 36.09765625 C-4.93515625 36.09765625 -6.58515625 36.09765625 -8.28515625 36.09765625 C-8.28515625 32.46765625 -8.28515625 28.83765625 -8.28515625 25.09765625 C-6.63515625 25.09765625 -4.98515625 25.09765625 -3.28515625 25.09765625 C-3.29039307 24.37586182 -3.29562988 23.65406738 -3.30102539 22.91040039 C-3.32172983 19.66032776 -3.33479543 16.41026897 -3.34765625 13.16015625 C-3.35603516 12.02384766 -3.36441406 10.88753906 -3.37304688 9.71679688 C-3.37626953 8.63720703 -3.37949219 7.55761719 -3.3828125 6.4453125 C-3.38804932 5.44508057 -3.39328613 4.44484863 -3.39868164 3.41430664 C-3.24636591 0.30608305 -3.10907208 0.13286633 0 0 Z " fill="#BABBBD" transform="translate(579.28515625,21.90234375)"/>
<path d="M0 0 C1.8046875 1.125 1.8046875 1.125 3.4375 2.3125 C4.489375 3.034375 5.54125 3.75625 6.625 4.5 C15.00734818 12.88234818 16.4860547 22.99763334 16.66796875 34.4765625 C16.66403774 36.9635798 16.64958433 39.4506011 16.625 41.9375 C16.62435547 43.21496094 16.62371094 44.49242187 16.62304688 45.80859375 C16.57817516 55.17182484 16.57817516 55.17182484 15.4375 56.3125 C13.75141034 56.38455511 12.06249341 56.39636068 10.375 56.375 C9.45589844 56.36597656 8.53679688 56.35695312 7.58984375 56.34765625 C6.87957031 56.33605469 6.16929687 56.32445312 5.4375 56.3125 C4.29012407 52.87037221 4.29471005 50.14928582 4.26171875 46.51953125 C4.23850423 45.15297966 4.21438625 43.78644318 4.18945312 42.41992188 C4.15449953 40.27846392 4.12507919 38.13755672 4.11157227 35.99584961 C4.09327429 24.5427573 4.09327429 24.5427573 -0.5625 14.3125 C-4.02244146 11.23053533 -8.16719601 10.0952946 -12.75 10 C-15.78629011 10.24887624 -18.61233378 10.57495845 -21.5625 11.3125 C-21.2325 10.6525 -20.9025 9.9925 -20.5625 9.3125 C-19.5725 9.3125 -18.5825 9.3125 -17.5625 9.3125 C-17.8925 7.9925 -18.2225 6.6725 -18.5625 5.3125 C-19.5525 5.3125 -20.5425 5.3125 -21.5625 5.3125 C-21.2325 4.3225 -20.9025 3.3325 -20.5625 2.3125 C-22.2125 1.9825 -23.8625 1.6525 -25.5625 1.3125 C-18.82591493 -3.17855672 -7.3749568 -3.55834492 0 0 Z " fill="#BEC1C2" transform="translate(556.5625,48.6875)"/>
<path d="M0 0 C2.64 0 5.28 0 8 0 C9 3 9 3 7.78515625 5.48046875 C7.21667969 6.37378906 6.64820313 7.26710938 6.0625 8.1875 C5.49660156 9.08855469 4.93070312 9.98960938 4.34765625 10.91796875 C3.90292969 11.60503906 3.45820313 12.29210937 3 13 C2.01 12.34 1.02 11.68 0 11 C0 10.01 0 9.02 0 8 C-0.33 7.01 -0.66 6.02 -1 5 C-1 2 -1 2 0 0 Z " fill="#C6C7C8" transform="translate(259,82)"/>
<path d="M0 0 C2.52831465 0.00710201 5.0127291 0.10402731 7.53125 0.3203125 C7.53125 0.6503125 7.53125 0.9803125 7.53125 1.3203125 C6.273125 1.4234375 5.015 1.5265625 3.71875 1.6328125 C1.08189273 1.96358435 -0.21424547 2.13969638 -2.40625 3.6953125 C-3.65484823 5.45445168 -3.65484823 5.45445168 -4.46875 8.3203125 C-9.78923661 11.31308622 -14.41364316 11.93051707 -20.46875 11.3203125 C-21.45875 10.9903125 -22.44875 10.6603125 -23.46875 10.3203125 C-23.13875 9.6603125 -22.80875 9.0003125 -22.46875 8.3203125 C-21.81648438 8.35511719 -21.16421875 8.38992187 -20.4921875 8.42578125 C-15.03372882 8.59484855 -11.11673977 8.52963877 -6.46875 5.3203125 C-5.6025 3.99 -5.6025 3.99 -4.71875 2.6328125 C-2.46875 0.3203125 -2.46875 0.3203125 0 0 Z " fill="#C8C8CA" transform="translate(502.46875,82.6796875)"/>
<path d="M0 0 C0.99 0.33 1.98 0.66 3 1 C3 1.66 3 2.32 3 3 C4.32 3.66 5.64 4.32 7 5 C6.34 5.66 5.68 6.32 5 7 C2.6171875 6.9765625 2.6171875 6.9765625 -0.125 6.625 C-1.03507813 6.51414062 -1.94515625 6.40328125 -2.8828125 6.2890625 C-3.93082031 6.14597656 -3.93082031 6.14597656 -5 6 C-4.34 5.67 -3.68 5.34 -3 5 C-2.34786708 2.97536745 -2.34786708 2.97536745 -2 1 C-1.67 1.66 -1.34 2.32 -1 3 C-0.67 2.01 -0.34 1.02 0 0 Z " fill="#C2C3C5" transform="translate(520,97)"/>
<path d="M0 0 C0 0.66 0 1.32 0 2 C-4.94591768 4.06079903 -8.87324445 5.13324678 -14.25 5.0625 C-15.14203125 5.05347656 -16.0340625 5.04445313 -16.953125 5.03515625 C-17.62859375 5.02355469 -18.3040625 5.01195313 -19 5 C-19.33 4.34 -19.66 3.68 -20 3 C-19.10796875 2.95101562 -18.2159375 2.90203125 -17.296875 2.8515625 C-15.54117188 2.73941406 -15.54117188 2.73941406 -13.75 2.625 C-12.00976562 2.52058594 -12.00976562 2.52058594 -10.234375 2.4140625 C-6.4083542 1.9242579 -3.81555576 0 0 0 Z " fill="#CCCCCE" transform="translate(178,89)"/>
<path d="M0 0 C0.99 0.33 1.98 0.66 3 1 C5.22818441 1.06937062 7.45834524 1.08457084 9.6875 1.0625 C10.86699219 1.05347656 12.04648438 1.04445313 13.26171875 1.03515625 C14.16535156 1.02355469 15.06898437 1.01195313 16 1 C15.67 1.99 15.34 2.98 15 4 C9.05542387 5.09644404 5.32006564 5.41029848 0 2 C0 1.34 0 0.68 0 0 Z " fill="#D3D3D4" transform="translate(96,90)"/>
<path d="M0 0 C2.31 0 4.62 0 7 0 C6.01 2.31 5.02 4.62 4 7 C3.731875 6.360625 3.46375 5.72125 3.1875 5.0625 C2.11332248 2.66868314 2.11332248 2.66868314 -1 2 C-0.67 1.34 -0.34 0.68 0 0 Z " fill="#C7C7C7" transform="translate(125,83)"/>
<path d="M0 0 C1.65 0 3.3 0 5 0 C5.33 0.66 5.66 1.32 6 2 C8.52733235 2.65555119 8.52733235 2.65555119 11 3 C11 3.33 11 3.66 11 4 C7.7 4 4.4 4 1 4 C0.67 2.68 0.34 1.36 0 0 Z " fill="#C4C4C6" transform="translate(576,100)"/>
<path d="M0 0 C0.33 0.99 0.66 1.98 1 3 C-0.25 4.5625 -0.25 4.5625 -2 6 C-3.875 5.75 -3.875 5.75 -6 5 C-7.66519519 4.65939189 -9.33157466 4.32441604 -11 4 C-11 3.67 -11 3.34 -11 3 C-10.28972656 2.86722656 -9.57945312 2.73445313 -8.84765625 2.59765625 C-7.92855469 2.42105469 -7.00945312 2.24445313 -6.0625 2.0625 C-4.68771484 1.80146484 -4.68771484 1.80146484 -3.28515625 1.53515625 C-1.04710156 1.22285012 -1.04710156 1.22285012 0 0 Z " fill="#CFD0D1" transform="translate(250,89)"/>
<path d="M0 0 C0 2.62113708 -0.31292445 4.50935112 -1 7 C-3.31 7.33 -5.62 7.66 -8 8 C-7.34 7.67 -6.68 7.34 -6 7 C-5.71125 6.38125 -5.4225 5.7625 -5.125 5.125 C-3.80519587 2.63203665 -2.32278328 1.54852219 0 0 Z " fill="#CBCCCD" transform="translate(122,82)"/>
<path d="M0 0 C0.99 0.33 1.98 0.66 3 1 C3 1.66 3 2.32 3 3 C5.31 3 7.62 3 10 3 C10.33 2.34 10.66 1.68 11 1 C11 1.99 11 2.98 11 4 C7.7 4 4.4 4 1 4 C0.67 2.68 0.34 1.36 0 0 Z " fill="#C9C9CB" transform="translate(272,100)"/>
<path d="M0 0 C0.33 0 0.66 0 1 0 C1 1.65 1 3.3 1 5 C-2.69418201 6.231394 -5.2056261 5.64432764 -9 5 C-9 4.67 -9 4.34 -9 4 C-6.36 4 -3.72 4 -1 4 C-0.67 2.68 -0.34 1.36 0 0 Z " fill="#A5A5A6" transform="translate(572,99)"/>
<path d="M0 0 C1.65 0 3.3 0 5 0 C4.01 0.495 4.01 0.495 3 1 C1.86649466 3.01669827 1.86649466 3.01669827 1 5 C0.01 5 -0.98 5 -2 5 C-1.34 3.35 -0.68 1.7 0 0 Z " fill="#C4C4C5" transform="translate(253,86)"/>
</svg>
